<?xml version="1.0" encoding="UTF-8"?>
<!DOCTYPE svg PUBLIC "-//W3C//DTD SVG 1.1//EN" "http://www.w3.org/Graphics/SVG/1.1/DTD/svg11.dtd">
<svg version="1.2" width="250mm" height="200mm" viewBox="0 0 25000 20000"
     preserveAspectRatio="xMidYMid" fill-rule="evenodd" stroke-width="28.222" stroke-linejoin="round"
     xmlns="http://www.w3.org/2000/svg"
     xmlns:xlink="http://www.w3.org/1999/xlink"
     xml:space="preserve">
  <script href="svggen.js"></script>
  <script href="svg-editor.js"></script>
  <script href="svg-animate.js"></script>
  <script href="bird.js"></script>
  <style>
    path.line {
	fill:none;
	stroke:rgb(0,0,0);
	stroke-width:75;
	stroke-linejoin:round;
	stroke-linecap:round;
    }
    path.narrow_line {
	fill:none;
	stroke:rgb(0,0,0);
	stroke-width:40;
	stroke-linejoin:round;
	stroke-linecap:round;
    }
    path.line-butt {
	fill:none;
	stroke:rgb(0,0,0);
	stroke-width:75;
	stroke-linejoin:round;
	stroke-linecap:butt;
    }
    path.line_white_fill {
	fill:rgb(255,255,255);
	stroke:rgb(0,0,0);
	stroke-width:75;
	stroke-linejoin:round;
    }
    .black_fill {
	fill:rgb(0,0,0);
	stroke:rgb(0,0,0);
	stroke-width:30;
	stroke-linejoin:round;
    }
    .orange_fill {
	fill:rgb(229,158,31);
	stroke:none;
    }
    path.eyeline {
	fill:none;
	stroke:rgb(0,0,0);
	stroke-width:50;
	stroke-linejoin:round;
    }
    path.fill {
	fill:rgb(246,6,213);
	stroke:rgb(0,0,0);
	stroke-width:75;
	stroke-linejoin:round;
    }
    .dl {
	fill:none;
	stroke:red;
	stroke-width:20;
	stroke-linejoin:round;
    }
    path.germ {
	fill:rgb(153,221,255);
	stroke:rgb(0,0,0);
	stroke-width:25;
	stroke-linejoin:round;
    }
    path.grass {
    fill:rgb(18,118,34);
    stroke:rgb(0,0,0);
    stroke-width:20;
    stroke-linejoin:miter;
    }
    path.clear {
	fill:rgb(255,255,255);
    stroke:none;
    }
    path.flower {
    fill:rgb(255,215,215);
    stroke:rgb(0,0,0);
    stroke-width:20;
    stroke-linejoin:round;
    }
    path.eye2 {
        fill:rgb(142,248,245);
        stroke:none;
    }
    .eyeball {
        fill:rgb(0,0,0);
        stroke:rgb(0,0,0);
        stroke-width:20;
        stroke-linejoin:miter;
    }
    .glare {
        fill:rgb(255,255,255);
        stroke:rgb(0,0,0);
        stroke-width:20;
        stroke-linejoin:miter;
    }
    path.butterfly {
        fill:rgb(0,235,255);
        stroke:rgb(0,0,0);
        stroke-width:15;
        stroke-linejoin:miter;
    }
    path.bline {
        fill:none;
        stroke:rgb(255,255,255);
        stroke-width:25;
        stroke-linejoin:round
    }
    .bcircle {
        fill:rgb(185,150,255);
        stroke:none;
    }
    path.bbody {
        fill:rgb(65,15,0);
        stroke:rgb(0,0,0);
        stroke-width:15;
        stroke-linejoin:miter;
    }
    path.trunk {
        fill:rgb(117,51,19);
        stroke:rgb(0,0,0);
        stroke-width:20;
        stroke-linejoin:miter;
    }
    path.bird {
	fill:rgb(187,187,187);
	stroke:rgb(0,0,0);
	stroke-width:30;
	stroke-linejoin:round;
	stroke-linecap:round;
    }
  </style>
  <g id="stars">
      <g id="star1" onclick="fly()">
       <path id="star1off" style="display:none" fill="rgb(255,255,107)" stroke="rgb(52,101,164)" d="M 2573,5592 L 3133,5464 3253,4870 3374,5464 3935,5592 3374,5718 3253,6313 3133,5718 2573,5592 Z"/>
       <path id="star1on" fill="rgb(255,255,0)" stroke="rgb(52,101,164)" d="M 2403,5592 L 3103,5433 3253,4691 3404,5433 4105,5592 3404,5750 3253,6492 3103,5750 2403,5592 Z"/>
      </g>
      <g id="star2" onclick="">
       <path id="star2off" fill="rgb(255,255,107)" stroke="rgb(52,101,164)" d="M 3143,3072 L 3703,2944 3823,2350 3944,2944 4505,3072 3944,3198 3823,3793 3703,3198 3143,3072 Z"/>
       <path id="star2on" style="display:none" fill="rgb(255,255,0)" stroke="rgb(52,101,164)" d="M 2973,3072 L 3673,2913 3823,2171 3974,2913 4675,3072 3974,3230 3823,3972 3673,3230 2973,3072 Z"/>
      </g>
      <g id="star3" onclick="">
       <path id="star3off" fill="rgb(255,255,107)" stroke="rgb(52,101,164)" d="M 5573,1551 L 6133,1423 6253,829 6374,1423 6935,1551 6374,1677 6253,2272 6133,1677 5573,1551 Z"/>
       <path id="star3on" style="display:none" fill="rgb(255,255,0)" stroke="rgb(52,101,164)" d="M 5403,1551 L 6103,1392 6253,650 6404,1392 7105,1551 6404,1709 6253,2451 6103,1709 5403,1551 Z"/>
      </g>
  </g>
       <g id="bird-copy" transform="translate(-10000,0)">
        <path id="bird_far_wing_up-copy" class="bird" d="M 20760,4381 C 21642,3434 21169,2882 21591,1559 21858,1022 21317,1350 21145,2153 20976,486 20815,1372 20906,2154 20309,887 20336,1725 20761,2235 19934,1809 20150,2108 20557,2355 19965,2176 20209,2383 20373,2472 20093,2417 19903,2737 19838,3007 19358,3429 19334,3868 19534,4506"/>
        <path id="bird_body-copy" class="bird" d="M 20986,4426 C 19306,4252 18752,5071 16952,4821 16956,4894 17001,4933 17054,4965 17050,5042 17076,5174 17114,5092 17142,5233 17193,5322 17218,5219 17277,5352 17315,5386 17335,5347 17376,5429 17406,5469 17520,5507 17729,5434 17756,5460 17995,5315 19304,5712 19859,5619 20957,5315"/>
        <path id="bird_head-copy" class="black_fill" d="M 22485,4968 C 21785,4993 22092,5385 20957,5315 20891,5223 20838,5176 20872,5015 20848,4988 20831,4969 20875,4899 20806,4903 20838,4849 20904,4793 20819,4780 20825,4744 20932,4683 20817,4670 20877,4618 20984,4562 20854,4583 20848,4521 20986,4426 21535,4442 21979,4602 22485,4968"/>
        <circle id="bird_eye-copy" class="orange_fill" cx="21879" cy="4802" r="75"/>
        <circle id="bird_eyeball-copy" class="black_fill" cx="21879" cy="4802" r="25"/>
        <path id="bird_feet-copy" class="black_fill" d="M 18577,5467 L 18405,5517 C 18332,5510 18263,5525 18201,5629 18495,5431 18445,5824 18129,5922 18555,5808 18459,5669 18478,5591 L 18681,5494"/>
        <path id="bird_near_wing_upext-copy" class="bird" d="M 19109,5132 C 19109,5132 19109,5132 19109,5132 19109,5132 19109,5132 19109,5132 19109,5132 19109,5132 19109,5132"/>
        <path id="bird_near_wing_up-copy" class="bird" d="M 20180,4749 C 20345,3224 19380,3102 19136,1403 19069,808 18792,1377 19083,2144 18037,835 18382,1667 18883,2275 17694,1534 18171,2223 18805,2422 17879,2512 18223,2646 18699,2633 18104,2804 18421,2845 18607,2831 18342,2937 18356,3308 18448,3571 18394,4154 18356,4576 19109,5132"/>
       </g>
       <g id="bird">
        <path id="bird_far_wing_up" class="bird" d="M 20760,4381 C 21642,3434 21169,2882 21591,1559 21858,1022 21317,1350 21145,2153 20976,486 20815,1372 20906,2154 20309,887 20336,1725 20761,2235 19934,1809 20150,2108 20557,2355 19965,2176 20209,2383 20373,2472 20093,2417 19903,2737 19838,3007 19358,3429 19334,3868 19534,4506"/>
        <path id="bird_far_wing_up_t" class="bird" style="display:none" d="M 20760,4381 C 21642,3434 21169,2882 21591,1559 21858,1022 21317,1350 21145,2153 20976,486 20815,1372 20906,2154 20309,887 20336,1725 20761,2235 19934,1809 20150,2108 20557,2355 19965,2176 20209,2383 20373,2472 20093,2417 19903,2737 19838,3007 19358,3429 19334,3868 19534,4506"/>
        <path id="bird_far_wing_down" class="bird" style="display:none" d="M 20656,5186 C 21538,6133 21065,6685 21487,8008 21754,8545 21213,8217 21041,7414 20872,9081 20711,8195 20802,7413 20205,8680 20232,7842 20657,7332 19830,7758 20046,7459 20453,7212 19861,7391 20105,7184 20269,7095 19989,7150 19799,6830 19734,6560 19254,6138 19230,5699 19430,5061"/>
        <path id="bird_body" class="bird" d="M 20986,4426 C 19306,4252 18752,5071 16952,4821 16956,4894 17001,4933 17054,4965 17050,5042 17076,5174 17114,5092 17142,5233 17193,5322 17218,5219 17277,5352 17315,5386 17335,5347 17376,5429 17406,5469 17520,5507 17729,5434 17756,5460 17995,5315 19304,5712 19859,5619 20957,5315"/>
        <path id="bird_head" class="black_fill" d="M 22485,4968 C 21785,4993 22092,5385 20957,5315 20891,5223 20838,5176 20872,5015 20848,4988 20831,4969 20875,4899 20806,4903 20838,4849 20904,4793 20819,4780 20825,4744 20932,4683 20817,4670 20877,4618 20984,4562 20854,4583 20848,4521 20986,4426 21535,4442 21979,4602 22485,4968"/>
        <circle id="bird_eye" class="orange_fill" cx="21879" cy="4802" r="75"/>
        <circle id="bird_eyeball" class="black_fill" cx="21879" cy="4802" r="25"/>
        <path id="bird_feet" class="black_fill" d="M 18577,5467 L 18405,5517 C 18332,5510 18263,5525 18201,5629 18495,5431 18445,5824 18129,5922 18555,5808 18459,5669 18478,5591 L 18681,5494"/>
        <path id="bird_near_wing_upext" class="bird" d="M 19109,5132 C 19109,5132 19109,5132 19109,5132 19109,5132 19109,5132 19109,5132 19109,5132 19109,5132 19109,5132"/>
        <path id="bird_near_wing_up" class="bird" d="M 20180,4749 C 20345,3224 19380,3102 19136,1403 19069,808 18792,1377 19083,2144 18037,835 18382,1667 18883,2275 17694,1534 18171,2223 18805,2422 17879,2512 18223,2646 18699,2633 18104,2804 18421,2845 18607,2831 18342,2937 18356,3308 18448,3571 18394,4154 18356,4576 19109,5132"/>
        <path id="bird_near_wing_up_t" class="bird" style="display:none" d="M 20180,4749 C 20345,3224 19380,3102 19136,1403 19069,808 18792,1377 19083,2144 18037,835 18382,1667 18883,2275 17694,1534 18171,2223 18805,2422 17879,2512 18223,2646 18699,2633 18104,2804 18421,2845 18607,2831 18342,2937 18356,3308 18448,3571 18394,4154 18356,4576 19109,5132"/>
        <path id="bird_near_wing_down" class="bird" style="display:none" d="M 20206,4886 C 19876,5863 19241,7464 19162,8390 19095,8985 18818,8416 19109,7649 18063,8958 18408,8126 18909,7518 17720,8259 18197,7570 18831,7371 17905,7281 18249,7147 18725,7160 18130,6989 18447,6948 18633,6962 18368,6856 18382,6485 18474,6279 18420,5639 18382,5217 19135,4661"/>
       </g>
       <g id="bird_steps" style="display:none">
        <path id="bird_near_wing_up_t001" d="M 20180,4749 C 20048,5415 18720,3319 18641,2393 18574,1798 18297,2367 18588,3134 17542,1825 17887,2657 18388,3265 17199,2524 17676,3213 18310,3412 17384,3502 17728,3636 18204,3623 17609,3794 17926,3835 18112,3821 17847,3927 17861,4298 18151,4462 18394,4649 18356,5071 19109,5132"/>
        <path id="bird_near_wing_upext_t001" d="M 19109,5132 C 19109,5132 19109,5132 19109,5132 19109,5132 20088,4922 20088,4922 20088,4922 20088,4922 20088,4922"/>
        <path id="bird_near_wing_up_t002" d="M 19970,5230 C 19548,5768 18715,5820 18636,4396 18569,3801 18292,4370 18583,5137 17537,3828 17882,4660 18383,5268 17194,4527 17671,5216 18305,5415 17379,5505 17723,5639 17908,5608 17908,5608 17908,5608 17908,5608 17908,5608 17908,5608 17908,5608 17908,5608 17908,5608 17908,5608"/>
        <path id="bird_near_wing_upext_t002" d="M 19220,4940 C 18766,5052 18561,5284 17876,5616 18275,5609 18354,5499 18577,5551 18947,5605 19927,5852 20180,4750"/>
        <path id="bird_near_wing_up_t003" d="M 19970,5929 C 19548,6467 18715,6519 18636,5095 18569,4500 18292,5069 18583,5836 17537,4527 17882,5359 18383,5967 17194,5226 17671,5915 18305,6114 17379,6204 17723,6338 17908,6307 17908,6307 17908,6307 17908,6307 17908,6307 17908,6307 17908,6307 17908,6307 17908,6307 17908,6307"/>
        <path id="bird_near_wing_upext_t003" d="M 19075,4935 C 18834,5046 18349,5836 17927,6310 18562,6317 18528,6121 19297,6278 19743,6279 20314,5872 20180,4750"/>
        <path id="bird_near_wing_up_t004" style="display:none" class="bird" d="M 19675,6936 C 19414,7189 19073,7559 18757,6885 18654,6659 18492,6674 18682,7147 18317,6579 18048,6518 18473,7212 18010,6844 17946,6982 18213,7256 18045,7210 17843,7314 17906,7339 17906,7339 17906,7339 17906,7339 17906,7339 17906,7339 17906,7339 17906,7339 17906,7339 17906,7339"/>
        <path id="bird_near_wing_upext_t004" d="M 19075,4935 C 18170,5832 19164,6767 17887,7341 18641,7359 18648,7231 19181,7261 20051,6925 20287,5932 20180,4751"/>
        <path id="bird_near_wing_up_t005" d="M 19676,6932 C 19415,7186 19081,7344 18887,7312
              18811,7313 18758,7305 18695,7309 18601,7320 18550,7341 18457,7326 18312,7352 18237,7334 18190,7337 18029,7334 17842,7310 17906,7335 17906,7335 17906,7335 17906,7335 17906,7335 17906,7335 17906,7335
              17906,7335 17906,7335 17906,7335"/>
        <path id="bird_near_wing_upext_t005" class="bird" d="M 19075,4935 C 18509,5401 18753,6713
              17887,7339 18641,7357 18648,7229
              19181,7259 20274,6885 19733,5602 20180,4751"/>
        <path id="bird_near_wing_upext_t006" class="bird" d="M 20180,4751 C 19733,5602 20274,6885 19181,7259
              18811,7313 18758,7305 18695,7309 18601,7320 18550,7341 18457,7326 18312,7352 18237,7334 18190,7337 18029,7334 17842,7310
               17906,7335 17906,7335 17906,7335 17906,7335 17906,7335 17906,7335 17906,7335
              18753,6713 18509,5401 19075,4935"/>
        <path id="bird_near_wing_upext_t007" class="bird" d="M 20180,4751 C 19714,4796 19613,6594
              19406,7317 19286,7793 19125,7819 19190,7345 18980,7947 18735,8068 18971,7337 18616,7783 18519,7674 18708,7361 18557,7443
              18178,7372 18178,7372 18178,7372 18178,7372 18178,7372 18178,7372 18178,7372 18178,7372
              18404,6621 18364,5302 19075,4935"/>
       </g>
       <g id="bird_on_ground">
        <path id="bg_body" class="bird" d="M 18433,14873 C 17696,15512 17289,16833 15961,17064 15994,17129 16051,17147 16112,17155 16139,17228 16216,17338 16218,17248 16300,17366 16382,17427 16364,17323 16471,17421 16520,17437 16522,17394 16593,17453 16636,17477 16756,17467 16918,17316 16954,17330 17115,17101 19242,17788 18722,15593 19060,15406"/>
        <path id="bg_wing_line" class="narrow_line" d="M 18520,15695 C 18322,16615 18130,16793 17105,16872"/>
        <path id="bg_head" class="black_fill" d="M 19740,14742 C 19219,14824 19519,15062 19092,15373 18947,15483 18844,15453 18738,15359 18703,15356 18677,15354 18660,15273 18613,15324 18599,15263 18608,15177 18538,15226 18517,15196 18552,15077 18461,15147 18468,15069 18506,14954 18427,15059 18379,15018 18433,14873 18822,14435 19517,14019 19740,14742"/>
        <circle id="bg_eye" class="orange_fill" cx="19357" cy="14571" r="75"/>
        <circle id="bg_eyeball" class="black_fill" cx="19357" cy="14571" r="25"/>
        <path id="bg_feet" class="black_fill" d="M 17520,17204 L 17446,17375 C 17391,17428 17370,17401 17298,17442 17477,17432 17755,17430 17860,17443 17834,17439 17729,17363 17542,17389 L 17600,17209"/>
       </g>
       <script>
	 test_wing()
       </script>
</svg>
