<?xml version="1.0" encoding="UTF-8"?>
<!DOCTYPE svg PUBLIC "-//W3C//DTD SVG 1.1//EN" "http://www.w3.org/Graphics/SVG/1.1/DTD/svg11.dtd">
<svg version="1.2" width="250mm" height="165mm" viewBox="0 0 25000 16500"
     preserveAspectRatio="xMidYMid" fill-rule="evenodd" stroke-width="28.222" stroke-linejoin="round"
     xmlns="http://www.w3.org/2000/svg"
     xmlns:xlink="http://www.w3.org/1999/xlink"
     xml:space="preserve">
  <script href="svggen.js"></script>
  <script href="svg-editor.js"></script>
  <script href="svg-animate.js"></script>
  <rect id="box" x="1000" y="1000" width="20000" height="15000" fill="rgb(255,204,153)" stroke="black" stroke-width="100"/>
  <g id="mongoose" onmouseover="mongoose()">
      <path id="mongoose_paw1" fill="rgb(149,75,0)" stroke="black" d="M 8976,7590 C 8942,7557 8903,7549 8937,7510 9020,7459 9035,7544 9046,7563"/>
      <path id="mongoose_paw2" fill="rgb(149,75,0)" stroke="black" d="M 9019,8002 C 9004,8061 8992,8100 8937,8075 8882,8054 8931,8014 8946,7975"/>
      <path id="mongoose_body" fill="rgb(149,75,0)" stroke="black" stroke-width="20"
            d="M 8240,7761 C 8234,7610 8508,7443 8696,7673 8805,7782 9286,7196 9832,7760 10086,7799 9987,8120 9492,8091 9912,7996 9881,7885 9821,7870 9040,8340 8802,7760 8682,7855 8461,8030 8267,7890 8240,7761 Z"/>
      <path id="mongoose_nose" d="M 8280,7749 C 8285,7782 8374,7849 8374,7748 8374,7647 8285,7715 8280,7749 Z"/>
      <circle id="mongoose_eye1" cx="8500" cy="7670" r="70"/>
      <circle id="mongoose_eyeball1" fill="white" cx="8470" cy="7640" r="25"/>
      <circle id="mongoose_eye2" cx="8500" cy="7830" r="70"/>
      <circle id="mongoose_eyeball2" fill="white" cx="8470" cy="7800" r="25"/>
      <path id="mongoose_ear1" fill="rgb(149,75,0)" stroke="black" d="M 8600,7621 C 8657,7603 8692,7638 8705,7652 8669,7694 8643,7682 8624,7692"/>
      <path id="mongoose_ear2" fill="rgb(149,75,0)" stroke="black" d="M 8615,7793 C 8675,7800 8692,7847 8698,7865 8648,7888 8629,7867 8608,7868"/>
  </g>
  <g id="mouse">
      <path id="mouse_tail" style="display:none" fill="rgb(200,200,200)" stroke="black"
            d="M 14360,15000 C 14130,14590 14012,15386 13700,15000 13974,15537 14142,14633 14360,15100"/>
      <path id="mouse_tail_2" fill="rgb(200,200,200)" stroke="black"
            d="M 14360,15000 C 13912,15431 14824,15298 14766,15557 15041,15282 14131,15369 14360,15100"/>
      <path id="mouse_body" fill="rgb(200,200,200)" stroke="black"
            d="M 15000,15000 C 14960,14770 14355,14590 14350,15000 14355,15410 14960,15230 15000,15000 Z"/>
      <circle id="mouse_ear1" fill="rgb(200,200,200)" stroke="black" cx="14600" cy="14850" r="150"/>
      <circle id="mouse_ear2" fill="rgb(200,200,200)" stroke="black" cx="14600" cy="15150" r="150"/>
      <circle id="mouse_ear1_" fill="rgb(200,200,200)" stroke="none" cx="14620" cy="14865" r="145"/>
      <circle id="mouse_ear2_" fill="rgb(200,200,200)" stroke="none" cx="14620" cy="15135" r="145"/>
      <path id="mouse_nose" fill="black" d="M 14940,15000 C 14935,14968 14850,14903 14850,15000 14850,15097 14935,15032 14940,15000 Z"/>
      <path id="mouse_whisker_11" stroke="black" stroke-width="20" fill="none" d="M 14880,14960 L 14780,14700"/>
      <path id="mouse_whisker_12" stroke="black" stroke-width="20" fill="none" d="M 14880,14960 L 14880,14700"/>
      <path id="mouse_whisker_13" stroke="black" stroke-width="20" fill="none" d="M 14880,14960 L 14980,14700"/>
      <path id="mouse_whisker_21" stroke="black" stroke-width="20" fill="none" d="M 14880,15060 L 14780,15320"/>
      <path id="mouse_whisker_22" stroke="black" stroke-width="20" fill="none" d="M 14880,15060 L 14880,15320"/>
      <path id="mouse_whisker_23" stroke="black" stroke-width="20" fill="none" d="M 14880,15060 L 14980,15320"/>
  </g>
<script>
svgeditor(window)
</script>
</svg>
