<?xml version="1.0" encoding="UTF-8"?>
<!DOCTYPE svg PUBLIC "-//W3C//DTD SVG 1.1//EN" "http://www.w3.org/Graphics/SVG/1.1/DTD/svg11.dtd">
<svg version="1.2" width="250mm" height="200mm" viewBox="0 0 25000 20000"
     preserveAspectRatio="xMidYMid" fill-rule="evenodd" stroke-width="28.222" stroke-linejoin="round"
     xmlns="http://www.w3.org/2000/svg"
     xmlns:xlink="http://www.w3.org/1999/xlink"
     xml:space="preserve">
  <script href="svggen.js"></script>
  <script href="svg-editor.js"></script>
  <script href="svg-animate.js"></script>
  <rect id="box" x="1000" y="1000" width="20000" height="15000" fill="rgb(255,204,153)" stroke="black" stroke-width="100"/>
  <g id="mongoose2" transform="translate(0,0)">
      <path id="mongoose2_ear2" fill="rgb(149,75,0)" stroke="black" d="M 8398,7007 C 8391,6961 8423,6937 8436,6929 8463,6963 8452,6982 8456,6998"/>
      <path id="mongoose2_body" fill="rgb(149,75,0)" stroke="black" stroke-width="20"
            d="M 8224,7148 C 8366,6912 8649,6973 8685,7177 8819,7502 9672,6805 9987,7524 10055,7768 9838,8028 9298,8041 9629,7973 9782,7862 9893,7696 9702,7683 9795,7938 9540,7887 9548,7721 9642,7925 9693,7675 9497,7611 9370,7764 8919,7606 8719,7700 8842,7896 8609,7857 8587,7717 8702,7836 8754,7586 8719,7424 8656,7445 8558,7373 8152,7420 8123,7248 8224,7148 Z"/>
      <path id="mongoose2_nose" d="M 8253,7309 C 8286,7303 8351,7212 8250,7215 8149,7218 8219,7305 8253,7309 Z"/>
      <circle id="mongoose2_eye" cx="8415" cy="7145" r="70"/>
      <circle id="mongoose2_eyeball" fill="white" cx="8385" cy="7115" r="25"/>
      <path id="mongoose2_ear1" fill="rgb(149,75,0)" stroke="black" d="M 8520,7067 C 8536,7009 8584,6998 8603,6995 8619,7048 8595,7064 8593,7085"/>
  </g>
  <g style="display:none">
  <g id="mongoose2_t">
      <path id="mongoose2_t_ear2" fill="rgb(149,75,0)" stroke="black" d="M 8398,7007 C 8391,6961 8423,6937 8436,6929 8463,6963 8452,6982 8456,6998"/>
      <path id="mongoose2_t_body" fill="rgb(149,75,0)" stroke="black" stroke-width="20"
            d="M 8224,7148 C 8366,6912 8649,6973 8685,7177 8819,7502 9672,6805 9987,7524 10055,7768 9838,8028 9298,8041 9629,7973 9782,7862 9893,7696 9702,7683 9795,7938 9540,7887 9548,7721 9642,7925 9693,7675 9497,7611 9370,7764 8919,7606 8719,7700 8842,7896 8609,7857 8587,7717 8702,7836 8754,7586 8719,7424 8656,7445 8558,7373 8152,7420 8123,7248 8224,7148 Z"/>
      <path id="mongoose2_t_nose" d="M 8253,7309 C 8286,7303 8351,7212 8250,7215 8149,7218 8219,7305 8253,7309 Z"/>
      <circle id="mongoose2_t_eye" cx="8415" cy="7145" r="70"/>
      <circle id="mongoose2_t_eyeball" fill="white" cx="8385" cy="7115" r="25"/>
      <path id="mongoose2_t_ear1" fill="rgb(149,75,0)" stroke="black" d="M 8520,7067 C 8536,7009 8584,6998 8603,6995 8619,7048 8595,7064 8593,7085"/>
  </g>
  <g id="mongoose4">
      <path id="mongoose4_paw1" fill="rgb(149,75,0)" stroke="black" d="M 8976,7590 C 8942,7557 8903,7549 8937,7510 9020,7459 9035,7544 9046,7563"/>
      <path id="mongoose4_paw2" fill="rgb(149,75,0)" stroke="black" d="M 9019,8002 C 9004,8061 8992,8100 8937,8075 8882,8054 8931,8014 8946,7975"/>
      <path id="mongoose4_body" fill="rgb(149,75,0)" stroke="black" stroke-width="20"
            d="M 8240,7761 C 8234,7610 8508,7443 8696,7673 8805,7782 9286,7196 9832,7760 10086,7799 9987,8120 9492,8091 9912,7996 9881,7885 9821,7870 9040,8340 8802,7760 8682,7855 8682,7855 8682,7855 8682,7855 8682,7855 8682,7855 8682,7855 8682,7855 8682,7855 8682,7855 8682,7855 8682,7855 8682,7855 8682,7855 8682,7855 8682,7855 8461,8030 8267,7890 8240,7761 Z"/>
      <path id="mongoose4_nose" d="M 8280,7749 C 8285,7782 8374,7849 8374,7748 8374,7647 8285,7715 8280,7749 Z"/>
      <circle id="mongoose4_eye1" cx="8500" cy="7670" r="70"/>
      <circle id="mongoose4_eyeball1" fill="white" cx="8470" cy="7640" r="25"/>
      <circle id="mongoose4_eye2" cx="8500" cy="7830" r="70"/>
      <circle id="mongoose4_eyeball2" fill="white" cx="8470" cy="7800" r="25"/>
      <path id="mongoose4_ear1" fill="rgb(149,75,0)" stroke="black" d="M 8600,7621 C 8657,7603 8692,7638 8705,7652 8669,7694 8643,7682 8624,7692"/>
      <path id="mongoose4_ear2" fill="rgb(149,75,0)" stroke="black" d="M 8615,7793 C 8675,7800 8692,7847 8698,7865 8648,7888 8629,7867 8608,7868"/>
  </g>
  </g>
  <use xlink:href="#mongoose2_t" transform="translate(-3000 -3000)"/>
  <use xlink:href="#mongoose4" transform="translate(-3000 -1000)"/>
  <g id="mouse">
      <g id="mouse_rotate" transform-origin="14360 14990">
          <path id="mouse_tail" fill="rgb(200,200,200)" stroke="black"
                d="M 14360,15000 C 13912,15431 14824,15298 14766,15557 15041,15282 14131,15369 14360,15100"/>
          <path id="mouse_body" fill="rgb(200,200,200)" stroke="black"
                d="M 15000,15000 C 14960,14770 14355,14590 14350,15000 14355,15410 14960,15230 15000,15000 Z"/>
          <circle id="mouse_ear1" fill="rgb(200,200,200)" stroke="black" cx="14600" cy="14850" r="150"/>
          <circle id="mouse_ear2" fill="rgb(200,200,200)" stroke="black" cx="14600" cy="15150" r="150"/>
          <circle id="mouse_ear1_" fill="rgb(200,200,200)" stroke="none" cx="14620" cy="14865" r="145"/>
          <circle id="mouse_ear2_" fill="rgb(200,200,200)" stroke="none" cx="14620" cy="15135" r="145"/>
          <path id="mouse_nose" fill="black" d="M 14936,15011 C 14931,14979 14846,14914 14846,15011 14846,15108 14931,15043 14936,15011 Z"/>
          <path id="mouse_whisker_11" stroke="black" stroke-width="20" fill="none" d="M 14880,14960 L 14780,14700 14780,14700 14780,14700 14780,14700"/>
          <path id="mouse_whisker_12" stroke="black" stroke-width="20" fill="none" d="M 14880,14960 L 14880,14700 14880,14700 14880,14700 14880,14700"/>
          <path id="mouse_whisker_13" stroke="black" stroke-width="20" fill="none" d="M 14880,14960 L 14980,14700 14980,14700 14980,14700 14980,14700"/>
          <path id="mouse_whisker_21" stroke="black" stroke-width="20" fill="none" d="M 14880,15060 L 14780,15320 14780,15320 14780,15320 14780,15320"/>
          <path id="mouse_whisker_22" stroke="black" stroke-width="20" fill="none" d="M 14880,15060 L 14880,15320 14880,15320 14880,15320 14880,15320"/>
          <path id="mouse_whisker_23" stroke="black" stroke-width="20" fill="none" d="M 14880,15060 L 14980,15320 14980,15320 14980,15320 14980,15320"/>
      </g>
  </g>
  <g style="display:none">
      <g id="mouse_t">
          <path id="mouse_t_tail" fill="rgb(200,200,200)" stroke="black"
                d="M 14360,15000 C 13912,15431 14824,15298 14766,15557 15041,15282 14131,15369 14360,15100"/>
          <path id="mouse_t_body" fill="rgb(200,200,200)" stroke="black"
                d="M 15000,15000 C 14960,14770 14355,14590 14350,15000 14355,15410 14960,15230 15000,15000 Z"/>
          <circle id="mouse_t_ear1" fill="rgb(200,200,200)" stroke="black" cx="14600" cy="14850" r="150"/>
          <circle id="mouse_t_ear2" fill="rgb(200,200,200)" stroke="black" cx="14600" cy="15150" r="150"/>
          <circle id="mouse_t_ear1_" fill="rgb(200,200,200)" stroke="none" cx="14620" cy="14865" r="145"/>
          <circle id="mouse_t_ear2_" fill="rgb(200,200,200)" stroke="none" cx="14620" cy="15135" r="145"/>
          <path id="mouse_t_nose" fill="black" d="M 14936,15011 C 14931,14979 14846,14914 14846,15011 14846,15108 14931,15043 14936,15011 Z"/>
          <path id="mouse_t_whisker_11" stroke="black" stroke-width="20" fill="none" d="M 14880,14960 L 14780,14700 14780,14700 14780,14700 14780,14700"/>
          <path id="mouse_t_whisker_12" stroke="black" stroke-width="20" fill="none" d="M 14880,14960 L 14880,14700 14880,14700 14880,14700 14880,14700"/>
          <path id="mouse_t_whisker_13" stroke="black" stroke-width="20" fill="none" d="M 14880,14960 L 14980,14700 14980,14700 14980,14700 14980,14700"/>
          <path id="mouse_t_whisker_21" stroke="black" stroke-width="20" fill="none" d="M 14880,15060 L 14780,15320 14780,15320 14780,15320 14780,15320"/>
          <path id="mouse_t_whisker_22" stroke="black" stroke-width="20" fill="none" d="M 14880,15060 L 14880,15320 14880,15320 14880,15320 14880,15320"/>
          <path id="mouse_t_whisker_23" stroke="black" stroke-width="20" fill="none" d="M 14880,15060 L 14980,15320 14980,15320 14980,15320 14980,15320"/>
      </g>
      <g id="mouse2">
          <path id="mouse2_tail" fill="rgb(200,200,200)" stroke="black"
                d="M 14360,15000 C 14130,14590 14012,15386 13700,15000 13974,15537 14142,14633 14360,15100"/>
          <path id="mouse2_body" fill="rgb(200,200,200)" stroke="black"
                d="M 15000,15000 C 14960,14770 14355,14590 14350,15000 14355,15410 14960,15230 15000,15000 Z"/>
          <circle id="mouse2_ear1" fill="rgb(200,200,200)" stroke="black" cx="14600" cy="14850" r="150"/>
          <circle id="mouse2_ear2" fill="rgb(200,200,200)" stroke="black" cx="14600" cy="15150" r="150"/>
          <circle id="mouse2_ear1_" fill="rgb(200,200,200)" stroke="none" cx="14620" cy="14865" r="145"/>
          <circle id="mouse2_ear2_" fill="rgb(200,200,200)" stroke="none" cx="14620" cy="15135" r="145"/>
          <path id="mouse2_nose" fill="black" d="M 14936,15011 C 14931,14979 14846,14914 14846,15011 14846,15108 14931,15043 14936,15011 Z"/>
          <path id="mouse2_whisker_11" stroke="black" stroke-width="20" fill="none" d="M 14880,14960 L 14810,14920 14840,14850 14780,14800 14780,14700"/>
          <path id="mouse2_whisker_12" stroke="black" stroke-width="20" fill="none" d="M 14880,14960 L 14860,14890 14890,14820 14850,14770 14880,14700"/>
          <path id="mouse2_whisker_13" stroke="black" stroke-width="20" fill="none" d="M 14880,14960 L 14950,14910 14930,14820 15000,14780 14980,14700"/>
          <path id="mouse2_whisker_21" stroke="black" stroke-width="20" fill="none" d="M 14880,15060 L 14870,15130 14810,15150 14850,15230 14780,15320"/>
          <path id="mouse2_whisker_22" stroke="black" stroke-width="20" fill="none" d="M 14880,15060 L 14910,15160 14880,15200 14920,15250 14880,15320"/>
          <path id="mouse2_whisker_23" stroke="black" stroke-width="20" fill="none" d="M 14880,15060 L 14970,15120 14930,15180 14990,15230 14980,15320"/>
      </g>
  </g>
  <use xlink:href="#mouse_t" transform="translate(-3000 -3000)"/>
  <use xlink:href="#mouse2" transform="translate(-3000 -1000)"/>
<script>
svgeditor(window)
let a = new Animate3
function mongoose_turn() {
    let time_s = 500
    let time_f = 750
    a.path ('mongoose2_body', 'mongoose2_t_body', 'mongoose4_body', time_s, time_f, true)
    a.start()
}
function mouse_turn() {
    let time_s = 200
    let time_f = 400
    // let time_ff = 1000
    a.path ('mouse_whisker_11', 'mouse_t_whisker_11', 'mouse2_whisker_11', time_s, time_f, true)
    a.path ('mouse_whisker_12', 'mouse_t_whisker_12', 'mouse2_whisker_12', time_s, time_f, true)
    a.path ('mouse_whisker_13', 'mouse_t_whisker_13', 'mouse2_whisker_13', time_s, time_f, true)
    a.path ('mouse_whisker_21', 'mouse_t_whisker_21', 'mouse2_whisker_21', time_s, time_f, true)
    a.path ('mouse_whisker_22', 'mouse_t_whisker_22', 'mouse2_whisker_22', time_s, time_f, true)
    a.path ('mouse_whisker_23', 'mouse_t_whisker_23', 'mouse2_whisker_23', time_s, time_f, true)
    a.path ('mouse_tail', 'mouse_t_tail', 'mouse2_tail', time_s, time_f, true)
    let min_mouse_distance = 1000
    let max_mouse_distance = 3000
    let distance = Math.random() * (max_mouse_distance - min_mouse_distance) + min_mouse_distance
    let direction = Math.random() * Math.PI * 2
    let angle = direction / Math.PI * 180
    if(angle > 180) angle -= 360
    let time_ff = time_f + 3 * Math.abs(angle)
    let time_fff = time_ff + 600
    a.rotate ('mouse_rotate', 0, angle, time_f, time_ff, true)
    a.translate ('mouse', 0, 0, Math.round(distance * Math.cos(direction)), Math.round(distance * Math.sin(direction)), time_ff, time_fff, true)
    a.start ()
}
mongoose_turn()
mouse_turn()
</script>
</svg>
