<?xml version="1.0" encoding="UTF-8"?>
<!DOCTYPE svg PUBLIC "-//W3C//DTD SVG 1.1//EN" "http://www.w3.org/Graphics/SVG/1.1/DTD/svg11.dtd">
<svg version="1.2" width="250mm" height="200mm" viewBox="0 0 25000 20000"
     preserveAspectRatio="xMidYMid" fill-rule="evenodd" stroke-width="28.222" stroke-linejoin="round"
     xmlns="http://www.w3.org/2000/svg"
     xml:space="preserve">
  <script href="svggen.js"></script>
  <script href="svg-editor.js"></script>
  <script type="text/javascript">
    <![CDATA[
	var star = 1
	function id_display(id, display) {
	    document.getElementById(id).style.display = display
	}
	function star_display(state, display) { id_display('star'+star+state, display) }
	function star_eye(show) {
	    if(show) id_display('eye_open', '')
	    else {
		id_display('eye_open', 'none')
		id_display('eye_close', 'none')
	    }
	}
	function star_eye2(show) {
	    if(show) id_display('eye2_open', '')
	    else {
		id_display('eye2_open', 'none')
	    }
	}
	function set_star(n) {
	    if(star != n) {
		star_display('on', 'none')
		star_display('off', '')
		star = n
		star_display('off', 'none')
		star_display('on', '')
		star_eye(star == 1)
		star_eye2(star == 2)
	    }
	}
	function close_eye() {
	    document.getElementById('eye_open').style.display = 'none'
	    document.getElementById('eye_close').style.display = ''
	}
	function open_eye() {
	    document.getElementById('eye_open').style.display = ''
	    document.getElementById('eye_close').style.display = 'none'
	}
	function open_eye2(eye) {
	    ['eye2_open','eye2_right','eye2_right2','eye2_right3',
	     'eye2_almost_open_1','eye2_almost_open_2','eye2_almost_close_1',"eye2_almost_close_2","eye2_close"].forEach(function(item) {
		id_display(item, eye == item ? '' : 'none')
	    })
	}
	function animate(timeout,finish,count,...steps) {
	    var pos = 0
	    var call = function iterate() {
		steps[pos]()
		if(!--count) finish()
		else {
		    if(++pos >= steps.length) pos = 0
		    setTimeout(iterate, timeout)
		}
	    }
	    call()
	}
	function animate2(timeout,finish,count,steps) {
	    var pos = 0
	    count = count * steps.length + 1
	    var call = function iterate() {
		var steps_pos = steps[pos]
		var show = steps_pos instanceof Array ? function(item) {
		    var d = 'none'
		    steps_pos.forEach(function(sp) {
			if(sp == item) d = ''
		    })
		    id_display(item, d)
		} : function(item) {
		    id_display(item, item == steps_pos ? '' : 'none')
		}
		steps.forEach(function(item) {
		    if(item instanceof Array) item.forEach(show)
		    else show(item)
		})
		if(!--count) finish()
		else {
		    if(++pos >= steps.length) pos = 0
		    setTimeout(iterate, timeout)
		}
	    }
	    call()
	}
	var wink_started = false
	function wink() {
	    if(wink_started) return
	    if(star == 1) {
		wink_started = true
		animate(300, function() { wink_started = false }, 5,
			function() { open_eye() },
			function() { close_eye() })
	    }
	    else if(star == 2) {
		wink_started = true
		animate(100, function() { wink_started = false }, 1+1*16,
			function() { open_eye2('eye2_open') },
			function() { open_eye2('eye2_right') },
			function() { open_eye2('eye2_right2') },
			function() { open_eye2('eye2_right3') },
			function() { open_eye2('eye2_right2') },
			function() { open_eye2('eye2_right') },
			function() { open_eye2('eye2_open') },
			function() { open_eye2('eye2_almost_open_1') },
			function() { open_eye2('eye2_almost_open_2') },
			function() { open_eye2('eye2_almost_close_1') },
			function() { open_eye2('eye2_almost_close_2') },
			function() { open_eye2('eye2_close') },
			function() { open_eye2('eye2_almost_close_2') },
			function() { open_eye2('eye2_almost_close_1') },
			function() { open_eye2('eye2_almost_open_2') },
			function() { open_eye2('eye2_almost_open_1') },
		)
	    }
	}

	var stomp_started = false
	function stomp() {
	    if(stomp_started) return
	    stomp_started = true
	    animate2(200, function() { stomp_started = false }, 2, [
		'raised_hoof_1', 'raised_hoof_2', 'raised_hoof_3', 'raised_hoof_2',
		['raised_hoof_1', 'hit3'], ['raised_hoof_1', 'hit2'], ['raised_hoof_1', 'hit1'],
	    ]);
	}

        var wag_started = false
        function wag() {
              if(wag_started) return
              wag_started = true
              animate2(150, function() { wag_started = false }, 3, [
                'tail_3', 'tail_2', 'tail_1', 'tail_2'

              ])
        }

        var smile_started = false
        function smile() {
              if(smile_started) return
              smile_started = true
              animate2(150, function() { smile_started = false }, 2, [
                'jowl_2', 'jowl_1'

              ])
        }

	window.onkeyup = svgeditor

    ]]>
  </script>
  <style>
    path.line {
	fill:none;
	stroke:rgb(27,25,24);
	stroke-width:75;
	stroke-linejoin:round;
    }
    path.fill {
	fill:rgb(246,6,213);
	stroke:rgb(27,25,24);
	stroke-width:75;
	stroke-linejoin:round;
    }
    path.dl {
	fill:none;
	stroke:red;
	stroke-width:20;
	stroke-linejoin:round;
    }
  </style>
  <g id="stars">
      <g id="star1" onclick="set_star(1)">
       <path id="star1off" style="display:none" fill="rgb(255,255,107)" stroke="rgb(52,101,164)" d="M 2573,5592 L 3133,5464 3253,4870 3374,5464 3935,5592 3374,5718 3253,6313 3133,5718 2573,5592 Z"/>
       <path id="star1on" fill="rgb(255,255,0)" stroke="rgb(52,101,164)" d="M 2403,5592 L 3103,5433 3253,4691 3404,5433 4105,5592 3404,5750 3253,6492 3103,5750 2403,5592 Z"/>
      </g>
      <g id="star2" onclick="set_star(2)">
       <path id="star2off" fill="rgb(255,255,107)" stroke="rgb(52,101,164)" d="M 3143,3072 L 3703,2944 3823,2350 3944,2944 4505,3072 3944,3198 3823,3793 3703,3198 3143,3072 Z"/>
       <path id="star2on" style="display:none" fill="rgb(255,255,0)" stroke="rgb(52,101,164)" d="M 2973,3072 L 3673,2913 3823,2171 3974,2913 4675,3072 3974,3230 3823,3972 3673,3230 2973,3072 Z"/>
      </g>
      <g id="star3" onclick="set_star(2); wink(); stomp(); wag(); smile()">
       <path id="star3off" fill="rgb(255,255,107)" stroke="rgb(52,101,164)" d="M 5573,1551 L 6133,1423 6253,829 6374,1423 6935,1551 6374,1677 6253,2272 6133,1677 5573,1551 Z"/>
       <path id="star3on" style="display:none" fill="rgb(255,255,0)" stroke="rgb(52,101,164)" d="M 5403,1551 L 6103,1392 6253,650 6404,1392 7105,1551 6404,1709 6253,2451 6103,1709 5403,1551 Z"/>
      </g>
  </g>
    <g id="hits">
       <g id="hit1" style="display:none">
        <path fill="rgb(255,255,255)" stroke="none" d="M 12278,17126 C 12014,17022 11901,16918 11939,16814 11525,16870 11035,16902 10508,16902 9981,16902 9492,16870 9077,16814 9040,16814 9040,16814 9040,16814 9077,16918 8964,17030 8701,17126 8475,17222 8061,17294 7647,17342 L 7647,17342 C 7647,17350 7647,17350 7647,17350 8098,17398 8475,17470 8701,17558 8964,17654 9077,17766 9077,17862 9077,17871 9077,17871 9077,17871 L 9077,17871 C 9492,17814 9981,17782 10508,17782 11035,17782 11525,17814 11939,17871 L 11939,17871 C 11901,17766 12014,17662 12278,17558 12541,17462 12956,17390 13408,17342 L 13408,17342 C 12956,17294 12541,17222 12278,17126 L 12278,17126 Z"/>
        <path fill="none" stroke="rgb(0,0,0)" stroke-width="60" stroke-linejoin="round" d="M 12278,17126 C 12014,17022 11901,16918 11939,16814 11525,16870 11035,16902 10508,16902 9981,16902 9492,16870 9077,16814 9040,16814 9040,16814 9040,16814 9077,16918 8964,17030 8701,17126 8475,17222 8061,17294 7647,17342 L 7647,17342 C 7647,17350 7647,17350 7647,17350 8098,17398 8475,17470 8701,17558 8964,17654 9077,17766 9077,17862 9077,17871 9077,17871 9077,17871 L 9077,17871 C 9492,17814 9981,17782 10508,17782 11035,17782 11525,17814 11939,17871 L 11939,17871 C 11901,17766 12014,17662 12278,17558 12541,17462 12956,17390 13408,17342 L 13408,17342 C 12956,17294 12541,17222 12278,17126 L 12278,17126 Z"/>
       </g>
       <g id="hit2" style="display:none">
        <path fill="rgb(255,255,255)" stroke="none" d="M 11732,17141 C 11539,17065 11456,16989 11484,16913 11181,16953 10823,16977 10438,16977 10052,16977 9694,16953 9392,16913 9364,16913 9364,16913 9364,16913 9392,16989 9309,17071 9116,17141 8951,17211 8648,17264 8346,17299 L 8346,17299 C 8346,17305 8346,17305 8346,17305 8676,17340 8951,17393 9116,17457 9309,17527 9392,17609 9392,17680 9392,17686 9392,17686 9392,17686 L 9392,17686 C 9694,17645 10052,17621 10438,17621 10823,17621 11181,17645 11484,17686 L 11484,17686 C 11456,17609 11539,17533 11732,17457 11924,17387 12227,17334 12558,17299 L 12558,17299 C 12227,17264 11924,17211 11732,17141 L 11732,17141 Z"/>
        <path fill="none" stroke="rgb(0,0,0)" stroke-width="60" stroke-linejoin="round" d="M 11732,17141 C 11539,17065 11456,16989 11484,16913 11181,16953 10823,16977 10438,16977 10052,16977 9694,16953 9392,16913 9364,16913 9364,16913 9364,16913 9392,16989 9309,17071 9116,17141 8951,17211 8648,17264 8346,17299 L 8346,17299 C 8346,17305 8346,17305 8346,17305 8676,17340 8951,17393 9116,17457 9309,17527 9392,17609 9392,17680 9392,17686 9392,17686 9392,17686 L 9392,17686 C 9694,17645 10052,17621 10438,17621 10823,17621 11181,17645 11484,17686 L 11484,17686 C 11456,17609 11539,17533 11732,17457 11924,17387 12227,17334 12558,17299 L 12558,17299 C 12227,17264 11924,17211 11732,17141 L 11732,17141 Z"/>
       </g>
       <g id="hit3" style="display:none">
        <path fill="rgb(255,255,255)" stroke="none" d="M 11274,17255 C 11153,17207 11101,17159 11119,17112 10928,17137 10704,17152 10461,17152 10219,17152 9994,17137 9804,17112 9787,17112 9787,17112 9787,17112 9804,17159 9752,17211 9631,17255 9527,17299 9337,17332 9147,17355 L 9147,17355 C 9147,17358 9147,17358 9147,17358 9354,17380 9527,17413 9631,17454 9752,17498 9804,17550 9804,17594 9804,17598 9804,17598 9804,17598 L 9804,17598 C 9994,17572 10219,17557 10461,17557 10704,17557 10928,17572 11119,17598 L 11119,17598 C 11101,17550 11153,17502 11274,17454 11396,17410 11586,17377 11794,17355 L 11794,17355 C 11586,17332 11396,17299 11274,17255 L 11274,17255 Z"/>
        <path fill="none" stroke="rgb(0,0,0)" stroke-width="60" stroke-linejoin="round" d="M 11274,17255 C 11153,17207 11101,17159 11119,17112 10928,17137 10704,17152 10461,17152 10219,17152 9994,17137 9804,17112 9787,17112 9787,17112 9787,17112 9804,17159 9752,17211 9631,17255 9527,17299 9337,17332 9147,17355 L 9147,17355 C 9147,17358 9147,17358 9147,17358 9354,17380 9527,17413 9631,17454 9752,17498 9804,17550 9804,17594 9804,17598 9804,17598 9804,17598 L 9804,17598 C 9994,17572 10219,17557 10461,17557 10704,17557 10928,17572 11119,17598 L 11119,17598 C 11101,17550 11153,17502 11274,17454 11396,17410 11586,17377 11794,17355 L 11794,17355 C 11586,17332 11396,17299 11274,17255 L 11274,17255 Z"/>
       </g>
    </g>
  <g id="body">
  <g>
          <path class="line" d="M 13196,9053 C 13935,9215 13907,9198 14572,9365 15283,9542 16037,9664 16666,9901 17297,10140 18300,12523 16666,13357 16414,13716 16540,16815 16415,17530 15534,17650 14655,17530 14151,17413 14151,16576 14403,13955 14403,13478 13744,13571 12146,13340 11522,13131"/>
          <path class="fill" d="M 16380,17510 C 16409,17365 16456,16994 16457,16875 16331,16875 15695,17036 14199,16859 14186,17037 14145,17411 14237,17411 14237,17411 15048,17703 16380,17510 Z"/>
  </g>
          <path id="tail_1" style="display:none" class="fill" d="M 17475,11332 C 17548,10858 18025,10704 18488,10692 19753,10892 20175,12453 18223,14555 18403,12292 17855,12372 17475,11332 Z"/>
          <path id="tail_2" style="display:none" class="fill" d="M 17476,11333 C 17550,10858 18026,10705 18489,10694 19754,10893 19163,12373 19332,14532 17855,13173 17856,12374 17476,11333 Z"/>
          <path id="tail_3" onmouseover="wag()" class="fill" d="M 17477,11333 C 17550,10859 18028,10705 18490,10694 19755,10894 18825,12613 20387,13732 18109,13492 17857,12373 17477,11333 Z"/>
  <g id="raised_hoof_1">
          <path class="line" d="M 9597,12723 C 9484,12865 8531,16415 8405,16772 8509,16863 8958,16947 9331,16865 9363,16436 9331,17056 9359,16403"/>
          <path id="hoof_top_right" class="fill" d="M 9359,16866 C 9386,16721 9379,16825 9388,16349 9388,16349 9139,16461 8490,16292 8478,16467 8364,16732 8364,16732 8364,16732 8671,17002 9359,16866 Z"/>
          <path id="hoof_1" onmouseover="stomp()" class="fill" d="M 11640,17287 C 11652,17140 11668,16811 11655,16693 11531,16705 10694,17009 9377,16653 9384,16830 9360,17313 9360,17313 9360,17313 10664,17619 11640,17287 Z"/>
          <path class="line" d="M 9590,12732 C 9580,13022 9387,17028 9388,17328 11052,17465 10909,17465 11626,17274 11588,15914 11549,14555 11495,13097"/>
  </g>
  <g id="raised_hoof_2" style="display:none">
          <path class="line" d="M 9590,12732 C 9515,12826 9151,13696 9101,14772 9051,15847 9892,16923 9876,17111 11029,16473 11255,16764 11912,16186 11396,15153 11396,15016 11166,14555 11080,13847 11367,13765 11495,13097"/>
          <path class="fill" d="M 11927,16171 C 11870,16032 11733,15729 11668,15628 11561,15689 10944,16307 9592,16523 9679,16681 9878,17128 9878,17128 9878,17128 11196,16871 11927,16171 Z"/>
          <path class="line" d="M 9590,12732 C 9485,12829 8532,16379 8406,16736 8510,16827 8959,16911 9332,16829 9364,16400 9332,17020 9360,16367"/>
          <path class="fill" d="M 9796,16888 C 9610,16522 9574,16620 9547,16321 9258,16293 9051,16397 8500,16227 8487,16404 8357,16694 8357,16694 8357,16694 8536,17030 9796,16888 Z"/>
  </g>
  <g id="raised_hoof_3" style="display:none">
          <path class="line" d="M 9590,12732 C 9484,12865 8531,16415 8405,16772 8509,16863 8958,16947 9331,16865 9363,16436 9331,17056 9359,16403"/>
          <path class="line" d="M 9590,12732 C 9516,12790 9152,13660 9102,14736 9052,15811 10667,16887 10651,17075 11805,16437 11716,16293 12373,15715 11712,14818 11570,14899 11226,14437 11140,13729 11368,13729 11495,13097"/>
          <path class="fill" d="M 12375,15649 C 12282,15529 12067,15269 11976,15188 11890,15273 11462,16021 10216,16562 10343,16693 10657,17076 10657,17076 10657,17076 11860,16504 12375,15649 Z"/>
          <path class="fill" d="M 9990,16839 C 9998,16549 9961,16621 9934,16322 9645,16294 9049,16396 8499,16227 8486,16403 8356,16693 8356,16693 8356,16693 8636,17093 9990,16839 Z"/>
  </g>
      </g>
  <g id="head">
    <g id="hcontour">
      <path class="line" d="M 7837,5080 L 7495,5554 7024,5913"/>
      <path class="line" d="M 7519,8114 C 7639,8092 8267,8066 8286,8063 9241,8343 9993,8343 10341,7834"/>
    </g>
    <path id="contour" class="line" d="M 10341,7834 C 9502,9441 9557,11390 9590,12732"/>
      <g id="mane">
        <path class="fill" d="M 7471,5501 C 8381,4415 9022,4834 9600,4664 10177,4494 11039,3649 10862,3619 L 10382,3539 C 10111,3464 9786,3506 9477,3553 8899,3722 8118,3906 7471,5501 Z"/>
        <path class="fill" d="M 12252,8088 C 11525,11951 13426,11604 13994,11279 12841,11200 13077,10708 13015,10004 Z"/>
        <path class="fill" d="M 12312,6887 C 12312,6887 11704,10921 14217,9866 14217,9866 12961,10064 13238,8591 Z"/>
        <path class="fill" d="M 11465,3794 C 12985,4275 13609,5523 13496,6905 13457,7645 13679,8497 14684,8193 14551,8917 12939,9270 12333,7030 12049,6047 12038,5456 11580,4820 Z"/>
      </g>
      <g class="Group" id="horn">
         <path fill="rgb(255,47,0)" stroke="none" d="M 8254,2675 C 8368,2641 8403,2417 8344,2303 L 8256,2182 C 8183,2092 8216,2051 8102,2022 L 8072,2110 C 8067,2175 8107,2323 8127,2385 8158,2483 8173,2625 8254,2675 Z"/>
         <path fill="none" stroke="rgb(0,0,0)" stroke-width="50" stroke-linejoin="miter" d="M 8254,2675 C 8368,2641 8403,2417 8344,2303 L 8256,2182 C 8183,2092 8216,2051 8102,2022 L 8072,2110 C 8067,2175 8107,2323 8127,2385 8158,2483 8173,2625 8254,2675 Z"/>
         <path fill="rgb(255,153,0)" stroke="none" d="M 8336,3016 C 8538,3024 8656,3021 8657,2802 8658,2724 8637,2663 8610,2613 L 8530,2520 C 8523,2515 8482,2487 8482,2487 8222,2554 8271,2793 8336,3016 Z"/>
         <path fill="none" stroke="rgb(0,0,0)" stroke-width="50" stroke-linejoin="miter" d="M 8336,3016 C 8538,3024 8656,3021 8657,2802 8658,2724 8637,2663 8610,2613 L 8530,2520 C 8523,2515 8482,2487 8482,2487 8222,2554 8271,2793 8336,3016 Z"/>
         <path fill="rgb(255,255,0)" stroke="none" d="M 8542,3010 C 8500,3053 8437,3061 8414,3093 8394,3124 8393,3232 8405,3256 8455,3274 8415,3344 8453,3473 8544,3481 8596,3377 8679,3363 8718,3324 8740,3283 8776,3234 8816,3180 8836,3151 8852,3064 8851,3024 8837,2994 8828,2958 8745,2897 8778,2865 8715,2830 8658,2879 8646,2954 8568,3001 L 8542,3010 Z"/>
         <path fill="none" stroke="rgb(0,0,0)" stroke-width="50" stroke-linejoin="miter" d="M 8542,3010 C 8500,3053 8437,3061 8414,3093 8394,3124 8393,3232 8405,3256 8455,3274 8415,3344 8453,3473 8544,3481 8596,3377 8679,3363 8718,3324 8740,3283 8776,3234 8816,3180 8836,3151 8852,3064 8851,3024 8837,2994 8828,2958 8745,2897 8778,2865 8715,2830 8658,2879 8646,2954 8568,3001 L 8542,3010 Z"/>
         <path fill="rgb(72,246,57)" stroke="none" d="M 8692,3905 C 8862,3737 8753,3790 8934,3642 8937,3639 8942,3635 8945,3632 L 8967,3612 C 9040,3538 9079,3443 9100,3333 9117,3247 9120,3275 9091,3215 9078,3190 9078,3195 9059,3166 9056,3161 9042,3147 9041,3138 9041,3129 9035,3127 9032,3123 8936,3127 9019,3123 8957,3133 8937,3136 8970,3124 8922,3139 8864,3158 8845,3198 8804,3240 8626,3417 8477,3446 8475,3731 8474,3898 8523,3882 8692,3905 Z"/>
         <path fill="none" stroke="rgb(0,0,0)" stroke-width="50" stroke-linejoin="miter" d="M 8692,3905 C 8862,3737 8753,3790 8934,3642 8937,3639 8942,3635 8945,3632 L 8967,3612 C 9040,3538 9079,3443 9100,3333 9117,3247 9120,3275 9091,3215 9078,3190 9078,3195 9059,3166 9056,3161 9042,3147 9041,3138 9041,3129 9035,3127 9032,3123 8936,3127 9019,3123 8957,3133 8937,3136 8970,3124 8922,3139 8864,3158 8845,3198 8804,3240 8626,3417 8477,3446 8475,3731 8474,3898 8523,3882 8692,3905 Z"/>
         <path fill="rgb(171,65,127)" stroke="none" d="M 9371,3608 C 9297,3811 9564,3745 9152,4213 9124,4244 8563,4817 8788,4705 L 9897,4158 C 9976,4118 9576,3750 9444,3625 9424,3606 9374,3601 9371,3608 Z"/>
         <path fill="none" stroke="rgb(27,25,24)" stroke-width="50" stroke-linejoin="miter" d="M 9371,3608 C 9297,3811 9564,3745 9152,4213 9124,4244 8563,4817 8788,4705 L 9897,4158 C 9976,4118 9576,3750 9444,3625 9424,3606 9374,3601 9371,3608 Z"/>
         <path fill="rgb(106,247,242)" stroke="none" d="M 9083,3405 C 9069,3500 8954,3669 8904,3746 8839,3847 8631,3958 8608,3979 L 8621,4103 C 8680,4209 8716,4508 8763,4579 8838,4573 9006,4368 9060,4302 9113,4237 9246,4153 9325,3964 9360,3881 9378,3718 9372,3609 9344,3565 9338,3580 9309,3522 9282,3468 9293,3460 9256,3423 9184,3386 9220,3367 9147,3342 9113,3383 9137,3371 9083,3405 Z"/>
         <path fill="none" stroke="rgb(0,0,0)" stroke-width="50" stroke-linejoin="miter" d="M 9083,3405 C 9069,3500 8954,3669 8904,3746 8839,3847 8631,3958 8608,3979 L 8621,4103 C 8680,4209 8716,4508 8763,4579 8838,4573 9006,4368 9060,4302 9113,4237 9246,4153 9325,3964 9360,3881 9378,3718 9372,3609 9344,3565 9338,3580 9309,3522 9282,3468 9293,3460 9256,3423 9184,3386 9220,3367 9147,3342 9113,3383 9137,3371 9083,3405 Z"/>
         <path fill="none" stroke="rgb(27,25,24)" stroke-width="75" stroke-linejoin="miter" d="M 7997,1858 L 8779,4730 9904,4167 7997,1858 Z"/>
      </g>
      <g class="Group" id="ear" onmouseover="wink()">
         <path fill="rgb(255,255,255)" stroke="none" d="M 11507,5401 C 11678,4233 11470,3377 11157,3069 10628,3253 10328,4166 10202,4781 Z"/>
         <path class="line" d="M 11507,5401 C 11678,4233 11470,3377 11157,3069 10628,3253 10328,4166 10202,4781"/>
         <path fill="rgb(245,177,181)" stroke="none" d="M 10537,4917 C 10607,4512 10712,3975 11022,3644 11234,3881 11195,4773 11116,5156 Z"/>
         <path class="line" d="M 10537,4917 C 10607,4512 10712,3975 11022,3644 11234,3881 11195,4773 11116,5156"/>
      </g>
      <g id="snout" onmouseover="smile()">
	<path class="fill" d="M 7020,5914 C 5695,6621 6105,7678 6501,8002 6868,7969 7302,8002 7502,7801 7581,7067 7101,7079 7020,5914 Z" />
	<path id="jowl_1" style="display:none" class="fill" d="M 6501,8002 C 6868,7969 7302,8002 7502,7801 7473,7926 7500,8039 7522,8112 7294,8158 6808,8243 6501,8002 Z" />
	<path id="jowl_2" class="fill" d="M 6580,8193 C 6927,8061 7236,8121 7502,7801 7473,7926 7500,8039 7522,8112 7288,8224 6887,8335 6566,8194 Z" />
        <path fill="rgb(27,25,24)" stroke="rgb(27,25,24)" stroke-width="20" stroke-linejoin="miter" d="M 6664,6661 L 6665,6661 C 6692,6661 6715,6667 6738,6681 6761,6694 6778,6711 6791,6734 6805,6757 6811,6780 6811,6807 6811,6834 6805,6857 6791,6880 6778,6903 6761,6920 6738,6933 6715,6947 6692,6953 6665,6953 6638,6953 6615,6947 6592,6933 6569,6920 6552,6903 6539,6880 6525,6857 6519,6834 6519,6807 6519,6780 6525,6757 6539,6734 6552,6711 6569,6694 6592,6681 6615,6667 6637,6661 6664,6661 Z"/>
      </g>
      <g class="Group" id="eye_open" style="display:none" onclick="close_eye()">
         <path fill="rgb(27,25,24)" stroke="none" d="M 8484,5526 C 8564,5526 8632,5544 8701,5584 8770,5624 8820,5674 8860,5743 8900,5812 8918,5880 8918,5960 8918,6040 8900,6108 8860,6177 8820,6246 8770,6296 8701,6336 8632,6376 8564,6394 8484,6394 8404,6394 8336,6376 8267,6336 8198,6296 8148,6246 8108,6177 8068,6108 8050,6040 8050,5960 8050,5880 8068,5812 8108,5743 8148,5674 8198,5624 8267,5584 8336,5544 8404,5526 8484,5526 Z"/>
         <path fill="none" stroke="rgb(27,25,24)" stroke-width="20" stroke-linejoin="miter" d="M 8484,5526 C 8564,5526 8632,5544 8701,5584 8770,5624 8820,5674 8860,5743 8900,5812 8918,5880 8918,5960 8918,6040 8900,6108 8860,6177 8820,6246 8770,6296 8701,6336 8632,6376 8564,6394 8484,6394 8404,6394 8336,6376 8267,6336 8198,6296 8148,6246 8108,6177 8068,6108 8050,6040 8050,5960 8050,5880 8068,5812 8108,5743 8148,5674 8198,5624 8267,5584 8336,5544 8404,5526 8484,5526 Z"/>
         <path fill="rgb(255,255,255)" stroke="none" d="M 8654,5788 L 8653,5788 C 8674,5788 8691,5793 8709,5803 8727,5813 8740,5826 8750,5844 8760,5862 8765,5879 8765,5899 L 8765,5900 C 8765,5920 8760,5937 8750,5955 8740,5973 8727,5986 8709,5996 8691,6006 8674,6011 8654,6011 8633,6011 8616,6006 8598,5996 8580,5986 8567,5973 8557,5955 8547,5937 8542,5920 8542,5900 8542,5879 8547,5862 8557,5844 8567,5826 8580,5813 8598,5803 8616,5793 8633,5788 8653,5788 L 8654,5788 Z"/>
         <path fill="none" stroke="rgb(27,25,24)" stroke-width="20" stroke-linejoin="miter" d="M 8654,5788 L 8653,5788 C 8674,5788 8691,5793 8709,5803 8727,5813 8740,5826 8750,5844 8760,5862 8765,5879 8765,5899 L 8765,5900 C 8765,5920 8760,5937 8750,5955 8740,5973 8727,5986 8709,5996 8691,6006 8674,6011 8654,6011 8633,6011 8616,6006 8598,5996 8580,5986 8567,5973 8557,5955 8547,5937 8542,5920 8542,5900 8542,5879 8547,5862 8557,5844 8567,5826 8580,5813 8598,5803 8616,5793 8633,5788 8653,5788 L 8654,5788 Z"/>
         <path fill="rgb(255,255,255)" stroke="none" d="M 8324,5678 L 8323,5678 C 8344,5678 8361,5683 8379,5693 8397,5703 8410,5716 8420,5734 8430,5752 8435,5769 8435,5789 L 8435,5790 C 8435,5810 8430,5827 8420,5845 8410,5863 8397,5876 8379,5886 8361,5896 8344,5901 8324,5901 8303,5901 8286,5896 8268,5886 8250,5876 8237,5863 8227,5845 8217,5827 8212,5810 8212,5790 8212,5769 8217,5752 8227,5734 8237,5716 8250,5703 8268,5693 8286,5683 8303,5678 8323,5678 L 8324,5678 Z"/>
         <path fill="none" stroke="rgb(27,25,24)" stroke-width="20" stroke-linejoin="miter" d="M 8324,5678 L 8323,5678 C 8344,5678 8361,5683 8379,5693 8397,5703 8410,5716 8420,5734 8430,5752 8435,5769 8435,5789 L 8435,5790 C 8435,5810 8430,5827 8420,5845 8410,5863 8397,5876 8379,5886 8361,5896 8344,5901 8324,5901 8303,5901 8286,5896 8268,5886 8250,5876 8237,5863 8227,5845 8217,5827 8212,5810 8212,5790 8212,5769 8217,5752 8227,5734 8237,5716 8250,5703 8268,5693 8286,5683 8303,5678 8323,5678 L 8324,5678 Z"/>
         <path fill="none" stroke="rgb(27,25,24)" stroke-width="75" stroke-linejoin="miter" d="M 8778,5638 L 8952,5438"/>
         <path fill="none" stroke="rgb(27,25,24)" stroke-width="75" stroke-linejoin="miter" d="M 8508,5528 L 8524,5263"/>
         <path fill="none" stroke="rgb(27,25,24)" stroke-width="75" stroke-linejoin="miter" d="M 8223,5612 L 8049,5412"/>
      </g>
      <g class="Group" id="eye_close" style="display:none" onclick="open_eye()">
         <path fill="rgb(27,25,24)" stroke="none" d="M 8056,5970 C 8056,6050 8074,6118 8114,6187 8154,6256 8204,6306 8273,6346 8342,6386 8410,6404 8490,6404 8570,6404 8638,6386 8707,6346 8776,6306 8826,6256 8866,6187 8906,6118 8924,6050 8924,5970 L 8490,5970 8056,5970 Z"/>
         <path fill="none" stroke="rgb(27,25,24)" stroke-width="20" stroke-linejoin="miter" d="M 8056,5970 C 8056,6050 8074,6118 8114,6187 8154,6256 8204,6306 8273,6346 8342,6386 8410,6404 8490,6404 8570,6404 8638,6386 8707,6346 8776,6306 8826,6256 8866,6187 8906,6118 8924,6050 8924,5970 L 8490,5970 8056,5970 Z"/>
         <path fill="none" stroke="rgb(27,25,24)" stroke-width="75" stroke-linejoin="miter" d="M 8784,6292 L 8958,6492"/>
         <path fill="none" stroke="rgb(27,25,24)" stroke-width="75" stroke-linejoin="miter" d="M 8515,6401 L 8531,6666"/>
         <path fill="none" stroke="rgb(27,25,24)" stroke-width="75" stroke-linejoin="miter" d="M 8229,6318 L 8055,6518"/>
      </g>
      <g id="eye2_open">
         <path class="line" d="M 8181,5662 L 7981,5362"/>
         <path class="line" d="M 8581,5562 L 8581,5162"/>
         <path class="line" d="M 8981,5662 L 9181,5362"/>
         <path fill="rgb(142,248,245)" stroke="none" d="M 8573,5462 C 8913,5462 9173,5722 9173,6062 9173,6402 8913,6662 8573,6662 8233,6662 7973,6402 7973,6062 7973,5722 8233,5462 8573,5462 Z"/>
         <path fill="none" stroke="rgb(0,0,0)" stroke-width="50" stroke-linejoin="round" d="M 8573,5462 C 8913,5462 9173,5722 9173,6062 9173,6402 8913,6662 8573,6662 8233,6662 7973,6402 7973,6062 7973,5722 8233,5462 8573,5462 Z"/>
          <path fill="rgb(27,25,24)" stroke="none" d="M 8431,5562 C 8496,5562 8550,5577 8606,5609 8662,5641 8702,5681 8734,5737 8766,5793 8781,5847 8781,5912 8781,5977 8766,6031 8734,6087 8702,6143 8662,6183 8606,6215 8550,6247 8496,6262 8431,6262 8366,6262 8312,6247 8256,6215 8200,6183 8160,6143 8128,6087 8096,6031 8081,5977 8081,5912 8081,5847 8096,5793 8128,5737 8160,5681 8200,5641 8256,5609 8312,5577 8366,5562 8431,5562 Z"/>
          <path fill="none" stroke="rgb(27,25,24)" stroke-width="20" stroke-linejoin="miter" d="M 8431,5562 C 8496,5562 8550,5577 8606,5609 8662,5641 8702,5681 8734,5737 8766,5793 8781,5847 8781,5912 8781,5977 8766,6031 8734,6087 8702,6143 8662,6183 8606,6215 8550,6247 8496,6262 8431,6262 8366,6262 8312,6247 8256,6215 8200,6183 8160,6143 8128,6087 8096,6031 8081,5977 8081,5912 8081,5847 8096,5793 8128,5737 8160,5681 8200,5641 8256,5609 8312,5577 8366,5562 8431,5562 Z"/>
          <path fill="rgb(255,255,255)" stroke="none" d="M 8568,5773 C 8584,5773 8598,5777 8613,5785 8627,5793 8638,5804 8646,5818 8654,5833 8658,5846 8658,5863 8658,5879 8654,5893 8646,5908 8638,5922 8627,5933 8613,5941 8598,5949 8584,5953 8568,5953 8551,5953 8538,5949 8523,5941 8509,5933 8498,5922 8490,5908 8482,5893 8478,5879 8478,5863 8478,5846 8482,5833 8490,5818 8498,5804 8509,5793 8523,5785 8538,5777 8551,5773 8568,5773 Z"/>
          <path fill="none" stroke="rgb(27,25,24)" stroke-width="20" stroke-linejoin="miter" d="M 8568,5773 C 8584,5773 8598,5777 8613,5785 8627,5793 8638,5804 8646,5818 8654,5833 8658,5846 8658,5863 8658,5879 8654,5893 8646,5908 8638,5922 8627,5933 8613,5941 8598,5949 8584,5953 8568,5953 8551,5953 8538,5949 8523,5941 8509,5933 8498,5922 8490,5908 8482,5893 8478,5879 8478,5863 8478,5846 8482,5833 8490,5818 8498,5804 8509,5793 8523,5785 8538,5777 8551,5773 8568,5773 Z"/>
          <path fill="rgb(255,255,255)" stroke="none" d="M 8302,5685 C 8318,5685 8332,5689 8347,5697 8361,5705 8372,5716 8380,5730 8388,5745 8392,5758 8392,5775 8392,5791 8388,5805 8380,5820 8372,5834 8361,5845 8347,5853 8332,5861 8318,5865 8302,5865 8285,5865 8272,5861 8257,5853 8243,5845 8232,5834 8224,5820 8216,5805 8212,5791 8212,5775 8212,5758 8216,5745 8224,5730 8232,5716 8243,5705 8257,5697 8272,5689 8285,5685 8302,5685 Z"/>
          <path fill="none" stroke="rgb(27,25,24)" stroke-width="20" stroke-linejoin="miter" d="M 8302,5685 C 8318,5685 8332,5689 8347,5697 8361,5705 8372,5716 8380,5730 8388,5745 8392,5758 8392,5775 8392,5791 8388,5805 8380,5820 8372,5834 8361,5845 8347,5853 8332,5861 8318,5865 8302,5865 8285,5865 8272,5861 8257,5853 8243,5845 8232,5834 8224,5820 8216,5805 8212,5791 8212,5775 8212,5758 8216,5745 8224,5730 8232,5716 8243,5705 8257,5697 8272,5689 8285,5685 8302,5685 Z"/>
      </g>
      <g class="Group" id="eye2_almost_open_1" style="display:none">
         <path class="line" d="M 8182,5862 L 7982,5562"/>
         <path class="line" d="M 8582,5762 L 8582,5362"/>
         <path class="line" d="M 8982,5862 L 9182,5562"/>
         <path fill="rgb(142,248,245)" stroke="none" d="M 9174,6059 C 9174,6062 9174,6065 9174,6069 9174,6178 9149,6271 9093,6366 9038,6461 8969,6529 8874,6583 8778,6638 8684,6663 8573,6663 8462,6663 8368,6638 8273,6583 8177,6529 8108,6461 8053,6366 7997,6271 7972,6178 7972,6069 L 7972,6076 C 7972,6072 7972,6068 7972,6064 7972,5983 7997,5915 8053,5845 8108,5775 8177,5725 8272,5685 8368,5644 8462,5626 8573,5626 8684,5626 8778,5644 8873,5685 8969,5725 9038,5775 9093,5845 9149,5915 9174,5983 9174,6063 9174,6066 9174,6068 9174,6071 L 9174,6059 Z"/>
         <path fill="none" stroke="rgb(0,0,0)" stroke-width="50" stroke-linejoin="round" d="M 9174,6059 C 9174,6062 9174,6065 9174,6069 9174,6178 9149,6271 9093,6366 9038,6461 8969,6529 8874,6583 8778,6638 8684,6663 8573,6663 8462,6663 8368,6638 8273,6583 8177,6529 8108,6461 8053,6366 7997,6271 7972,6178 7972,6069 L 7972,6076 C 7972,6072 7972,6068 7972,6064 7972,5983 7997,5915 8053,5845 8108,5775 8177,5725 8272,5685 8368,5644 8462,5626 8573,5626 8684,5626 8778,5644 8873,5685 8969,5725 9038,5775 9093,5845 9149,5915 9174,5983 9174,6063 9174,6066 9174,6068 9174,6071 L 9174,6059 Z"/>
          <path fill="rgb(27,25,24)" stroke="none" d="M 8461,5629 L 8543,5621 8627,5621 8646,5635 8664,5649 8680,5664 8695,5680 8709,5698 8723,5717 8735,5737 8746,5758 8756,5779 8764,5800 8771,5821 8776,5843 8779,5865 8781,5888 8782,5912 8781,5936 8779,5959 8776,5981 8771,6003 8764,6024 8756,6045 8746,6066 8735,6087 8723,6107 8709,6126 8695,6144 8680,6160 8664,6175 8646,6189 8627,6203 8607,6215 8586,6226 8565,6236 8544,6244 8523,6251 8501,6256 8479,6259 8456,6261 8432,6262 8408,6261 8385,6259 8363,6256 8341,6251 8320,6244 8299,6236 8278,6226 8257,6215 8237,6203 8218,6189 8200,6175 8184,6160 8169,6144 8155,6126 8141,6107 8129,6087 8118,6066 8108,6045 8100,6024 8094,6003 8088,5981 8085,5959 8083,5936 8082,5912 8083,5888 8085,5865 8088,5843 8094,5821 8100,5800 8108,5779 8118,5758 8221,5701 8320,5656 8401,5640 8461,5629 Z"/>
          <path fill="none" stroke="rgb(27,25,24)" stroke-width="20" stroke-linejoin="miter" d="M 8461,5629 L 8543,5621 8627,5621 8646,5635 8664,5649 8680,5664 8695,5680 8709,5698 8723,5717 8735,5737 8746,5758 8756,5779 8764,5800 8771,5821 8776,5843 8779,5865 8781,5888 8782,5912 8781,5936 8779,5959 8776,5981 8771,6003 8764,6024 8756,6045 8746,6066 8735,6087 8723,6107 8709,6126 8695,6144 8680,6160 8664,6175 8646,6189 8627,6203 8607,6215 8586,6226 8565,6236 8544,6244 8523,6251 8501,6256 8479,6259 8456,6261 8432,6262 8408,6261 8385,6259 8363,6256 8341,6251 8320,6244 8299,6236 8278,6226 8257,6215 8237,6203 8218,6189 8200,6175 8184,6160 8169,6144 8155,6126 8141,6107 8129,6087 8118,6066 8108,6045 8100,6024 8094,6003 8088,5981 8085,5959 8083,5936 8082,5912 8083,5888 8085,5865 8088,5843 8094,5821 8100,5800 8108,5779 8118,5758 8221,5701 8320,5656 8401,5640 8461,5629 Z"/>
          <path fill="rgb(255,255,255)" stroke="none" d="M 8569,5773 L 8575,5773 8581,5774 8586,5775 8592,5776 8597,5778 8603,5780 8608,5782 8614,5785 8619,5788 8624,5792 8628,5795 8633,5799 8637,5804 8640,5808 8644,5813 8647,5818 8650,5824 8652,5829 8654,5834 8656,5840 8657,5845 8658,5851 8659,5857 8659,5863 8659,5869 8658,5875 8657,5880 8656,5886 8654,5891 8652,5897 8650,5902 8647,5908 8644,5913 8640,5918 8637,5922 8633,5927 8628,5931 8624,5934 8619,5938 8614,5941 8608,5944 8603,5946 8597,5948 8592,5950 8586,5951 8581,5952 8575,5953 8569,5953 8563,5953 8557,5952 8551,5951 8546,5950 8540,5948 8535,5946 8530,5944 8524,5941 8519,5938 8514,5934 8510,5931 8505,5927 8501,5922 8498,5918 8494,5913 8491,5908 8488,5902 8486,5897 8484,5891 8482,5886 8481,5880 8480,5875 8479,5869 8479,5863 8479,5857 8480,5851 8481,5845 8482,5840 8484,5834 8486,5829 8488,5824 8491,5818 8494,5813 8498,5808 8501,5804 8505,5799 8510,5795 8514,5792 8519,5788 8524,5785 8530,5782 8535,5780 8540,5778 8546,5776 8551,5775 8557,5774 8563,5773 8569,5773 Z"/>
          <path fill="none" stroke="rgb(27,25,24)" stroke-width="20" stroke-linejoin="miter" d="M 8569,5773 L 8575,5773 8581,5774 8586,5775 8592,5776 8597,5778 8603,5780 8608,5782 8614,5785 8619,5788 8624,5792 8628,5795 8633,5799 8637,5804 8640,5808 8644,5813 8647,5818 8650,5824 8652,5829 8654,5834 8656,5840 8657,5845 8658,5851 8659,5857 8659,5863 8659,5869 8658,5875 8657,5880 8656,5886 8654,5891 8652,5897 8650,5902 8647,5908 8644,5913 8640,5918 8637,5922 8633,5927 8628,5931 8624,5934 8619,5938 8614,5941 8608,5944 8603,5946 8597,5948 8592,5950 8586,5951 8581,5952 8575,5953 8569,5953 8563,5953 8557,5952 8551,5951 8546,5950 8540,5948 8535,5946 8530,5944 8524,5941 8519,5938 8514,5934 8510,5931 8505,5927 8501,5922 8498,5918 8494,5913 8491,5908 8488,5902 8486,5897 8484,5891 8482,5886 8481,5880 8480,5875 8479,5869 8479,5863 8479,5857 8480,5851 8481,5845 8482,5840 8484,5834 8486,5829 8488,5824 8491,5818 8494,5813 8498,5808 8501,5804 8505,5799 8510,5795 8514,5792 8519,5788 8524,5785 8530,5782 8535,5780 8540,5778 8546,5776 8551,5775 8557,5774 8563,5773 8569,5773 Z"/>
          <path fill="rgb(255,255,255)" stroke="none" d="M 8303,5685 L 8309,5685 8315,5686 8320,5687 8326,5688 8331,5690 8337,5692 8342,5694 8348,5697 8353,5700 8358,5704 8362,5707 8367,5711 8371,5716 8374,5720 8378,5725 8381,5730 8384,5736 8386,5741 8388,5746 8390,5752 8391,5757 8392,5763 8393,5769 8393,5775 8393,5781 8392,5787 8391,5792 8390,5798 8388,5803 8386,5809 8384,5814 8381,5820 8378,5825 8374,5830 8371,5834 8367,5839 8362,5843 8358,5846 8353,5850 8348,5853 8342,5856 8337,5858 8331,5860 8326,5862 8320,5863 8315,5864 8309,5865 8303,5865 8297,5865 8291,5864 8285,5863 8280,5862 8274,5860 8269,5858 8264,5856 8258,5853 8253,5850 8248,5846 8244,5843 8239,5839 8235,5834 8232,5830 8228,5825 8225,5820 8222,5814 8220,5809 8218,5803 8216,5798 8215,5792 8214,5787 8213,5781 8213,5775 8213,5769 8214,5763 8215,5757 8216,5752 8218,5746 8220,5741 8222,5736 8225,5730 8228,5725 8232,5720 8235,5716 8239,5711 8244,5707 8248,5704 8253,5700 8258,5697 8264,5694 8269,5692 8274,5690 8280,5688 8285,5687 8291,5686 8297,5685 8303,5685 Z"/>
          <path fill="none" stroke="rgb(27,25,24)" stroke-width="20" stroke-linejoin="miter" d="M 8303,5685 L 8309,5685 8315,5686 8320,5687 8326,5688 8331,5690 8337,5692 8342,5694 8348,5697 8353,5700 8358,5704 8362,5707 8367,5711 8371,5716 8374,5720 8378,5725 8381,5730 8384,5736 8386,5741 8388,5746 8390,5752 8391,5757 8392,5763 8393,5769 8393,5775 8393,5781 8392,5787 8391,5792 8390,5798 8388,5803 8386,5809 8384,5814 8381,5820 8378,5825 8374,5830 8371,5834 8367,5839 8362,5843 8358,5846 8353,5850 8348,5853 8342,5856 8337,5858 8331,5860 8326,5862 8320,5863 8315,5864 8309,5865 8303,5865 8297,5865 8291,5864 8285,5863 8280,5862 8274,5860 8269,5858 8264,5856 8258,5853 8253,5850 8248,5846 8244,5843 8239,5839 8235,5834 8232,5830 8228,5825 8225,5820 8222,5814 8220,5809 8218,5803 8216,5798 8215,5792 8214,5787 8213,5781 8213,5775 8213,5769 8214,5763 8215,5757 8216,5752 8218,5746 8220,5741 8222,5736 8225,5730 8228,5725 8232,5720 8235,5716 8239,5711 8244,5707 8248,5704 8253,5700 8258,5697 8264,5694 8269,5692 8274,5690 8280,5688 8285,5687 8291,5686 8297,5685 8303,5685 Z"/>
      </g>
      <g id="eye2_almost_open_2" style="display:none">
         <path class="line" d="M 8282,6058 L 8082,5758"/>
         <path class="line" d="M 8582,6058 L 8582,5658"/>
         <path class="line" d="M 8882,6058 L 9082,5758"/>
         <path fill="rgb(142,248,245)" stroke="none" d="M 9174,6055 C 9174,6058 9174,6061 9174,6065 9174,6174 9149,6267 9093,6362 9038,6457 8969,6525 8874,6579 8778,6634 8684,6659 8573,6659 8462,6659 8368,6634 8273,6579 8177,6525 8108,6457 8053,6362 7997,6267 7972,6174 7972,6065 L 7972,6072 C 7972,6068 7972,6064 7972,6060 7972,5979 8080,5908 8147,5898 8232,5866 8285,5870 8384,5852 8486,5845 8495,5831 8606,5831 8717,5831 8719,5845 8811,5859 8906,5899 8938,5873 9001,5905 9068,5940 9174,5979 9174,6059 9174,6062 9174,6064 9174,6067 L 9174,6055 Z"/>
         <path fill="none" stroke="rgb(0,0,0)" stroke-width="50" stroke-linejoin="round" d="M 9174,6055 C 9174,6058 9174,6061 9174,6065 9174,6174 9149,6267 9093,6362 9038,6457 8969,6525 8874,6579 8778,6634 8684,6659 8573,6659 8462,6659 8368,6634 8273,6579 8177,6525 8108,6457 8053,6362 7997,6267 7972,6174 7972,6065 L 7972,6072 C 7972,6068 7972,6064 7972,6060 7972,5979 8080,5908 8147,5898 8232,5866 8285,5870 8384,5852 8486,5845 8495,5831 8606,5831 8717,5831 8719,5845 8811,5859 8906,5899 8938,5873 9001,5905 9068,5940 9174,5979 9174,6059 9174,6062 9174,6064 9174,6067 L 9174,6055 Z"/>
          <path fill="rgb(27,25,24)" stroke="none" d="M 8696,5842 L 8779,5861 8781,5884 8782,5908 8781,5932 8779,5955 8776,5977 8771,5999 8764,6020 8756,6041 8746,6062 8735,6083 8723,6103 8709,6122 8695,6140 8680,6156 8664,6171 8646,6185 8627,6199 8607,6211 8586,6222 8565,6232 8544,6240 8523,6247 8501,6252 8479,6255 8456,6257 8432,6258 8408,6257 8385,6255 8363,6252 8341,6247 8320,6240 8299,6232 8278,6222 8257,6211 8237,6199 8218,6185 8200,6171 8184,6156 8169,6140 8155,6122 8141,6103 8129,6083 8118,6062 8108,6041 8100,6020 8094,5999 8088,5977 8085,5955 8083,5932 8082,5908 8172,5881 8297,5856 8435,5842 8608,5828 8696,5842 Z"/>
          <path fill="none" stroke="rgb(27,25,24)" stroke-width="20" stroke-linejoin="miter" d="M 8696,5842 L 8779,5861 8781,5884 8782,5908 8781,5932 8779,5955 8776,5977 8771,5999 8764,6020 8756,6041 8746,6062 8735,6083 8723,6103 8709,6122 8695,6140 8680,6156 8664,6171 8646,6185 8627,6199 8607,6211 8586,6222 8565,6232 8544,6240 8523,6247 8501,6252 8479,6255 8456,6257 8432,6258 8408,6257 8385,6255 8363,6252 8341,6247 8320,6240 8299,6232 8278,6222 8257,6211 8237,6199 8218,6185 8200,6171 8184,6156 8169,6140 8155,6122 8141,6103 8129,6083 8118,6062 8108,6041 8100,6020 8094,5999 8088,5977 8085,5955 8083,5932 8082,5908 8172,5881 8297,5856 8435,5842 8608,5828 8696,5842 Z"/>
          <path fill="rgb(255,255,255)" stroke="none" d="M 8567,5815 L 8614,5814 8650,5820 8652,5825 8654,5830 8656,5836 8657,5841 8658,5847 8659,5853 8659,5859 8659,5865 8658,5871 8657,5876 8656,5882 8654,5887 8652,5893 8650,5898 8647,5904 8644,5909 8640,5914 8637,5918 8633,5923 8628,5927 8624,5930 8619,5934 8614,5937 8608,5940 8603,5942 8597,5944 8592,5946 8586,5947 8581,5948 8575,5949 8569,5949 8563,5949 8557,5948 8551,5947 8546,5946 8540,5944 8535,5942 8530,5940 8524,5937 8519,5934 8514,5930 8510,5927 8505,5923 8501,5918 8498,5914 8494,5909 8491,5904 8488,5898 8486,5893 8484,5887 8482,5882 8481,5876 8480,5871 8479,5865 8479,5859 8479,5853 8480,5847 8481,5841 8482,5836 8484,5830 8486,5825 8521,5820 8567,5815 Z"/>
          <path fill="none" stroke="rgb(27,25,24)" stroke-width="20" stroke-linejoin="miter" d="M 8567,5815 L 8614,5814 8650,5820 8652,5825 8654,5830 8656,5836 8657,5841 8658,5847 8659,5853 8659,5859 8659,5865 8658,5871 8657,5876 8656,5882 8654,5887 8652,5893 8650,5898 8647,5904 8644,5909 8640,5914 8637,5918 8633,5923 8628,5927 8624,5930 8619,5934 8614,5937 8608,5940 8603,5942 8597,5944 8592,5946 8586,5947 8581,5948 8575,5949 8569,5949 8563,5949 8557,5948 8551,5947 8546,5946 8540,5944 8535,5942 8530,5940 8524,5937 8519,5934 8514,5930 8510,5927 8505,5923 8501,5918 8498,5914 8494,5909 8491,5904 8488,5898 8486,5893 8484,5887 8482,5882 8481,5876 8480,5871 8479,5865 8479,5859 8479,5853 8480,5847 8481,5841 8482,5836 8484,5830 8486,5825 8521,5820 8567,5815 Z"/>
      </g>
      <g class="Group" id="eye2_almost_close_1" style="display:none">
         <path fill="rgb(142,248,245)" stroke="none" d="M 9174,6056 C 9174,6059 9174,6062 9174,6066 9174,6175 9149,6268 9093,6363 9038,6458 8969,6526 8874,6580 8778,6635 8684,6660 8573,6660 8462,6660 8368,6635 8273,6580 8177,6526 8108,6458 8053,6363 7997,6268 7972,6175 7972,6066 L 7972,6073 C 7972,6069 8148,6136 8151,6137 8223,6170 8243,6173 8338,6215 8438,6234 8481,6258 8580,6240 8682,6233 8670,6243 8781,6218 8892,6193 8914,6165 8998,6132 9123,6065 9174,5980 9174,6060 9174,6063 9174,6065 9174,6068 L 9174,6056 Z"/>
         <path fill="none" stroke="rgb(0,0,0)" stroke-width="50" stroke-linejoin="round" d="M 9174,6056 C 9174,6059 9174,6062 9174,6066 9174,6175 9149,6268 9093,6363 9038,6458 8969,6526 8874,6580 8778,6635 8684,6660 8573,6660 8462,6660 8368,6635 8273,6580 8177,6526 8108,6458 8053,6363 7997,6268 7972,6175 7972,6066 L 7972,6073 C 7972,6069 8148,6136 8151,6137 8223,6170 8243,6173 8338,6215 8438,6234 8481,6258 8580,6240 8682,6233 8670,6243 8781,6218 8892,6193 8914,6165 8998,6132 9123,6065 9174,5980 9174,6060 9174,6063 9174,6065 9174,6068 L 9174,6056 Z"/>
         <path class="line" d="M 8157,6137 L 8082,6259"/>
         <path class="line" d="M 8577,6229 L 8582,6359"/>
         <path class="line" d="M 8995,6132 L 9082,6259"/>
      </g>
      <g class="Group" id="eye2_almost_close_2" style="display:none">
         <path fill="rgb(142,248,245)" stroke="none" d="M 9174,6060 C 9174,6063 9174,6066 9174,6070 9174,6179 9149,6272 9093,6367 9038,6462 8969,6530 8874,6584 8778,6639 8684,6664 8573,6664 8462,6664 8368,6639 8273,6584 8177,6530 8108,6462 8053,6367 7997,6272 7972,6179 7972,6070 L 7972,6077 C 7972,6073 8113,6236 8116,6237 8185,6288 8235,6361 8326,6407 8421,6438 8476,6469 8573,6478 8675,6471 8745,6448 8846,6387 8947,6326 8963,6304 9033,6191 9137,6063 9174,5984 9174,6064 9174,6067 9174,6069 9174,6072 L 9174,6060 Z"/>
         <path fill="none" stroke="rgb(0,0,0)" stroke-width="50" stroke-linejoin="round" d="M 9174,6060 C 9174,6063 9174,6066 9174,6070 9174,6179 9149,6272 9093,6367 9038,6462 8969,6530 8874,6584 8778,6639 8684,6664 8573,6664 8462,6664 8368,6639 8273,6584 8177,6530 8108,6462 8053,6367 7997,6272 7972,6179 7972,6070 L 7972,6077 C 7972,6073 8113,6236 8116,6237 8185,6288 8235,6361 8326,6407 8421,6438 8476,6469 8573,6478 8675,6471 8745,6448 8846,6387 8947,6326 8963,6304 9033,6191 9137,6063 9174,5984 9174,6064 9174,6067 9174,6069 9174,6072 L 9174,6060 Z"/>
         <path class="line" d="M 8154,6253 L 8077,6467"/>
         <path class="line" d="M 8573,6473 L 8577,6738"/>
         <path class="line" d="M 8995,6236 L 9104,6416"/>
      </g>
      <g class="Group" id="eye2_close" style="display:none">
         <path class="line" d="M 8201,6500 L 7978,6766"/>
         <path class="line" d="M 8578,7066 L 8578,6666"/>
         <path class="line" d="M 9001,6500 L 9178,6766"/>
         <path class="line" d="M 9201,6092 C 9201,6095 9201,6097 9201,6100 9201,6210 9176,6304 9121,6400 9065,6496 8997,6564 8901,6620 8805,6675 8711,6700 8601,6700 8491,6700 8397,6675 8301,6620 8205,6564 8137,6496 8081,6400 8027,6306 8002,6215 8001,6107"/>
      </g>
 <g id="eye2_right" style="display:none" >
         <path class="line" d="M 8181,5662 L 7981,5362"/>
         <path class="line" d="M 8581,5562 L 8581,5162"/>
         <path class="line" d="M 8981,5662 L 9181,5362"/>
         <path fill="rgb(142,248,245)" stroke="none" d="M 8573,5462 C 8913,5462 9173,5722 9173,6062 9173,6402 8913,6662 8573,6662 8233,6662 7973,6402 7973,6062 7973,5722 8233,5462 8573,5462 Z"/>
         <path fill="none" stroke="rgb(0,0,0)" stroke-width="50" stroke-linejoin="round" d="M 8573,5462 C 8913,5462 9173,5722 9173,6062 9173,6402 8913,6662 8573,6662 8233,6662 7973,6402 7973,6062 7973,5722 8233,5462 8573,5462 Z"/>
          <path fill="rgb(27,25,24)" stroke="none" d="M 8531,5562 C 8596,5562 8650,5577 8706,5609 8762,5641 8802,5681 8834,5737 8866,5793 8881,5847 8881,5912 8881,5977 8866,6031 8834,6087 8802,6143 8762,6183 8706,6215 8650,6247 8596,6262 8531,6262 8466,6262 8412,6247 8356,6215 8300,6183 8260,6143 8228,6087 8196,6031 8181,5977 8181,5912 8181,5847 8196,5793 8228,5737 8260,5681 8300,5641 8356,5609 8412,5577 8466,5562 8531,5562 Z"/>
          <path fill="none" stroke="rgb(27,25,24)" stroke-width="20" stroke-linejoin="miter" d="M 8531,5562 C 8596,5562 8650,5577 8706,5609 8762,5641 8802,5681 8834,5737 8866,5793 8881,5847 8881,5912 8881,5977 8866,6031 8834,6087 8802,6143 8762,6183 8706,6215 8650,6247 8596,6262 8531,6262 8466,6262 8412,6247 8356,6215 8300,6183 8260,6143 8228,6087 8196,6031 8181,5977 8181,5912 8181,5847 8196,5793 8228,5737 8260,5681 8300,5641 8356,5609 8412,5577 8466,5562 8531,5562 Z"/>
          <path fill="rgb(255,255,255)" stroke="none" d="M 8668,5773 C 8684,5773 8698,5777 8713,5785 8727,5793 8738,5804 8746,5818 8754,5833 8758,5846 8758,5863 8758,5879 8754,5893 8746,5908 8738,5922 8727,5933 8713,5941 8698,5949 8684,5953 8668,5953 8651,5953 8638,5949 8623,5941 8609,5933 8598,5922 8590,5908 8582,5893 8578,5879 8578,5863 8578,5846 8582,5833 8590,5818 8598,5804 8609,5793 8623,5785 8638,5777 8651,5773 8668,5773 Z"/>
          <path fill="none" stroke="rgb(27,25,24)" stroke-width="20" stroke-linejoin="miter" d="M 8668,5773 C 8684,5773 8698,5777 8713,5785 8727,5793 8738,5804 8746,5818 8754,5833 8758,5846 8758,5863 8758,5879 8754,5893 8746,5908 8738,5922 8727,5933 8713,5941 8698,5949 8684,5953 8668,5953 8651,5953 8638,5949 8623,5941 8609,5933 8598,5922 8590,5908 8582,5893 8578,5879 8578,5863 8578,5846 8582,5833 8590,5818 8598,5804 8609,5793 8623,5785 8638,5777 8651,5773 8668,5773 Z"/>
          <path fill="rgb(255,255,255)" stroke="none" d="M 8402,5685 C 8418,5685 8432,5689 8447,5697 8461,5705 8472,5716 8480,5730 8488,5745 8492,5758 8492,5775 8492,5791 8488,5805 8480,5820 8472,5834 8461,5845 8447,5853 8432,5861 8418,5865 8402,5865 8385,5865 8372,5861 8357,5853 8343,5845 8332,5834 8324,5820 8316,5805 8312,5791 8312,5775 8312,5758 8316,5745 8324,5730 8332,5716 8343,5705 8357,5697 8372,5689 8385,5685 8402,5685 Z"/>
          <path fill="none" stroke="rgb(27,25,24)" stroke-width="20" stroke-linejoin="miter" d="M 8402,5685 C 8418,5685 8432,5689 8447,5697 8461,5705 8472,5716 8480,5730 8488,5745 8492,5758 8492,5775 8492,5791 8488,5805 8480,5820 8472,5834 8461,5845 8447,5853 8432,5861 8418,5865 8402,5865 8385,5865 8372,5861 8357,5853 8343,5845 8332,5834 8324,5820 8316,5805 8312,5791 8312,5775 8312,5758 8316,5745 8324,5730 8332,5716 8343,5705 8357,5697 8372,5689 8385,5685 8402,5685 Z"/>
 </g>
      <g id="eye2_right2" style="display:none">
        <path class="line" d="M 8185,5657 L 7985,5357"/>
        <path class="line" d="M 8585,5557 L 8585,5157"/>
        <path class="line" d="M 8985,5657 L 9185,5357"/>
        <path fill="rgb(142,248,245)" stroke="none" d="M 8577,5457 C 8917,5457 9177,5717 9177,6057 9177,6397 8917,6657 8577,6657 8237,6657 7977,6397 7977,6057 7977,5717 8237,5457 8577,5457 Z"/>
        <path fill="none" stroke="rgb(0,0,0)" stroke-width="50" stroke-linejoin="round" d="M 8577,5457 C 8917,5457 9177,5717 9177,6057 9177,6397 8917,6657 8577,6657 8237,6657 7977,6397 7977,6057 7977,5717 8237,5457 8577,5457 Z"/>
         <path fill="rgb(27,25,24)" stroke="none" d="M 8635,5557 C 8700,5557 8754,5572 8810,5604 8866,5636 8906,5676 8938,5732 8970,5788 8985,5842 8985,5907 8985,5972 8970,6026 8938,6082 8906,6138 8866,6178 8810,6210 8754,6242 8700,6257 8635,6257 8570,6257 8516,6242 8460,6210 8404,6178 8364,6138 8332,6082 8300,6026 8285,5972 8285,5907 8285,5842 8300,5788 8332,5732 8364,5676 8404,5636 8460,5604 8516,5572 8570,5557 8635,5557 Z"/>
         <path fill="none" stroke="rgb(27,25,24)" stroke-width="20" stroke-linejoin="miter" d="M 8635,5557 C 8700,5557 8754,5572 8810,5604 8866,5636 8906,5676 8938,5732 8970,5788 8985,5842 8985,5907 8985,5972 8970,6026 8938,6082 8906,6138 8866,6178 8810,6210 8754,6242 8700,6257 8635,6257 8570,6257 8516,6242 8460,6210 8404,6178 8364,6138 8332,6082 8300,6026 8285,5972 8285,5907 8285,5842 8300,5788 8332,5732 8364,5676 8404,5636 8460,5604 8516,5572 8570,5557 8635,5557 Z"/>
         <path fill="rgb(255,255,255)" stroke="none" d="M 8772,5768 C 8788,5768 8802,5772 8817,5780 8831,5788 8842,5799 8850,5813 8858,5828 8862,5841 8862,5858 8862,5874 8858,5888 8850,5903 8842,5917 8831,5928 8817,5936 8802,5944 8788,5948 8772,5948 8755,5948 8742,5944 8727,5936 8713,5928 8702,5917 8694,5903 8686,5888 8682,5874 8682,5858 8682,5841 8686,5828 8694,5813 8702,5799 8713,5788 8727,5780 8742,5772 8755,5768 8772,5768 Z"/>
         <path fill="none" stroke="rgb(27,25,24)" stroke-width="20" stroke-linejoin="miter" d="M 8772,5768 C 8788,5768 8802,5772 8817,5780 8831,5788 8842,5799 8850,5813 8858,5828 8862,5841 8862,5858 8862,5874 8858,5888 8850,5903 8842,5917 8831,5928 8817,5936 8802,5944 8788,5948 8772,5948 8755,5948 8742,5944 8727,5936 8713,5928 8702,5917 8694,5903 8686,5888 8682,5874 8682,5858 8682,5841 8686,5828 8694,5813 8702,5799 8713,5788 8727,5780 8742,5772 8755,5768 8772,5768 Z"/>
         <path fill="rgb(255,255,255)" stroke="none" d="M 8506,5680 C 8522,5680 8536,5684 8551,5692 8565,5700 8576,5711 8584,5725 8592,5740 8596,5753 8596,5770 8596,5786 8592,5800 8584,5815 8576,5829 8565,5840 8551,5848 8536,5856 8522,5860 8506,5860 8489,5860 8476,5856 8461,5848 8447,5840 8436,5829 8428,5815 8420,5800 8416,5786 8416,5770 8416,5753 8420,5740 8428,5725 8436,5711 8447,5700 8461,5692 8476,5684 8489,5680 8506,5680 Z"/>
         <path fill="none" stroke="rgb(27,25,24)" stroke-width="20" stroke-linejoin="miter" d="M 8506,5680 C 8522,5680 8536,5684 8551,5692 8565,5700 8576,5711 8584,5725 8592,5740 8596,5753 8596,5770 8596,5786 8592,5800 8584,5815 8576,5829 8565,5840 8551,5848 8536,5856 8522,5860 8506,5860 8489,5860 8476,5856 8461,5848 8447,5840 8436,5829 8428,5815 8420,5800 8416,5786 8416,5770 8416,5753 8420,5740 8428,5725 8436,5711 8447,5700 8461,5692 8476,5684 8489,5680 8506,5680 Z"/>
        </g>
      <g id="eye2_right3" style="display:none">
         <path class="line" d="M 8189,5652 L 7989,5352"/>
         <path class="line" d="M 8589,5552 L 8589,5152"/>
         <path class="line" d="M 8989,5652 L 9189,5352"/>
         <path fill="rgb(142,248,245)" stroke="none" d="M 8581,5452 C 8921,5452 9181,5712 9181,6052 9181,6392 8921,6652 8581,6652 8241,6652 7981,6392 7981,6052 7981,5712 8241,5452 8581,5452 Z"/>
         <path fill="none" stroke="rgb(0,0,0)" stroke-width="50" stroke-linejoin="round" d="M 8581,5452 C 8921,5452 9181,5712 9181,6052 9181,6392 8921,6652 8581,6652 8241,6652 7981,6392 7981,6052 7981,5712 8241,5452 8581,5452 Z"/>
          <path fill="rgb(27,25,24)" stroke="none" d="M 8739,5552 C 8804,5552 8858,5567 8914,5599 8970,5631 9010,5671 9042,5727 9074,5783 9089,5837 9089,5902 9089,5967 9074,6021 9042,6077 9010,6133 8970,6173 8914,6205 8858,6237 8804,6252 8739,6252 8674,6252 8620,6237 8564,6205 8508,6173 8468,6133 8436,6077 8404,6021 8389,5967 8389,5902 8389,5837 8404,5783 8436,5727 8468,5671 8508,5631 8564,5599 8620,5567 8674,5552 8739,5552 Z"/>
          <path fill="none" stroke="rgb(27,25,24)" stroke-width="20" stroke-linejoin="miter" d="M 8739,5552 C 8804,5552 8858,5567 8914,5599 8970,5631 9010,5671 9042,5727 9074,5783 9089,5837 9089,5902 9089,5967 9074,6021 9042,6077 9010,6133 8970,6173 8914,6205 8858,6237 8804,6252 8739,6252 8674,6252 8620,6237 8564,6205 8508,6173 8468,6133 8436,6077 8404,6021 8389,5967 8389,5902 8389,5837 8404,5783 8436,5727 8468,5671 8508,5631 8564,5599 8620,5567 8674,5552 8739,5552 Z"/>
          <path fill="rgb(255,255,255)" stroke="none" d="M 8876,5763 C 8892,5763 8906,5767 8921,5775 8935,5783 8946,5794 8954,5808 8962,5823 8966,5836 8966,5853 8966,5869 8962,5883 8954,5898 8946,5912 8935,5923 8921,5931 8906,5939 8892,5943 8876,5943 8859,5943 8846,5939 8831,5931 8817,5923 8806,5912 8798,5898 8790,5883 8786,5869 8786,5853 8786,5836 8790,5823 8798,5808 8806,5794 8817,5783 8831,5775 8846,5767 8859,5763 8876,5763 Z"/>
          <path fill="none" stroke="rgb(27,25,24)" stroke-width="20" stroke-linejoin="miter" d="M 8876,5763 C 8892,5763 8906,5767 8921,5775 8935,5783 8946,5794 8954,5808 8962,5823 8966,5836 8966,5853 8966,5869 8962,5883 8954,5898 8946,5912 8935,5923 8921,5931 8906,5939 8892,5943 8876,5943 8859,5943 8846,5939 8831,5931 8817,5923 8806,5912 8798,5898 8790,5883 8786,5869 8786,5853 8786,5836 8790,5823 8798,5808 8806,5794 8817,5783 8831,5775 8846,5767 8859,5763 8876,5763 Z"/>
          <path fill="rgb(255,255,255)" stroke="none" d="M 8610,5675 C 8626,5675 8640,5679 8655,5687 8669,5695 8680,5706 8688,5720 8696,5735 8700,5748 8700,5765 8700,5781 8696,5795 8688,5810 8680,5824 8669,5835 8655,5843 8640,5851 8626,5855 8610,5855 8593,5855 8580,5851 8565,5843 8551,5835 8540,5824 8532,5810 8524,5795 8520,5781 8520,5765 8520,5748 8524,5735 8532,5720 8540,5706 8551,5695 8565,5687 8580,5679 8593,5675 8610,5675 Z"/>
          <path fill="none" stroke="rgb(27,25,24)" stroke-width="20" stroke-linejoin="miter" d="M 8610,5675 C 8626,5675 8640,5679 8655,5687 8669,5695 8680,5706 8688,5720 8696,5735 8700,5748 8700,5765 8700,5781 8696,5795 8688,5810 8680,5824 8669,5835 8655,5843 8640,5851 8626,5855 8610,5855 8593,5855 8580,5851 8565,5843 8551,5835 8540,5824 8532,5810 8524,5795 8520,5781 8520,5765 8520,5748 8524,5735 8532,5720 8540,5706 8551,5695 8565,5687 8580,5679 8593,5675 8610,5675 Z"/>
      </g>
    </g>
    <g id="head_up1" style="display:none">
    <g id="hcontour_up1">
      <path class="line" d="M 8954,4176 L 8489,4530 7934,4736"/>
      <path class="line" d="M 7766,6986 C 7887,7000 8496,7158 8515,7161 9347,7707 10066,7926 10547,7540"/>
    </g>
     <g id="contour_up1">
    <path class="line" d="M 10539,7547 C 9502,9441 9557,11390 9590,12732"/>
  </g>
      <g id="mane_up1">
        <path class="fill" d="M 8481,4472 C 9668,3699 10160,4286 10762,4292 11363,4297 12434,3740 12274,3660 L 11838,3444 C 11600,3293 11277,3238 10968,3193 10366,3187 9565,3135 8481,4472 Z"/>
        <path class="fill" d="M 12301,8340 C 10481,11824 12400,12046 13038,11900 11958,11489 12327,11087 12473,10395 Z"/>
        <path class="fill" d="M 12709,7209 C 12709,7209 10952,10891 13663,10613 13663,10613 12404,10437 13098,9108 Z"/>
        <path class="fill" d="M 12800,4003 C 14113,4906 14347,6282 13836,7571 13583,8267 13547,9147 14597,9149 14259,9803 12614,9671 12687,7352 12702,6328 12863,5760 12611,5018 Z"/>
      </g>
      <g class="Group" id="horn_up1">
         <path fill="rgb(255,47,0)" stroke="none" d="M 10054,1997 C 10173,1998 10271,1794 10248,1668 L 10199,1526 C 10156,1419 10199,1389 10099,1328 L 10044,1404 C 10021,1464 10016,1618 10017,1683 10018,1786 9991,1926 10054,1997 Z"/>
         <path fill="none" stroke="rgb(0,0,0)" stroke-width="50" stroke-linejoin="miter" d="M 10054,1997 C 10173,1998 10271,1794 10248,1668 L 10199,1526 C 10156,1419 10199,1389 10099,1328 L 10044,1404 C 10021,1464 10016,1618 10017,1683 10018,1786 9991,1926 10054,1997 Z"/>
         <path fill="rgb(255,153,0)" stroke="none" d="M 10033,2347 C 10224,2414 10338,2445 10402,2236 10426,2162 10424,2097 10412,2042 L 10363,1929 C 10358,1922 10327,1884 10327,1884 10058,1872 10036,2115 10033,2347 Z"/>
         <path fill="none" stroke="rgb(0,0,0)" stroke-width="50" stroke-linejoin="miter" d="M 10033,2347 C 10224,2414 10338,2445 10402,2236 10426,2162 10424,2097 10412,2042 L 10363,1929 C 10358,1922 10327,1884 10327,1884 10058,1872 10036,2115 10033,2347 Z"/>
         <path fill="rgb(255,255,0)" stroke="none" d="M 10232,2402 C 10179,2430 10116,2420 10085,2444 10057,2467 10024,2570 10029,2597 10072,2629 10013,2684 10012,2819 10096,2853 10176,2768 10260,2779 10309,2753 10342,2720 10390,2684 10444,2644 10472,2622 10513,2543 10523,2505 10519,2472 10520,2435 10459,2353 10500,2332 10450,2280 10381,2310 10347,2378 10259,2400 L 10232,2402 Z"/>
         <path fill="none" stroke="rgb(0,0,0)" stroke-width="50" stroke-linejoin="miter" d="M 10232,2402 C 10179,2430 10116,2420 10085,2444 10057,2467 10024,2570 10029,2597 10072,2629 10013,2684 10012,2819 10096,2853 10176,2768 10260,2779 10309,2753 10342,2720 10390,2684 10444,2644 10472,2622 10513,2543 10523,2505 10519,2472 10520,2435 10459,2353 10500,2332 10450,2280 10381,2310 10347,2378 10259,2400 L 10232,2402 Z"/>
         <path fill="rgb(72,246,57)" stroke="none" d="M 10114,3301 C 10326,3190 10206,3209 10423,3120 10426,3118 10432,3116 10436,3114 L 10463,3101 C 10554,3052 10619,2972 10671,2873 10713,2796 10707,2823 10697,2758 10692,2730 10691,2735 10681,2701 10679,2696 10670,2678 10672,2669 10674,2661 10669,2657 10668,2652 10575,2628 10655,2649 10593,2640 10573,2637 10608,2635 10558,2636 10497,2637 10467,2670 10415,2698 10193,2815 10042,2800 9958,3072 9908,3231 9959,3230 10114,3301 Z"/>
         <path fill="none" stroke="rgb(0,0,0)" stroke-width="50" stroke-linejoin="miter" d="M 10114,3301 C 10326,3190 10206,3209 10423,3120 10426,3118 10432,3116 10436,3114 L 10463,3101 C 10554,3052 10619,2972 10671,2873 10713,2796 10707,2823 10697,2758 10692,2730 10691,2735 10681,2701 10679,2696 10670,2678 10672,2669 10674,2661 10669,2657 10668,2652 10575,2628 10655,2649 10593,2640 10573,2637 10608,2635 10558,2636 10497,2637 10467,2670 10415,2698 10193,2815 10042,2800 9958,3072 9908,3231 9959,3230 10114,3301 Z"/>
         <path fill="rgb(171,65,127)" stroke="none" d="M 10851,3215 C 10721,3388 10995,3402 10465,3730 10429,3752 9725,4136 9973,4095 L 11193,3894 C 11281,3879 11005,3411 10915,3253 10902,3229 10855,3209 10851,3215 Z"/>
         <path fill="none" stroke="rgb(27,25,24)" stroke-width="50" stroke-linejoin="miter" d="M 10851,3215 C 10721,3388 10995,3402 10465,3730 10429,3752 9725,4136 9973,4095 L 11193,3894 C 11281,3879 11005,3411 10915,3253 10902,3229 10855,3209 10851,3215 Z"/>
         <path fill="rgb(106,247,242)" stroke="none" d="M 10634,2937 C 10593,3024 10434,3152 10364,3211 10272,3289 10041,3334 10013,3348 L 9989,3470 C 10014,3589 9962,3885 9986,3967 10060,3983 10280,3836 10351,3788 10420,3742 10572,3700 10703,3542 10760,3473 10825,3322 10851,3216 10837,3166 10827,3179 10816,3115 10806,3055 10819,3051 10794,3005 10736,2948 10776,2941 10714,2895 10669,2925 10696,2920 10634,2937 Z"/>
         <path fill="none" stroke="rgb(0,0,0)" stroke-width="50" stroke-linejoin="miter" d="M 10634,2937 C 10593,3024 10434,3152 10364,3211 10272,3289 10041,3334 10013,3348 L 9989,3470 C 10014,3589 9962,3885 9986,3967 10060,3983 10280,3836 10351,3788 10420,3742 10572,3700 10703,3542 10760,3473 10825,3322 10851,3216 10837,3166 10827,3179 10816,3115 10806,3055 10819,3051 10794,3005 10736,2948 10776,2941 10714,2895 10669,2925 10696,2920 10634,2937 Z"/>
         <path fill="none" stroke="rgb(27,25,24)" stroke-width="75" stroke-linejoin="miter" d="M 10046,1141 L 9957,4116 11198,3905 10046,1141 Z"/>
      </g>
      <g class="Group" id="ear_up1">
         <path fill="rgb(255,255,255)" stroke="none" d="M 12372,5553 C 12875,4485 12926,3606 12716,3220 12156,3242 11603,4028 11304,4579 Z"/>
         <path class="line" d="M 12372,5553 C 12875,4485 12926,3606 12716,3220 12156,3242 11603,4028 11304,4579"/>
         <path fill="rgb(245,177,181)" stroke="none" d="M 11585,4807 C 11770,4440 12026,3957 12419,3730 12553,4019 12256,4861 12069,5204 Z"/>
         <path class="line" d="M 11585,4807 C 11770,4440 12026,3957 12419,3730 12553,4019 12256,4861 12069,5204"/>
      </g>
      <g id="snout_up1">
	<path class="fill" d="M 7930,4736 C 6456,5027 6541,6157 6825,6582 7186,6658 7591,6816 7841,6682 8130,6003 7668,5874 7930,4736 Z"/>
	<path id="jowl_up1" class="fill" d="M 6845,6788 C 7215,6763 7493,6910 7841,6682 7777,6793 7770,6909 7770,6985 7513,7024 7097,7013 6831,6785 Z"/>
        <path fill="rgb(27,25,24)" stroke="rgb(27,25,24)" stroke-width="20" stroke-linejoin="miter" d="M 7372,5347 L 7372,5347 C 7398,5355 7419,5368 7437,5388 7455,5407 7466,5428 7472,5454 7478,5480 7477,5504 7470,5530 7462,5555 7449,5576 7429,5594 7410,5612 7389,5623 7363,5629 7337,5636 7313,5635 7287,5627 7262,5619 7241,5606 7223,5586 7205,5567 7194,5546 7188,5520 7181,5494 7182,5470 7190,5445 7198,5419 7211,5398 7231,5381 7250,5362 7271,5351 7297,5345 7323,5339 7346,5339 7372,5347 Z"/>
      </g>
      <g id="eye2_open_up1">
         <path class="line" d="M 9114,4833 L 9010,4488"/>
         <path class="line" d="M 9526,4854 L 9642,4472"/>
         <path class="line" d="M 9879,5066 L 10158,4838"/>
         <path fill="rgb(142,248,245)" stroke="none" d="M 9547,4756 C 9872,4855 10045,5180 9946,5505 9847,5830 9523,6003 9197,5904 8872,5805 8699,5481 8798,5155 8897,4830 9222,4657 9547,4756 Z"/>
         <path fill="none" stroke="rgb(0,0,0)" stroke-width="50" stroke-linejoin="round" d="M 9547,4756 C 9872,4855 10045,5180 9946,5505 9847,5830 9523,6003 9197,5904 8872,5805 8699,5481 8798,5155 8897,4830 9222,4657 9547,4756 Z"/>
          <path fill="rgb(27,25,24)" stroke="none" d="M 9382,4811 C 9444,4829 9492,4860 9536,4906 9580,4953 9607,5003 9621,5066 9635,5129 9634,5185 9615,5247 9596,5309 9566,5357 9519,5401 9472,5445 9422,5472 9359,5486 9296,5500 9240,5499 9178,5480 9116,5461 9069,5431 9024,5384 8980,5337 8954,5287 8939,5224 8925,5162 8926,5106 8945,5043 8964,4981 8994,4934 9041,4890 9088,4845 9138,4819 9201,4804 9264,4790 9320,4792 9382,4811 Z"/>
          <path fill="none" stroke="rgb(27,25,24)" stroke-width="20" stroke-linejoin="miter" d="M 9382,4811 C 9444,4829 9492,4860 9536,4906 9580,4953 9607,5003 9621,5066 9635,5129 9634,5185 9615,5247 9596,5309 9566,5357 9519,5401 9472,5445 9422,5472 9359,5486 9296,5500 9240,5499 9178,5480 9116,5461 9069,5431 9024,5384 8980,5337 8954,5287 8939,5224 8925,5162 8926,5106 8945,5043 8964,4981 8994,4934 9041,4890 9088,4845 9138,4819 9201,4804 9264,4790 9320,4792 9382,4811 Z"/>
          <path fill="rgb(255,255,255)" stroke="none" d="M 9452,5052 C 9467,5057 9479,5065 9491,5077 9502,5089 9510,5102 9513,5118 9516,5135 9516,5148 9512,5165 9507,5180 9499,5192 9487,5204 9475,5215 9461,5223 9446,5226 9429,5229 9415,5229 9399,5224 9383,5220 9372,5212 9360,5200 9349,5188 9341,5174 9338,5159 9334,5142 9335,5127 9339,5112 9344,5096 9352,5085 9364,5073 9376,5062 9389,5054 9405,5051 9422,5047 9435,5047 9452,5052 Z"/>
          <path fill="none" stroke="rgb(27,25,24)" stroke-width="20" stroke-linejoin="miter" d="M 9452,5052 C 9467,5057 9479,5065 9491,5077 9502,5089 9510,5102 9513,5118 9516,5135 9516,5148 9512,5165 9507,5180 9499,5192 9487,5204 9475,5215 9461,5223 9446,5226 9429,5229 9415,5229 9399,5224 9383,5220 9372,5212 9360,5200 9349,5188 9341,5174 9338,5159 9334,5142 9335,5127 9339,5112 9344,5096 9352,5085 9364,5073 9376,5062 9389,5054 9405,5051 9422,5047 9435,5047 9452,5052 Z"/>
          <path fill="rgb(255,255,255)" stroke="none" d="M 9223,4891 C 9238,4895 9250,4903 9262,4915 9273,4927 9281,4941 9284,4956 9288,4973 9288,4987 9283,5003 9278,5018 9270,5030 9258,5042 9246,5054 9233,5061 9217,5064 9200,5068 9186,5067 9170,5063 9154,5058 9143,5050 9131,5038 9120,5026 9112,5013 9109,4997 9106,4980 9106,4966 9111,4950 9115,4934 9123,4923 9135,4911 9147,4900 9161,4893 9176,4889 9193,4886 9207,4886 9223,4891 Z"/>
          <path fill="none" stroke="rgb(27,25,24)" stroke-width="20" stroke-linejoin="miter" d="M 9223,4891 C 9238,4895 9250,4903 9262,4915 9273,4927 9281,4941 9284,4956 9288,4973 9288,4987 9283,5003 9278,5018 9270,5030 9258,5042 9246,5054 9233,5061 9217,5064 9200,5068 9186,5067 9170,5063 9154,5058 9143,5050 9131,5038 9120,5026 9112,5013 9109,4997 9106,4980 9106,4966 9111,4950 9115,4934 9123,4923 9135,4911 9147,4900 9161,4893 9176,4889 9193,4886 9207,4886 9223,4891 Z"/>
      </g>
      </g>
      <g id="head_up2" style="display:none">
    <g id="hcontour_up2">
      <path class="line" d="M 8325,4478 L 7874,4849 7327,5076"/>
      <path class="line" d="M 7244,7331 C 7365,7340 7979,7475 7998,7477 8850,7992 9577,8184 10044,7780"/>
    </g>
    <g id="contour_up2">
            <path class="line" d="M 10031,7795 C 9502,9441 9557,11390 9590,12732"/>
    </g>
      <g id="mane_up2">
        <path class="fill" d="M 7864,4792 C 9021,3974 9534,4543 10136,4526 10737,4509 11787,3912 11623,3838 L 11179,3638 C 10937,3496 10612,3454 10301,3421 9699,3436 8897,3415 7864,4792 Z"/>
        <path class="fill" d="M 11826,8514 C 10138,12063 12064,12213 12696,12044 11602,11673 11955,11257 12075,10561 Z"/>
        <path class="fill" d="M 12191,7368 C 12191,7368 10574,11113 13273,10734 13273,10734 12008,10605 12651,9252 Z"/>
        <path class="fill" d="M 12161,4161 C 13508,5014 13793,6380 13331,7687 13105,8393 13102,9273 14151,9236 13838,9902 12189,9832 12175,7511 12151,6488 12291,5914 12011,5182 Z"/>
      </g>
      <g class="Group" id="horn_up2">
         <path fill="rgb(255,47,0)" stroke="none" d="M 9342,2260 C 9461,2256 9552,2048 9524,1923 L 9470,1783 C 9423,1678 9465,1646 9362,1589 L 9311,1667 C 9289,1728 9290,1882 9294,1947 9299,2049 9277,2190 9342,2260 Z"/>
         <path fill="none" stroke="rgb(0,0,0)" stroke-width="50" stroke-linejoin="miter" d="M 9342,2260 C 9461,2256 9552,2048 9524,1923 L 9470,1783 C 9423,1678 9465,1646 9362,1589 L 9311,1667 C 9289,1728 9290,1882 9294,1947 9299,2049 9277,2190 9342,2260 Z"/>
         <path fill="rgb(255,153,0)" stroke="none" d="M 9335,2610 C 9528,2669 9643,2697 9700,2485 9720,2410 9716,2346 9702,2290 L 9649,2180 C 9643,2173 9611,2136 9611,2136 9342,2134 9329,2378 9335,2610 Z"/>
         <path fill="none" stroke="rgb(0,0,0)" stroke-width="50" stroke-linejoin="miter" d="M 9335,2610 C 9528,2669 9643,2697 9700,2485 9720,2410 9716,2346 9702,2290 L 9649,2180 C 9643,2173 9611,2136 9611,2136 9342,2134 9329,2378 9335,2610 Z"/>
         <path fill="rgb(255,255,0)" stroke="none" d="M 9535,2657 C 9484,2688 9421,2679 9390,2704 9363,2729 9335,2834 9340,2860 9384,2890 9327,2947 9331,3082 9417,3113 9494,3026 9578,3033 9625,3005 9657,2971 9704,2933 9757,2891 9784,2868 9821,2788 9831,2749 9825,2717 9825,2680 9760,2599 9801,2577 9749,2527 9681,2560 9650,2629 9563,2655 L 9535,2657 Z"/>
         <path fill="none" stroke="rgb(0,0,0)" stroke-width="50" stroke-linejoin="miter" d="M 9535,2657 C 9484,2688 9421,2679 9390,2704 9363,2729 9335,2834 9340,2860 9384,2890 9327,2947 9331,3082 9417,3113 9494,3026 9578,3033 9625,3005 9657,2971 9704,2933 9757,2891 9784,2868 9821,2788 9831,2749 9825,2717 9825,2680 9760,2599 9801,2577 9749,2527 9681,2560 9650,2629 9563,2655 L 9535,2657 Z"/>
         <path fill="rgb(72,246,57)" stroke="none" d="M 9452,3561 C 9659,3442 9540,3465 9753,3368 9757,3366 9763,3363 9766,3361 L 9793,3347 C 9882,3295 9944,3213 9992,3112 10031,3033 10027,3061 10014,2995 10008,2968 10006,2973 9995,2940 9994,2934 9984,2917 9985,2908 9987,2899 9982,2896 9980,2891 9886,2871 9968,2888 9905,2882 9885,2880 9920,2876 9870,2879 9809,2882 9780,2916 9730,2946 9513,3072 9361,3062 9287,3337 9243,3498 9294,3495 9452,3561 Z"/>
         <path fill="none" stroke="rgb(0,0,0)" stroke-width="50" stroke-linejoin="miter" d="M 9452,3561 C 9659,3442 9540,3465 9753,3368 9757,3366 9763,3363 9766,3361 L 9793,3347 C 9882,3295 9944,3213 9992,3112 10031,3033 10027,3061 10014,2995 10008,2968 10006,2973 9995,2940 9994,2934 9984,2917 9985,2908 9987,2899 9982,2896 9980,2891 9886,2871 9968,2888 9905,2882 9885,2880 9920,2876 9870,2879 9809,2882 9780,2916 9730,2946 9513,3072 9361,3062 9287,3337 9243,3498 9294,3495 9452,3561 Z"/>
         <path fill="rgb(171,65,127)" stroke="none" d="M 10184,3447 C 10061,3624 10336,3628 9818,3976 9783,3999 9094,4409 9341,4359 L 10552,4113 C 10639,4094 10346,3636 10251,3482 10236,3458 10189,3441 10184,3447 Z"/>
         <path fill="none" stroke="rgb(27,25,24)" stroke-width="50" stroke-linejoin="miter" d="M 10184,3447 C 10061,3624 10336,3628 9818,3976 9783,3999 9094,4409 9341,4359 L 10552,4113 C 10639,4094 10346,3636 10251,3482 10236,3458 10189,3441 10184,3447 Z"/>
         <path fill="rgb(106,247,242)" stroke="none" d="M 9958,3177 C 9920,3265 9766,3399 9698,3461 9609,3542 9379,3596 9352,3611 L 9333,3734 C 9363,3851 9321,4150 9349,4230 9423,4244 9637,4088 9706,4038 9774,3989 9924,3942 10049,3779 10104,3708 10163,3555 10185,3448 10169,3398 10160,3411 10146,3348 10134,3289 10147,3284 10120,3238 10060,3184 10100,3175 10036,3132 9992,3163 10019,3158 9958,3177 Z"/>
         <path fill="none" stroke="rgb(0,0,0)" stroke-width="50" stroke-linejoin="miter" d="M 9958,3177 C 9920,3265 9766,3399 9698,3461 9609,3542 9379,3596 9352,3611 L 9333,3734 C 9363,3851 9321,4150 9349,4230 9423,4244 9637,4088 9706,4038 9774,3989 9924,3942 10049,3779 10104,3708 10163,3555 10185,3448 10169,3398 10160,3411 10146,3348 10134,3289 10147,3284 10120,3238 10060,3184 10100,3175 10036,3132 9992,3163 10019,3158 9958,3177 Z"/>
         <path fill="none" stroke="rgb(27,25,24)" stroke-width="75" stroke-linejoin="miter" d="M 9302,1404 L 9326,4380 10557,4123 9302,1404 Z"/>
      </g>
      <g class="Group" id="ear_up2">
         <path fill="rgb(255,255,255)" stroke="none" d="M 11792,5725 C 12255,4640 12273,3759 12049,3381 11490,3424 10967,4230 10688,4793 Z"/>
         <path class="line" d="M 11792,5725 C 12255,4640 12273,3759 12049,3381 11490,3424 10967,4230 10688,4793"/>
         <path fill="rgb(245,177,181)" stroke="none" d="M 10978,5010 C 11149,4636 11387,4144 11771,3903 11916,4186 11651,5039 11476,5389 Z"/>
         <path class="line" d="M 10978,5010 C 11149,4636 11387,4144 11771,3903 11916,4186 11651,5039 11476,5389"/>
      </g>
      <g id="snout_up2">
	<path class="fill" d="M 7323,5076 C 5861,5422 5988,6548 6288,6963 6651,7024 7062,7167 7307,7024 7571,6334 7104,6223 7323,5076 Z"/>
	<path id="jowl_up2" class="fill" d="M 6316,7168 C 6685,7128 6968,7265 7307,7024 7247,7137 7244,7253 7247,7330 6992,7378 6576,7383 6302,7165 Z"/>
        <path fill="rgb(27,25,24)" stroke="rgb(27,25,24)" stroke-width="20" stroke-linejoin="miter" d="M 6788,5708 L 6789,5708 C 6815,5715 6836,5727 6854,5746 6873,5764 6885,5785 6892,5811 6900,5837 6899,5860 6893,5886 6886,5912 6874,5933 6855,5952 6836,5971 6815,5983 6790,5990 6764,5997 6740,5997 6714,5990 6688,5983 6667,5972 6649,5952 6630,5934 6618,5913 6611,5888 6603,5862 6603,5838 6610,5812 6617,5786 6629,5765 6648,5746 6667,5727 6687,5715 6713,5709 6739,5701 6762,5701 6788,5708 Z"/>
      </g>
      <g id="eye2_open_up2" style="">
         <path class="line" d="M 8509,5129 L 8393,4788"/>
         <path class="line" d="M 8922,5134 L 9024,4748"/>
         <path class="line" d="M 9283,5333 L 9553,5094"/>
         <path fill="rgb(142,248,245)" stroke="none" d="M 8940,5036 C 9268,5122 9453,5440 9367,5769 9280,6098 8962,6283 8633,6196 8305,6109 8119,5791 8206,5463 8293,5134 8611,4949 8940,5036 Z"/>
         <path fill="none" stroke="rgb(0,0,0)" stroke-width="50" stroke-linejoin="round" d="M 8940,5036 C 9268,5122 9453,5440 9367,5769 9280,6098 8962,6283 8633,6196 8305,6109 8119,5791 8206,5463 8293,5134 8611,4949 8940,5036 Z"/>
          <path fill="rgb(27,25,24)" stroke="none" d="M 8777,5096 C 8840,5113 8888,5141 8934,5186 8980,5231 9008,5280 9025,5343 9042,5405 9042,5461 9026,5524 9009,5587 8981,5635 8936,5681 8890,5727 8842,5755 8779,5772 8717,5789 8661,5789 8598,5773 8535,5756 8487,5728 8441,5683 8395,5638 8366,5589 8350,5526 8333,5464 8332,5408 8349,5345 8366,5282 8394,5234 8439,5188 8484,5142 8533,5113 8596,5097 8658,5080 8714,5079 8777,5096 Z"/>
          <path fill="none" stroke="rgb(27,25,24)" stroke-width="20" stroke-linejoin="miter" d="M 8777,5096 C 8840,5113 8888,5141 8934,5186 8980,5231 9008,5280 9025,5343 9042,5405 9042,5461 9026,5524 9009,5587 8981,5635 8936,5681 8890,5727 8842,5755 8779,5772 8717,5789 8661,5789 8598,5773 8535,5756 8487,5728 8441,5683 8395,5638 8366,5589 8350,5526 8333,5464 8332,5408 8349,5345 8366,5282 8394,5234 8439,5188 8484,5142 8533,5113 8596,5097 8658,5080 8714,5079 8777,5096 Z"/>
          <path fill="rgb(255,255,255)" stroke="none" d="M 8855,5335 C 8871,5339 8883,5347 8896,5358 8907,5369 8915,5383 8919,5398 8923,5415 8924,5429 8919,5445 8915,5461 8908,5473 8896,5485 8885,5497 8872,5505 8856,5509 8839,5513 8825,5513 8809,5509 8793,5505 8781,5498 8769,5486 8757,5475 8750,5461 8745,5446 8742,5429 8741,5415 8745,5399 8750,5383 8757,5371 8768,5359 8780,5347 8793,5339 8809,5335 8825,5331 8839,5331 8855,5335 Z"/>
          <path fill="none" stroke="rgb(27,25,24)" stroke-width="20" stroke-linejoin="miter" d="M 8855,5335 C 8871,5339 8883,5347 8896,5358 8907,5369 8915,5383 8919,5398 8923,5415 8924,5429 8919,5445 8915,5461 8908,5473 8896,5485 8885,5497 8872,5505 8856,5509 8839,5513 8825,5513 8809,5509 8793,5505 8781,5498 8769,5486 8757,5475 8750,5461 8745,5446 8742,5429 8741,5415 8745,5399 8750,5383 8757,5371 8768,5359 8780,5347 8793,5339 8809,5335 8825,5331 8839,5331 8855,5335 Z"/>
          <path fill="rgb(255,255,255)" stroke="none" d="M 8621,5182 C 8636,5186 8649,5194 8661,5205 8673,5216 8680,5230 8685,5245 8688,5262 8689,5276 8685,5292 8681,5308 8673,5320 8662,5333 8650,5344 8637,5352 8621,5356 8605,5360 8590,5360 8575,5356 8558,5352 8547,5345 8534,5333 8523,5322 8515,5308 8511,5293 8507,5276 8507,5262 8511,5246 8515,5230 8522,5218 8534,5206 8545,5194 8558,5186 8574,5182 8591,5178 8604,5178 8621,5182 Z"/>
          <path fill="none" stroke="rgb(27,25,24)" stroke-width="20" stroke-linejoin="miter" d="M 8621,5182 C 8636,5186 8649,5194 8661,5205 8673,5216 8680,5230 8685,5245 8688,5262 8689,5276 8685,5292 8681,5308 8673,5320 8662,5333 8650,5344 8637,5352 8621,5356 8605,5360 8590,5360 8575,5356 8558,5352 8547,5345 8534,5333 8523,5322 8515,5308 8511,5293 8507,5276 8507,5262 8511,5246 8515,5230 8522,5218 8534,5206 8545,5194 8558,5186 8574,5182 8591,5178 8604,5178 8621,5182 Z"/>
      </g>
     </g>
   <g id="head_down" style="display:none">
    <g id="hcontour_down">
      <path class="line" d="M 7658,5420 L 7380,5934 6957,6349"/>
      <path class="line" d="M 7727,8470 C 7843,8434 8463,8328 8481,8323 9464,8479 10210,8385 10491,7836"/>
    </g>
    <path id="contour" class="line" d="M 10485,7847 C 9502,9441 9557,11390 9590,12732"/>
      <g id="mane_down">
        <path class="fill" d="M 7348,5884 C 8114,4691 8803,5027 9355,4784 9905,4543 10654,3596 10474,3589 L 9988,3570 C 9710,3530 9393,3612 9092,3699 8540,3939 7788,4220 7348,5884 Z"/>
        <path class="fill" d="M 12418,7846 C 12185,11770 14027,11185 14550,10792 13396,10859 13568,10341 13418,9650 Z"/>
        <path class="fill" d="M 12326,6647 C 12326,6647 12234,10726 14592,9361 14592,9361 13372,9717 13461,8221 Z"/>
        <path class="fill" d="M 11095,3686 C 12663,3971 13440,5130 13503,6516 13558,7254 13886,8071 14845,7643 14804,8378 13249,8932 12365,6786 11959,5847 11874,5262 11339,4689 Z"/>
      </g>
      <g class="Group" id="horn_down">
         <path fill="rgb(255,47,0)" stroke="none" d="M 7768,2982 C 7877,2934 7883,2707 7810,2602 L 7708,2492 C 7624,2412 7652,2368 7535,2353 L 7516,2444 C 7520,2509 7577,2652 7605,2710 7649,2803 7681,2943 7768,2982 Z"/>
         <path fill="none" stroke="rgb(0,0,0)" stroke-width="50" stroke-linejoin="miter" d="M 7768,2982 C 7877,2934 7883,2707 7810,2602 L 7708,2492 C 7624,2412 7652,2368 7535,2353 L 7516,2444 C 7520,2509 7577,2652 7605,2710 7649,2803 7681,2943 7768,2982 Z"/>
         <path fill="rgb(255,153,0)" stroke="none" d="M 7892,3309 C 8094,3292 8211,3274 8184,3057 8175,2980 8147,2922 8114,2875 L 8023,2794 C 8014,2789 7970,2767 7970,2767 7721,2866 7800,3097 7892,3309 Z"/>
         <path fill="none" stroke="rgb(0,0,0)" stroke-width="50" stroke-linejoin="miter" d="M 7892,3309 C 8094,3292 8211,3274 8184,3057 8175,2980 8147,2922 8114,2875 L 8023,2794 C 8014,2789 7970,2767 7970,2767 7721,2866 7800,3097 7892,3309 Z"/>
         <path fill="rgb(255,255,0)" stroke="none" d="M 8096,3278 C 8060,3325 7999,3341 7979,3376 7964,3410 7976,3517 7991,3539 8043,3551 8012,3625 8066,3749 8158,3745 8196,3635 8277,3610 8311,3567 8327,3524 8356,3470 8390,3412 8406,3380 8411,3293 8404,3253 8387,3225 8373,3190 8283,3140 8312,3104 8245,3077 8195,3133 8193,3209 8121,3265 L 8096,3278 Z"/>
         <path fill="none" stroke="rgb(0,0,0)" stroke-width="50" stroke-linejoin="miter" d="M 8096,3278 C 8060,3325 7999,3341 7979,3376 7964,3410 7976,3517 7991,3539 8043,3551 8012,3625 8066,3749 8158,3745 8196,3635 8277,3610 8311,3567 8327,3524 8356,3470 8390,3412 8406,3380 8411,3293 8404,3253 8387,3225 8373,3190 8283,3140 8312,3104 8245,3077 8195,3133 8193,3209 8121,3265 L 8096,3278 Z"/>
         <path fill="rgb(72,246,57)" stroke="none" d="M 8359,4147 C 8506,3959 8404,4025 8565,3855 8568,3852 8572,3848 8574,3844 L 8594,3822 C 8656,3738 8684,3639 8690,3528 8696,3440 8703,3468 8667,3412 8651,3388 8651,3393 8629,3367 8626,3363 8610,3350 8607,3341 8606,3332 8600,3332 8597,3328 8501,3344 8584,3329 8524,3347 8504,3353 8535,3337 8489,3358 8434,3384 8420,3426 8385,3473 8231,3671 8087,3719 8120,4001 8141,4168 8187,4145 8359,4147 Z"/>
         <path fill="none" stroke="rgb(0,0,0)" stroke-width="50" stroke-linejoin="miter" d="M 8359,4147 C 8506,3959 8404,4025 8565,3855 8568,3852 8572,3848 8574,3844 L 8594,3822 C 8656,3738 8684,3639 8690,3528 8696,3440 8703,3468 8667,3412 8651,3388 8651,3393 8629,3367 8626,3363 8610,3350 8607,3341 8606,3332 8600,3332 8597,3328 8501,3344 8584,3329 8524,3347 8504,3353 8535,3337 8489,3358 8434,3384 8420,3426 8385,3473 8231,3671 8087,3719 8120,4001 8141,4168 8187,4145 8359,4147 Z"/>
         <path fill="rgb(171,65,127)" stroke="none" d="M 8994,3766 C 8946,3977 9203,3878 8853,4394 8830,4428 8345,5068 8554,4928 L 9586,4246 C 9658,4195 9216,3881 9069,3774 9047,3758 8996,3759 8994,3766 Z"/>
         <path fill="none" stroke="rgb(27,25,24)" stroke-width="50" stroke-linejoin="miter" d="M 8994,3766 C 8946,3977 9203,3878 8853,4394 8830,4428 8345,5068 8554,4928 L 9586,4246 C 9658,4195 9216,3881 9069,3774 9047,3758 8996,3759 8994,3766 Z"/>
         <path fill="rgb(106,247,242)" stroke="none" d="M 8683,3601 C 8681,3697 8588,3880 8548,3962 8497,4070 8304,4207 8284,4231 L 8312,4353 C 8385,4450 8458,4742 8514,4806 8588,4791 8728,4566 8774,4494 8817,4423 8939,4323 8993,4125 9018,4039 9015,3875 8995,3767 8962,3727 8958,3742 8921,3689 8888,3638 8899,3629 8857,3597 8781,3569 8813,3546 8739,3530 8710,3576 8732,3561 8683,3601 Z"/>
         <path fill="none" stroke="rgb(0,0,0)" stroke-width="50" stroke-linejoin="miter" d="M 8683,3601 C 8681,3697 8588,3880 8548,3962 8497,4070 8304,4207 8284,4231 L 8312,4353 C 8385,4450 8458,4742 8514,4806 8588,4791 8728,4566 8774,4494 8817,4423 8939,4323 8993,4125 9018,4039 9015,3875 8995,3767 8962,3727 8958,3742 8921,3689 8888,3638 8899,3629 8857,3597 8781,3569 8813,3546 8739,3530 8710,3576 8732,3561 8683,3601 Z"/>
         <path fill="none" stroke="rgb(27,25,24)" stroke-width="75" stroke-linejoin="miter" d="M 7410,2204 L 8548,4954 9593,4253 7410,2204 Z"/>
      </g>
      <g class="Group" id="ear_down">
         <path fill="rgb(255,255,255)" stroke="none" d="M 11340,5274 C 11362,4095 11047,3272 10698,3005 10196,3256 10014,4198 9967,4824 Z"/>
         <path class="line" d="M 11340,5274 C 11362,4095 11047,3272 10698,3005 10196,3256 10014,4198 9967,4824"/>
         <path fill="rgb(245,177,181)" stroke="none" d="M 10317,4918 C 10335,4506 10371,3961 10637,3593 10877,3802 10950,4691 10921,5081 Z"/>
         <path class="line" d="M 10317,4918 C 10335,4506 10371,3961 10637,3593 10877,3802 10950,4691 10921,5081"/>
      </g>
      <g id="snout_down">
	<path class="fill" d="M 6954,6351 C 5729,7220 6269,8216 6703,8488 7062,8409 7498,8387 7670,8162 7656,7423 7181,7496 6954,6351 Z"/>
	<path id="jowl_down" class="fill" d="M 6805,8667 C 7132,8493 7447,8513 7670,8162 7657,8289 7698,8398 7730,8468 7511,8609 7127,8769 6791,8670 Z" style=""/>
        <path fill="rgb(27,25,24)" stroke="rgb(27,25,24)" stroke-width="20" stroke-linejoin="miter" d="M 6695,7137 L 6696,7137 C 6723,7133 6746,7136 6771,7147 6795,7157 6814,7172 6830,7193 6847,7215 6856,7236 6859,7263 6863,7290 6860,7313 6849,7338 6838,7362 6824,7382 6803,7397 6781,7414 6760,7423 6733,7426 6706,7430 6682,7427 6657,7416 6633,7406 6614,7391 6598,7370 6582,7349 6573,7327 6570,7300 6567,7273 6569,7250 6580,7225 6590,7201 6605,7182 6625,7166 6647,7149 6668,7140 6695,7137 Z"/>
      </g>
      <g id="eye2_open_down">
         <path class="line" d="M 8073,5954 L 7837,5682"/>
         <path class="line" d="M 8458,5804 L 8407,5407"/>
         <path class="line" d="M 8866,5853 L 9027,5530"/>
         <path fill="rgb(142,248,245)" stroke="none" d="M 8437,5706 C 8774,5663 9065,5888 9108,6226 9151,6563 8926,6853 8589,6896 8252,6939 7961,6715 7917,6378 7874,6040 8100,5749 8437,5706 Z"/>
         <path fill="none" stroke="rgb(0,0,0)" stroke-width="50" stroke-linejoin="round" d="M 8437,5706 C 8774,5663 9065,5888 9108,6226 9151,6563 8926,6853 8589,6896 8252,6939 7961,6715 7917,6378 7874,6040 8100,5749 8437,5706 Z"/>
          <path fill="rgb(27,25,24)" stroke="none" d="M 8308,5823 C 8373,5815 8429,5824 8488,5848 8548,5872 8593,5907 8631,5958 8671,6010 8692,6061 8700,6126 8708,6191 8700,6246 8676,6305 8651,6366 8617,6410 8565,6449 8513,6487 8461,6510 8398,6518 8333,6526 8277,6518 8217,6494 8158,6468 8113,6434 8075,6382 8035,6331 8014,6279 8006,6215 7998,6151 8006,6095 8030,6035 8055,5976 8089,5931 8142,5892 8193,5853 8245,5831 8308,5823 Z"/>
          <path fill="none" stroke="rgb(27,25,24)" stroke-width="20" stroke-linejoin="miter" d="M 8308,5823 C 8373,5815 8429,5824 8488,5848 8548,5872 8593,5907 8631,5958 8671,6010 8692,6061 8700,6126 8708,6191 8700,6246 8676,6305 8651,6366 8617,6410 8565,6449 8513,6487 8461,6510 8398,6518 8333,6526 8277,6518 8217,6494 8158,6468 8113,6434 8075,6382 8035,6331 8014,6279 8006,6215 7998,6151 8006,6095 8030,6035 8055,5976 8089,5931 8142,5892 8193,5853 8245,5831 8308,5823 Z"/>
          <path fill="rgb(255,255,255)" stroke="none" d="M 8472,6015 C 8487,6013 8502,6015 8517,6022 8532,6028 8545,6037 8554,6050 8564,6064 8570,6076 8572,6093 8574,6109 8572,6123 8566,6140 8559,6154 8550,6166 8537,6176 8523,6187 8510,6192 8494,6194 8477,6196 8464,6193 8448,6188 8433,6182 8421,6172 8411,6159 8401,6145 8395,6132 8393,6116 8392,6099 8394,6086 8399,6069 8406,6055 8415,6043 8429,6033 8442,6023 8455,6018 8472,6015 Z"/>
          <path fill="none" stroke="rgb(27,25,24)" stroke-width="20" stroke-linejoin="miter" d="M 8472,6015 C 8487,6013 8502,6015 8517,6022 8532,6028 8545,6037 8554,6050 8564,6064 8570,6076 8572,6093 8574,6109 8572,6123 8566,6140 8559,6154 8550,6166 8537,6176 8523,6187 8510,6192 8494,6194 8477,6196 8464,6193 8448,6188 8433,6182 8421,6172 8411,6159 8401,6145 8395,6132 8393,6116 8392,6099 8394,6086 8399,6069 8406,6055 8415,6043 8429,6033 8442,6023 8455,6018 8472,6015 Z"/>
          <path fill="rgb(255,255,255)" stroke="none" d="M 8196,5962 C 8212,5960 8227,5961 8242,5968 8258,5974 8270,5983 8280,5996 8289,6011 8295,6022 8297,6039 8299,6055 8297,6070 8291,6086 8285,6101 8275,6113 8263,6123 8248,6133 8235,6138 8219,6140 8203,6143 8188,6141 8173,6134 8158,6128 8145,6119 8136,6106 8126,6091 8120,6079 8119,6063 8116,6046 8118,6032 8124,6016 8131,6001 8140,5989 8154,5979 8167,5969 8179,5964 8196,5962 Z"/>
          <path fill="none" stroke="rgb(27,25,24)" stroke-width="20" stroke-linejoin="miter" d="M 8196,5962 C 8212,5960 8227,5961 8242,5968 8258,5974 8270,5983 8280,5996 8289,6011 8295,6022 8297,6039 8299,6055 8297,6070 8291,6086 8285,6101 8275,6113 8263,6123 8248,6133 8235,6138 8219,6140 8203,6143 8188,6141 8173,6134 8158,6128 8145,6119 8136,6106 8126,6091 8120,6079 8119,6063 8116,6046 8118,6032 8124,6016 8131,6001 8140,5989 8154,5979 8167,5969 8179,5964 8196,5962 Z"/>
      </g>
    </g>
  <script type="text/javascript">
    <![CDATA[
	set_star(2)
    ]]>
  </script>
</svg>
