<?xml version="1.0" encoding="UTF-8"?>
<!DOCTYPE svg PUBLIC "-//W3C//DTD SVG 1.1//EN" "http://www.w3.org/Graphics/SVG/1.1/DTD/svg11.dtd">
<svg version="1.2" width="250mm" height="200mm" viewBox="0 0 25000 20000"
     preserveAspectRatio="xMidYMid" fill-rule="evenodd" stroke-width="28.222" stroke-linejoin="round"
     xmlns="http://www.w3.org/2000/svg"
     xml:space="preserve">
  <script href="svggen.js"></script>
  <script href="svg-editor.js"></script>
  <script href="svg-animate.js"></script>
  <script href="image.js.txt"></script>
  <style>
    path.line {
	fill:none;
	stroke:rgb(0,0,0);
	stroke-width:75;
	stroke-linejoin:round;
    }
    path.line_white_fill {
	fill:rgb(255,255,255);
	stroke:rgb(0,0,0);
	stroke-width:75;
	stroke-linejoin:round;
    }
    path.eyeline {
	fill:none;
	stroke:rgb(0,0,0);
	stroke-width:50;
	stroke-linejoin:round;
    }
    path.fill {
	fill:rgb(246,6,213);
	stroke:rgb(0,0,0);
	stroke-width:75;
	stroke-linejoin:round;
    }
    .dl {
	fill:none;
	stroke:red;
	stroke-width:20;
	stroke-linejoin:round;
    }
    path.germ {
	fill:rgb(153,221,255);
	stroke:rgb(0,0,0);
	stroke-width:25;
	stroke-linejoin:round;
    }
    path.grass {
        fill:rgb(18,118,34);
        stroke:rgb(0,0,0);
    }
    path.clear {
	fill:rgb(255,255,255);
        stroke:none;
    }
    path.flower {
        fill:rgb(255,215,215);
        stroke:rgb(0,0,0);
        stroke-width:20;
        stroke-linejoin:round;
    }
    path.eye2 {
        fill:rgb(142,248,245);
        stroke:none;
    }
    .eyeball {
        fill:rgb(0,0,0);
        stroke:rgb(0,0,0);
        stroke-width:20;
        stroke-linejoin:miter;
    }
    .glare {
        fill:rgb(255,255,255);
        stroke:rgb(0,0,0);
        stroke-width:20;
        stroke-linejoin:miter;
    }
    path.butterfly {
        fill:rgb(0,235,255);
        stroke:rgb(0,0,0);
        stroke-width:15;
        stroke-linejoin:miter;
    }
    path.bline {
        fill:none;
        stroke:rgb(255,255,255);
        stroke-width:25;
        stroke-linejoin:round
    }
    .bcircle {
        fill:rgb(185,150,255);
        stroke:none;
    }
  </style>
  <g id="stars">
      <g id="star1" onclick="set_star(2); prance()">
       <path id="star1off" style="display:none" fill="rgb(255,255,107)" stroke="rgb(52,101,164)" d="M 2573,5592 L 3133,5464 3253,4870 3374,5464 3935,5592 3374,5718 3253,6313 3133,5718 2573,5592 Z"/>
       <path id="star1on" fill="rgb(255,255,0)" stroke="rgb(52,101,164)" d="M 2403,5592 L 3103,5433 3253,4691 3404,5433 4105,5592 3404,5750 3253,6492 3103,5750 2403,5592 Z"/>
      </g>
      <g id="star2" onclick="set_star(2)">
       <path id="star2off" fill="rgb(255,255,107)" stroke="rgb(52,101,164)" d="M 3143,3072 L 3703,2944 3823,2350 3944,2944 4505,3072 3944,3198 3823,3793 3703,3198 3143,3072 Z"/>
       <path id="star2on" style="display:none" fill="rgb(255,255,0)" stroke="rgb(52,101,164)" d="M 2973,3072 L 3673,2913 3823,2171 3974,2913 4675,3072 3974,3230 3823,3972 3673,3230 2973,3072 Z"/>
      </g>
      <g id="star3" onclick="set_star(2); eye(); stomp(); tail(); smile()">
       <path id="star3off" fill="rgb(255,255,107)" stroke="rgb(52,101,164)" d="M 5573,1551 L 6133,1423 6253,829 6374,1423 6935,1551 6374,1677 6253,2272 6133,1677 5573,1551 Z"/>
       <path id="star3on" style="display:none" fill="rgb(255,255,0)" stroke="rgb(52,101,164)" d="M 5403,1551 L 6103,1392 6253,650 6404,1392 7105,1551 6404,1709 6253,2451 6103,1709 5403,1551 Z"/>
      </g>
  </g>
  <g id="body">
  <g>
          <path id="body_contour" class="line" d="M 12376,8868 C 13935,9215 13907,9198 14572,9365 15283,9542 16037,9664 16666,9901 17297,10140 18300,12523 16666,13357 16414,13716 16540,16815 16415,17530 15534,17650 14655,17530 14151,17413 14151,16576 14403,13955 14403,13478 13744,13571 12146,13340 11522,13131"/>
          <path id="body_contour_t" style="display:none" d="M 12376,8868 C 13935,9215 13907,9198 14572,9365 15283,9542 16037,9664 16666,9901 17297,10140 18300,12523 16666,13357 16414,13716 16540,16815 16415,17530 15534,17650 14655,17530 14151,17413 14151,16576 14403,13955 14403,13478 13744,13571 12146,13340 11522,13131"/>
          <path class="fill" d="M 16380,17510 C 16409,17365 16456,16994 16457,16875 16331,16875 15695,17036 14199,16859 14186,17037 14145,17411 14237,17411 14237,17411 15048,17703 16380,17510 Z"/>
  </g>
          <path id="tail_1" style="display:none" class="fill" d="M 17475,11332 C 17548,10858 18025,10704 18488,10692 19753,10892 20175,12453 18223,14555 18403,12292 17855,12372 17475,11332 Z"/>
          <path id="tail_3" onmouseover="tail()" class="fill" transform-origin="15530 13400" d="M 17477,11333 C 17550,10859 18028,10705 18490,10694 19755,10894 18825,12613 20387,13732 18109,13492 17857,12373 17477,11333 Z"/>
          <path id="tail_3_t" style="display:none" class="fill" d="M 17477,11333 C 17550,10859 18028,10705 18490,10694 19755,10894 18825,12613 20387,13732 18109,13492 17857,12373 17477,11333 Z"/>
          <path id="tail_sneeze" style="display:none" class="fill" d="M 17477,11333 C 17550,10859 18028,10705 18490,10694 19755,10894 19962,11343 21709,11562 18610,13202 17857,12373 17477,11333 Z"/>
  <g id="front_hoofs" transform-origin="15530 13400">
          <path id="hit" style="display:none" transform-origin="10470 17355" class="line" d="M 11274,17255 C 11153,17207 11101,17159 11119,17112 10928,17137 10704,17152 10461,17152 10219,17152 9994,17137 9804,17112 9787,17112 9787,17112 9787,17112 9804,17159 9752,17211 9631,17255 9527,17299 9337,17332 9147,17355 L 9147,17355 C 9147,17358 9147,17358 9147,17358 9354,17380 9527,17413 9631,17454 9752,17498 9804,17550 9804,17594 9804,17598 9804,17598 9804,17598 L 9804,17598 C 9994,17572 10219,17557 10461,17557 10704,17557 10928,17572 11119,17598 L 11119,17598 C 11101,17550 11153,17502 11274,17454 11396,17410 11586,17377 11794,17355 L 11794,17355 C 11586,17332 11396,17299 11274,17255 L 11274,17255 Z"/>
          <path id="hit_t" style="display:none" transform-origin="10470 17355" class="line" d="M 11274,17255 C 11153,17207 11101,17159 11119,17112 10928,17137 10704,17152 10461,17152 10219,17152 9994,17137 9804,17112 9787,17112 9787,17112 9787,17112 9804,17159 9752,17211 9631,17255 9527,17299 9337,17332 9147,17355 L 9147,17355 C 9147,17358 9147,17358 9147,17358 9354,17380 9527,17413 9631,17454 9752,17498 9804,17550 9804,17594 9804,17598 9804,17598 9804,17598 L 9804,17598 C 9994,17572 10219,17557 10461,17557 10704,17557 10928,17572 11119,17598 L 11119,17598 C 11101,17550 11153,17502 11274,17454 11396,17410 11586,17377 11794,17355 L 11794,17355 C 11586,17332 11396,17299 11274,17255 L 11274,17255 Z"/>
          <path id="hit1" style="display:none" class="line" d="M 12278,17126 C 12014,17022 11901,16918 11939,16814 11525,16870 11035,16902 10508,16902 9981,16902 9492,16870 9077,16814 9040,16814 9040,16814 9040,16814 9077,16918 8964,17030 8701,17126 8475,17222 8061,17294 7647,17342 L 7647,17342 C 7647,17350 7647,17350 7647,17350 8098,17398 8475,17470 8701,17558 8964,17654 9077,17766 9077,17862 9077,17871 9077,17871 9077,17871 L 9077,17871 C 9492,17814 9981,17782 10508,17782 11035,17782 11525,17814 11939,17871 L 11939,17871 C 11901,17766 12014,17662 12278,17558 12541,17462 12956,17390 13408,17342 L 13408,17342 C 12956,17294 12541,17222 12278,17126 L 12278,17126 Z"/>
          <path id="hoof_right_line" class="line" d="M 9590,12732 C 9484,12865 8531,16415 8405,16772 8509,16863 8958,16947 9331,16865 9363,16436 9331,17056 9359,16403"/>
          <path id="hoof_right" class="fill" d="M 9990,16839 C 9998,16549 9961,16621 9934,16322 9645,16294 9049,16396 8499,16227 8486,16403 8356,16693 8356,16693 8356,16693 8636,17093 9990,16839 Z"/>
          <path id="hoof_left_line" class="line_white_fill" d="M 9590,12732 C 9580,13022 9514,14292 9475,14993 9436,16156 9387,17028 9388,17328 11052,17465 10909,17465 11626,17274 11588,16403 11575,15877 11562,15256 11549,14555 11549,14555 11495,13097"/>
          <path id="hoof_left_line_2" style="display:none" class="line" d="M 9590,12732 C 9580,13022 9514,14292 9475,14993 9436,16156 9387,17028 9388,17328 11052,17465 10909,17465 11626,17274 11588,16403 11575,15877 11562,15256 11549,14555 11549,14555 11495,13097"/>
          <path id="hoof_left_line_3" style="display:none" class="line" d="M 9590,12732 C 9516,12790 9152,13660 9102,14736 9052,15811 10667,16887 10651,17075 11805,16437 11716,16293 12373,15715 11712,14818 11570,14899 11226,14437 11140,13729 11368,13729 11495,13097"/>
          <path id="hoof_left" onmouseover="hoof()" class="fill" d="M 11640,17287 C 11652,17140 11668,16811 11655,16693 11531,16705 10694,17009 9377,16653 9384,16830 9360,17313 9360,17313 9360,17313 10664,17619 11640,17287 Z"/>
          <path id="hoof_left_t" style="display:none" class="fill" d="M 11640,17287 C 11652,17140 11668,16811 11655,16693 11531,16705 10694,17009 9377,16653 9384,16830 9360,17313 9360,17313 9360,17313 10664,17619 11640,17287 Z"/>
          <path id="hoof_left_t_end" style="display:none" class="fill" d="M 12375,15649 C 12282,15529 12067,15269 11976,15188 11890,15273 11462,16021 10216,16562 10343,16693 10657,17076 10657,17076 10657,17076 11860,16504 12375,15649 Z"/>
  </g>
      </g>
  <g id="head">
    <path id="contour" class="line" d="M 10341,7834 C 9502,9441 9557,11390 9590,12732"/>
    <path id="contour_t0" class="line" style="display:none" d="M 10341,7834 C 9502,9441 9557,11390 9590,12732"/>
    <!-- <path id="contour_t1" class="line" style="display:none" d="M 10305,7838 C 10216,7986 10028,8703 8585,10510"/> -->
    <path id="back" class="line" d="M 12376,8868 C 12376,8868 12376,8868 12376,8868"/>
    <path id="back_t0" class="line" style="display:none" d="M 12376,8868 C 12376,8868 12376,8868 12376,8868"/>
    <path id="back_t1" class="line" style="display:none" d="M 12376,8868 C 10212,8420 9665,8261 9301,7627"/>
    <g id="head_without_neck" transform-origin="10807 12015">
    <g id="hcontour">
      <path class="line" d="M 7837,5080 L 7495,5554 7024,5913"/>
      <path class="line" d="M 7519,8114 C 7639,8092 8267,8066 8286,8063 9241,8343 9993,8343 10341,7834"/>
    </g>
      <g id="mane">
        <path class="fill" d="M 7471,5501 C 8381,4415 9022,4834 9600,4664 10177,4494 11039,3649 10862,3619 L 10382,3539 C 10111,3464 9786,3506 9477,3553 8899,3722 8118,3906 7471,5501 Z"/>
        <path class="fill" d="M 12252,8088 C 11525,11951 13426,11604 13994,11279 12841,11200 13077,10708 13015,10004 Z"/>
        <path class="fill" d="M 12312,6887 C 12312,6887 11704,10921 14217,9866 14217,9866 12961,10064 13238,8591 Z"/>
        <path class="fill" d="M 11465,3794 C 12985,4275 13609,5523 13496,6905 13457,7645 13679,8497 14684,8193 14551,8917 12939,9270 12333,7030 12049,6047 12038,5456 11580,4820 Z"/>
      </g>
      <g class="Group" id="horn" onmouseover="sneeze()">
         <path fill="rgb(255,47,0)" stroke="none" d="M 8254,2675 C 8368,2641 8403,2417 8344,2303 L 8256,2182 C 8183,2092 8216,2051 8102,2022 L 8072,2110 C 8067,2175 8107,2323 8127,2385 8158,2483 8173,2625 8254,2675 Z"/>
         <path fill="none" stroke="rgb(0,0,0)" stroke-width="50" stroke-linejoin="miter" d="M 8254,2675 C 8368,2641 8403,2417 8344,2303 L 8256,2182 C 8183,2092 8216,2051 8102,2022 L 8072,2110 C 8067,2175 8107,2323 8127,2385 8158,2483 8173,2625 8254,2675 Z"/>
         <path fill="rgb(255,153,0)" stroke="none" d="M 8336,3016 C 8538,3024 8656,3021 8657,2802 8658,2724 8637,2663 8610,2613 L 8530,2520 C 8523,2515 8482,2487 8482,2487 8222,2554 8271,2793 8336,3016 Z"/>
         <path fill="none" stroke="rgb(0,0,0)" stroke-width="50" stroke-linejoin="miter" d="M 8336,3016 C 8538,3024 8656,3021 8657,2802 8658,2724 8637,2663 8610,2613 L 8530,2520 C 8523,2515 8482,2487 8482,2487 8222,2554 8271,2793 8336,3016 Z"/>
         <path fill="rgb(255,255,0)" stroke="none" d="M 8542,3010 C 8500,3053 8437,3061 8414,3093 8394,3124 8393,3232 8405,3256 8455,3274 8415,3344 8453,3473 8544,3481 8596,3377 8679,3363 8718,3324 8740,3283 8776,3234 8816,3180 8836,3151 8852,3064 8851,3024 8837,2994 8828,2958 8745,2897 8778,2865 8715,2830 8658,2879 8646,2954 8568,3001 L 8542,3010 Z"/>
         <path fill="none" stroke="rgb(0,0,0)" stroke-width="50" stroke-linejoin="miter" d="M 8542,3010 C 8500,3053 8437,3061 8414,3093 8394,3124 8393,3232 8405,3256 8455,3274 8415,3344 8453,3473 8544,3481 8596,3377 8679,3363 8718,3324 8740,3283 8776,3234 8816,3180 8836,3151 8852,3064 8851,3024 8837,2994 8828,2958 8745,2897 8778,2865 8715,2830 8658,2879 8646,2954 8568,3001 L 8542,3010 Z"/>
         <path fill="rgb(72,246,57)" stroke="none" d="M 8692,3905 C 8862,3737 8753,3790 8934,3642 8937,3639 8942,3635 8945,3632 L 8967,3612 C 9040,3538 9079,3443 9100,3333 9117,3247 9120,3275 9091,3215 9078,3190 9078,3195 9059,3166 9056,3161 9042,3147 9041,3138 9041,3129 9035,3127 9032,3123 8936,3127 9019,3123 8957,3133 8937,3136 8970,3124 8922,3139 8864,3158 8845,3198 8804,3240 8626,3417 8477,3446 8475,3731 8474,3898 8523,3882 8692,3905 Z"/>
         <path fill="none" stroke="rgb(0,0,0)" stroke-width="50" stroke-linejoin="miter" d="M 8692,3905 C 8862,3737 8753,3790 8934,3642 8937,3639 8942,3635 8945,3632 L 8967,3612 C 9040,3538 9079,3443 9100,3333 9117,3247 9120,3275 9091,3215 9078,3190 9078,3195 9059,3166 9056,3161 9042,3147 9041,3138 9041,3129 9035,3127 9032,3123 8936,3127 9019,3123 8957,3133 8937,3136 8970,3124 8922,3139 8864,3158 8845,3198 8804,3240 8626,3417 8477,3446 8475,3731 8474,3898 8523,3882 8692,3905 Z"/>
         <path fill="rgb(171,65,127)" stroke="none" d="M 9371,3608 C 9297,3811 9564,3745 9152,4213 9124,4244 8563,4817 8788,4705 L 9897,4158 C 9976,4118 9576,3750 9444,3625 9424,3606 9374,3601 9371,3608 Z"/>
         <path fill="none" stroke="rgb(0,0,0)" stroke-width="50" stroke-linejoin="miter" d="M 9371,3608 C 9297,3811 9564,3745 9152,4213 9124,4244 8563,4817 8788,4705 L 9897,4158 C 9976,4118 9576,3750 9444,3625 9424,3606 9374,3601 9371,3608 Z"/>
         <path fill="rgb(106,247,242)" stroke="none" d="M 9083,3405 C 9069,3500 8954,3669 8904,3746 8839,3847 8631,3958 8608,3979 L 8621,4103 C 8680,4209 8716,4508 8763,4579 8838,4573 9006,4368 9060,4302 9113,4237 9246,4153 9325,3964 9360,3881 9378,3718 9372,3609 9344,3565 9338,3580 9309,3522 9282,3468 9293,3460 9256,3423 9184,3386 9220,3367 9147,3342 9113,3383 9137,3371 9083,3405 Z"/>
         <path fill="none" stroke="rgb(0,0,0)" stroke-width="50" stroke-linejoin="miter" d="M 9083,3405 C 9069,3500 8954,3669 8904,3746 8839,3847 8631,3958 8608,3979 L 8621,4103 C 8680,4209 8716,4508 8763,4579 8838,4573 9006,4368 9060,4302 9113,4237 9246,4153 9325,3964 9360,3881 9378,3718 9372,3609 9344,3565 9338,3580 9309,3522 9282,3468 9293,3460 9256,3423 9184,3386 9220,3367 9147,3342 9113,3383 9137,3371 9083,3405 Z"/>
         <path fill="none" stroke="rgb(0,0,0)" stroke-width="75" stroke-linejoin="miter" d="M 7997,1858 L 8779,4730 9904,4167 7997,1858 Z"/>
      </g>
      <g class="Group" id="ear" onmouseover="eye()">
         <path fill="rgb(255,255,255)" stroke="none" d="M 11507,5401 C 11678,4233 11470,3377 11157,3069 10628,3253 10328,4166 10202,4781 Z"/>
         <path class="line" d="M 11507,5401 C 11678,4233 11470,3377 11157,3069 10628,3253 10328,4166 10202,4781"/>
         <path fill="rgb(245,177,181)" stroke="none" d="M 10537,4917 C 10607,4512 10712,3975 11022,3644 11234,3881 11195,4773 11116,5156 Z"/>
         <path class="line" d="M 10537,4917 C 10607,4512 10712,3975 11022,3644 11234,3881 11195,4773 11116,5156"/>
      </g>
      <path id="eated_3" class="grass" style="display:none" d="M 6788,8143 C 6479,8201 5955,8313 4852,8598 5605,8279 6098,8082 6721,7849 Z"/>
      <path id="eated_3_zero" class="clear" d="M 7396,8077 L 7317,7680 8745,7178 8878,7958 Z"/>
      <g id="snout" onmouseover="smile()">
	<path class="fill" d="M 7020,5914 C 5695,6621 6105,7678 6501,8002 6868,7969 7302,8002 7502,7801 7581,7067 7101,7079 7020,5914 Z" />
	<path id="jowl" class="fill" transform="rotate(-15)" transform-origin="7502 7801" d="M 6501,8002 C 6868,7969 7302,8002 7502,7801 7473,7926 7500,8039 7522,8112 7294,8158 6808,8243 6501,8002 Z" />
        <path fill="rgb(0,0,0)" stroke="rgb(0,0,0)" stroke-width="20" stroke-linejoin="miter" d="M 6664,6661 L 6665,6661 C 6692,6661 6715,6667 6738,6681 6761,6694 6778,6711 6791,6734 6805,6757 6811,6780 6811,6807 6811,6834 6805,6857 6791,6880 6778,6903 6761,6920 6738,6933 6715,6947 6692,6953 6665,6953 6638,6953 6615,6947 6592,6933 6569,6920 6552,6903 6539,6880 6525,6857 6519,6834 6519,6807 6519,6780 6525,6757 6539,6734 6552,6711 6569,6694 6592,6681 6615,6667 6637,6661 6664,6661 Z"/>
      </g>
      <g id="eye2_open">
         <path id="eye2fill" class="eye2" d="M 8573,5462 C 8913,5462 9173,5722 9173,6062 9173,6402 8913,6662 8573,6662 8233,6662 7973,6402 7973,6062 7973,5722 8233,5462 8573,5462 Z"/>
	 <g id="eyeball">
           <circle id="eyeball" class="eyeball" cx="8431" cy="5925" r="353" />
           <circle id="glare1" class="glare" cx="8299" cy="5770" r="90" />
           <circle id="glare2" class="glare" cx="8572" cy="5852" r="90" />
	 </g>
         <path id="eye2clear" class="clear" d="M 8573,5462 C 8913,5462 9173,5722 9173,6062 9173,5722 8913,5462 8573,5462 8233,5462 7973,5722 7973,6062 7973,5722 8233,5462 8573,5462 Z"/>
         <path id="eye2contour" class="eyeline" d="M 8573,5462 C 8913,5462 9173,5722 9173,6062 9173,6402 8913,6662 8573,6662 8233,6662 7973,6402 7973,6062 7973,5722 8233,5462 8573,5462 Z"/>
         <path id="eyelash1" class="line" d="M 8154,5620 L 7981,5362"/>
         <path id="eyelash2" class="line" d="M 8575,5447 L 8581,5162"/>
         <path id="eyelash3" class="line" d="M 9004,5626 L 9181,5362"/>
         <g style="display:none">
                <path id="eye2_t1" d="M 8573,5462 C 8913,5462 9173,5722 9173,6062 9173,6402 8913,6662 8573,6662 8233,6662 7973,6402 7973,6062 7973,5722 8233,5462 8573,5462 Z"/>
                <path id="eye2_t2" d="M 8573,6662 C 8913,6662 9173,6402 9173,6062 9173,6402 8913,6662 8573,6662 8233,6662 7973,6402 7973,6062 7973,6402 8233,6662 8573,6662 Z"/>
		<path id="eye2_t3" class="clear" d="M 8573,5462 C 8913,5462 9173,5722 9173,6062 9173,5722 8913,5462 8573,5462 8233,5462 7973,5722 7973,6062 7973,5722 8233,5462 8573,5462 Z"/>
                <path id="eyelash1_t1" d="M 8154,5620 L 7981,5362"/>
                <path id="eyelash2_t1" d="M 8575,5447 L 8581,5162"/>
                <path id="eyelash3_t1" d="M 9004,5626 L 9181,5362"/>
                <path id="eyelash1_t2" d="M 8149,6523 L 7978,6766"/>
                <path id="eyelash2_t2" d="M 8578,6690 L 8578,6975"/>
                <path id="eyelash3_t2" d="M 9004,6531 L 9181,6738"/>
         </g>
      </g>
    </g>
    </g>
       <g id="germs">
	 <path id="germ1" style="display:none" class="germ" d="M 7213,8855 C 6995,9060 7068,9110 6924,9212 6759,9310 6665,9232 6813,9092 6961,8948 7031,8990 7213,8855"/>
	 <path id="germ2" style="display:none" class="germ" d="M 7213,8855 C 6995,9060 7068,9110 6924,9212 6759,9310 6665,9232 6813,9092 6961,8948 7031,8990 7213,8855"/>
	 <path id="germ3" style="display:none" class="germ" d="M 7213,8855 C 6995,9060 7068,9110 6924,9212 6759,9310 6665,9232 6813,9092 6961,8948 7031,8990 7213,8855"/>
       </g>
       <g id="grass" onmouseover="eating()">
        <path class="grass" d="M 5118,17311 C 5117,16843 5814,14349 7352,11224 6442,13886 6044,17251 6044,17251 L 5110,17337 5118,17311 Z"/>
        <path class="grass" d="M 4667,17205 C 4668,16737 4121,14291 2271,11179 3360,13842 3741,17145 3741,17145 L 4675,17231 4667,17205 Z"/>
        <path class="grass" d="M 5992,17268 C 5991,16800 6538,14354 8388,11242 7299,13905 6918,17208 6918,17208 L 5984,17294 5992,17268 Z"/>
        <path class="grass" d="M 5436,17327 C 5437,16859 4740,14365 3202,11240 4112,13902 4510,17267 4510,17267 L 5444,17353 5436,17327 Z"/>
        <path id="eated_no" class="grass" d="M 5876,17308 C 5877,16840 5619,13914 4842,10706 5090,13468 4950,17248 4950,17248 L 5884,17334 5876,17308 Z"/>
	<!--
        <path id="eated" class="grass" d="M 5876,17308 C 5877,16840 5619,13914 5268,12673 L 4967,12690 C 5024,13468 4950,17248 4950,17248 L 5884,17334 5876,17308 Z"/>
	-->
        <path id="eated"    class="grass" style="display:none" d="M 5876,17308 C 5877,16840 5619,13914 5268,12673 5214,12678 5168,12685 5119,12683 5053,12694 5013,12686 4967,12690 5024,13468 4950,17248 4950,17248 L 5884,17334 5876,17308 Z"/>
        <path id="eated_t0" class="grass" style="display:none" d="M 5876,17308 C 5877,16840 5619,13914 5268,12673 5214,12678 5168,12685 5119,12683 5053,12694 5013,12686 4967,12690 5024,13468 4950,17248 4950,17248 L 5884,17334 5876,17308 Z"/>
        <path id="eated_t1" class="grass" style="display:none" d="M 5876,17308 C 5877,16840 5619,13914 5268,12673 5142,12020 5030,11501 4842,10706 4938,11841 4961,12376 4967,12690 5024,13468 4950,17248 4950,17248 L 5884,17334 5876,17308 Z"/>
	<g id="flower_down_2" style="display:none" transform-origin="5100 12680" transform="translate(0,2000) rotate(-150)">
          <path class="flower" d="M 4223,9737 C 4213,9682 4143,9568 4245,9519 4292,9472 4342,9499 4392,9453 4441,9409 4472,9351 4530,9326 4584,9302 4648,9304 4707,9288 4776,9269 4850,9346 4918,9355 4985,9363 5052,9343 5096,9399 5128,9440 5168,9481 5170,9541 5251,9837 4882,10648 4834,10705 4834,10705 4289,10200 4223,9737 Z"/>
          <path class="flower" d="M 4831,10694 C 4625,10439 3773,10523 3808,9693 4693,8878 4831,10694 4831,10694 Z"/>
          <path class="flower" d="M 4847,10695 C 4947,10383 5772,10155 5441,9393 4321,8952 4847,10695 4847,10695 Z"/>
	</g>
	<g id="flower_down">
	<g id="eated_and_flower" transform-origin="5100 12680">
          <path id="eated_2" class="grass" style="display:none" d="M 4967,12690 C 4961,12376 4938,11841 4842,10706 5030,11501 5142,12020 5268,12673 Z"/>
       <g id="flower" style="display:none" onmouseover="smell()" transform="scale(0.01)" transform-origin="4831 10694">
        <path class="flower" d="M 4223,9737 C 4213,9682 4143,9568 4245,9519 4292,9472 4342,9499 4392,9453 4441,9409 4472,9351 4530,9326 4584,9302 4648,9304 4707,9288 4776,9269 4850,9346 4918,9355 4985,9363 5052,9343 5096,9399 5128,9440 5168,9481 5170,9541 5251,9837 4882,10648 4834,10705 4834,10705 4289,10200 4223,9737 Z"/>
        <path id="petal_left" class="flower" d="M 4831,10694 C 4625,10439 3602,9525 4621,9257 4792,9274 4831,10694 4831,10694 Z"/>
        <path id="petal_left_t1" style="display:none" class="flower" d="M 4831,10694 C 4625,10439 3602,9525 4621,9257 4792,9274 4831,10694 4831,10694 Z"/>
        <path id="petal_left_t2" style="display:none" class="flower" d="M 4831,10694 C 4625,10439 3773,10523 3808,9693 4693,8878 4831,10694 4831,10694 Z"/>
        <path id="petal_right" class="flower" d="M 4847,10695 C 4947,10383 5687,9382 4760,9248 4486,9494 4847,10695 4847,10695 Z"/>
        <path id="petal_right_t1" style="display:none" class="flower" d="M 4847,10695 C 4947,10383 5687,9382 4760,9248 4486,9494 4847,10695 4847,10695 Z"/>
        <path id="petal_right_t2" style="display:none" class="flower" d="M 4847,10695 C 4947,10383 5772,10155 5441,9393 4321,8952 4847,10695 4847,10695 Z"/>
       </g>
	</g>
	</g>
	<path id="eated_2_t0" class="grass" style="display:none" d="M 4967,12690 C 5013,12686 5053,12694 5119,12683 5168,12685 5214,12678 5268,12673 Z"/>
	<path id="eated_2_t1" class="grass" style="display:none" d="M 4967,12690 C 4961,12376 4938,11841 4842,10706 5030,11501 5142,12020 5268,12673 Z"/>
       </g>
       <g id="butterfly" onmouseover="butterfly()">
        <path id="far_wing" class="butterfly" d="M 1651,10156 C 1806,9950 1946,9769 1883,9525 1883,9525 1469,9310 1394,9877 960,9751 955,10168 1257,10181 Z"/>
        <path id="near_wing" class="butterfly" d="M 1651,10156 C 1720,9885 1758,9681 1671,9590 1548,9440 1231,9527 1394,9877 960,9751 955,10168 1257,10181 Z"/>
        <path id="lower_whisker" class="butterfly" d="M 1651,10156 1995,9960"/>
        <path id="upper_whisker" class="butterfly" d="M 1651,10156 1978,9871"/>
        <circle id="bcircle" class="bcircle" style="display:none" cx="1550" cy="9637" r="40"/>
        <path id="bline" class="bline" style="display:none" d="M 1659,9604 C 1549,9476 1248,9529 1430,9907 1006,9764 959,10141 1270,10157"/>
       </g>
       <g id="butterfly_down" style="display:none">
        <path id="far_wing_down" class="butterfly" d="M 1651,10156 C 1758,10175 1966,10367 1929,10657 1725,10727 1536,10645 1420,10485 1091,10630 938,10303 1257,10181 Z"/>
        <path id="near_wing_down" class="butterfly" d="M 1651,10156 C 1819,10483 1841,10653 1674,10711 1496,10756 1449,10529 1420,10485 1091,10630 938,10303 1257,10181 Z"/>
        <path id="far_wing_t" class="butterfly" d="M 1651,10156 C 1806,9950 1946,9769 1883,9525 1883,9525 1469,9310 1394,9877 960,9751 955,10168 1257,10181 Z"/>
        <path id="near_wing_t" class="butterfly" d="M 1651,10156 C 1720,9885 1758,9681 1671,9590 1548,9440 1231,9527 1394,9877 960,9751 955,10168 1257,10181 Z"/>
       </g>
<script type="text/javascript">
  set_star(2)
// rotate_head(-50)
  // open_mouth()
</script>
</svg>
