<?xml version="1.0" encoding="UTF-8"?>
<!DOCTYPE svg PUBLIC "-//W3C//DTD SVG 1.1//EN" "http://www.w3.org/Graphics/SVG/1.1/DTD/svg11.dtd">
<svg version="1.2" width="250mm" height="200mm" viewBox="0 0 25000 20000"
     preserveAspectRatio="xMidYMid" fill-rule="evenodd" stroke-width="28.222" stroke-linejoin="round"
     xmlns="http://www.w3.org/2000/svg"
     xml:space="preserve">
  <script href="svggen.js"></script>
  <script href="svg-editor.js"></script>
  <script type="text/javascript">
    <![CDATA[
	var star = 1
	function id_display(id, display) {
	    document.getElementById(id).style.display = display
	}
	function star_display(state, display) { id_display('star'+star+state, display) }
	function star_eye(show) {
	    if(show) id_display('eye_open', '')
	    else {
		id_display('eye_open', 'none')
		id_display('eye_close', 'none')
	    }
	}
	function star_eye2(show) {
	    if(show) id_display('eye2_open', '')
	    else {
		id_display('eye2_open', 'none')
	    }
	}
	function set_star(n) {
	    if(star != n) {
		star_display('on', 'none')
		star_display('off', '')
		star = n
		star_display('off', 'none')
		star_display('on', '')
		star_eye(star == 1)
		star_eye2(star == 2)
	    }
	}
	function close_eye() {
	    document.getElementById('eye_open').style.display = 'none'
	    document.getElementById('eye_close').style.display = ''
	}
	function open_eye() {
	    document.getElementById('eye_open').style.display = ''
	    document.getElementById('eye_close').style.display = 'none'
	}
	function open_eye2(eye) {
	    ['eye2_open','eye2_right','eye2_right2','eye2_right3',
	     'eye2_almost_open_1','eye2_almost_open_2','eye2_almost_close_1',"eye2_almost_close_2","eye2_close"].forEach(function(item) {
		id_display(item, eye == item ? '' : 'none')
	    })
	}
	function animate(timeout,finish,count,...steps) {
	    var pos = 0
	    var call = function iterate() {
		steps[pos]()
		if(!--count) finish()
		else {
		    if(++pos >= steps.length) pos = 0
		    setTimeout(iterate, timeout)
		}
	    }
	    call()
	}
	function animate2(timeout,finish,count,steps) {
	    var pos = 0
	    count = count * steps.length + 1
	    var call = function iterate() {
		steps.forEach(function(item) {
		    id_display(item, item == steps[pos] ? '' : 'none')
		})
		if(!--count) finish()
		else {
		    if(++pos >= steps.length) pos = 0
		    setTimeout(iterate, timeout)
		}
	    }
	    call()
	}
	var wink_started = false
	function wink() {
	    if(wink_started) return
	    if(star == 1) {
		wink_started = true
		animate(300, function() { wink_started = false }, 5,
			function() { open_eye() },
			function() { close_eye() })
	    }
	    else if(star == 2) {
		wink_started = true
		animate(100, function() { wink_started = false }, 1+1*16,
			function() { open_eye2('eye2_open') },
			function() { open_eye2('eye2_right') },
			function() { open_eye2('eye2_right2') },
			function() { open_eye2('eye2_right3') },
			function() { open_eye2('eye2_right2') },
			function() { open_eye2('eye2_right') },
			function() { open_eye2('eye2_open') },
			function() { open_eye2('eye2_almost_open_1') },
			function() { open_eye2('eye2_almost_open_2') },
			function() { open_eye2('eye2_almost_close_1') },
			function() { open_eye2('eye2_almost_close_2') },
			function() { open_eye2('eye2_close') },
			function() { open_eye2('eye2_almost_close_2') },
			function() { open_eye2('eye2_almost_close_1') },
			function() { open_eye2('eye2_almost_open_2') },
			function() { open_eye2('eye2_almost_open_1') },
		)
	    }
	}

	var stomp_started = false
	function stomp() {
	    if(stomp_started) return
	    stomp_started = true
	    animate2(200, function() { stomp_started = false }, 2, [
		'raised_hoof_1', 'raised_hoof_2', 'raised_hoof_3', 'raised_hoof_2'
	    ]);
	}

        var wag_started = false
        function wag() {
              if(wag_started) return
              wag_started = true
              animate2(150, function() { wag_started = false }, 3, [
                'tail_3', 'tail_2', 'tail_1', 'tail_2'

              ])
        }

        var smile_started = false
        function smile() {
              if(smile_started) return
              smile_started = true
              animate2(150, function() { smile_started = false }, 2, [
                'jowl_2', 'jowl_1'

              ])
        }

	window.onkeyup = svgeditor

    ]]>
  </script>
  <style>
    path.line {
	fill:none;
	stroke:rgb(27,25,24);
	stroke-width:75;
	stroke-linejoin:round;
    }
    path.fill {
	fill:rgb(246,6,213);
	stroke:rgb(27,25,24);
	stroke-width:75;
	stroke-linejoin:round;
    }
    path.dl {
	fill:none;
	stroke:red;
	stroke-width:20;
	stroke-linejoin:round;
    }
  </style>
  <g id="stars">
      <g id="star1" onclick="set_star(1)">
       <path id="star1off" style="display:none" fill="rgb(255,255,107)" stroke="rgb(52,101,164)" d="M 2573,5592 L 3133,5464 3253,4870 3374,5464 3935,5592 3374,5718 3253,6313 3133,5718 2573,5592 Z"/>
       <path id="star1on" fill="rgb(255,255,0)" stroke="rgb(52,101,164)" d="M 2403,5592 L 3103,5433 3253,4691 3404,5433 4105,5592 3404,5750 3253,6492 3103,5750 2403,5592 Z"/>
      </g>
      <g id="star2" onclick="set_star(2)">
       <path id="star2off" fill="rgb(255,255,107)" stroke="rgb(52,101,164)" d="M 3143,3072 L 3703,2944 3823,2350 3944,2944 4505,3072 3944,3198 3823,3793 3703,3198 3143,3072 Z"/>
       <path id="star2on" style="display:none" fill="rgb(255,255,0)" stroke="rgb(52,101,164)" d="M 2973,3072 L 3673,2913 3823,2171 3974,2913 4675,3072 3974,3230 3823,3972 3673,3230 2973,3072 Z"/>
      </g>
      <g id="star3" onclick="set_star(2); wink(); stomp(); wag(); smile()">
       <path id="star3off" fill="rgb(255,255,107)" stroke="rgb(52,101,164)" d="M 5573,1551 L 6133,1423 6253,829 6374,1423 6935,1551 6374,1677 6253,2272 6133,1677 5573,1551 Z"/>
       <path id="star3on" style="display:none" fill="rgb(255,255,0)" stroke="rgb(52,101,164)" d="M 5403,1551 L 6103,1392 6253,650 6404,1392 7105,1551 6404,1709 6253,2451 6103,1709 5403,1551 Z"/>
      </g>
  </g>
    <g id="hits" style="display:none">
       <g id="hit1">
        <path fill="rgb(255,255,255)" stroke="none" d="M 14024,16835 C 13760,16731 13647,16627 13685,16523 13271,16579 12781,16611 12254,16611 11727,16611 11238,16579 10823,16523 10786,16523 10786,16523 10786,16523 10823,16627 10710,16739 10447,16835 10221,16931 9807,17003 9393,17051 L 9393,17051 C 9393,17059 9393,17059 9393,17059 9844,17107 10221,17179 10447,17267 10710,17363 10823,17475 10823,17571 10823,17580 10823,17580 10823,17580 L 10823,17580 C 11238,17523 11727,17491 12254,17491 12781,17491 13271,17523 13685,17580 L 13685,17580 C 13647,17475 13760,17371 14024,17267 14287,17171 14702,17099 15154,17051 L 15154,17051 C 14702,17003 14287,16931 14024,16835 L 14024,16835 Z"/>
        <path fill="none" stroke="rgb(0,0,0)" stroke-width="60" stroke-linejoin="round" d="M 14024,16835 C 13760,16731 13647,16627 13685,16523 13271,16579 12781,16611 12254,16611 11727,16611 11238,16579 10823,16523 10786,16523 10786,16523 10786,16523 10823,16627 10710,16739 10447,16835 10221,16931 9807,17003 9393,17051 L 9393,17051 C 9393,17059 9393,17059 9393,17059 9844,17107 10221,17179 10447,17267 10710,17363 10823,17475 10823,17571 10823,17580 10823,17580 10823,17580 L 10823,17580 C 11238,17523 11727,17491 12254,17491 12781,17491 13271,17523 13685,17580 L 13685,17580 C 13647,17475 13760,17371 14024,17267 14287,17171 14702,17099 15154,17051 L 15154,17051 C 14702,17003 14287,16931 14024,16835 L 14024,16835 Z"/>
       </g>
       <g id="hit2">
        <path fill="rgb(255,255,255)" stroke="none" d="M 13478,16850 C 13285,16774 13202,16698 13230,16622 12927,16662 12569,16686 12184,16686 11798,16686 11440,16662 11138,16622 11110,16622 11110,16622 11110,16622 11138,16698 11055,16780 10862,16850 10697,16920 10394,16973 10092,17008 L 10092,17008 C 10092,17014 10092,17014 10092,17014 10422,17049 10697,17102 10862,17166 11055,17236 11138,17318 11138,17389 11138,17395 11138,17395 11138,17395 L 11138,17395 C 11440,17354 11798,17330 12184,17330 12569,17330 12927,17354 13230,17395 L 13230,17395 C 13202,17318 13285,17242 13478,17166 13670,17096 13973,17043 14304,17008 L 14304,17008 C 13973,16973 13670,16920 13478,16850 L 13478,16850 Z"/>
        <path fill="none" stroke="rgb(0,0,0)" stroke-width="60" stroke-linejoin="round" d="M 13478,16850 C 13285,16774 13202,16698 13230,16622 12927,16662 12569,16686 12184,16686 11798,16686 11440,16662 11138,16622 11110,16622 11110,16622 11110,16622 11138,16698 11055,16780 10862,16850 10697,16920 10394,16973 10092,17008 L 10092,17008 C 10092,17014 10092,17014 10092,17014 10422,17049 10697,17102 10862,17166 11055,17236 11138,17318 11138,17389 11138,17395 11138,17395 11138,17395 L 11138,17395 C 11440,17354 11798,17330 12184,17330 12569,17330 12927,17354 13230,17395 L 13230,17395 C 13202,17318 13285,17242 13478,17166 13670,17096 13973,17043 14304,17008 L 14304,17008 C 13973,16973 13670,16920 13478,16850 L 13478,16850 Z"/>
       </g>
       <g id="hit3">
        <path fill="rgb(255,255,255)" stroke="none" d="M 13020,16964 C 12899,16916 12847,16868 12865,16821 12674,16846 12450,16861 12207,16861 11965,16861 11740,16846 11550,16821 11533,16821 11533,16821 11533,16821 11550,16868 11498,16920 11377,16964 11273,17008 11083,17041 10893,17064 L 10893,17064 C 10893,17067 10893,17067 10893,17067 11100,17089 11273,17122 11377,17163 11498,17207 11550,17259 11550,17303 11550,17307 11550,17307 11550,17307 L 11550,17307 C 11740,17281 11965,17266 12207,17266 12450,17266 12674,17281 12865,17307 L 12865,17307 C 12847,17259 12899,17211 13020,17163 13142,17119 13332,17086 13540,17064 L 13540,17064 C 13332,17041 13142,17008 13020,16964 L 13020,16964 Z"/>
        <path fill="none" stroke="rgb(0,0,0)" stroke-width="60" stroke-linejoin="round" d="M 13020,16964 C 12899,16916 12847,16868 12865,16821 12674,16846 12450,16861 12207,16861 11965,16861 11740,16846 11550,16821 11533,16821 11533,16821 11533,16821 11550,16868 11498,16920 11377,16964 11273,17008 11083,17041 10893,17064 L 10893,17064 C 10893,17067 10893,17067 10893,17067 11100,17089 11273,17122 11377,17163 11498,17207 11550,17259 11550,17303 11550,17307 11550,17307 11550,17307 L 11550,17307 C 11740,17281 11965,17266 12207,17266 12450,17266 12674,17281 12865,17307 L 12865,17307 C 12847,17259 12899,17211 13020,17163 13142,17119 13332,17086 13540,17064 L 13540,17064 C 13332,17041 13142,17008 13020,16964 L 13020,16964 Z"/>
       </g>
    </g>
  <g id="contour">
    <path class="line" d="M 10341,7834 C 9502,9441 9557,11390 9590,12732"/>
  </g>
  <g id="contour_up1" style="display:none">
    <path class="line" d="M 10539,7547 C 9502,9441 9557,11390 9590,12732"/>
  </g>
  <g id="body">
  <g>
          <path class="line" d="M 13196,9053 C 13935,9215 13907,9198 14572,9365 15283,9542 16037,9664 16666,9901 17297,10140 18300,12523 16666,13357 16414,13716 16540,16815 16415,17530 15534,17650 14655,17530 14151,17413 14151,16576 14403,13955 14403,13478 13744,13571 12146,13340 11522,13131"/>
          <path class="fill" d="M 16380,17510 C 16409,17365 16456,16994 16457,16875 16331,16875 15695,17036 14199,16859 14186,17037 14145,17411 14237,17411 14237,17411 15048,17703 16380,17510 Z"/>
  </g>
          <path id="tail_1" style="display:none" class="fill" d="M 17475,11332 C 17548,10858 18025,10704 18488,10692 19753,10892 20175,12453 18223,14555 18403,12292 17855,12372 17475,11332 Z"/>
          <path id="tail_2" style="display:none" class="fill" d="M 17476,11333 C 17550,10858 18026,10705 18489,10694 19754,10893 19163,12373 19332,14532 17855,13173 17856,12374 17476,11333 Z"/>
          <path id="tail_3" onmouseover="wag()" class="fill" d="M 17477,11333 C 17550,10859 18028,10705 18490,10694 19755,10894 18825,12613 20387,13732 18109,13492 17857,12373 17477,11333 Z"/>
  <g id="raised_hoof_1">
          <path class="line" d="M 9597,12723 C 9484,12865 8531,16415 8405,16772 8509,16863 8958,16947 9331,16865 9363,16436 9331,17056 9359,16403"/>
          <path class="fill" d="M 9359,16866 C 9386,16721 9379,16825 9388,16349 9388,16349 9139,16461 8490,16292 8478,16467 8364,16732 8364,16732 8364,16732 8671,17002 9359,16866 Z"/>
          <path id="hoof_1" onmouseover="stomp()" class="fill" d="M 11640,17287 C 11652,17140 11668,16811 11655,16693 11531,16705 10694,17009 9377,16653 9384,16830 9360,17313 9360,17313 9360,17313 10664,17619 11640,17287 Z"/>
          <path class="line" d="M 9590,12732 C 9580,13022 9387,17028 9388,17328 11052,17465 10909,17465 11626,17274 11588,15914 11549,14555 11495,13097"/>
  </g>
  <g id="raised_hoof_2" style="display:none">
          <path class="line" d="M 9590,12732 C 9515,12826 9151,13696 9101,14772 9051,15847 9892,16923 9876,17111 11029,16473 11255,16764 11912,16186 11396,15153 11396,15016 11166,14555 11080,13847 11367,13765 11495,13097"/>
          <path class="fill" d="M 11927,16171 C 11870,16032 11733,15729 11668,15628 11561,15689 10944,16307 9592,16523 9679,16681 9878,17128 9878,17128 9878,17128 11196,16871 11927,16171 Z"/>
          <path class="line" d="M 9590,12732 C 9485,12829 8532,16379 8406,16736 8510,16827 8959,16911 9332,16829 9364,16400 9332,17020 9360,16367"/>
          <path class="fill" d="M 9796,16888 C 9610,16522 9574,16620 9547,16321 9258,16293 9051,16397 8500,16227 8487,16404 8357,16694 8357,16694 8357,16694 8536,17030 9796,16888 Z"/>
  </g>
  <g id="raised_hoof_3" style="display:none">
          <path class="line" d="M 9590,12732 C 9484,12865 8531,16415 8405,16772 8509,16863 8958,16947 9331,16865 9363,16436 9331,17056 9359,16403"/>
          <path class="line" d="M 9590,12732 C 9516,12790 9152,13660 9102,14736 9052,15811 10667,16887 10651,17075 11805,16437 11716,16293 12373,15715 11712,14818 11570,14899 11226,14437 11140,13729 11368,13729 11495,13097"/>
          <path class="fill" d="M 12375,15649 C 12282,15529 12067,15269 11976,15188 11890,15273 11462,16021 10216,16562 10343,16693 10657,17076 10657,17076 10657,17076 11860,16504 12375,15649 Z"/>
          <path class="fill" d="M 9990,16839 C 9998,16549 9961,16621 9934,16322 9645,16294 9049,16396 8499,16227 8486,16403 8356,16693 8356,16693 8356,16693 8636,17093 9990,16839 Z"/>
  </g>
      </g>
  <g id="head">
    <g id="hcontour">
      <path class="line" d="M 7837,5080 L 7495,5554 7024,5913"/>
      <path class="line" d="M 7519,8114 C 7639,8092 8267,8066 8286,8063 9241,8343 9993,8343 10341,7834"/>
    </g>
      <g id="mane">
        <path class="fill" d="M 7471,5501 C 8381,4415 9022,4834 9600,4664 10177,4494 11039,3649 10862,3619 L 10382,3539 C 10111,3464 9786,3506 9477,3553 8899,3722 8118,3906 7471,5501 Z"/>
        <path class="fill" d="M 12252,8088 C 11525,11951 13426,11604 13994,11279 12841,11200 13077,10708 13015,10004 Z"/>
        <path class="fill" d="M 12312,6887 C 12312,6887 11704,10921 14217,9866 14217,9866 12961,10064 13238,8591 Z"/>
        <path class="fill" d="M 11465,3794 C 12985,4275 13609,5523 13496,6905 13457,7645 13679,8497 14684,8193 14551,8917 12939,9270 12333,7030 12049,6047 12038,5456 11580,4820 Z"/>
      </g>
      <g class="Group" id="horn">
         <path fill="rgb(255,47,0)" stroke="none" d="M 8254,2675 C 8368,2641 8403,2417 8344,2303 L 8256,2182 C 8183,2092 8216,2051 8102,2022 L 8072,2110 C 8067,2175 8107,2323 8127,2385 8158,2483 8173,2625 8254,2675 Z"/>
         <path fill="none" stroke="rgb(0,0,0)" stroke-width="50" stroke-linejoin="miter" d="M 8254,2675 C 8368,2641 8403,2417 8344,2303 L 8256,2182 C 8183,2092 8216,2051 8102,2022 L 8072,2110 C 8067,2175 8107,2323 8127,2385 8158,2483 8173,2625 8254,2675 Z"/>
         <path fill="rgb(255,153,0)" stroke="none" d="M 8336,3016 C 8538,3024 8656,3021 8657,2802 8658,2724 8637,2663 8610,2613 L 8530,2520 C 8523,2515 8482,2487 8482,2487 8222,2554 8271,2793 8336,3016 Z"/>
         <path fill="none" stroke="rgb(0,0,0)" stroke-width="50" stroke-linejoin="miter" d="M 8336,3016 C 8538,3024 8656,3021 8657,2802 8658,2724 8637,2663 8610,2613 L 8530,2520 C 8523,2515 8482,2487 8482,2487 8222,2554 8271,2793 8336,3016 Z"/>
         <path fill="rgb(255,255,0)" stroke="none" d="M 8542,3010 C 8500,3053 8437,3061 8414,3093 8394,3124 8393,3232 8405,3256 8455,3274 8415,3344 8453,3473 8544,3481 8596,3377 8679,3363 8718,3324 8740,3283 8776,3234 8816,3180 8836,3151 8852,3064 8851,3024 8837,2994 8828,2958 8745,2897 8778,2865 8715,2830 8658,2879 8646,2954 8568,3001 L 8542,3010 Z"/>
         <path fill="none" stroke="rgb(0,0,0)" stroke-width="50" stroke-linejoin="miter" d="M 8542,3010 C 8500,3053 8437,3061 8414,3093 8394,3124 8393,3232 8405,3256 8455,3274 8415,3344 8453,3473 8544,3481 8596,3377 8679,3363 8718,3324 8740,3283 8776,3234 8816,3180 8836,3151 8852,3064 8851,3024 8837,2994 8828,2958 8745,2897 8778,2865 8715,2830 8658,2879 8646,2954 8568,3001 L 8542,3010 Z"/>
         <path fill="rgb(72,246,57)" stroke="none" d="M 8692,3905 C 8862,3737 8753,3790 8934,3642 8937,3639 8942,3635 8945,3632 L 8967,3612 C 9040,3538 9079,3443 9100,3333 9117,3247 9120,3275 9091,3215 9078,3190 9078,3195 9059,3166 9056,3161 9042,3147 9041,3138 9041,3129 9035,3127 9032,3123 8936,3127 9019,3123 8957,3133 8937,3136 8970,3124 8922,3139 8864,3158 8845,3198 8804,3240 8626,3417 8477,3446 8475,3731 8474,3898 8523,3882 8692,3905 Z"/>
         <path fill="none" stroke="rgb(0,0,0)" stroke-width="50" stroke-linejoin="miter" d="M 8692,3905 C 8862,3737 8753,3790 8934,3642 8937,3639 8942,3635 8945,3632 L 8967,3612 C 9040,3538 9079,3443 9100,3333 9117,3247 9120,3275 9091,3215 9078,3190 9078,3195 9059,3166 9056,3161 9042,3147 9041,3138 9041,3129 9035,3127 9032,3123 8936,3127 9019,3123 8957,3133 8937,3136 8970,3124 8922,3139 8864,3158 8845,3198 8804,3240 8626,3417 8477,3446 8475,3731 8474,3898 8523,3882 8692,3905 Z"/>
         <path fill="rgb(171,65,127)" stroke="none" d="M 9371,3608 C 9297,3811 9564,3745 9152,4213 9124,4244 8563,4817 8788,4705 L 9897,4158 C 9976,4118 9576,3750 9444,3625 9424,3606 9374,3601 9371,3608 Z"/>
         <path fill="none" stroke="rgb(27,25,24)" stroke-width="50" stroke-linejoin="miter" d="M 9371,3608 C 9297,3811 9564,3745 9152,4213 9124,4244 8563,4817 8788,4705 L 9897,4158 C 9976,4118 9576,3750 9444,3625 9424,3606 9374,3601 9371,3608 Z"/>
         <path fill="rgb(106,247,242)" stroke="none" d="M 9083,3405 C 9069,3500 8954,3669 8904,3746 8839,3847 8631,3958 8608,3979 L 8621,4103 C 8680,4209 8716,4508 8763,4579 8838,4573 9006,4368 9060,4302 9113,4237 9246,4153 9325,3964 9360,3881 9378,3718 9372,3609 9344,3565 9338,3580 9309,3522 9282,3468 9293,3460 9256,3423 9184,3386 9220,3367 9147,3342 9113,3383 9137,3371 9083,3405 Z"/>
         <path fill="none" stroke="rgb(0,0,0)" stroke-width="50" stroke-linejoin="miter" d="M 9083,3405 C 9069,3500 8954,3669 8904,3746 8839,3847 8631,3958 8608,3979 L 8621,4103 C 8680,4209 8716,4508 8763,4579 8838,4573 9006,4368 9060,4302 9113,4237 9246,4153 9325,3964 9360,3881 9378,3718 9372,3609 9344,3565 9338,3580 9309,3522 9282,3468 9293,3460 9256,3423 9184,3386 9220,3367 9147,3342 9113,3383 9137,3371 9083,3405 Z"/>
         <path fill="none" stroke="rgb(27,25,24)" stroke-width="75" stroke-linejoin="miter" d="M 7997,1858 L 8779,4730 9904,4167 7997,1858 Z"/>
      </g>
      <g class="Group" id="ear" onmouseover="wink()">
         <path fill="rgb(255,255,255)" stroke="none" d="M 11507,5401 C 11678,4233 11470,3377 11157,3069 10628,3253 10328,4166 10202,4781 Z"/>
         <path class="line" d="M 11507,5401 C 11678,4233 11470,3377 11157,3069 10628,3253 10328,4166 10202,4781"/>
         <path fill="rgb(245,177,181)" stroke="none" d="M 10537,4917 C 10607,4512 10712,3975 11022,3644 11234,3881 11195,4773 11116,5156 Z"/>
         <path class="line" d="M 10537,4917 C 10607,4512 10712,3975 11022,3644 11234,3881 11195,4773 11116,5156"/>
      </g>
      <g id="snout" onmouseover="smile()">
	<path class="fill" d="M 7020,5914 C 5695,6621 6105,7678 6501,8002 6868,7969 7302,8002 7502,7801 7581,7067 7101,7079 7020,5914 Z" />
	<path id="jowl_1" style="display:none" class="fill" d="M 6501,8002 C 6868,7969 7302,8002 7502,7801 7473,7926 7500,8039 7522,8112 7294,8158 6808,8243 6501,8002 Z" />
	<path id="jowl_2" class="fill" d="M 6580,8193 C 6927,8061 7236,8121 7502,7801 7473,7926 7500,8039 7522,8112 7288,8224 6887,8335 6566,8194 Z" />
        <path fill="rgb(27,25,24)" stroke="rgb(27,25,24)" stroke-width="20" stroke-linejoin="miter" d="M 6664,6661 L 6665,6661 C 6692,6661 6715,6667 6738,6681 6761,6694 6778,6711 6791,6734 6805,6757 6811,6780 6811,6807 6811,6834 6805,6857 6791,6880 6778,6903 6761,6920 6738,6933 6715,6947 6692,6953 6665,6953 6638,6953 6615,6947 6592,6933 6569,6920 6552,6903 6539,6880 6525,6857 6519,6834 6519,6807 6519,6780 6525,6757 6539,6734 6552,6711 6569,6694 6592,6681 6615,6667 6637,6661 6664,6661 Z"/>
      </g>
      <g class="Group" id="eye_open" style="display:none" onclick="close_eye()">
         <path fill="rgb(27,25,24)" stroke="none" d="M 8484,5526 C 8564,5526 8632,5544 8701,5584 8770,5624 8820,5674 8860,5743 8900,5812 8918,5880 8918,5960 8918,6040 8900,6108 8860,6177 8820,6246 8770,6296 8701,6336 8632,6376 8564,6394 8484,6394 8404,6394 8336,6376 8267,6336 8198,6296 8148,6246 8108,6177 8068,6108 8050,6040 8050,5960 8050,5880 8068,5812 8108,5743 8148,5674 8198,5624 8267,5584 8336,5544 8404,5526 8484,5526 Z"/>
         <path fill="none" stroke="rgb(27,25,24)" stroke-width="20" stroke-linejoin="miter" d="M 8484,5526 C 8564,5526 8632,5544 8701,5584 8770,5624 8820,5674 8860,5743 8900,5812 8918,5880 8918,5960 8918,6040 8900,6108 8860,6177 8820,6246 8770,6296 8701,6336 8632,6376 8564,6394 8484,6394 8404,6394 8336,6376 8267,6336 8198,6296 8148,6246 8108,6177 8068,6108 8050,6040 8050,5960 8050,5880 8068,5812 8108,5743 8148,5674 8198,5624 8267,5584 8336,5544 8404,5526 8484,5526 Z"/>
         <path fill="rgb(255,255,255)" stroke="none" d="M 8654,5788 L 8653,5788 C 8674,5788 8691,5793 8709,5803 8727,5813 8740,5826 8750,5844 8760,5862 8765,5879 8765,5899 L 8765,5900 C 8765,5920 8760,5937 8750,5955 8740,5973 8727,5986 8709,5996 8691,6006 8674,6011 8654,6011 8633,6011 8616,6006 8598,5996 8580,5986 8567,5973 8557,5955 8547,5937 8542,5920 8542,5900 8542,5879 8547,5862 8557,5844 8567,5826 8580,5813 8598,5803 8616,5793 8633,5788 8653,5788 L 8654,5788 Z"/>
         <path fill="none" stroke="rgb(27,25,24)" stroke-width="20" stroke-linejoin="miter" d="M 8654,5788 L 8653,5788 C 8674,5788 8691,5793 8709,5803 8727,5813 8740,5826 8750,5844 8760,5862 8765,5879 8765,5899 L 8765,5900 C 8765,5920 8760,5937 8750,5955 8740,5973 8727,5986 8709,5996 8691,6006 8674,6011 8654,6011 8633,6011 8616,6006 8598,5996 8580,5986 8567,5973 8557,5955 8547,5937 8542,5920 8542,5900 8542,5879 8547,5862 8557,5844 8567,5826 8580,5813 8598,5803 8616,5793 8633,5788 8653,5788 L 8654,5788 Z"/>
         <path fill="rgb(255,255,255)" stroke="none" d="M 8324,5678 L 8323,5678 C 8344,5678 8361,5683 8379,5693 8397,5703 8410,5716 8420,5734 8430,5752 8435,5769 8435,5789 L 8435,5790 C 8435,5810 8430,5827 8420,5845 8410,5863 8397,5876 8379,5886 8361,5896 8344,5901 8324,5901 8303,5901 8286,5896 8268,5886 8250,5876 8237,5863 8227,5845 8217,5827 8212,5810 8212,5790 8212,5769 8217,5752 8227,5734 8237,5716 8250,5703 8268,5693 8286,5683 8303,5678 8323,5678 L 8324,5678 Z"/>
         <path fill="none" stroke="rgb(27,25,24)" stroke-width="20" stroke-linejoin="miter" d="M 8324,5678 L 8323,5678 C 8344,5678 8361,5683 8379,5693 8397,5703 8410,5716 8420,5734 8430,5752 8435,5769 8435,5789 L 8435,5790 C 8435,5810 8430,5827 8420,5845 8410,5863 8397,5876 8379,5886 8361,5896 8344,5901 8324,5901 8303,5901 8286,5896 8268,5886 8250,5876 8237,5863 8227,5845 8217,5827 8212,5810 8212,5790 8212,5769 8217,5752 8227,5734 8237,5716 8250,5703 8268,5693 8286,5683 8303,5678 8323,5678 L 8324,5678 Z"/>
         <path fill="none" stroke="rgb(27,25,24)" stroke-width="75" stroke-linejoin="miter" d="M 8778,5638 L 8952,5438"/>
         <path fill="none" stroke="rgb(27,25,24)" stroke-width="75" stroke-linejoin="miter" d="M 8508,5528 L 8524,5263"/>
         <path fill="none" stroke="rgb(27,25,24)" stroke-width="75" stroke-linejoin="miter" d="M 8223,5612 L 8049,5412"/>
      </g>
      <g class="Group" id="eye_close" style="display:none" onclick="open_eye()">
         <path fill="rgb(27,25,24)" stroke="none" d="M 8056,5970 C 8056,6050 8074,6118 8114,6187 8154,6256 8204,6306 8273,6346 8342,6386 8410,6404 8490,6404 8570,6404 8638,6386 8707,6346 8776,6306 8826,6256 8866,6187 8906,6118 8924,6050 8924,5970 L 8490,5970 8056,5970 Z"/>
         <path fill="none" stroke="rgb(27,25,24)" stroke-width="20" stroke-linejoin="miter" d="M 8056,5970 C 8056,6050 8074,6118 8114,6187 8154,6256 8204,6306 8273,6346 8342,6386 8410,6404 8490,6404 8570,6404 8638,6386 8707,6346 8776,6306 8826,6256 8866,6187 8906,6118 8924,6050 8924,5970 L 8490,5970 8056,5970 Z"/>
         <path fill="none" stroke="rgb(27,25,24)" stroke-width="75" stroke-linejoin="miter" d="M 8784,6292 L 8958,6492"/>
         <path fill="none" stroke="rgb(27,25,24)" stroke-width="75" stroke-linejoin="miter" d="M 8515,6401 L 8531,6666"/>
         <path fill="none" stroke="rgb(27,25,24)" stroke-width="75" stroke-linejoin="miter" d="M 8229,6318 L 8055,6518"/>
      </g>
      <g id="eye2_open">
         <path class="line" d="M 8181,5662 L 7981,5362"/>
         <path class="line" d="M 8581,5562 L 8581,5162"/>
         <path class="line" d="M 8981,5662 L 9181,5362"/>
         <path fill="rgb(142,248,245)" stroke="none" d="M 8573,5462 C 8913,5462 9173,5722 9173,6062 9173,6402 8913,6662 8573,6662 8233,6662 7973,6402 7973,6062 7973,5722 8233,5462 8573,5462 Z"/>
         <path fill="none" stroke="rgb(0,0,0)" stroke-width="50" stroke-linejoin="round" d="M 8573,5462 C 8913,5462 9173,5722 9173,6062 9173,6402 8913,6662 8573,6662 8233,6662 7973,6402 7973,6062 7973,5722 8233,5462 8573,5462 Z"/>
          <path fill="rgb(27,25,24)" stroke="none" d="M 8431,5562 C 8496,5562 8550,5577 8606,5609 8662,5641 8702,5681 8734,5737 8766,5793 8781,5847 8781,5912 8781,5977 8766,6031 8734,6087 8702,6143 8662,6183 8606,6215 8550,6247 8496,6262 8431,6262 8366,6262 8312,6247 8256,6215 8200,6183 8160,6143 8128,6087 8096,6031 8081,5977 8081,5912 8081,5847 8096,5793 8128,5737 8160,5681 8200,5641 8256,5609 8312,5577 8366,5562 8431,5562 Z"/>
          <path fill="none" stroke="rgb(27,25,24)" stroke-width="20" stroke-linejoin="miter" d="M 8431,5562 C 8496,5562 8550,5577 8606,5609 8662,5641 8702,5681 8734,5737 8766,5793 8781,5847 8781,5912 8781,5977 8766,6031 8734,6087 8702,6143 8662,6183 8606,6215 8550,6247 8496,6262 8431,6262 8366,6262 8312,6247 8256,6215 8200,6183 8160,6143 8128,6087 8096,6031 8081,5977 8081,5912 8081,5847 8096,5793 8128,5737 8160,5681 8200,5641 8256,5609 8312,5577 8366,5562 8431,5562 Z"/>
          <path fill="rgb(255,255,255)" stroke="none" d="M 8568,5773 C 8584,5773 8598,5777 8613,5785 8627,5793 8638,5804 8646,5818 8654,5833 8658,5846 8658,5863 8658,5879 8654,5893 8646,5908 8638,5922 8627,5933 8613,5941 8598,5949 8584,5953 8568,5953 8551,5953 8538,5949 8523,5941 8509,5933 8498,5922 8490,5908 8482,5893 8478,5879 8478,5863 8478,5846 8482,5833 8490,5818 8498,5804 8509,5793 8523,5785 8538,5777 8551,5773 8568,5773 Z"/>
          <path fill="none" stroke="rgb(27,25,24)" stroke-width="20" stroke-linejoin="miter" d="M 8568,5773 C 8584,5773 8598,5777 8613,5785 8627,5793 8638,5804 8646,5818 8654,5833 8658,5846 8658,5863 8658,5879 8654,5893 8646,5908 8638,5922 8627,5933 8613,5941 8598,5949 8584,5953 8568,5953 8551,5953 8538,5949 8523,5941 8509,5933 8498,5922 8490,5908 8482,5893 8478,5879 8478,5863 8478,5846 8482,5833 8490,5818 8498,5804 8509,5793 8523,5785 8538,5777 8551,5773 8568,5773 Z"/>
          <path fill="rgb(255,255,255)" stroke="none" d="M 8302,5685 C 8318,5685 8332,5689 8347,5697 8361,5705 8372,5716 8380,5730 8388,5745 8392,5758 8392,5775 8392,5791 8388,5805 8380,5820 8372,5834 8361,5845 8347,5853 8332,5861 8318,5865 8302,5865 8285,5865 8272,5861 8257,5853 8243,5845 8232,5834 8224,5820 8216,5805 8212,5791 8212,5775 8212,5758 8216,5745 8224,5730 8232,5716 8243,5705 8257,5697 8272,5689 8285,5685 8302,5685 Z"/>
          <path fill="none" stroke="rgb(27,25,24)" stroke-width="20" stroke-linejoin="miter" d="M 8302,5685 C 8318,5685 8332,5689 8347,5697 8361,5705 8372,5716 8380,5730 8388,5745 8392,5758 8392,5775 8392,5791 8388,5805 8380,5820 8372,5834 8361,5845 8347,5853 8332,5861 8318,5865 8302,5865 8285,5865 8272,5861 8257,5853 8243,5845 8232,5834 8224,5820 8216,5805 8212,5791 8212,5775 8212,5758 8216,5745 8224,5730 8232,5716 8243,5705 8257,5697 8272,5689 8285,5685 8302,5685 Z"/>
      </g>
      <g class="Group" id="eye2_almost_open_1" style="display:none">
         <path class="line" d="M 8182,5862 L 7982,5562"/>
         <path class="line" d="M 8582,5762 L 8582,5362"/>
         <path class="line" d="M 8982,5862 L 9182,5562"/>
         <path fill="rgb(142,248,245)" stroke="none" d="M 9174,6059 C 9174,6062 9174,6065 9174,6069 9174,6178 9149,6271 9093,6366 9038,6461 8969,6529 8874,6583 8778,6638 8684,6663 8573,6663 8462,6663 8368,6638 8273,6583 8177,6529 8108,6461 8053,6366 7997,6271 7972,6178 7972,6069 L 7972,6076 C 7972,6072 7972,6068 7972,6064 7972,5983 7997,5915 8053,5845 8108,5775 8177,5725 8272,5685 8368,5644 8462,5626 8573,5626 8684,5626 8778,5644 8873,5685 8969,5725 9038,5775 9093,5845 9149,5915 9174,5983 9174,6063 9174,6066 9174,6068 9174,6071 L 9174,6059 Z"/>
         <path fill="none" stroke="rgb(0,0,0)" stroke-width="50" stroke-linejoin="round" d="M 9174,6059 C 9174,6062 9174,6065 9174,6069 9174,6178 9149,6271 9093,6366 9038,6461 8969,6529 8874,6583 8778,6638 8684,6663 8573,6663 8462,6663 8368,6638 8273,6583 8177,6529 8108,6461 8053,6366 7997,6271 7972,6178 7972,6069 L 7972,6076 C 7972,6072 7972,6068 7972,6064 7972,5983 7997,5915 8053,5845 8108,5775 8177,5725 8272,5685 8368,5644 8462,5626 8573,5626 8684,5626 8778,5644 8873,5685 8969,5725 9038,5775 9093,5845 9149,5915 9174,5983 9174,6063 9174,6066 9174,6068 9174,6071 L 9174,6059 Z"/>
          <path fill="rgb(27,25,24)" stroke="none" d="M 8461,5629 L 8543,5621 8627,5621 8646,5635 8664,5649 8680,5664 8695,5680 8709,5698 8723,5717 8735,5737 8746,5758 8756,5779 8764,5800 8771,5821 8776,5843 8779,5865 8781,5888 8782,5912 8781,5936 8779,5959 8776,5981 8771,6003 8764,6024 8756,6045 8746,6066 8735,6087 8723,6107 8709,6126 8695,6144 8680,6160 8664,6175 8646,6189 8627,6203 8607,6215 8586,6226 8565,6236 8544,6244 8523,6251 8501,6256 8479,6259 8456,6261 8432,6262 8408,6261 8385,6259 8363,6256 8341,6251 8320,6244 8299,6236 8278,6226 8257,6215 8237,6203 8218,6189 8200,6175 8184,6160 8169,6144 8155,6126 8141,6107 8129,6087 8118,6066 8108,6045 8100,6024 8094,6003 8088,5981 8085,5959 8083,5936 8082,5912 8083,5888 8085,5865 8088,5843 8094,5821 8100,5800 8108,5779 8118,5758 8221,5701 8320,5656 8401,5640 8461,5629 Z"/>
          <path fill="none" stroke="rgb(27,25,24)" stroke-width="20" stroke-linejoin="miter" d="M 8461,5629 L 8543,5621 8627,5621 8646,5635 8664,5649 8680,5664 8695,5680 8709,5698 8723,5717 8735,5737 8746,5758 8756,5779 8764,5800 8771,5821 8776,5843 8779,5865 8781,5888 8782,5912 8781,5936 8779,5959 8776,5981 8771,6003 8764,6024 8756,6045 8746,6066 8735,6087 8723,6107 8709,6126 8695,6144 8680,6160 8664,6175 8646,6189 8627,6203 8607,6215 8586,6226 8565,6236 8544,6244 8523,6251 8501,6256 8479,6259 8456,6261 8432,6262 8408,6261 8385,6259 8363,6256 8341,6251 8320,6244 8299,6236 8278,6226 8257,6215 8237,6203 8218,6189 8200,6175 8184,6160 8169,6144 8155,6126 8141,6107 8129,6087 8118,6066 8108,6045 8100,6024 8094,6003 8088,5981 8085,5959 8083,5936 8082,5912 8083,5888 8085,5865 8088,5843 8094,5821 8100,5800 8108,5779 8118,5758 8221,5701 8320,5656 8401,5640 8461,5629 Z"/>
          <path fill="rgb(255,255,255)" stroke="none" d="M 8569,5773 L 8575,5773 8581,5774 8586,5775 8592,5776 8597,5778 8603,5780 8608,5782 8614,5785 8619,5788 8624,5792 8628,5795 8633,5799 8637,5804 8640,5808 8644,5813 8647,5818 8650,5824 8652,5829 8654,5834 8656,5840 8657,5845 8658,5851 8659,5857 8659,5863 8659,5869 8658,5875 8657,5880 8656,5886 8654,5891 8652,5897 8650,5902 8647,5908 8644,5913 8640,5918 8637,5922 8633,5927 8628,5931 8624,5934 8619,5938 8614,5941 8608,5944 8603,5946 8597,5948 8592,5950 8586,5951 8581,5952 8575,5953 8569,5953 8563,5953 8557,5952 8551,5951 8546,5950 8540,5948 8535,5946 8530,5944 8524,5941 8519,5938 8514,5934 8510,5931 8505,5927 8501,5922 8498,5918 8494,5913 8491,5908 8488,5902 8486,5897 8484,5891 8482,5886 8481,5880 8480,5875 8479,5869 8479,5863 8479,5857 8480,5851 8481,5845 8482,5840 8484,5834 8486,5829 8488,5824 8491,5818 8494,5813 8498,5808 8501,5804 8505,5799 8510,5795 8514,5792 8519,5788 8524,5785 8530,5782 8535,5780 8540,5778 8546,5776 8551,5775 8557,5774 8563,5773 8569,5773 Z"/>
          <path fill="none" stroke="rgb(27,25,24)" stroke-width="20" stroke-linejoin="miter" d="M 8569,5773 L 8575,5773 8581,5774 8586,5775 8592,5776 8597,5778 8603,5780 8608,5782 8614,5785 8619,5788 8624,5792 8628,5795 8633,5799 8637,5804 8640,5808 8644,5813 8647,5818 8650,5824 8652,5829 8654,5834 8656,5840 8657,5845 8658,5851 8659,5857 8659,5863 8659,5869 8658,5875 8657,5880 8656,5886 8654,5891 8652,5897 8650,5902 8647,5908 8644,5913 8640,5918 8637,5922 8633,5927 8628,5931 8624,5934 8619,5938 8614,5941 8608,5944 8603,5946 8597,5948 8592,5950 8586,5951 8581,5952 8575,5953 8569,5953 8563,5953 8557,5952 8551,5951 8546,5950 8540,5948 8535,5946 8530,5944 8524,5941 8519,5938 8514,5934 8510,5931 8505,5927 8501,5922 8498,5918 8494,5913 8491,5908 8488,5902 8486,5897 8484,5891 8482,5886 8481,5880 8480,5875 8479,5869 8479,5863 8479,5857 8480,5851 8481,5845 8482,5840 8484,5834 8486,5829 8488,5824 8491,5818 8494,5813 8498,5808 8501,5804 8505,5799 8510,5795 8514,5792 8519,5788 8524,5785 8530,5782 8535,5780 8540,5778 8546,5776 8551,5775 8557,5774 8563,5773 8569,5773 Z"/>
          <path fill="rgb(255,255,255)" stroke="none" d="M 8303,5685 L 8309,5685 8315,5686 8320,5687 8326,5688 8331,5690 8337,5692 8342,5694 8348,5697 8353,5700 8358,5704 8362,5707 8367,5711 8371,5716 8374,5720 8378,5725 8381,5730 8384,5736 8386,5741 8388,5746 8390,5752 8391,5757 8392,5763 8393,5769 8393,5775 8393,5781 8392,5787 8391,5792 8390,5798 8388,5803 8386,5809 8384,5814 8381,5820 8378,5825 8374,5830 8371,5834 8367,5839 8362,5843 8358,5846 8353,5850 8348,5853 8342,5856 8337,5858 8331,5860 8326,5862 8320,5863 8315,5864 8309,5865 8303,5865 8297,5865 8291,5864 8285,5863 8280,5862 8274,5860 8269,5858 8264,5856 8258,5853 8253,5850 8248,5846 8244,5843 8239,5839 8235,5834 8232,5830 8228,5825 8225,5820 8222,5814 8220,5809 8218,5803 8216,5798 8215,5792 8214,5787 8213,5781 8213,5775 8213,5769 8214,5763 8215,5757 8216,5752 8218,5746 8220,5741 8222,5736 8225,5730 8228,5725 8232,5720 8235,5716 8239,5711 8244,5707 8248,5704 8253,5700 8258,5697 8264,5694 8269,5692 8274,5690 8280,5688 8285,5687 8291,5686 8297,5685 8303,5685 Z"/>
          <path fill="none" stroke="rgb(27,25,24)" stroke-width="20" stroke-linejoin="miter" d="M 8303,5685 L 8309,5685 8315,5686 8320,5687 8326,5688 8331,5690 8337,5692 8342,5694 8348,5697 8353,5700 8358,5704 8362,5707 8367,5711 8371,5716 8374,5720 8378,5725 8381,5730 8384,5736 8386,5741 8388,5746 8390,5752 8391,5757 8392,5763 8393,5769 8393,5775 8393,5781 8392,5787 8391,5792 8390,5798 8388,5803 8386,5809 8384,5814 8381,5820 8378,5825 8374,5830 8371,5834 8367,5839 8362,5843 8358,5846 8353,5850 8348,5853 8342,5856 8337,5858 8331,5860 8326,5862 8320,5863 8315,5864 8309,5865 8303,5865 8297,5865 8291,5864 8285,5863 8280,5862 8274,5860 8269,5858 8264,5856 8258,5853 8253,5850 8248,5846 8244,5843 8239,5839 8235,5834 8232,5830 8228,5825 8225,5820 8222,5814 8220,5809 8218,5803 8216,5798 8215,5792 8214,5787 8213,5781 8213,5775 8213,5769 8214,5763 8215,5757 8216,5752 8218,5746 8220,5741 8222,5736 8225,5730 8228,5725 8232,5720 8235,5716 8239,5711 8244,5707 8248,5704 8253,5700 8258,5697 8264,5694 8269,5692 8274,5690 8280,5688 8285,5687 8291,5686 8297,5685 8303,5685 Z"/>
      </g>
      <g id="eye2_almost_open_2" style="display:none">
         <path class="line" d="M 8282,6058 L 8082,5758"/>
         <path class="line" d="M 8582,6058 L 8582,5658"/>
         <path class="line" d="M 8882,6058 L 9082,5758"/>
         <path fill="rgb(142,248,245)" stroke="none" d="M 9174,6055 C 9174,6058 9174,6061 9174,6065 9174,6174 9149,6267 9093,6362 9038,6457 8969,6525 8874,6579 8778,6634 8684,6659 8573,6659 8462,6659 8368,6634 8273,6579 8177,6525 8108,6457 8053,6362 7997,6267 7972,6174 7972,6065 L 7972,6072 C 7972,6068 7972,6064 7972,6060 7972,5979 8080,5908 8147,5898 8232,5866 8285,5870 8384,5852 8486,5845 8495,5831 8606,5831 8717,5831 8719,5845 8811,5859 8906,5899 8938,5873 9001,5905 9068,5940 9174,5979 9174,6059 9174,6062 9174,6064 9174,6067 L 9174,6055 Z"/>
         <path fill="none" stroke="rgb(0,0,0)" stroke-width="50" stroke-linejoin="round" d="M 9174,6055 C 9174,6058 9174,6061 9174,6065 9174,6174 9149,6267 9093,6362 9038,6457 8969,6525 8874,6579 8778,6634 8684,6659 8573,6659 8462,6659 8368,6634 8273,6579 8177,6525 8108,6457 8053,6362 7997,6267 7972,6174 7972,6065 L 7972,6072 C 7972,6068 7972,6064 7972,6060 7972,5979 8080,5908 8147,5898 8232,5866 8285,5870 8384,5852 8486,5845 8495,5831 8606,5831 8717,5831 8719,5845 8811,5859 8906,5899 8938,5873 9001,5905 9068,5940 9174,5979 9174,6059 9174,6062 9174,6064 9174,6067 L 9174,6055 Z"/>
          <path fill="rgb(27,25,24)" stroke="none" d="M 8696,5842 L 8779,5861 8781,5884 8782,5908 8781,5932 8779,5955 8776,5977 8771,5999 8764,6020 8756,6041 8746,6062 8735,6083 8723,6103 8709,6122 8695,6140 8680,6156 8664,6171 8646,6185 8627,6199 8607,6211 8586,6222 8565,6232 8544,6240 8523,6247 8501,6252 8479,6255 8456,6257 8432,6258 8408,6257 8385,6255 8363,6252 8341,6247 8320,6240 8299,6232 8278,6222 8257,6211 8237,6199 8218,6185 8200,6171 8184,6156 8169,6140 8155,6122 8141,6103 8129,6083 8118,6062 8108,6041 8100,6020 8094,5999 8088,5977 8085,5955 8083,5932 8082,5908 8172,5881 8297,5856 8435,5842 8608,5828 8696,5842 Z"/>
          <path fill="none" stroke="rgb(27,25,24)" stroke-width="20" stroke-linejoin="miter" d="M 8696,5842 L 8779,5861 8781,5884 8782,5908 8781,5932 8779,5955 8776,5977 8771,5999 8764,6020 8756,6041 8746,6062 8735,6083 8723,6103 8709,6122 8695,6140 8680,6156 8664,6171 8646,6185 8627,6199 8607,6211 8586,6222 8565,6232 8544,6240 8523,6247 8501,6252 8479,6255 8456,6257 8432,6258 8408,6257 8385,6255 8363,6252 8341,6247 8320,6240 8299,6232 8278,6222 8257,6211 8237,6199 8218,6185 8200,6171 8184,6156 8169,6140 8155,6122 8141,6103 8129,6083 8118,6062 8108,6041 8100,6020 8094,5999 8088,5977 8085,5955 8083,5932 8082,5908 8172,5881 8297,5856 8435,5842 8608,5828 8696,5842 Z"/>
          <path fill="rgb(255,255,255)" stroke="none" d="M 8567,5815 L 8614,5814 8650,5820 8652,5825 8654,5830 8656,5836 8657,5841 8658,5847 8659,5853 8659,5859 8659,5865 8658,5871 8657,5876 8656,5882 8654,5887 8652,5893 8650,5898 8647,5904 8644,5909 8640,5914 8637,5918 8633,5923 8628,5927 8624,5930 8619,5934 8614,5937 8608,5940 8603,5942 8597,5944 8592,5946 8586,5947 8581,5948 8575,5949 8569,5949 8563,5949 8557,5948 8551,5947 8546,5946 8540,5944 8535,5942 8530,5940 8524,5937 8519,5934 8514,5930 8510,5927 8505,5923 8501,5918 8498,5914 8494,5909 8491,5904 8488,5898 8486,5893 8484,5887 8482,5882 8481,5876 8480,5871 8479,5865 8479,5859 8479,5853 8480,5847 8481,5841 8482,5836 8484,5830 8486,5825 8521,5820 8567,5815 Z"/>
          <path fill="none" stroke="rgb(27,25,24)" stroke-width="20" stroke-linejoin="miter" d="M 8567,5815 L 8614,5814 8650,5820 8652,5825 8654,5830 8656,5836 8657,5841 8658,5847 8659,5853 8659,5859 8659,5865 8658,5871 8657,5876 8656,5882 8654,5887 8652,5893 8650,5898 8647,5904 8644,5909 8640,5914 8637,5918 8633,5923 8628,5927 8624,5930 8619,5934 8614,5937 8608,5940 8603,5942 8597,5944 8592,5946 8586,5947 8581,5948 8575,5949 8569,5949 8563,5949 8557,5948 8551,5947 8546,5946 8540,5944 8535,5942 8530,5940 8524,5937 8519,5934 8514,5930 8510,5927 8505,5923 8501,5918 8498,5914 8494,5909 8491,5904 8488,5898 8486,5893 8484,5887 8482,5882 8481,5876 8480,5871 8479,5865 8479,5859 8479,5853 8480,5847 8481,5841 8482,5836 8484,5830 8486,5825 8521,5820 8567,5815 Z"/>
      </g>
      <g class="Group" id="eye2_almost_close_1" style="display:none">
         <path fill="rgb(142,248,245)" stroke="none" d="M 9174,6056 C 9174,6059 9174,6062 9174,6066 9174,6175 9149,6268 9093,6363 9038,6458 8969,6526 8874,6580 8778,6635 8684,6660 8573,6660 8462,6660 8368,6635 8273,6580 8177,6526 8108,6458 8053,6363 7997,6268 7972,6175 7972,6066 L 7972,6073 C 7972,6069 8148,6136 8151,6137 8223,6170 8243,6173 8338,6215 8438,6234 8481,6258 8580,6240 8682,6233 8670,6243 8781,6218 8892,6193 8914,6165 8998,6132 9123,6065 9174,5980 9174,6060 9174,6063 9174,6065 9174,6068 L 9174,6056 Z"/>
         <path fill="none" stroke="rgb(0,0,0)" stroke-width="50" stroke-linejoin="round" d="M 9174,6056 C 9174,6059 9174,6062 9174,6066 9174,6175 9149,6268 9093,6363 9038,6458 8969,6526 8874,6580 8778,6635 8684,6660 8573,6660 8462,6660 8368,6635 8273,6580 8177,6526 8108,6458 8053,6363 7997,6268 7972,6175 7972,6066 L 7972,6073 C 7972,6069 8148,6136 8151,6137 8223,6170 8243,6173 8338,6215 8438,6234 8481,6258 8580,6240 8682,6233 8670,6243 8781,6218 8892,6193 8914,6165 8998,6132 9123,6065 9174,5980 9174,6060 9174,6063 9174,6065 9174,6068 L 9174,6056 Z"/>
         <path class="line" d="M 8157,6137 L 8082,6259"/>
         <path class="line" d="M 8577,6229 L 8582,6359"/>
         <path class="line" d="M 8995,6132 L 9082,6259"/>
      </g>
      <g class="Group" id="eye2_almost_close_2" style="display:none">
         <path fill="rgb(142,248,245)" stroke="none" d="M 9174,6060 C 9174,6063 9174,6066 9174,6070 9174,6179 9149,6272 9093,6367 9038,6462 8969,6530 8874,6584 8778,6639 8684,6664 8573,6664 8462,6664 8368,6639 8273,6584 8177,6530 8108,6462 8053,6367 7997,6272 7972,6179 7972,6070 L 7972,6077 C 7972,6073 8113,6236 8116,6237 8185,6288 8235,6361 8326,6407 8421,6438 8476,6469 8573,6478 8675,6471 8745,6448 8846,6387 8947,6326 8963,6304 9033,6191 9137,6063 9174,5984 9174,6064 9174,6067 9174,6069 9174,6072 L 9174,6060 Z"/>
         <path fill="none" stroke="rgb(0,0,0)" stroke-width="50" stroke-linejoin="round" d="M 9174,6060 C 9174,6063 9174,6066 9174,6070 9174,6179 9149,6272 9093,6367 9038,6462 8969,6530 8874,6584 8778,6639 8684,6664 8573,6664 8462,6664 8368,6639 8273,6584 8177,6530 8108,6462 8053,6367 7997,6272 7972,6179 7972,6070 L 7972,6077 C 7972,6073 8113,6236 8116,6237 8185,6288 8235,6361 8326,6407 8421,6438 8476,6469 8573,6478 8675,6471 8745,6448 8846,6387 8947,6326 8963,6304 9033,6191 9137,6063 9174,5984 9174,6064 9174,6067 9174,6069 9174,6072 L 9174,6060 Z"/>
         <path class="line" d="M 8154,6253 L 8077,6467"/>
         <path class="line" d="M 8573,6473 L 8577,6738"/>
         <path class="line" d="M 8995,6236 L 9104,6416"/>
      </g>
      <g class="Group" id="eye2_close" style="display:none">
         <path class="line" d="M 8201,6500 L 7978,6766"/>
         <path class="line" d="M 8578,7066 L 8578,6666"/>
         <path class="line" d="M 9001,6500 L 9178,6766"/>
         <path class="line" d="M 9201,6092 C 9201,6095 9201,6097 9201,6100 9201,6210 9176,6304 9121,6400 9065,6496 8997,6564 8901,6620 8805,6675 8711,6700 8601,6700 8491,6700 8397,6675 8301,6620 8205,6564 8137,6496 8081,6400 8027,6306 8002,6215 8001,6107"/>
      </g>
 <g id="eye2_right" style="display:none" >
         <path class="line" d="M 8181,5662 L 7981,5362"/>
         <path class="line" d="M 8581,5562 L 8581,5162"/>
         <path class="line" d="M 8981,5662 L 9181,5362"/>
         <path fill="rgb(142,248,245)" stroke="none" d="M 8573,5462 C 8913,5462 9173,5722 9173,6062 9173,6402 8913,6662 8573,6662 8233,6662 7973,6402 7973,6062 7973,5722 8233,5462 8573,5462 Z"/>
         <path fill="none" stroke="rgb(0,0,0)" stroke-width="50" stroke-linejoin="round" d="M 8573,5462 C 8913,5462 9173,5722 9173,6062 9173,6402 8913,6662 8573,6662 8233,6662 7973,6402 7973,6062 7973,5722 8233,5462 8573,5462 Z"/>
          <path fill="rgb(27,25,24)" stroke="none" d="M 8531,5562 C 8596,5562 8650,5577 8706,5609 8762,5641 8802,5681 8834,5737 8866,5793 8881,5847 8881,5912 8881,5977 8866,6031 8834,6087 8802,6143 8762,6183 8706,6215 8650,6247 8596,6262 8531,6262 8466,6262 8412,6247 8356,6215 8300,6183 8260,6143 8228,6087 8196,6031 8181,5977 8181,5912 8181,5847 8196,5793 8228,5737 8260,5681 8300,5641 8356,5609 8412,5577 8466,5562 8531,5562 Z"/>
          <path fill="none" stroke="rgb(27,25,24)" stroke-width="20" stroke-linejoin="miter" d="M 8531,5562 C 8596,5562 8650,5577 8706,5609 8762,5641 8802,5681 8834,5737 8866,5793 8881,5847 8881,5912 8881,5977 8866,6031 8834,6087 8802,6143 8762,6183 8706,6215 8650,6247 8596,6262 8531,6262 8466,6262 8412,6247 8356,6215 8300,6183 8260,6143 8228,6087 8196,6031 8181,5977 8181,5912 8181,5847 8196,5793 8228,5737 8260,5681 8300,5641 8356,5609 8412,5577 8466,5562 8531,5562 Z"/>
          <path fill="rgb(255,255,255)" stroke="none" d="M 8668,5773 C 8684,5773 8698,5777 8713,5785 8727,5793 8738,5804 8746,5818 8754,5833 8758,5846 8758,5863 8758,5879 8754,5893 8746,5908 8738,5922 8727,5933 8713,5941 8698,5949 8684,5953 8668,5953 8651,5953 8638,5949 8623,5941 8609,5933 8598,5922 8590,5908 8582,5893 8578,5879 8578,5863 8578,5846 8582,5833 8590,5818 8598,5804 8609,5793 8623,5785 8638,5777 8651,5773 8668,5773 Z"/>
          <path fill="none" stroke="rgb(27,25,24)" stroke-width="20" stroke-linejoin="miter" d="M 8668,5773 C 8684,5773 8698,5777 8713,5785 8727,5793 8738,5804 8746,5818 8754,5833 8758,5846 8758,5863 8758,5879 8754,5893 8746,5908 8738,5922 8727,5933 8713,5941 8698,5949 8684,5953 8668,5953 8651,5953 8638,5949 8623,5941 8609,5933 8598,5922 8590,5908 8582,5893 8578,5879 8578,5863 8578,5846 8582,5833 8590,5818 8598,5804 8609,5793 8623,5785 8638,5777 8651,5773 8668,5773 Z"/>
          <path fill="rgb(255,255,255)" stroke="none" d="M 8402,5685 C 8418,5685 8432,5689 8447,5697 8461,5705 8472,5716 8480,5730 8488,5745 8492,5758 8492,5775 8492,5791 8488,5805 8480,5820 8472,5834 8461,5845 8447,5853 8432,5861 8418,5865 8402,5865 8385,5865 8372,5861 8357,5853 8343,5845 8332,5834 8324,5820 8316,5805 8312,5791 8312,5775 8312,5758 8316,5745 8324,5730 8332,5716 8343,5705 8357,5697 8372,5689 8385,5685 8402,5685 Z"/>
          <path fill="none" stroke="rgb(27,25,24)" stroke-width="20" stroke-linejoin="miter" d="M 8402,5685 C 8418,5685 8432,5689 8447,5697 8461,5705 8472,5716 8480,5730 8488,5745 8492,5758 8492,5775 8492,5791 8488,5805 8480,5820 8472,5834 8461,5845 8447,5853 8432,5861 8418,5865 8402,5865 8385,5865 8372,5861 8357,5853 8343,5845 8332,5834 8324,5820 8316,5805 8312,5791 8312,5775 8312,5758 8316,5745 8324,5730 8332,5716 8343,5705 8357,5697 8372,5689 8385,5685 8402,5685 Z"/>
 </g>
      <g id="eye2_right2" style="display:none">
        <path class="line" d="M 8185,5657 L 7985,5357"/>
        <path class="line" d="M 8585,5557 L 8585,5157"/>
        <path class="line" d="M 8985,5657 L 9185,5357"/>
        <path fill="rgb(142,248,245)" stroke="none" d="M 8577,5457 C 8917,5457 9177,5717 9177,6057 9177,6397 8917,6657 8577,6657 8237,6657 7977,6397 7977,6057 7977,5717 8237,5457 8577,5457 Z"/>
        <path fill="none" stroke="rgb(0,0,0)" stroke-width="50" stroke-linejoin="round" d="M 8577,5457 C 8917,5457 9177,5717 9177,6057 9177,6397 8917,6657 8577,6657 8237,6657 7977,6397 7977,6057 7977,5717 8237,5457 8577,5457 Z"/>
         <path fill="rgb(27,25,24)" stroke="none" d="M 8635,5557 C 8700,5557 8754,5572 8810,5604 8866,5636 8906,5676 8938,5732 8970,5788 8985,5842 8985,5907 8985,5972 8970,6026 8938,6082 8906,6138 8866,6178 8810,6210 8754,6242 8700,6257 8635,6257 8570,6257 8516,6242 8460,6210 8404,6178 8364,6138 8332,6082 8300,6026 8285,5972 8285,5907 8285,5842 8300,5788 8332,5732 8364,5676 8404,5636 8460,5604 8516,5572 8570,5557 8635,5557 Z"/>
         <path fill="none" stroke="rgb(27,25,24)" stroke-width="20" stroke-linejoin="miter" d="M 8635,5557 C 8700,5557 8754,5572 8810,5604 8866,5636 8906,5676 8938,5732 8970,5788 8985,5842 8985,5907 8985,5972 8970,6026 8938,6082 8906,6138 8866,6178 8810,6210 8754,6242 8700,6257 8635,6257 8570,6257 8516,6242 8460,6210 8404,6178 8364,6138 8332,6082 8300,6026 8285,5972 8285,5907 8285,5842 8300,5788 8332,5732 8364,5676 8404,5636 8460,5604 8516,5572 8570,5557 8635,5557 Z"/>
         <path fill="rgb(255,255,255)" stroke="none" d="M 8772,5768 C 8788,5768 8802,5772 8817,5780 8831,5788 8842,5799 8850,5813 8858,5828 8862,5841 8862,5858 8862,5874 8858,5888 8850,5903 8842,5917 8831,5928 8817,5936 8802,5944 8788,5948 8772,5948 8755,5948 8742,5944 8727,5936 8713,5928 8702,5917 8694,5903 8686,5888 8682,5874 8682,5858 8682,5841 8686,5828 8694,5813 8702,5799 8713,5788 8727,5780 8742,5772 8755,5768 8772,5768 Z"/>
         <path fill="none" stroke="rgb(27,25,24)" stroke-width="20" stroke-linejoin="miter" d="M 8772,5768 C 8788,5768 8802,5772 8817,5780 8831,5788 8842,5799 8850,5813 8858,5828 8862,5841 8862,5858 8862,5874 8858,5888 8850,5903 8842,5917 8831,5928 8817,5936 8802,5944 8788,5948 8772,5948 8755,5948 8742,5944 8727,5936 8713,5928 8702,5917 8694,5903 8686,5888 8682,5874 8682,5858 8682,5841 8686,5828 8694,5813 8702,5799 8713,5788 8727,5780 8742,5772 8755,5768 8772,5768 Z"/>
         <path fill="rgb(255,255,255)" stroke="none" d="M 8506,5680 C 8522,5680 8536,5684 8551,5692 8565,5700 8576,5711 8584,5725 8592,5740 8596,5753 8596,5770 8596,5786 8592,5800 8584,5815 8576,5829 8565,5840 8551,5848 8536,5856 8522,5860 8506,5860 8489,5860 8476,5856 8461,5848 8447,5840 8436,5829 8428,5815 8420,5800 8416,5786 8416,5770 8416,5753 8420,5740 8428,5725 8436,5711 8447,5700 8461,5692 8476,5684 8489,5680 8506,5680 Z"/>
         <path fill="none" stroke="rgb(27,25,24)" stroke-width="20" stroke-linejoin="miter" d="M 8506,5680 C 8522,5680 8536,5684 8551,5692 8565,5700 8576,5711 8584,5725 8592,5740 8596,5753 8596,5770 8596,5786 8592,5800 8584,5815 8576,5829 8565,5840 8551,5848 8536,5856 8522,5860 8506,5860 8489,5860 8476,5856 8461,5848 8447,5840 8436,5829 8428,5815 8420,5800 8416,5786 8416,5770 8416,5753 8420,5740 8428,5725 8436,5711 8447,5700 8461,5692 8476,5684 8489,5680 8506,5680 Z"/>
        </g>
      <g id="eye2_right3" style="display:none">
         <path class="line" d="M 8189,5652 L 7989,5352"/>
         <path class="line" d="M 8589,5552 L 8589,5152"/>
         <path class="line" d="M 8989,5652 L 9189,5352"/>
         <path fill="rgb(142,248,245)" stroke="none" d="M 8581,5452 C 8921,5452 9181,5712 9181,6052 9181,6392 8921,6652 8581,6652 8241,6652 7981,6392 7981,6052 7981,5712 8241,5452 8581,5452 Z"/>
         <path fill="none" stroke="rgb(0,0,0)" stroke-width="50" stroke-linejoin="round" d="M 8581,5452 C 8921,5452 9181,5712 9181,6052 9181,6392 8921,6652 8581,6652 8241,6652 7981,6392 7981,6052 7981,5712 8241,5452 8581,5452 Z"/>
          <path fill="rgb(27,25,24)" stroke="none" d="M 8739,5552 C 8804,5552 8858,5567 8914,5599 8970,5631 9010,5671 9042,5727 9074,5783 9089,5837 9089,5902 9089,5967 9074,6021 9042,6077 9010,6133 8970,6173 8914,6205 8858,6237 8804,6252 8739,6252 8674,6252 8620,6237 8564,6205 8508,6173 8468,6133 8436,6077 8404,6021 8389,5967 8389,5902 8389,5837 8404,5783 8436,5727 8468,5671 8508,5631 8564,5599 8620,5567 8674,5552 8739,5552 Z"/>
          <path fill="none" stroke="rgb(27,25,24)" stroke-width="20" stroke-linejoin="miter" d="M 8739,5552 C 8804,5552 8858,5567 8914,5599 8970,5631 9010,5671 9042,5727 9074,5783 9089,5837 9089,5902 9089,5967 9074,6021 9042,6077 9010,6133 8970,6173 8914,6205 8858,6237 8804,6252 8739,6252 8674,6252 8620,6237 8564,6205 8508,6173 8468,6133 8436,6077 8404,6021 8389,5967 8389,5902 8389,5837 8404,5783 8436,5727 8468,5671 8508,5631 8564,5599 8620,5567 8674,5552 8739,5552 Z"/>
          <path fill="rgb(255,255,255)" stroke="none" d="M 8876,5763 C 8892,5763 8906,5767 8921,5775 8935,5783 8946,5794 8954,5808 8962,5823 8966,5836 8966,5853 8966,5869 8962,5883 8954,5898 8946,5912 8935,5923 8921,5931 8906,5939 8892,5943 8876,5943 8859,5943 8846,5939 8831,5931 8817,5923 8806,5912 8798,5898 8790,5883 8786,5869 8786,5853 8786,5836 8790,5823 8798,5808 8806,5794 8817,5783 8831,5775 8846,5767 8859,5763 8876,5763 Z"/>
          <path fill="none" stroke="rgb(27,25,24)" stroke-width="20" stroke-linejoin="miter" d="M 8876,5763 C 8892,5763 8906,5767 8921,5775 8935,5783 8946,5794 8954,5808 8962,5823 8966,5836 8966,5853 8966,5869 8962,5883 8954,5898 8946,5912 8935,5923 8921,5931 8906,5939 8892,5943 8876,5943 8859,5943 8846,5939 8831,5931 8817,5923 8806,5912 8798,5898 8790,5883 8786,5869 8786,5853 8786,5836 8790,5823 8798,5808 8806,5794 8817,5783 8831,5775 8846,5767 8859,5763 8876,5763 Z"/>
          <path fill="rgb(255,255,255)" stroke="none" d="M 8610,5675 C 8626,5675 8640,5679 8655,5687 8669,5695 8680,5706 8688,5720 8696,5735 8700,5748 8700,5765 8700,5781 8696,5795 8688,5810 8680,5824 8669,5835 8655,5843 8640,5851 8626,5855 8610,5855 8593,5855 8580,5851 8565,5843 8551,5835 8540,5824 8532,5810 8524,5795 8520,5781 8520,5765 8520,5748 8524,5735 8532,5720 8540,5706 8551,5695 8565,5687 8580,5679 8593,5675 8610,5675 Z"/>
          <path fill="none" stroke="rgb(27,25,24)" stroke-width="20" stroke-linejoin="miter" d="M 8610,5675 C 8626,5675 8640,5679 8655,5687 8669,5695 8680,5706 8688,5720 8696,5735 8700,5748 8700,5765 8700,5781 8696,5795 8688,5810 8680,5824 8669,5835 8655,5843 8640,5851 8626,5855 8610,5855 8593,5855 8580,5851 8565,5843 8551,5835 8540,5824 8532,5810 8524,5795 8520,5781 8520,5765 8520,5748 8524,5735 8532,5720 8540,5706 8551,5695 8565,5687 8580,5679 8593,5675 8610,5675 Z"/>
      </g>
    </g>
    <g id="head_up1" style="display:none">
    <g id="hcontour_up1">
      <path class="line" d="M 8954,4176 L 8489,4530 7934,4736"/>
      <path class="line" d="M 7766,6986 C 7887,7000 8496,7158 8515,7161 9347,7707 10066,7926 10547,7540"/>
    </g>
      <g id="mane_up1">
        <path class="fill" d="M 8481,4472 C 9668,3699 10160,4286 10762,4292 11363,4297 12434,3740 12274,3660 L 11838,3444 C 11600,3293 11277,3238 10968,3193 10366,3187 9565,3135 8481,4472 Z"/>
        <path class="fill" d="M 12301,8340 C 10481,11824 12400,12046 13038,11900 11958,11489 12327,11087 12473,10395 Z"/>
        <path class="fill" d="M 12709,7209 C 12709,7209 10952,10891 13663,10613 13663,10613 12404,10437 13098,9108 Z"/>
        <path class="fill" d="M 12800,4003 C 14113,4906 14347,6282 13836,7571 13583,8267 13547,9147 14597,9149 14259,9803 12614,9671 12687,7352 12702,6328 12863,5760 12611,5018 Z"/>
      </g>
      <g class="Group" id="horn_up1">
         <path fill="rgb(255,47,0)" stroke="none" d="M 10054,1997 C 10173,1998 10271,1794 10248,1668 L 10199,1526 C 10156,1419 10199,1389 10099,1328 L 10044,1404 C 10021,1464 10016,1618 10017,1683 10018,1786 9991,1926 10054,1997 Z"/>
         <path fill="none" stroke="rgb(0,0,0)" stroke-width="50" stroke-linejoin="miter" d="M 10054,1997 C 10173,1998 10271,1794 10248,1668 L 10199,1526 C 10156,1419 10199,1389 10099,1328 L 10044,1404 C 10021,1464 10016,1618 10017,1683 10018,1786 9991,1926 10054,1997 Z"/>
         <path fill="rgb(255,153,0)" stroke="none" d="M 10033,2347 C 10224,2414 10338,2445 10402,2236 10426,2162 10424,2097 10412,2042 L 10363,1929 C 10358,1922 10327,1884 10327,1884 10058,1872 10036,2115 10033,2347 Z"/>
         <path fill="none" stroke="rgb(0,0,0)" stroke-width="50" stroke-linejoin="miter" d="M 10033,2347 C 10224,2414 10338,2445 10402,2236 10426,2162 10424,2097 10412,2042 L 10363,1929 C 10358,1922 10327,1884 10327,1884 10058,1872 10036,2115 10033,2347 Z"/>
         <path fill="rgb(255,255,0)" stroke="none" d="M 10232,2402 C 10179,2430 10116,2420 10085,2444 10057,2467 10024,2570 10029,2597 10072,2629 10013,2684 10012,2819 10096,2853 10176,2768 10260,2779 10309,2753 10342,2720 10390,2684 10444,2644 10472,2622 10513,2543 10523,2505 10519,2472 10520,2435 10459,2353 10500,2332 10450,2280 10381,2310 10347,2378 10259,2400 L 10232,2402 Z"/>
         <path fill="none" stroke="rgb(0,0,0)" stroke-width="50" stroke-linejoin="miter" d="M 10232,2402 C 10179,2430 10116,2420 10085,2444 10057,2467 10024,2570 10029,2597 10072,2629 10013,2684 10012,2819 10096,2853 10176,2768 10260,2779 10309,2753 10342,2720 10390,2684 10444,2644 10472,2622 10513,2543 10523,2505 10519,2472 10520,2435 10459,2353 10500,2332 10450,2280 10381,2310 10347,2378 10259,2400 L 10232,2402 Z"/>
         <path fill="rgb(72,246,57)" stroke="none" d="M 10114,3301 C 10326,3190 10206,3209 10423,3120 10426,3118 10432,3116 10436,3114 L 10463,3101 C 10554,3052 10619,2972 10671,2873 10713,2796 10707,2823 10697,2758 10692,2730 10691,2735 10681,2701 10679,2696 10670,2678 10672,2669 10674,2661 10669,2657 10668,2652 10575,2628 10655,2649 10593,2640 10573,2637 10608,2635 10558,2636 10497,2637 10467,2670 10415,2698 10193,2815 10042,2800 9958,3072 9908,3231 9959,3230 10114,3301 Z"/>
         <path fill="none" stroke="rgb(0,0,0)" stroke-width="50" stroke-linejoin="miter" d="M 10114,3301 C 10326,3190 10206,3209 10423,3120 10426,3118 10432,3116 10436,3114 L 10463,3101 C 10554,3052 10619,2972 10671,2873 10713,2796 10707,2823 10697,2758 10692,2730 10691,2735 10681,2701 10679,2696 10670,2678 10672,2669 10674,2661 10669,2657 10668,2652 10575,2628 10655,2649 10593,2640 10573,2637 10608,2635 10558,2636 10497,2637 10467,2670 10415,2698 10193,2815 10042,2800 9958,3072 9908,3231 9959,3230 10114,3301 Z"/>
         <path fill="rgb(171,65,127)" stroke="none" d="M 10851,3215 C 10721,3388 10995,3402 10465,3730 10429,3752 9725,4136 9973,4095 L 11193,3894 C 11281,3879 11005,3411 10915,3253 10902,3229 10855,3209 10851,3215 Z"/>
         <path fill="none" stroke="rgb(27,25,24)" stroke-width="50" stroke-linejoin="miter" d="M 10851,3215 C 10721,3388 10995,3402 10465,3730 10429,3752 9725,4136 9973,4095 L 11193,3894 C 11281,3879 11005,3411 10915,3253 10902,3229 10855,3209 10851,3215 Z"/>
         <path fill="rgb(106,247,242)" stroke="none" d="M 10634,2937 C 10593,3024 10434,3152 10364,3211 10272,3289 10041,3334 10013,3348 L 9989,3470 C 10014,3589 9962,3885 9986,3967 10060,3983 10280,3836 10351,3788 10420,3742 10572,3700 10703,3542 10760,3473 10825,3322 10851,3216 10837,3166 10827,3179 10816,3115 10806,3055 10819,3051 10794,3005 10736,2948 10776,2941 10714,2895 10669,2925 10696,2920 10634,2937 Z"/>
         <path fill="none" stroke="rgb(0,0,0)" stroke-width="50" stroke-linejoin="miter" d="M 10634,2937 C 10593,3024 10434,3152 10364,3211 10272,3289 10041,3334 10013,3348 L 9989,3470 C 10014,3589 9962,3885 9986,3967 10060,3983 10280,3836 10351,3788 10420,3742 10572,3700 10703,3542 10760,3473 10825,3322 10851,3216 10837,3166 10827,3179 10816,3115 10806,3055 10819,3051 10794,3005 10736,2948 10776,2941 10714,2895 10669,2925 10696,2920 10634,2937 Z"/>
         <path fill="none" stroke="rgb(27,25,24)" stroke-width="75" stroke-linejoin="miter" d="M 10046,1141 L 9957,4116 11198,3905 10046,1141 Z"/>
      </g>
      <g class="Group" id="ear_up1" onmouseover="wink()">
         <path fill="rgb(255,255,255)" stroke="none" d="M 12372,5553 C 12875,4485 12926,3606 12716,3220 12156,3242 11603,4028 11304,4579 Z"/>
         <path class="line" d="M 12372,5553 C 12875,4485 12926,3606 12716,3220 12156,3242 11603,4028 11304,4579"/>
         <path fill="rgb(245,177,181)" stroke="none" d="M 11585,4807 C 11770,4440 12026,3957 12419,3730 12553,4019 12256,4861 12069,5204 Z"/>
         <path class="line" d="M 11585,4807 C 11770,4440 12026,3957 12419,3730 12553,4019 12256,4861 12069,5204"/>
      </g>
      <g id="snout_up1" onmouseover="smile()">
	<path class="fill" d="M 7930,4736 C 6456,5027 6541,6157 6825,6582 7186,6658 7591,6816 7841,6682 8130,6003 7668,5874 7930,4736 Z"/>
	<path id="jowl_1_up1" style="display:none" class="fill" d="M 6825,6582 C 7186,6658 7591,6816 7841,6682 7777,6793 7770,6909 7770,6985 7538,6963 7048,6902 6825,6582 Z"/>
	<path id="jowl_2_up1" class="fill" d="M 6845,6788 C 7215,6763 7493,6910 7841,6682 7777,6793 7770,6909 7770,6985 7513,7024 7097,7013 6831,6785 Z"/>
        <path fill="rgb(27,25,24)" stroke="rgb(27,25,24)" stroke-width="20" stroke-linejoin="miter" d="M 7372,5347 L 7372,5347 C 7398,5355 7419,5368 7437,5388 7455,5407 7466,5428 7472,5454 7478,5480 7477,5504 7470,5530 7462,5555 7449,5576 7429,5594 7410,5612 7389,5623 7363,5629 7337,5636 7313,5635 7287,5627 7262,5619 7241,5606 7223,5586 7205,5567 7194,5546 7188,5520 7181,5494 7182,5470 7190,5445 7198,5419 7211,5398 7231,5381 7250,5362 7271,5351 7297,5345 7323,5339 7346,5339 7372,5347 Z"/>
      </g>
      <g class="Group" id="eye_open_up1" style="display:none" onclick="close_eye()">
         <path fill="rgb(27,25,24)" stroke="none" d="M 9443,4792 C 9520,4815 9580,4852 9634,4910 9688,4969 9722,5031 9740,5109 9758,5186 9755,5257 9732,5333 9709,5410 9672,5469 9613,5524 9555,5578 9493,5611 9415,5630 9337,5648 9267,5645 9190,5622 9114,5599 9054,5562 9000,5503 8945,5445 8912,5382 8894,5305 8876,5227 8878,5157 8902,5080 8925,5004 8962,4944 9020,4890 9079,4835 9141,4802 9219,4784 9296,4766 9367,4768 9443,4792 Z"/>
         <path fill="none" stroke="rgb(27,25,24)" stroke-width="20" stroke-linejoin="miter" d="M 9443,4792 C 9520,4815 9580,4852 9634,4910 9688,4969 9722,5031 9740,5109 9758,5186 9755,5257 9732,5333 9709,5410 9672,5469 9613,5524 9555,5578 9493,5611 9415,5630 9337,5648 9267,5645 9190,5622 9114,5599 9054,5562 9000,5503 8945,5445 8912,5382 8894,5305 8876,5227 8878,5157 8902,5080 8925,5004 8962,4944 9020,4890 9079,4835 9141,4802 9219,4784 9296,4766 9367,4768 9443,4792 Z"/>
         <path fill="rgb(255,255,255)" stroke="none" d="M 9530,5092 L 9529,5091 C 9549,5097 9563,5107 9578,5122 9592,5137 9601,5153 9605,5173 9609,5193 9609,5211 9603,5230 L 9603,5231 C 9597,5250 9588,5265 9573,5279 9558,5294 9542,5302 9522,5307 9501,5311 9484,5311 9465,5305 9444,5299 9430,5289 9415,5274 9401,5260 9392,5243 9388,5223 9384,5203 9384,5185 9390,5166 9396,5146 9406,5131 9420,5117 9435,5103 9451,5094 9472,5090 9492,5085 9509,5086 9529,5091 L 9530,5092 Z"/>
         <path fill="none" stroke="rgb(27,25,24)" stroke-width="20" stroke-linejoin="miter" d="M 9530,5092 L 9529,5091 C 9549,5097 9563,5107 9578,5122 9592,5137 9601,5153 9605,5173 9609,5193 9609,5211 9603,5230 L 9603,5231 C 9597,5250 9588,5265 9573,5279 9558,5294 9542,5302 9522,5307 9501,5311 9484,5311 9465,5305 9444,5299 9430,5289 9415,5274 9401,5260 9392,5243 9388,5223 9384,5203 9384,5185 9390,5166 9396,5146 9406,5131 9420,5117 9435,5103 9451,5094 9472,5090 9492,5085 9509,5086 9529,5091 L 9530,5092 Z"/>
         <path fill="rgb(255,255,255)" stroke="none" d="M 9246,4890 L 9245,4890 C 9265,4896 9280,4906 9294,4921 9308,4935 9317,4952 9321,4972 9326,4992 9326,5010 9320,5029 L 9319,5030 C 9314,5049 9304,5064 9289,5078 9274,5092 9258,5101 9238,5105 9218,5110 9200,5109 9181,5104 9161,5098 9146,5088 9132,5073 9117,5058 9109,5042 9104,5022 9100,5002 9100,4984 9106,4965 9112,4945 9122,4930 9137,4916 9152,4901 9168,4893 9188,4888 9208,4884 9226,4884 9245,4890 L 9246,4890 Z"/>
         <path fill="none" stroke="rgb(27,25,24)" stroke-width="20" stroke-linejoin="miter" d="M 9246,4890 L 9245,4890 C 9265,4896 9280,4906 9294,4921 9308,4935 9317,4952 9321,4972 9326,4992 9326,5010 9320,5029 L 9319,5030 C 9314,5049 9304,5064 9289,5078 9274,5092 9258,5101 9238,5105 9218,5110 9200,5109 9181,5104 9161,5098 9146,5088 9132,5073 9117,5058 9109,5042 9104,5022 9100,5002 9100,4984 9106,4965 9112,4945 9122,4930 9137,4916 9152,4901 9168,4893 9188,4888 9208,4884 9226,4884 9245,4890 L 9246,4890 Z"/>
         <path fill="none" stroke="rgb(27,25,24)" stroke-width="75" stroke-linejoin="miter" d="M 9692,4984 L 9917,4844"/>
         <path fill="none" stroke="rgb(27,25,24)" stroke-width="75" stroke-linejoin="miter" d="M 9466,4800 L 9558,4552"/>
         <path fill="none" stroke="rgb(27,25,24)" stroke-width="75" stroke-linejoin="miter" d="M 9169,4798 L 9060,4556"/>
      </g>
      <g class="Group" id="eye_close_up1" style="display:none" onclick="open_eye()">
         <path fill="rgb(27,25,24)" stroke="none" d="M 8904,5092 C 8881,5168 8879,5238 8897,5316 8915,5394 8948,5456 9003,5514 9057,5573 9117,5610 9193,5633 9270,5656 9340,5659 9418,5641 9495,5623 9558,5589 9616,5535 9674,5481 9712,5421 9735,5344 L 9320,5218 8904,5092 Z"/>
         <path fill="none" stroke="rgb(27,25,24)" stroke-width="20" stroke-linejoin="miter" d="M 8904,5092 C 8881,5168 8879,5238 8897,5316 8915,5394 8948,5456 9003,5514 9057,5573 9117,5610 9193,5633 9270,5656 9340,5659 9418,5641 9495,5623 9558,5589 9616,5535 9674,5481 9712,5421 9735,5344 L 9320,5218 8904,5092 Z"/>
         <path fill="none" stroke="rgb(27,25,24)" stroke-width="75" stroke-linejoin="miter" d="M 9507,5612 L 9615,5854"/>
         <path fill="none" stroke="rgb(27,25,24)" stroke-width="75" stroke-linejoin="miter" d="M 9218,5638 L 9156,5896"/>
         <path fill="none" stroke="rgb(27,25,24)" stroke-width="75" stroke-linejoin="miter" d="M 8969,5475 L 8744,5616"/>
      </g>
      <g id="eye2_open_up1">
         <path class="line" d="M 9114,4833 L 9010,4488"/>
         <path class="line" d="M 9526,4854 L 9642,4472"/>
         <path class="line" d="M 9879,5066 L 10158,4838"/>
         <path fill="rgb(142,248,245)" stroke="none" d="M 9547,4756 C 9872,4855 10045,5180 9946,5505 9847,5830 9523,6003 9197,5904 8872,5805 8699,5481 8798,5155 8897,4830 9222,4657 9547,4756 Z"/>
         <path fill="none" stroke="rgb(0,0,0)" stroke-width="50" stroke-linejoin="round" d="M 9547,4756 C 9872,4855 10045,5180 9946,5505 9847,5830 9523,6003 9197,5904 8872,5805 8699,5481 8798,5155 8897,4830 9222,4657 9547,4756 Z"/>
          <path fill="rgb(27,25,24)" stroke="none" d="M 9382,4811 C 9444,4829 9492,4860 9536,4906 9580,4953 9607,5003 9621,5066 9635,5129 9634,5185 9615,5247 9596,5309 9566,5357 9519,5401 9472,5445 9422,5472 9359,5486 9296,5500 9240,5499 9178,5480 9116,5461 9069,5431 9024,5384 8980,5337 8954,5287 8939,5224 8925,5162 8926,5106 8945,5043 8964,4981 8994,4934 9041,4890 9088,4845 9138,4819 9201,4804 9264,4790 9320,4792 9382,4811 Z"/>
          <path fill="none" stroke="rgb(27,25,24)" stroke-width="20" stroke-linejoin="miter" d="M 9382,4811 C 9444,4829 9492,4860 9536,4906 9580,4953 9607,5003 9621,5066 9635,5129 9634,5185 9615,5247 9596,5309 9566,5357 9519,5401 9472,5445 9422,5472 9359,5486 9296,5500 9240,5499 9178,5480 9116,5461 9069,5431 9024,5384 8980,5337 8954,5287 8939,5224 8925,5162 8926,5106 8945,5043 8964,4981 8994,4934 9041,4890 9088,4845 9138,4819 9201,4804 9264,4790 9320,4792 9382,4811 Z"/>
          <path fill="rgb(255,255,255)" stroke="none" d="M 9452,5052 C 9467,5057 9479,5065 9491,5077 9502,5089 9510,5102 9513,5118 9516,5135 9516,5148 9512,5165 9507,5180 9499,5192 9487,5204 9475,5215 9461,5223 9446,5226 9429,5229 9415,5229 9399,5224 9383,5220 9372,5212 9360,5200 9349,5188 9341,5174 9338,5159 9334,5142 9335,5127 9339,5112 9344,5096 9352,5085 9364,5073 9376,5062 9389,5054 9405,5051 9422,5047 9435,5047 9452,5052 Z"/>
          <path fill="none" stroke="rgb(27,25,24)" stroke-width="20" stroke-linejoin="miter" d="M 9452,5052 C 9467,5057 9479,5065 9491,5077 9502,5089 9510,5102 9513,5118 9516,5135 9516,5148 9512,5165 9507,5180 9499,5192 9487,5204 9475,5215 9461,5223 9446,5226 9429,5229 9415,5229 9399,5224 9383,5220 9372,5212 9360,5200 9349,5188 9341,5174 9338,5159 9334,5142 9335,5127 9339,5112 9344,5096 9352,5085 9364,5073 9376,5062 9389,5054 9405,5051 9422,5047 9435,5047 9452,5052 Z"/>
          <path fill="rgb(255,255,255)" stroke="none" d="M 9223,4891 C 9238,4895 9250,4903 9262,4915 9273,4927 9281,4941 9284,4956 9288,4973 9288,4987 9283,5003 9278,5018 9270,5030 9258,5042 9246,5054 9233,5061 9217,5064 9200,5068 9186,5067 9170,5063 9154,5058 9143,5050 9131,5038 9120,5026 9112,5013 9109,4997 9106,4980 9106,4966 9111,4950 9115,4934 9123,4923 9135,4911 9147,4900 9161,4893 9176,4889 9193,4886 9207,4886 9223,4891 Z"/>
          <path fill="none" stroke="rgb(27,25,24)" stroke-width="20" stroke-linejoin="miter" d="M 9223,4891 C 9238,4895 9250,4903 9262,4915 9273,4927 9281,4941 9284,4956 9288,4973 9288,4987 9283,5003 9278,5018 9270,5030 9258,5042 9246,5054 9233,5061 9217,5064 9200,5068 9186,5067 9170,5063 9154,5058 9143,5050 9131,5038 9120,5026 9112,5013 9109,4997 9106,4980 9106,4966 9111,4950 9115,4934 9123,4923 9135,4911 9147,4900 9161,4893 9176,4889 9193,4886 9207,4886 9223,4891 Z"/>
      </g>
      <g class="Group" id="eye2_almost_open_1_up1" style="display:none">
         <path class="line" d="M 9056,5025 L 8953,4680"/>
         <path class="line" d="M 9468,5046 L 9585,4663"/>
         <path class="line" d="M 9822,5258 L 10100,5029"/>
         <path fill="rgb(142,248,245)" stroke="none" d="M 9948,5502 C 9947,5505 9946,5508 9945,5512 9913,5616 9862,5698 9781,5772 9701,5847 9615,5892 9508,5916 9401,5941 9303,5937 9197,5905 9091,5873 9008,5821 8933,5741 8857,5662 8811,5576 8786,5470 8760,5362 8764,5266 8795,5162 L 8793,5168 C 8794,5165 8796,5161 8797,5157 8820,5080 8864,5022 8938,4971 9011,4920 9092,4892 9194,4882 9298,4871 9393,4881 9499,4913 9605,4945 9690,4990 9769,5057 9849,5123 9901,5191 9933,5274 9966,5357 9970,5430 9947,5506 9946,5509 9945,5511 9945,5514 L 9948,5502 Z"/>
         <path fill="none" stroke="rgb(0,0,0)" stroke-width="50" stroke-linejoin="round" d="M 9948,5502 C 9947,5505 9946,5508 9945,5512 9913,5616 9862,5698 9781,5772 9701,5847 9615,5892 9508,5916 9401,5941 9303,5937 9197,5905 9091,5873 9008,5821 8933,5741 8857,5662 8811,5576 8786,5470 8760,5362 8764,5266 8795,5162 L 8793,5168 C 8794,5165 8796,5161 8797,5157 8820,5080 8864,5022 8938,4971 9011,4920 9092,4892 9194,4882 9298,4871 9393,4881 9499,4913 9605,4945 9690,4990 9769,5057 9849,5123 9901,5191 9933,5274 9966,5357 9970,5430 9947,5506 9946,5509 9945,5511 9945,5514 L 9948,5502 Z"/>
          <path fill="rgb(27,25,24)" stroke="none" d="M 9391,4883 L 9472,4900 9552,4924 9566,4943 9580,4962 9591,4981 9600,5000 9608,5022 9616,5044 9622,5066 9626,5090 9630,5113 9631,5135 9632,5157 9630,5180 9627,5202 9622,5224 9616,5248 9608,5270 9599,5292 9590,5312 9579,5331 9566,5349 9552,5367 9537,5384 9520,5401 9503,5417 9484,5431 9465,5444 9446,5455 9426,5465 9405,5473 9383,5481 9360,5486 9337,5491 9314,5494 9291,5496 9269,5496 9247,5495 9225,5491 9202,5486 9179,5480 9156,5472 9135,5464 9115,5455 9095,5443 9077,5431 9059,5417 9042,5401 9025,5384 9010,5367 8996,5348 8982,5330 8972,5311 8962,5291 8954,5270 8946,5247 8940,5225 8936,5201 8932,5178 8931,5156 8931,5134 8932,5111 8935,5089 8940,5067 8946,5044 8954,5021 8963,5000 8972,4979 8984,4960 8996,4942 9010,4924 9026,4907 9141,4882 9248,4868 9331,4876 9391,4883 Z"/>
          <path fill="none" stroke="rgb(27,25,24)" stroke-width="20" stroke-linejoin="miter" d="M 9391,4883 L 9472,4900 9552,4924 9566,4943 9580,4962 9591,4981 9600,5000 9608,5022 9616,5044 9622,5066 9626,5090 9630,5113 9631,5135 9632,5157 9630,5180 9627,5202 9622,5224 9616,5248 9608,5270 9599,5292 9590,5312 9579,5331 9566,5349 9552,5367 9537,5384 9520,5401 9503,5417 9484,5431 9465,5444 9446,5455 9426,5465 9405,5473 9383,5481 9360,5486 9337,5491 9314,5494 9291,5496 9269,5496 9247,5495 9225,5491 9202,5486 9179,5480 9156,5472 9135,5464 9115,5455 9095,5443 9077,5431 9059,5417 9042,5401 9025,5384 9010,5367 8996,5348 8982,5330 8972,5311 8962,5291 8954,5270 8946,5247 8940,5225 8936,5201 8932,5178 8931,5156 8931,5134 8932,5111 8935,5089 8940,5067 8946,5044 8954,5021 8963,5000 8972,4979 8984,4960 8996,4942 9010,4924 9026,4907 9141,4882 9248,4868 9331,4876 9391,4883 Z"/>
          <path fill="rgb(255,255,255)" stroke="none" d="M 9453,5053 L 9458,5054 9464,5057 9468,5059 9474,5062 9478,5065 9483,5069 9487,5073 9492,5077 9496,5081 9500,5087 9503,5091 9506,5096 9509,5102 9510,5107 9513,5113 9514,5118 9515,5125 9516,5130 9516,5136 9516,5142 9516,5147 9515,5153 9514,5159 9512,5165 9511,5171 9508,5176 9506,5181 9503,5186 9500,5190 9496,5195 9493,5200 9488,5204 9484,5208 9478,5212 9474,5215 9469,5219 9463,5221 9458,5223 9452,5225 9447,5226 9440,5228 9435,5228 9428,5228 9423,5229 9417,5228 9412,5227 9406,5226 9400,5225 9394,5223 9389,5220 9384,5218 9379,5215 9374,5212 9370,5208 9365,5205 9361,5200 9357,5196 9353,5191 9350,5187 9347,5181 9344,5175 9342,5171 9340,5165 9339,5159 9338,5152 9337,5147 9337,5141 9336,5135 9337,5129 9338,5124 9339,5118 9340,5112 9342,5107 9345,5101 9347,5096 9350,5091 9354,5086 9357,5082 9360,5078 9365,5073 9369,5069 9374,5065 9379,5062 9384,5059 9390,5056 9394,5055 9400,5052 9406,5051 9413,5050 9418,5049 9423,5049 9430,5049 9435,5049 9441,5050 9447,5051 9453,5053 Z"/>
          <path fill="none" stroke="rgb(27,25,24)" stroke-width="20" stroke-linejoin="miter" d="M 9453,5053 L 9458,5054 9464,5057 9468,5059 9474,5062 9478,5065 9483,5069 9487,5073 9492,5077 9496,5081 9500,5087 9503,5091 9506,5096 9509,5102 9510,5107 9513,5113 9514,5118 9515,5125 9516,5130 9516,5136 9516,5142 9516,5147 9515,5153 9514,5159 9512,5165 9511,5171 9508,5176 9506,5181 9503,5186 9500,5190 9496,5195 9493,5200 9488,5204 9484,5208 9478,5212 9474,5215 9469,5219 9463,5221 9458,5223 9452,5225 9447,5226 9440,5228 9435,5228 9428,5228 9423,5229 9417,5228 9412,5227 9406,5226 9400,5225 9394,5223 9389,5220 9384,5218 9379,5215 9374,5212 9370,5208 9365,5205 9361,5200 9357,5196 9353,5191 9350,5187 9347,5181 9344,5175 9342,5171 9340,5165 9339,5159 9338,5152 9337,5147 9337,5141 9336,5135 9337,5129 9338,5124 9339,5118 9340,5112 9342,5107 9345,5101 9347,5096 9350,5091 9354,5086 9357,5082 9360,5078 9365,5073 9369,5069 9374,5065 9379,5062 9384,5059 9390,5056 9394,5055 9400,5052 9406,5051 9413,5050 9418,5049 9423,5049 9430,5049 9435,5049 9441,5050 9447,5051 9453,5053 Z"/>
          <path fill="rgb(255,255,255)" stroke="none" d="M 9224,4891 L 9230,4893 9235,4895 9239,4898 9245,4900 9249,4904 9254,4907 9258,4911 9263,4915 9267,4920 9271,4925 9274,4929 9277,4934 9280,4940 9282,4945 9284,4951 9285,4957 9286,4963 9287,4969 9287,4974 9287,4980 9287,4985 9286,4991 9285,4997 9284,5003 9282,5009 9279,5014 9277,5019 9274,5024 9271,5029 9267,5034 9264,5038 9259,5043 9255,5047 9249,5050 9245,5053 9240,5057 9234,5059 9229,5061 9224,5063 9218,5065 9211,5066 9206,5066 9200,5066 9194,5067 9188,5066 9183,5066 9177,5065 9171,5063 9166,5061 9160,5059 9155,5056 9150,5054 9145,5050 9141,5046 9137,5043 9132,5038 9128,5034 9124,5029 9121,5025 9118,5020 9115,5014 9114,5009 9111,5003 9110,4997 9109,4991 9108,4985 9108,4979 9108,4974 9108,4968 9109,4963 9110,4957 9111,4951 9113,4945 9116,4940 9119,4934 9121,4930 9125,4924 9128,4920 9131,4916 9136,4911 9140,4907 9146,4904 9150,4901 9155,4897 9161,4895 9166,4893 9172,4891 9177,4889 9184,4888 9189,4888 9195,4887 9201,4887 9206,4888 9212,4888 9218,4889 9224,4891 Z"/>
          <path fill="none" stroke="rgb(27,25,24)" stroke-width="20" stroke-linejoin="miter" d="M 9224,4891 L 9230,4893 9235,4895 9239,4898 9245,4900 9249,4904 9254,4907 9258,4911 9263,4915 9267,4920 9271,4925 9274,4929 9277,4934 9280,4940 9282,4945 9284,4951 9285,4957 9286,4963 9287,4969 9287,4974 9287,4980 9287,4985 9286,4991 9285,4997 9284,5003 9282,5009 9279,5014 9277,5019 9274,5024 9271,5029 9267,5034 9264,5038 9259,5043 9255,5047 9249,5050 9245,5053 9240,5057 9234,5059 9229,5061 9224,5063 9218,5065 9211,5066 9206,5066 9200,5066 9194,5067 9188,5066 9183,5066 9177,5065 9171,5063 9166,5061 9160,5059 9155,5056 9150,5054 9145,5050 9141,5046 9137,5043 9132,5038 9128,5034 9124,5029 9121,5025 9118,5020 9115,5014 9114,5009 9111,5003 9110,4997 9109,4991 9108,4985 9108,4979 9108,4974 9108,4968 9109,4963 9110,4957 9111,4951 9113,4945 9116,4940 9119,4934 9121,4930 9125,4924 9128,4920 9131,4916 9136,4911 9140,4907 9146,4904 9150,4901 9155,4897 9161,4895 9166,4893 9172,4891 9177,4889 9184,4888 9189,4888 9195,4887 9201,4887 9206,4888 9212,4888 9218,4889 9224,4891 Z"/>
      </g>
      <g id="eye2_almost_open_2_up1" style="display:none">
         <path class="line" d="M 9095,5242 L 8991,4896"/>
         <path class="line" d="M 9382,5329 L 9499,4946"/>
         <path class="line" d="M 9669,5416 L 9948,5188"/>
         <path fill="rgb(142,248,245)" stroke="none" d="M 9949,5499 C 9948,5501 9947,5504 9946,5508 9915,5612 9864,5694 9782,5769 9702,5844 9616,5888 9510,5912 9402,5937 9305,5934 9198,5901 9092,5869 9009,5818 8935,5737 8859,5658 8812,5573 8787,5466 8762,5358 8765,5262 8796,5158 L 8794,5165 C 8796,5161 8797,5157 8798,5153 8821,5076 8945,5039 9012,5049 9103,5043 9153,5063 9253,5074 9352,5097 9365,5086 9471,5119 9577,5151 9575,5165 9659,5205 9738,5271 9776,5256 9827,5305 9881,5358 9971,5426 9948,5502 9947,5505 9947,5507 9946,5510 L 9949,5499 Z"/>
         <path fill="none" stroke="rgb(0,0,0)" stroke-width="50" stroke-linejoin="round" d="M 9949,5499 C 9948,5501 9947,5504 9946,5508 9915,5612 9864,5694 9782,5769 9702,5844 9616,5888 9510,5912 9402,5937 9305,5934 9198,5901 9092,5869 9009,5818 8935,5737 8859,5658 8812,5573 8787,5466 8762,5358 8765,5262 8796,5158 L 8794,5165 C 8796,5161 8797,5157 8798,5153 8821,5076 8945,5039 9012,5049 9103,5043 9153,5063 9253,5074 9352,5097 9365,5086 9471,5119 9577,5151 9575,5165 9659,5205 9738,5271 9776,5256 9827,5305 9881,5358 9971,5426 9948,5502 9947,5505 9947,5507 9946,5510 L 9949,5499 Z"/>
          <path fill="rgb(27,25,24)" stroke="none" d="M 9554,5156 L 9628,5198 9623,5221 9617,5244 9609,5266 9600,5288 9591,5308 9580,5328 9567,5346 9553,5363 9538,5381 9521,5397 9504,5413 9485,5427 9466,5440 9447,5451 9428,5461 9406,5469 9384,5477 9361,5483 9338,5487 9315,5490 9293,5492 9271,5493 9248,5491 9226,5487 9204,5483 9180,5477 9158,5469 9136,5460 9116,5451 9096,5440 9078,5427 9061,5413 9043,5397 9027,5381 9011,5363 8997,5344 8984,5326 8973,5307 8963,5287 8955,5266 8947,5244 8941,5221 8937,5198 8934,5175 8932,5152 8932,5130 8933,5108 8937,5086 8941,5063 8947,5040 9041,5040 9168,5053 9304,5080 9474,5117 9554,5156 Z"/>
          <path fill="none" stroke="rgb(27,25,24)" stroke-width="20" stroke-linejoin="miter" d="M 9554,5156 L 9628,5198 9623,5221 9617,5244 9609,5266 9600,5288 9591,5308 9580,5328 9567,5346 9553,5363 9538,5381 9521,5397 9504,5413 9485,5427 9466,5440 9447,5451 9428,5461 9406,5469 9384,5477 9361,5483 9338,5487 9315,5490 9293,5492 9271,5493 9248,5491 9226,5487 9204,5483 9180,5477 9158,5469 9136,5460 9116,5451 9096,5440 9078,5427 9061,5413 9043,5397 9027,5381 9011,5363 8997,5344 8984,5326 8973,5307 8963,5287 8955,5266 8947,5244 8941,5221 8937,5198 8934,5175 8932,5152 8932,5130 8933,5108 8937,5086 8941,5063 8947,5040 9041,5040 9168,5053 9304,5080 9474,5117 9554,5156 Z"/>
          <path fill="rgb(255,255,255)" stroke="none" d="M 9438,5092 L 9484,5105 9516,5121 9517,5126 9517,5132 9517,5138 9517,5143 9516,5149 9515,5155 9514,5161 9512,5167 9509,5172 9507,5177 9504,5182 9501,5186 9497,5192 9494,5196 9489,5201 9485,5205 9479,5208 9475,5211 9470,5215 9464,5217 9459,5219 9454,5221 9448,5223 9441,5224 9436,5224 9430,5224 9424,5225 9418,5224 9413,5223 9407,5223 9401,5221 9396,5219 9390,5216 9385,5214 9380,5211 9375,5208 9371,5204 9367,5201 9362,5196 9358,5192 9354,5187 9351,5183 9348,5177 9345,5171 9344,5167 9341,5161 9340,5155 9339,5149 9338,5143 9338,5137 9338,5131 9338,5125 9339,5120 9340,5114 9341,5109 9343,5103 9346,5097 9349,5092 9351,5087 9355,5082 9358,5078 9393,5084 9438,5092 Z"/>
          <path fill="none" stroke="rgb(27,25,24)" stroke-width="20" stroke-linejoin="miter" d="M 9438,5092 L 9484,5105 9516,5121 9517,5126 9517,5132 9517,5138 9517,5143 9516,5149 9515,5155 9514,5161 9512,5167 9509,5172 9507,5177 9504,5182 9501,5186 9497,5192 9494,5196 9489,5201 9485,5205 9479,5208 9475,5211 9470,5215 9464,5217 9459,5219 9454,5221 9448,5223 9441,5224 9436,5224 9430,5224 9424,5225 9418,5224 9413,5223 9407,5223 9401,5221 9396,5219 9390,5216 9385,5214 9380,5211 9375,5208 9371,5204 9367,5201 9362,5196 9358,5192 9354,5187 9351,5183 9348,5177 9345,5171 9344,5167 9341,5161 9340,5155 9339,5149 9338,5143 9338,5137 9338,5131 9338,5125 9339,5120 9340,5114 9341,5109 9343,5103 9346,5097 9349,5092 9351,5087 9355,5082 9358,5078 9393,5084 9438,5092 Z"/>
      </g>
      <g class="Group" id="eye2_almost_close_1_up1" style="display:none">
         <path fill="rgb(142,248,245)" stroke="none" d="M 9949,5500 C 9948,5502 9947,5505 9946,5509 9914,5613 9863,5695 9782,5770 9702,5844 9616,5889 9509,5913 9401,5938 9304,5935 9198,5902 9092,5870 9009,5819 8934,5738 8858,5659 8812,5574 8787,5467 8761,5359 8764,5263 8796,5159 L 8794,5166 C 8795,5162 8944,5277 8947,5279 9006,5332 9024,5340 9103,5408 9193,5455 9227,5491 9327,5503 9427,5526 9412,5532 9526,5540 9639,5548 9668,5528 9758,5521 9898,5493 9971,5427 9948,5503 9947,5506 9946,5508 9945,5511 L 9949,5500 Z"/>
         <path fill="none" stroke="rgb(0,0,0)" stroke-width="50" stroke-linejoin="round" d="M 9949,5500 C 9948,5502 9947,5505 9946,5509 9914,5613 9863,5695 9782,5770 9702,5844 9616,5889 9509,5913 9401,5938 9304,5935 9198,5902 9092,5870 9009,5819 8934,5738 8858,5659 8812,5574 8787,5467 8761,5359 8764,5263 8796,5159 L 8794,5166 C 8795,5162 8944,5277 8947,5279 9006,5332 9024,5340 9103,5408 9193,5455 9227,5491 9327,5503 9427,5526 9412,5532 9526,5540 9639,5548 9668,5528 9758,5521 9898,5493 9971,5427 9948,5503 9947,5506 9946,5508 9945,5511 L 9949,5500 Z"/>
         <path class="line" d="M 8952,5281 L 8845,5376"/>
         <path class="line" d="M 9327,5491 L 9294,5617"/>
         <path class="line" d="M 9756,5520 L 9802,5667"/>
      </g>
      <g class="Group" id="eye2_almost_close_2_up1" style="display:none">
         <path fill="rgb(142,248,245)" stroke="none" d="M 9948,5503 C 9947,5506 9946,5509 9945,5513 9913,5617 9862,5699 9781,5773 9701,5848 9615,5893 9508,5917 9400,5942 9303,5938 9197,5906 9091,5874 9008,5822 8933,5742 8857,5663 8811,5577 8786,5470 8760,5363 8763,5267 8795,5163 L 8793,5169 C 8794,5166 8882,5363 8884,5364 8935,5433 8962,5518 9035,5588 9117,5646 9161,5691 9251,5728 9351,5751 9424,5750 9539,5721 9653,5692 9675,5675 9775,5588 9911,5495 9970,5431 9947,5507 9946,5510 9945,5512 9944,5515 L 9948,5503 Z"/>
         <path fill="none" stroke="rgb(0,0,0)" stroke-width="50" stroke-linejoin="round" d="M 9948,5503 C 9947,5506 9946,5509 9945,5513 9913,5617 9862,5699 9781,5773 9701,5848 9615,5893 9508,5917 9400,5942 9303,5938 9197,5906 9091,5874 9008,5822 8933,5742 8857,5663 8811,5577 8786,5470 8760,5363 8763,5267 8795,5163 L 8793,5169 C 8794,5166 8882,5363 8884,5364 8935,5433 8962,5518 9035,5588 9117,5646 9161,5691 9251,5728 9351,5751 9424,5750 9539,5721 9653,5692 9675,5675 9775,5588 9911,5495 9970,5431 9947,5507 9946,5510 9945,5512 9944,5515 L 9948,5503 Z"/>
         <path class="line" d="M 8916,5391 L 8780,5573"/>
         <path class="line" d="M 9253,5723 L 9179,5978"/>
         <path class="line" d="M 9725,5620 L 9777,5824"/>
      </g>
      <g class="Group" id="eye2_close_up1" style="display:none">
         <path class="line" d="M 8889,5641 L 8598,5830"/>
         <path class="line" d="M 9085,6292 L 9201,5909"/>
         <path class="line" d="M 9654,5874 L 9746,6180"/>
         <path class="line" d="M 9964,5542 C 9963,5545 9963,5547 9962,5549 9930,5655 9879,5737 9798,5813 9716,5889 9632,5934 9523,5960 9416,5984 9318,5981 9213,5949 9108,5917 9025,5865 8949,5785 8874,5703 8829,5618 8803,5510 8779,5405 8781,5310 8812,5207"/>
      </g>
 <g id="eye2_right_up1" style="display:none">
         <path class="line" d="M 9114,4833 L 9010,4488"/>
         <path class="line" d="M 9526,4854 L 9642,4472"/>
         <path class="line" d="M 9879,5066 L 10158,4838"/>
         <path fill="rgb(142,248,245)" stroke="none" d="M 9547,4756 C 9872,4855 10045,5180 9946,5505 9847,5830 9523,6003 9197,5904 8872,5805 8699,5481 8798,5155 8897,4830 9222,4657 9547,4756 Z"/>
         <path fill="none" stroke="rgb(0,0,0)" stroke-width="50" stroke-linejoin="round" d="M 9547,4756 C 9872,4855 10045,5180 9946,5505 9847,5830 9523,6003 9197,5904 8872,5805 8699,5481 8798,5155 8897,4830 9222,4657 9547,4756 Z"/>
          <path fill="rgb(27,25,24)" stroke="none" d="M 9478,4840 C 9540,4859 9587,4889 9631,4936 9676,4983 9702,5032 9717,5095 9731,5158 9730,5214 9711,5276 9692,5339 9662,5386 9615,5430 9568,5474 9518,5501 9455,5515 9392,5530 9336,5528 9274,5509 9212,5490 9164,5460 9120,5413 9076,5366 9049,5316 9035,5254 9021,5191 9022,5135 9041,5072 9060,5010 9090,4963 9137,4919 9184,4875 9234,4848 9297,4834 9360,4819 9416,4821 9478,4840 Z"/>
          <path fill="none" stroke="rgb(27,25,24)" stroke-width="20" stroke-linejoin="miter" d="M 9478,4840 C 9540,4859 9587,4889 9631,4936 9676,4983 9702,5032 9717,5095 9731,5158 9730,5214 9711,5276 9692,5339 9662,5386 9615,5430 9568,5474 9518,5501 9455,5515 9392,5530 9336,5528 9274,5509 9212,5490 9164,5460 9120,5413 9076,5366 9049,5316 9035,5254 9021,5191 9022,5135 9041,5072 9060,5010 9090,4963 9137,4919 9184,4875 9234,4848 9297,4834 9360,4819 9416,4821 9478,4840 Z"/>
          <path fill="rgb(255,255,255)" stroke="none" d="M 9547,5081 C 9563,5086 9575,5094 9587,5106 9598,5118 9605,5131 9609,5147 9612,5164 9612,5177 9607,5194 9603,5209 9595,5221 9583,5233 9571,5244 9557,5252 9541,5255 9525,5259 9510,5258 9495,5254 9479,5249 9467,5241 9455,5229 9444,5217 9437,5204 9433,5188 9430,5171 9430,5157 9435,5141 9440,5125 9448,5114 9460,5102 9471,5091 9485,5083 9501,5080 9517,5076 9531,5076 9547,5081 Z"/>
          <path fill="none" stroke="rgb(27,25,24)" stroke-width="20" stroke-linejoin="miter" d="M 9547,5081 C 9563,5086 9575,5094 9587,5106 9598,5118 9605,5131 9609,5147 9612,5164 9612,5177 9607,5194 9603,5209 9595,5221 9583,5233 9571,5244 9557,5252 9541,5255 9525,5259 9510,5258 9495,5254 9479,5249 9467,5241 9455,5229 9444,5217 9437,5204 9433,5188 9430,5171 9430,5157 9435,5141 9440,5125 9448,5114 9460,5102 9471,5091 9485,5083 9501,5080 9517,5076 9531,5076 9547,5081 Z"/>
          <path fill="rgb(255,255,255)" stroke="none" d="M 9318,4920 C 9334,4924 9346,4932 9358,4944 9369,4956 9376,4970 9380,4985 9383,5002 9383,5016 9378,5032 9374,5047 9366,5060 9354,5072 9342,5083 9328,5090 9313,5094 9296,5097 9281,5097 9266,5092 9250,5087 9239,5079 9226,5067 9215,5056 9208,5042 9205,5026 9201,5009 9202,4995 9206,4980 9211,4963 9219,4952 9231,4940 9242,4929 9256,4922 9272,4918 9289,4915 9302,4915 9318,4920 Z"/>
          <path fill="none" stroke="rgb(27,25,24)" stroke-width="20" stroke-linejoin="miter" d="M 9318,4920 C 9334,4924 9346,4932 9358,4944 9369,4956 9376,4970 9380,4985 9383,5002 9383,5016 9378,5032 9374,5047 9366,5060 9354,5072 9342,5083 9328,5090 9313,5094 9296,5097 9281,5097 9266,5092 9250,5087 9239,5079 9226,5067 9215,5056 9208,5042 9205,5026 9201,5009 9202,4995 9206,4980 9211,4963 9219,4952 9231,4940 9242,4929 9256,4922 9272,4918 9289,4915 9302,4915 9318,4920 Z"/>
 </g>
      <g id="eye2_right2_up1" style="display:none">
        <path class="line" d="M 9119,4830 L 9015,4484"/>
        <path class="line" d="M 9531,4851 L 9647,4468"/>
        <path class="line" d="M 9884,5063 L 10163,4834"/>
        <path fill="rgb(142,248,245)" stroke="none" d="M 9552,4753 C 9878,4852 10051,5176 9951,5501 9852,5827 9528,6000 9203,5901 8877,5801 8704,5477 8804,5152 8903,4827 9227,4654 9552,4753 Z"/>
        <path fill="none" stroke="rgb(0,0,0)" stroke-width="50" stroke-linejoin="round" d="M 9552,4753 C 9878,4852 10051,5176 9951,5501 9852,5827 9528,6000 9203,5901 8877,5801 8704,5477 8804,5152 8903,4827 9227,4654 9552,4753 Z"/>
         <path fill="rgb(27,25,24)" stroke="none" d="M 9579,4865 C 9641,4884 9688,4914 9732,4961 9777,5008 9803,5058 9818,5121 9832,5184 9830,5240 9812,5302 9793,5364 9763,5411 9716,5456 9669,5500 9619,5527 9556,5541 9493,5555 9437,5554 9375,5535 9313,5516 9265,5486 9221,5439 9177,5392 9150,5342 9136,5279 9122,5216 9123,5160 9142,5098 9161,5036 9191,4989 9238,4944 9285,4900 9335,4873 9398,4859 9460,4845 9516,4846 9579,4865 Z"/>
         <path fill="none" stroke="rgb(27,25,24)" stroke-width="20" stroke-linejoin="miter" d="M 9579,4865 C 9641,4884 9688,4914 9732,4961 9777,5008 9803,5058 9818,5121 9832,5184 9830,5240 9812,5302 9793,5364 9763,5411 9716,5456 9669,5500 9619,5527 9556,5541 9493,5555 9437,5554 9375,5535 9313,5516 9265,5486 9221,5439 9177,5392 9150,5342 9136,5279 9122,5216 9123,5160 9142,5098 9161,5036 9191,4989 9238,4944 9285,4900 9335,4873 9398,4859 9460,4845 9516,4846 9579,4865 Z"/>
         <path fill="rgb(255,255,255)" stroke="none" d="M 9648,5107 C 9664,5112 9676,5119 9688,5131 9699,5143 9706,5157 9710,5173 9713,5189 9713,5203 9708,5219 9703,5235 9696,5247 9684,5259 9672,5270 9658,5277 9642,5281 9626,5284 9611,5284 9596,5279 9580,5274 9568,5267 9556,5255 9545,5243 9538,5229 9534,5213 9531,5197 9531,5182 9536,5167 9541,5151 9549,5139 9561,5127 9572,5116 9586,5109 9602,5105 9618,5102 9632,5102 9648,5107 Z"/>
         <path fill="none" stroke="rgb(27,25,24)" stroke-width="20" stroke-linejoin="miter" d="M 9648,5107 C 9664,5112 9676,5119 9688,5131 9699,5143 9706,5157 9710,5173 9713,5189 9713,5203 9708,5219 9703,5235 9696,5247 9684,5259 9672,5270 9658,5277 9642,5281 9626,5284 9611,5284 9596,5279 9580,5274 9568,5267 9556,5255 9545,5243 9538,5229 9534,5213 9531,5197 9531,5182 9536,5167 9541,5151 9549,5139 9561,5127 9572,5116 9586,5109 9602,5105 9618,5102 9632,5102 9648,5107 Z"/>
         <path fill="rgb(255,255,255)" stroke="none" d="M 9419,4945 C 9435,4950 9447,4958 9459,4970 9470,4982 9477,4995 9481,5011 9484,5028 9484,5041 9479,5058 9475,5073 9467,5085 9455,5097 9443,5108 9429,5115 9414,5119 9397,5122 9382,5122 9367,5117 9351,5112 9339,5105 9327,5093 9316,5081 9309,5067 9305,5052 9302,5035 9302,5020 9307,5005 9312,4989 9320,4978 9332,4966 9343,4955 9357,4947 9373,4944 9390,4940 9403,4940 9419,4945 Z"/>
         <path fill="none" stroke="rgb(27,25,24)" stroke-width="20" stroke-linejoin="miter" d="M 9419,4945 C 9435,4950 9447,4958 9459,4970 9470,4982 9477,4995 9481,5011 9484,5028 9484,5041 9479,5058 9475,5073 9467,5085 9455,5097 9443,5108 9429,5115 9414,5119 9397,5122 9382,5122 9367,5117 9351,5112 9339,5105 9327,5093 9316,5081 9309,5067 9305,5052 9302,5035 9302,5020 9307,5005 9312,4989 9320,4978 9332,4966 9343,4955 9357,4947 9373,4944 9390,4940 9403,4940 9419,4945 Z"/>
        </g>
      <g id="eye2_right3_up1" style="display:none">
         <path class="line" d="M 9124,4826 L 9020,4481"/>
         <path class="line" d="M 9536,4847 L 9653,4464"/>
         <path class="line" d="M 9890,5059 L 10168,4830"/>
         <path fill="rgb(142,248,245)" stroke="none" d="M 9558,4749 C 9883,4848 10056,5172 9957,5498 9858,5823 9533,5996 9208,5897 8883,5798 8710,5473 8809,5148 8908,4823 9232,4650 9558,4749 Z"/>
         <path fill="none" stroke="rgb(0,0,0)" stroke-width="50" stroke-linejoin="round" d="M 9558,4749 C 9883,4848 10056,5172 9957,5498 9858,5823 9533,5996 9208,5897 8883,5798 8710,5473 8809,5148 8908,4823 9232,4650 9558,4749 Z"/>
          <path fill="rgb(27,25,24)" stroke="none" d="M 9680,4891 C 9742,4910 9789,4940 9833,4987 9878,5034 9904,5083 9918,5146 9933,5209 9931,5265 9912,5327 9894,5390 9863,5437 9817,5481 9770,5525 9720,5552 9657,5566 9594,5581 9538,5579 9476,5560 9414,5541 9366,5511 9322,5464 9278,5417 9251,5368 9237,5305 9223,5242 9224,5186 9243,5124 9262,5061 9292,5014 9339,4970 9386,4926 9436,4899 9499,4885 9561,4870 9617,4872 9680,4891 Z"/>
          <path fill="none" stroke="rgb(27,25,24)" stroke-width="20" stroke-linejoin="miter" d="M 9680,4891 C 9742,4910 9789,4940 9833,4987 9878,5034 9904,5083 9918,5146 9933,5209 9931,5265 9912,5327 9894,5390 9863,5437 9817,5481 9770,5525 9720,5552 9657,5566 9594,5581 9538,5579 9476,5560 9414,5541 9366,5511 9322,5464 9278,5417 9251,5368 9237,5305 9223,5242 9224,5186 9243,5124 9262,5061 9292,5014 9339,4970 9386,4926 9436,4899 9499,4885 9561,4870 9617,4872 9680,4891 Z"/>
          <path fill="rgb(255,255,255)" stroke="none" d="M 9749,5132 C 9765,5137 9777,5145 9789,5157 9800,5169 9807,5182 9811,5198 9814,5215 9814,5228 9809,5245 9804,5260 9797,5272 9784,5284 9773,5295 9759,5303 9743,5306 9727,5310 9712,5309 9697,5305 9681,5300 9669,5292 9657,5280 9646,5268 9639,5255 9635,5239 9632,5222 9632,5208 9637,5192 9642,5176 9649,5165 9661,5153 9673,5142 9687,5134 9703,5131 9719,5128 9733,5127 9749,5132 Z"/>
          <path fill="none" stroke="rgb(27,25,24)" stroke-width="20" stroke-linejoin="miter" d="M 9749,5132 C 9765,5137 9777,5145 9789,5157 9800,5169 9807,5182 9811,5198 9814,5215 9814,5228 9809,5245 9804,5260 9797,5272 9784,5284 9773,5295 9759,5303 9743,5306 9727,5310 9712,5309 9697,5305 9681,5300 9669,5292 9657,5280 9646,5268 9639,5255 9635,5239 9632,5222 9632,5208 9637,5192 9642,5176 9649,5165 9661,5153 9673,5142 9687,5134 9703,5131 9719,5128 9733,5127 9749,5132 Z"/>
          <path fill="rgb(255,255,255)" stroke="none" d="M 9520,4971 C 9536,4975 9548,4983 9560,4995 9571,5007 9578,5021 9582,5037 9585,5053 9585,5067 9580,5083 9576,5098 9568,5111 9556,5123 9544,5134 9530,5141 9514,5145 9498,5148 9483,5148 9468,5143 9452,5138 9440,5130 9428,5118 9417,5107 9410,5093 9406,5077 9403,5060 9403,5046 9408,5031 9413,5014 9421,5003 9433,4991 9444,4980 9458,4973 9474,4969 9491,4966 9504,4966 9520,4971 Z"/>
          <path fill="none" stroke="rgb(27,25,24)" stroke-width="20" stroke-linejoin="miter" d="M 9520,4971 C 9536,4975 9548,4983 9560,4995 9571,5007 9578,5021 9582,5037 9585,5053 9585,5067 9580,5083 9576,5098 9568,5111 9556,5123 9544,5134 9530,5141 9514,5145 9498,5148 9483,5148 9468,5143 9452,5138 9440,5130 9428,5118 9417,5107 9410,5093 9406,5077 9403,5060 9403,5046 9408,5031 9413,5014 9421,5003 9433,4991 9444,4980 9458,4973 9474,4969 9491,4966 9504,4966 9520,4971 Z"/>
      </g>
    </g>
  <script type="text/javascript">
    <![CDATA[
	set_star(2)
    ]]>
  </script>
</svg>
