<?xml version="1.0" encoding="UTF-8"?>
<!DOCTYPE svg PUBLIC "-//W3C//DTD SVG 1.1//EN" "http://www.w3.org/Graphics/SVG/1.1/DTD/svg11.dtd">
<svg version="1.2" width="250mm" height="200mm" viewBox="0 0 25000 20000"
     preserveAspectRatio="xMidYMid" fill-rule="evenodd" stroke-width="28.222" stroke-linejoin="round"
     xmlns="http://www.w3.org/2000/svg"
     xml:space="preserve">
  <script href="svggen.js"></script>
  <script href="svg-editor.js"></script>
  <script type="text/javascript">
    <![CDATA[
	var star = 1
	function id_display(id, display) {
	    document.getElementById(id).style.display = display
	}
	function star_display(state, display) { id_display('star'+star+state, display) }
	function star_eye(show) {
	    if(show) id_display('eye_open', '')
	    else {
		id_display('eye_open', 'none')
		id_display('eye_close', 'none')
	    }
	}
	function star_eye2(show) {
	    if(show) id_display('eye2_open', '')
	    else {
		id_display('eye2_open', 'none')
	    }
	}
	function set_star(n) {
	    if(star != n) {
		star_display('on', 'none')
		star_display('off', '')
		star = n
		star_display('off', 'none')
		star_display('on', '')
		star_eye(star == 1)
		star_eye2(star == 2)
	    }
	}
	function close_eye() {
	    document.getElementById('eye_open').style.display = 'none'
	    document.getElementById('eye_close').style.display = ''
	}
	function open_eye() {
	    document.getElementById('eye_open').style.display = ''
	    document.getElementById('eye_close').style.display = 'none'
	}
	function open_eye2(eye) {
	    ['eye2_open','eye2_right','eye2_right2','eye2_right3',
	     'eye2_almost_open_1','eye2_almost_open_2','eye2_almost_close_1',"eye2_almost_close_2","eye2_close"].forEach(function(item) {
		id_display(item, eye == item ? '' : 'none')
	    })
	}
	function animate(timeout,finish,count,...steps) {
	    var pos = 0
	    var call = function iterate() {
		steps[pos]()
		if(!--count) finish()
		else {
		    if(++pos >= steps.length) pos = 0
		    setTimeout(iterate, timeout)
		}
	    }
	    call()
	}
	function animate2(timeout,finish,count,steps) {
	    var pos = 0
	    count = count * steps.length + 1
	    var call = function iterate() {
		steps.forEach(function(item) {
		    id_display(item, item == steps[pos] ? '' : 'none')
		})
		if(!--count) finish()
		else {
		    if(++pos >= steps.length) pos = 0
		    setTimeout(iterate, timeout)
		}
	    }
	    call()
	}
	var wink_started = false
	function wink() {
	    if(wink_started) return
	    if(star == 1) {
		wink_started = true
		animate(300, function() { wink_started = false }, 5,
			function() { open_eye() },
			function() { close_eye() })
	    }
	    else if(star == 2) {
		wink_started = true
		animate(150, function() { wink_started = false }, 1+1*16,
			function() { open_eye2('eye2_open') },
			function() { open_eye2('eye2_right') },
			function() { open_eye2('eye2_right2') },
			function() { open_eye2('eye2_right3') },
			function() { open_eye2('eye2_right2') },
			function() { open_eye2('eye2_right') },
			function() { open_eye2('eye2_open') },
			function() { open_eye2('eye2_almost_open_1') },
			function() { open_eye2('eye2_almost_open_2') },
			function() { open_eye2('eye2_almost_close_1') },
			function() { open_eye2('eye2_almost_close_2') },
			function() { open_eye2('eye2_close') },
			function() { open_eye2('eye2_almost_close_2') },
			function() { open_eye2('eye2_almost_close_1') },
			function() { open_eye2('eye2_almost_open_2') },
			function() { open_eye2('eye2_almost_open_1') },
		)
	    }
	}

	var stomp_started = false
	function stomp() {
	    if(stomp_started) return
	    stomp_started = true
	    animate2(150, function() { stomp_started = false }, 2, [
		'raised_hoof_1', 'raised_hoof_2', 'raised_hoof_3', 'raised_hoof_2'
	    ]);
	}

        var wag_started = false
        function wag() {
              if(wag_started) return
              wag_started = true
              animate2(150, function() { wag_started = false }, 3, [
                'tail_3', 'tail_2', 'tail_1', 'tail_2'

              ])
        }

	window.onkeyup = svgeditor

    ]]>
  </script>
  <style>
    path.line {
	fill:none;
	stroke:rgb(27,25,24);
	stroke-width:75;
	stroke-linejoin:round;
    }
    path.fill {
	fill:rgb(246,6,213);
	stroke:rgb(27,25,24);
	stroke-width:75;
	stroke-linejoin:round;
    }
    path.dl {
	fill:none;
	stroke:red;
	stroke-width:20;
	stroke-linejoin:round;
    }
  </style>
  <g id="contour">
    <path class="line" d="M 7837,5080 L 7495,5554 7024,5913"/>
    <path class="line" d="M 7519,8114 C 7639,8092 8267,8066 8286,8063 9241,8343 9993,8343 10341,7834 9502,9441 9557,11390 9590,12732"/>
  </g>
  <g id="body">
  <g>
          <path fill="none" stroke="rgb(0,0,0)" stroke-width="70" stroke-linejoin="round" d="M 13272,9066 C 13935,9215 13907,9198 14572,9365 15283,9542 16037,9664 16666,9901 17297,10140 18300,12523 16666,13357 16414,13716 16540,16815 16415,17530 15534,17650 14655,17530 14151,17413 14151,16576 14403,13955 14403,13478 13744,13571 12146,13340 11769,13222 11522,13131 10652,13031 9502,12648 9477,12054 9500,11452 9626,10378 L 13272,9066 Z"/>
          <path class="fill" d="M 16380,17510 C 16409,17365 16456,16994 16457,16875 16331,16875 15695,17036 14199,16859 14186,17037 14145,17411 14237,17411 14237,17411 15048,17703 16380,17510 Z"/>
  </g>
          <path fill="none" stroke="rgb(255,255,255)" stroke-width="200" stroke-linejoin="round" stroke-linecap="round" d="M 9751,10378 L 11888,9543"/>
          <path fill="none" stroke="rgb(255,255,255)" stroke-width="200" stroke-linejoin="round" d="M 11484,13104 C 10815,12941 10279,12886 9590,12615"/>
          <path id="tail_1" style="display:none" class="fill" d="M 17475,11332 C 17548,10858 18025,10704 18488,10692 19753,10892 20175,12453 18223,14555 18403,12292 17855,12372 17475,11332 Z"/>
          <path id="tail_2" style="display:none" class="fill" d="M 17476,11333 C 17550,10858 18026,10705 18489,10694 19754,10893 19163,12373 19332,14532 17855,13173 17856,12374 17476,11333 Z"/>
          <path id="tail_3" onmouseover="wag()" class="fill" d="M 17477,11333 C 17550,10859 18028,10705 18490,10694 19755,10894 18825,12613 20387,13732 18109,13492 17857,12373 17477,11333 Z"/>
  <g id="raised_hoof_1">
          <path fill="none" stroke="rgb(0,0,0)" stroke-width="70" stroke-linejoin="round" d="M 9502,12652 C 9484,12865 8531,16415 8405,16772 8509,16863 8958,16947 9331,16865 9363,16436 9331,17056 9359,16403"/>
          <path class="fill" d="M 9359,16866 C 9386,16721 9379,16825 9388,16349 9388,16349 9139,16461 8490,16292 8478,16467 8364,16732 8364,16732 8364,16732 8671,17002 9359,16866 Z"/>
          <path id="hoof_1" onmouseover="stomp()" class="fill" d="M 11640,17287 C 11652,17140 11668,16811 11655,16693 11531,16705 10694,17009 9377,16653 9384,16830 9360,17313 9360,17313 9360,17313 10664,17619 11640,17287 Z"/>
          <path fill="none" stroke="rgb(0,0,0)" stroke-width="60" stroke-linejoin="round" d="M 9590,12732 C 9580,13022 9387,17028 9388,17328 11052,17465 10909,17465 11626,17274 11588,15914 11549,14555 11511,13195"/>
  </g>
  <g id="raised_hoof_2" style="display:none">
          <path fill="none" stroke="rgb(0,0,0)" stroke-width="60" stroke-linejoin="round" d="M 9503,12719 C 9515,12826 9151,13696 9101,14772 9051,15847 9892,16923 9876,17111 11029,16473 11255,16764 11912,16186 11396,15153 11396,15016 11166,14555 11080,13847 11367,13765 11512,13196"/>
          <path class="fill" d="M 11927,16171 C 11870,16032 11733,15729 11668,15628 11561,15689 10944,16307 9592,16523 9679,16681 9878,17128 9878,17128 9878,17128 11196,16871 11927,16171 Z"/>
          <path fill="none" stroke="rgb(0,0,0)" stroke-width="70" stroke-linejoin="round" d="M 9504,12616 C 9485,12829 8532,16379 8406,16736 8510,16827 8959,16911 9332,16829 9364,16400 9332,17020 9360,16367"/>
          <path class="fill" d="M 9796,16888 C 9610,16522 9574,16620 9547,16321 9258,16293 9051,16397 8500,16227 8487,16404 8357,16694 8357,16694 8357,16694 8536,17030 9796,16888 Z"/>
  </g>
  <g id="raised_hoof_3" style="display:none">
          <path fill="none" stroke="rgb(0,0,0)" stroke-width="70" stroke-linejoin="round" d="M 9502,12652 C 9484,12865 8531,16415 8405,16772 8509,16863 8958,16947 9331,16865 9363,16436 9331,17056 9359,16403"/>
          <path fill="none" stroke="rgb(0,0,0)" stroke-width="60" stroke-linejoin="round" d="M 9504,12683 C 9516,12790 9152,13660 9102,14736 9052,15811 10667,16887 10651,17075 11805,16437 11716,16293 12373,15715 11712,14818 11570,14899 11226,14437 11140,13729 11368,13729 11513,13160"/>
          <path class="fill" d="M 12375,15649 C 12282,15529 12067,15269 11976,15188 11890,15273 11462,16021 10216,16562 10343,16693 10657,17076 10657,17076 10657,17076 11860,16504 12375,15649 Z"/>
          <path class="fill" d="M 9990,16839 C 9998,16549 9961,16621 9934,16322 9645,16294 9049,16396 8499,16227 8486,16403 8356,16693 8356,16693 8356,16693 8636,17093 9990,16839 Z"/>
  </g>
      </g>
  <g id="head">
        <path fill="rgb(246,6,213)" stroke="rgb(27,25,24)" stroke-width="75" stroke-linejoin="miter" d="M 7471,5501 C 8381,4415 9022,4834 9600,4664 10177,4494 11039,3649 10862,3619 L 10382,3539 C 10111,3464 9786,3506 9477,3553 8899,3722 8118,3906 7471,5501 Z"/>
      <g class="Group" id="horn">
         <path fill="rgb(255,47,0)" stroke="none" d="M 8254,2675 C 8368,2641 8403,2417 8344,2303 L 8256,2182 C 8183,2092 8216,2051 8102,2022 L 8072,2110 C 8067,2175 8107,2323 8127,2385 8158,2483 8173,2625 8254,2675 Z"/>
         <path fill="none" stroke="rgb(0,0,0)" stroke-width="50" stroke-linejoin="miter" d="M 8254,2675 C 8368,2641 8403,2417 8344,2303 L 8256,2182 C 8183,2092 8216,2051 8102,2022 L 8072,2110 C 8067,2175 8107,2323 8127,2385 8158,2483 8173,2625 8254,2675 Z"/>
         <path fill="rgb(255,153,0)" stroke="none" d="M 8336,3016 C 8538,3024 8656,3021 8657,2802 8658,2724 8637,2663 8610,2613 L 8530,2520 C 8523,2515 8482,2487 8482,2487 8222,2554 8271,2793 8336,3016 Z"/>
         <path fill="none" stroke="rgb(0,0,0)" stroke-width="50" stroke-linejoin="miter" d="M 8336,3016 C 8538,3024 8656,3021 8657,2802 8658,2724 8637,2663 8610,2613 L 8530,2520 C 8523,2515 8482,2487 8482,2487 8222,2554 8271,2793 8336,3016 Z"/>
         <path fill="rgb(255,255,0)" stroke="none" d="M 8542,3010 C 8500,3053 8437,3061 8414,3093 8394,3124 8393,3232 8405,3256 8455,3274 8415,3344 8453,3473 8544,3481 8596,3377 8679,3363 8718,3324 8740,3283 8776,3234 8816,3180 8836,3151 8852,3064 8851,3024 8837,2994 8828,2958 8745,2897 8778,2865 8715,2830 8658,2879 8646,2954 8568,3001 L 8542,3010 Z"/>
         <path fill="none" stroke="rgb(0,0,0)" stroke-width="50" stroke-linejoin="miter" d="M 8542,3010 C 8500,3053 8437,3061 8414,3093 8394,3124 8393,3232 8405,3256 8455,3274 8415,3344 8453,3473 8544,3481 8596,3377 8679,3363 8718,3324 8740,3283 8776,3234 8816,3180 8836,3151 8852,3064 8851,3024 8837,2994 8828,2958 8745,2897 8778,2865 8715,2830 8658,2879 8646,2954 8568,3001 L 8542,3010 Z"/>
         <path fill="rgb(72,246,57)" stroke="none" d="M 8692,3905 C 8862,3737 8753,3790 8934,3642 8937,3639 8942,3635 8945,3632 L 8967,3612 C 9040,3538 9079,3443 9100,3333 9117,3247 9120,3275 9091,3215 9078,3190 9078,3195 9059,3166 9056,3161 9042,3147 9041,3138 9041,3129 9035,3127 9032,3123 8936,3127 9019,3123 8957,3133 8937,3136 8970,3124 8922,3139 8864,3158 8845,3198 8804,3240 8626,3417 8477,3446 8475,3731 8474,3898 8523,3882 8692,3905 Z"/>
         <path fill="none" stroke="rgb(0,0,0)" stroke-width="50" stroke-linejoin="miter" d="M 8692,3905 C 8862,3737 8753,3790 8934,3642 8937,3639 8942,3635 8945,3632 L 8967,3612 C 9040,3538 9079,3443 9100,3333 9117,3247 9120,3275 9091,3215 9078,3190 9078,3195 9059,3166 9056,3161 9042,3147 9041,3138 9041,3129 9035,3127 9032,3123 8936,3127 9019,3123 8957,3133 8937,3136 8970,3124 8922,3139 8864,3158 8845,3198 8804,3240 8626,3417 8477,3446 8475,3731 8474,3898 8523,3882 8692,3905 Z"/>
         <path fill="rgb(171,65,127)" stroke="none" d="M 9371,3608 C 9297,3811 9564,3745 9152,4213 9124,4244 8563,4817 8788,4705 L 9897,4158 C 9976,4118 9576,3750 9444,3625 9424,3606 9374,3601 9371,3608 Z"/>
         <path fill="none" stroke="rgb(27,25,24)" stroke-width="50" stroke-linejoin="miter" d="M 9371,3608 C 9297,3811 9564,3745 9152,4213 9124,4244 8563,4817 8788,4705 L 9897,4158 C 9976,4118 9576,3750 9444,3625 9424,3606 9374,3601 9371,3608 Z"/>
         <path fill="rgb(106,247,242)" stroke="none" d="M 9083,3405 C 9069,3500 8954,3669 8904,3746 8839,3847 8631,3958 8608,3979 L 8621,4103 C 8680,4209 8716,4508 8763,4579 8838,4573 9006,4368 9060,4302 9113,4237 9246,4153 9325,3964 9360,3881 9378,3718 9372,3609 9344,3565 9338,3580 9309,3522 9282,3468 9293,3460 9256,3423 9184,3386 9220,3367 9147,3342 9113,3383 9137,3371 9083,3405 Z"/>
         <path fill="none" stroke="rgb(0,0,0)" stroke-width="50" stroke-linejoin="miter" d="M 9083,3405 C 9069,3500 8954,3669 8904,3746 8839,3847 8631,3958 8608,3979 L 8621,4103 C 8680,4209 8716,4508 8763,4579 8838,4573 9006,4368 9060,4302 9113,4237 9246,4153 9325,3964 9360,3881 9378,3718 9372,3609 9344,3565 9338,3580 9309,3522 9282,3468 9293,3460 9256,3423 9184,3386 9220,3367 9147,3342 9113,3383 9137,3371 9083,3405 Z"/>
         <path fill="none" stroke="rgb(27,25,24)" stroke-width="75" stroke-linejoin="miter" d="M 7997,1858 L 8779,4730 9904,4167 7997,1858 Z"/>
      </g>
        <path fill="rgb(246,6,213)" stroke="rgb(27,25,24)" stroke-width="75" stroke-linejoin="miter" d="M 11429,4504 L 11465,3794 11825,3873 12150,4032 12509,4336 12827,4633 13133,4962 13343,5453 13424,5862 13494,6505 13496,6905 13507,7213 13506,7567 13623,7866 13929,8194 14367,8281 14684,8193 14570,8495 14248,8692 13758,8733 13238,8592 13012,8302 12837,8055 12693,7805 12583,7599 12175,6528 11943,5488 11429,4504 Z"/>
      <g class="Group" id="ear" onmouseover="wink()">
         <path fill="rgb(255,255,255)" stroke="none" d="M 11507,5401 L 10202,4781 10411,3899 10789,3333 C 10913,3245 11035,3157 11157,3069 11222,3172 11295,3279 11339,3406 11380,3520 11429,3654 11467,3794 L 11539,4280 11556,4820 11507,5401 Z"/>
         <path fill="none" stroke="rgb(27,25,24)" stroke-width="75" stroke-linejoin="miter" d="M 10202,4781 L 10411,3899 10789,3333 C 10913,3245 11035,3157 11157,3069 11222,3172 11295,3279 11339,3406 11380,3520 11429,3654 11467,3794 L 11539,4280 11556,4820 11507,5401"/>
         <path fill="rgb(245,177,181)" stroke="none" d="M 11116,5156 L 10514,4904 10630,4224 10738,3906 11009,3663 11172,3969 11207,4200 11203,4710 11116,5156 Z"/>
         <path fill="none" stroke="rgb(27,25,24)" stroke-width="75" stroke-linejoin="miter" d="M 10514,4904 L 10630,4224 10738,3906 11009,3663 11172,3969 11207,4200 11203,4710 11116,5156"/>
      </g>
      <g id="snout">
	<path class="fill" d="M 7020,5914 C 5695,6621 6105,7678 6501,8002 6868,7969 7302,8002 7502,7801 7581,7067 7101,7079 7020,5914 Z" />
	<path id="jowl_1" style="display:none" class="fill" d="M 6501,8002 C 6868,7969 7302,8002 7502,7801 7473,7926 7500,8039 7522,8112 7294,8158 6808,8243 6501,8002 Z" />
	<path id="jowl_2" class="fill" d="M 6580,8193 C 6927,8061 7236,8121 7502,7801 7473,7926 7500,8039 7522,8112 7288,8224 6887,8335 6566,8194 Z" />
        <path fill="rgb(27,25,24)" stroke="rgb(27,25,24)" stroke-width="20" stroke-linejoin="miter" d="M 6664,6661 L 6665,6661 C 6692,6661 6715,6667 6738,6681 6761,6694 6778,6711 6791,6734 6805,6757 6811,6780 6811,6807 6811,6834 6805,6857 6791,6880 6778,6903 6761,6920 6738,6933 6715,6947 6692,6953 6665,6953 6638,6953 6615,6947 6592,6933 6569,6920 6552,6903 6539,6880 6525,6857 6519,6834 6519,6807 6519,6780 6525,6757 6539,6734 6552,6711 6569,6694 6592,6681 6615,6667 6637,6661 6664,6661 Z"/>
      </g>
        <path fill="rgb(246,6,213)" stroke="rgb(27,25,24)" stroke-width="75" stroke-linejoin="miter" d="M 12312,6887 L 12223,8376 12268,8846 12443,9256 12706,9698 13075,10015 13505,10110 14217,9866 13583,9746 13267,9453 13257,8928 13238,8591 13014,8301 12693,7804 12545,7497 12312,6887 Z"/>
        <path fill="rgb(246,6,213)" stroke="rgb(27,25,24)" stroke-width="75" stroke-linejoin="miter" d="M 12200,8200 L 12100,9300 12045,10259 12220,10669 12483,11111 12852,11428 13282,11523 13994,11279 13360,11159 13044,10866 13034,10341 13015,10004 12791,9714 12470,9217 12322,8910 12200,8200 Z"/>
      <g class="Group" id="eye_open" style="display:none" onclick="close_eye()">
         <path fill="rgb(27,25,24)" stroke="none" d="M 8484,5526 C 8564,5526 8632,5544 8701,5584 8770,5624 8820,5674 8860,5743 8900,5812 8918,5880 8918,5960 8918,6040 8900,6108 8860,6177 8820,6246 8770,6296 8701,6336 8632,6376 8564,6394 8484,6394 8404,6394 8336,6376 8267,6336 8198,6296 8148,6246 8108,6177 8068,6108 8050,6040 8050,5960 8050,5880 8068,5812 8108,5743 8148,5674 8198,5624 8267,5584 8336,5544 8404,5526 8484,5526 Z"/>
         <path fill="none" stroke="rgb(27,25,24)" stroke-width="20" stroke-linejoin="miter" d="M 8484,5526 C 8564,5526 8632,5544 8701,5584 8770,5624 8820,5674 8860,5743 8900,5812 8918,5880 8918,5960 8918,6040 8900,6108 8860,6177 8820,6246 8770,6296 8701,6336 8632,6376 8564,6394 8484,6394 8404,6394 8336,6376 8267,6336 8198,6296 8148,6246 8108,6177 8068,6108 8050,6040 8050,5960 8050,5880 8068,5812 8108,5743 8148,5674 8198,5624 8267,5584 8336,5544 8404,5526 8484,5526 Z"/>
         <path fill="rgb(255,255,255)" stroke="none" d="M 8654,5788 L 8653,5788 C 8674,5788 8691,5793 8709,5803 8727,5813 8740,5826 8750,5844 8760,5862 8765,5879 8765,5899 L 8765,5900 C 8765,5920 8760,5937 8750,5955 8740,5973 8727,5986 8709,5996 8691,6006 8674,6011 8654,6011 8633,6011 8616,6006 8598,5996 8580,5986 8567,5973 8557,5955 8547,5937 8542,5920 8542,5900 8542,5879 8547,5862 8557,5844 8567,5826 8580,5813 8598,5803 8616,5793 8633,5788 8653,5788 L 8654,5788 Z"/>
         <path fill="none" stroke="rgb(27,25,24)" stroke-width="20" stroke-linejoin="miter" d="M 8654,5788 L 8653,5788 C 8674,5788 8691,5793 8709,5803 8727,5813 8740,5826 8750,5844 8760,5862 8765,5879 8765,5899 L 8765,5900 C 8765,5920 8760,5937 8750,5955 8740,5973 8727,5986 8709,5996 8691,6006 8674,6011 8654,6011 8633,6011 8616,6006 8598,5996 8580,5986 8567,5973 8557,5955 8547,5937 8542,5920 8542,5900 8542,5879 8547,5862 8557,5844 8567,5826 8580,5813 8598,5803 8616,5793 8633,5788 8653,5788 L 8654,5788 Z"/>
         <path fill="rgb(255,255,255)" stroke="none" d="M 8324,5678 L 8323,5678 C 8344,5678 8361,5683 8379,5693 8397,5703 8410,5716 8420,5734 8430,5752 8435,5769 8435,5789 L 8435,5790 C 8435,5810 8430,5827 8420,5845 8410,5863 8397,5876 8379,5886 8361,5896 8344,5901 8324,5901 8303,5901 8286,5896 8268,5886 8250,5876 8237,5863 8227,5845 8217,5827 8212,5810 8212,5790 8212,5769 8217,5752 8227,5734 8237,5716 8250,5703 8268,5693 8286,5683 8303,5678 8323,5678 L 8324,5678 Z"/>
         <path fill="none" stroke="rgb(27,25,24)" stroke-width="20" stroke-linejoin="miter" d="M 8324,5678 L 8323,5678 C 8344,5678 8361,5683 8379,5693 8397,5703 8410,5716 8420,5734 8430,5752 8435,5769 8435,5789 L 8435,5790 C 8435,5810 8430,5827 8420,5845 8410,5863 8397,5876 8379,5886 8361,5896 8344,5901 8324,5901 8303,5901 8286,5896 8268,5886 8250,5876 8237,5863 8227,5845 8217,5827 8212,5810 8212,5790 8212,5769 8217,5752 8227,5734 8237,5716 8250,5703 8268,5693 8286,5683 8303,5678 8323,5678 L 8324,5678 Z"/>
         <path fill="none" stroke="rgb(27,25,24)" stroke-width="75" stroke-linejoin="miter" d="M 8778,5638 L 8952,5438"/>
         <path fill="none" stroke="rgb(27,25,24)" stroke-width="75" stroke-linejoin="miter" d="M 8508,5528 L 8524,5263"/>
         <path fill="none" stroke="rgb(27,25,24)" stroke-width="75" stroke-linejoin="miter" d="M 8223,5612 L 8049,5412"/>
      </g>
      <g class="Group" id="eye_close" style="display:none" onclick="open_eye()">
         <path fill="rgb(27,25,24)" stroke="none" d="M 8056,5970 C 8056,6050 8074,6118 8114,6187 8154,6256 8204,6306 8273,6346 8342,6386 8410,6404 8490,6404 8570,6404 8638,6386 8707,6346 8776,6306 8826,6256 8866,6187 8906,6118 8924,6050 8924,5970 L 8490,5970 8056,5970 Z"/>
         <path fill="none" stroke="rgb(27,25,24)" stroke-width="20" stroke-linejoin="miter" d="M 8056,5970 C 8056,6050 8074,6118 8114,6187 8154,6256 8204,6306 8273,6346 8342,6386 8410,6404 8490,6404 8570,6404 8638,6386 8707,6346 8776,6306 8826,6256 8866,6187 8906,6118 8924,6050 8924,5970 L 8490,5970 8056,5970 Z"/>
         <path fill="none" stroke="rgb(27,25,24)" stroke-width="75" stroke-linejoin="miter" d="M 8784,6292 L 8958,6492"/>
         <path fill="none" stroke="rgb(27,25,24)" stroke-width="75" stroke-linejoin="miter" d="M 8515,6401 L 8531,6666"/>
         <path fill="none" stroke="rgb(27,25,24)" stroke-width="75" stroke-linejoin="miter" d="M 8229,6318 L 8055,6518"/>
      </g>
  <g id="stars">
      <g id="star1" onclick="set_star(1)">
       <path id="star1off" style="display:none" fill="rgb(255,255,107)" stroke="rgb(52,101,164)" d="M 2573,5592 L 3133,5464 3253,4870 3374,5464 3935,5592 3374,5718 3253,6313 3133,5718 2573,5592 Z"/>
       <path id="star1on" fill="rgb(255,255,0)" stroke="rgb(52,101,164)" d="M 2403,5592 L 3103,5433 3253,4691 3404,5433 4105,5592 3404,5750 3253,6492 3103,5750 2403,5592 Z"/>
      </g>
      <g id="star2" onclick="set_star(2)">
       <path id="star2off" fill="rgb(255,255,107)" stroke="rgb(52,101,164)" d="M 3143,3072 L 3703,2944 3823,2350 3944,2944 4505,3072 3944,3198 3823,3793 3703,3198 3143,3072 Z"/>
       <path id="star2on" style="display:none" fill="rgb(255,255,0)" stroke="rgb(52,101,164)" d="M 2973,3072 L 3673,2913 3823,2171 3974,2913 4675,3072 3974,3230 3823,3972 3673,3230 2973,3072 Z"/>
      </g>
      <g id="star3" onclick="set_star(3)">
       <path id="star3off" fill="rgb(255,255,107)" stroke="rgb(52,101,164)" d="M 5573,1551 L 6133,1423 6253,829 6374,1423 6935,1551 6374,1677 6253,2272 6133,1677 5573,1551 Z"/>
       <path id="star3on" style="display:none" fill="rgb(255,255,0)" stroke="rgb(52,101,164)" d="M 5403,1551 L 6103,1392 6253,650 6404,1392 7105,1551 6404,1709 6253,2451 6103,1709 5403,1551 Z"/>
      </g>
  </g>
      <g id="eye2_open">
         <path fill="none" stroke="rgb(0,0,0)" stroke-width="70" stroke-linejoin="round" d="M 8181,5662 L 7981,5362"/>
         <path fill="none" stroke="rgb(0,0,0)" stroke-width="70" stroke-linejoin="round" d="M 8581,5562 L 8581,5162"/>
         <path fill="none" stroke="rgb(0,0,0)" stroke-width="70" stroke-linejoin="round" d="M 8981,5662 L 9181,5362"/>
         <path fill="rgb(142,248,245)" stroke="none" d="M 8573,5462 C 8913,5462 9173,5722 9173,6062 9173,6402 8913,6662 8573,6662 8233,6662 7973,6402 7973,6062 7973,5722 8233,5462 8573,5462 Z"/>
         <path fill="none" stroke="rgb(0,0,0)" stroke-width="50" stroke-linejoin="round" d="M 8573,5462 C 8913,5462 9173,5722 9173,6062 9173,6402 8913,6662 8573,6662 8233,6662 7973,6402 7973,6062 7973,5722 8233,5462 8573,5462 Z"/>
          <path fill="rgb(27,25,24)" stroke="none" d="M 8431,5562 C 8496,5562 8550,5577 8606,5609 8662,5641 8702,5681 8734,5737 8766,5793 8781,5847 8781,5912 8781,5977 8766,6031 8734,6087 8702,6143 8662,6183 8606,6215 8550,6247 8496,6262 8431,6262 8366,6262 8312,6247 8256,6215 8200,6183 8160,6143 8128,6087 8096,6031 8081,5977 8081,5912 8081,5847 8096,5793 8128,5737 8160,5681 8200,5641 8256,5609 8312,5577 8366,5562 8431,5562 Z"/>
          <path fill="none" stroke="rgb(27,25,24)" stroke-width="20" stroke-linejoin="miter" d="M 8431,5562 C 8496,5562 8550,5577 8606,5609 8662,5641 8702,5681 8734,5737 8766,5793 8781,5847 8781,5912 8781,5977 8766,6031 8734,6087 8702,6143 8662,6183 8606,6215 8550,6247 8496,6262 8431,6262 8366,6262 8312,6247 8256,6215 8200,6183 8160,6143 8128,6087 8096,6031 8081,5977 8081,5912 8081,5847 8096,5793 8128,5737 8160,5681 8200,5641 8256,5609 8312,5577 8366,5562 8431,5562 Z"/>
          <path fill="rgb(255,255,255)" stroke="none" d="M 8568,5773 C 8584,5773 8598,5777 8613,5785 8627,5793 8638,5804 8646,5818 8654,5833 8658,5846 8658,5863 8658,5879 8654,5893 8646,5908 8638,5922 8627,5933 8613,5941 8598,5949 8584,5953 8568,5953 8551,5953 8538,5949 8523,5941 8509,5933 8498,5922 8490,5908 8482,5893 8478,5879 8478,5863 8478,5846 8482,5833 8490,5818 8498,5804 8509,5793 8523,5785 8538,5777 8551,5773 8568,5773 Z"/>
          <path fill="none" stroke="rgb(27,25,24)" stroke-width="20" stroke-linejoin="miter" d="M 8568,5773 C 8584,5773 8598,5777 8613,5785 8627,5793 8638,5804 8646,5818 8654,5833 8658,5846 8658,5863 8658,5879 8654,5893 8646,5908 8638,5922 8627,5933 8613,5941 8598,5949 8584,5953 8568,5953 8551,5953 8538,5949 8523,5941 8509,5933 8498,5922 8490,5908 8482,5893 8478,5879 8478,5863 8478,5846 8482,5833 8490,5818 8498,5804 8509,5793 8523,5785 8538,5777 8551,5773 8568,5773 Z"/>
          <path fill="rgb(255,255,255)" stroke="none" d="M 8302,5685 C 8318,5685 8332,5689 8347,5697 8361,5705 8372,5716 8380,5730 8388,5745 8392,5758 8392,5775 8392,5791 8388,5805 8380,5820 8372,5834 8361,5845 8347,5853 8332,5861 8318,5865 8302,5865 8285,5865 8272,5861 8257,5853 8243,5845 8232,5834 8224,5820 8216,5805 8212,5791 8212,5775 8212,5758 8216,5745 8224,5730 8232,5716 8243,5705 8257,5697 8272,5689 8285,5685 8302,5685 Z"/>
          <path fill="none" stroke="rgb(27,25,24)" stroke-width="20" stroke-linejoin="miter" d="M 8302,5685 C 8318,5685 8332,5689 8347,5697 8361,5705 8372,5716 8380,5730 8388,5745 8392,5758 8392,5775 8392,5791 8388,5805 8380,5820 8372,5834 8361,5845 8347,5853 8332,5861 8318,5865 8302,5865 8285,5865 8272,5861 8257,5853 8243,5845 8232,5834 8224,5820 8216,5805 8212,5791 8212,5775 8212,5758 8216,5745 8224,5730 8232,5716 8243,5705 8257,5697 8272,5689 8285,5685 8302,5685 Z"/>
      </g>
      <g class="Group" id="eye2_almost_open_1" style="display:none">
         <path fill="none" stroke="rgb(0,0,0)" stroke-width="70" stroke-linejoin="round" d="M 8182,5862 L 7982,5562"/>
         <path fill="none" stroke="rgb(0,0,0)" stroke-width="70" stroke-linejoin="round" d="M 8582,5762 L 8582,5362"/>
         <path fill="none" stroke="rgb(0,0,0)" stroke-width="70" stroke-linejoin="round" d="M 8982,5862 L 9182,5562"/>
         <path fill="rgb(142,248,245)" stroke="none" d="M 9174,6059 C 9174,6062 9174,6065 9174,6069 9174,6178 9149,6271 9093,6366 9038,6461 8969,6529 8874,6583 8778,6638 8684,6663 8573,6663 8462,6663 8368,6638 8273,6583 8177,6529 8108,6461 8053,6366 7997,6271 7972,6178 7972,6069 L 7972,6076 C 7972,6072 7972,6068 7972,6064 7972,5983 7997,5915 8053,5845 8108,5775 8177,5725 8272,5685 8368,5644 8462,5626 8573,5626 8684,5626 8778,5644 8873,5685 8969,5725 9038,5775 9093,5845 9149,5915 9174,5983 9174,6063 9174,6066 9174,6068 9174,6071 L 9174,6059 Z"/>
         <path fill="none" stroke="rgb(0,0,0)" stroke-width="50" stroke-linejoin="round" d="M 9174,6059 C 9174,6062 9174,6065 9174,6069 9174,6178 9149,6271 9093,6366 9038,6461 8969,6529 8874,6583 8778,6638 8684,6663 8573,6663 8462,6663 8368,6638 8273,6583 8177,6529 8108,6461 8053,6366 7997,6271 7972,6178 7972,6069 L 7972,6076 C 7972,6072 7972,6068 7972,6064 7972,5983 7997,5915 8053,5845 8108,5775 8177,5725 8272,5685 8368,5644 8462,5626 8573,5626 8684,5626 8778,5644 8873,5685 8969,5725 9038,5775 9093,5845 9149,5915 9174,5983 9174,6063 9174,6066 9174,6068 9174,6071 L 9174,6059 Z"/>
          <path fill="rgb(27,25,24)" stroke="none" d="M 8461,5629 L 8543,5621 8627,5621 8646,5635 8664,5649 8680,5664 8695,5680 8709,5698 8723,5717 8735,5737 8746,5758 8756,5779 8764,5800 8771,5821 8776,5843 8779,5865 8781,5888 8782,5912 8781,5936 8779,5959 8776,5981 8771,6003 8764,6024 8756,6045 8746,6066 8735,6087 8723,6107 8709,6126 8695,6144 8680,6160 8664,6175 8646,6189 8627,6203 8607,6215 8586,6226 8565,6236 8544,6244 8523,6251 8501,6256 8479,6259 8456,6261 8432,6262 8408,6261 8385,6259 8363,6256 8341,6251 8320,6244 8299,6236 8278,6226 8257,6215 8237,6203 8218,6189 8200,6175 8184,6160 8169,6144 8155,6126 8141,6107 8129,6087 8118,6066 8108,6045 8100,6024 8094,6003 8088,5981 8085,5959 8083,5936 8082,5912 8083,5888 8085,5865 8088,5843 8094,5821 8100,5800 8108,5779 8118,5758 8221,5701 8320,5656 8401,5640 8461,5629 Z"/>
          <path fill="none" stroke="rgb(27,25,24)" stroke-width="20" stroke-linejoin="miter" d="M 8461,5629 L 8543,5621 8627,5621 8646,5635 8664,5649 8680,5664 8695,5680 8709,5698 8723,5717 8735,5737 8746,5758 8756,5779 8764,5800 8771,5821 8776,5843 8779,5865 8781,5888 8782,5912 8781,5936 8779,5959 8776,5981 8771,6003 8764,6024 8756,6045 8746,6066 8735,6087 8723,6107 8709,6126 8695,6144 8680,6160 8664,6175 8646,6189 8627,6203 8607,6215 8586,6226 8565,6236 8544,6244 8523,6251 8501,6256 8479,6259 8456,6261 8432,6262 8408,6261 8385,6259 8363,6256 8341,6251 8320,6244 8299,6236 8278,6226 8257,6215 8237,6203 8218,6189 8200,6175 8184,6160 8169,6144 8155,6126 8141,6107 8129,6087 8118,6066 8108,6045 8100,6024 8094,6003 8088,5981 8085,5959 8083,5936 8082,5912 8083,5888 8085,5865 8088,5843 8094,5821 8100,5800 8108,5779 8118,5758 8221,5701 8320,5656 8401,5640 8461,5629 Z"/>
          <path fill="rgb(255,255,255)" stroke="none" d="M 8569,5773 L 8575,5773 8581,5774 8586,5775 8592,5776 8597,5778 8603,5780 8608,5782 8614,5785 8619,5788 8624,5792 8628,5795 8633,5799 8637,5804 8640,5808 8644,5813 8647,5818 8650,5824 8652,5829 8654,5834 8656,5840 8657,5845 8658,5851 8659,5857 8659,5863 8659,5869 8658,5875 8657,5880 8656,5886 8654,5891 8652,5897 8650,5902 8647,5908 8644,5913 8640,5918 8637,5922 8633,5927 8628,5931 8624,5934 8619,5938 8614,5941 8608,5944 8603,5946 8597,5948 8592,5950 8586,5951 8581,5952 8575,5953 8569,5953 8563,5953 8557,5952 8551,5951 8546,5950 8540,5948 8535,5946 8530,5944 8524,5941 8519,5938 8514,5934 8510,5931 8505,5927 8501,5922 8498,5918 8494,5913 8491,5908 8488,5902 8486,5897 8484,5891 8482,5886 8481,5880 8480,5875 8479,5869 8479,5863 8479,5857 8480,5851 8481,5845 8482,5840 8484,5834 8486,5829 8488,5824 8491,5818 8494,5813 8498,5808 8501,5804 8505,5799 8510,5795 8514,5792 8519,5788 8524,5785 8530,5782 8535,5780 8540,5778 8546,5776 8551,5775 8557,5774 8563,5773 8569,5773 Z"/>
          <path fill="none" stroke="rgb(27,25,24)" stroke-width="20" stroke-linejoin="miter" d="M 8569,5773 L 8575,5773 8581,5774 8586,5775 8592,5776 8597,5778 8603,5780 8608,5782 8614,5785 8619,5788 8624,5792 8628,5795 8633,5799 8637,5804 8640,5808 8644,5813 8647,5818 8650,5824 8652,5829 8654,5834 8656,5840 8657,5845 8658,5851 8659,5857 8659,5863 8659,5869 8658,5875 8657,5880 8656,5886 8654,5891 8652,5897 8650,5902 8647,5908 8644,5913 8640,5918 8637,5922 8633,5927 8628,5931 8624,5934 8619,5938 8614,5941 8608,5944 8603,5946 8597,5948 8592,5950 8586,5951 8581,5952 8575,5953 8569,5953 8563,5953 8557,5952 8551,5951 8546,5950 8540,5948 8535,5946 8530,5944 8524,5941 8519,5938 8514,5934 8510,5931 8505,5927 8501,5922 8498,5918 8494,5913 8491,5908 8488,5902 8486,5897 8484,5891 8482,5886 8481,5880 8480,5875 8479,5869 8479,5863 8479,5857 8480,5851 8481,5845 8482,5840 8484,5834 8486,5829 8488,5824 8491,5818 8494,5813 8498,5808 8501,5804 8505,5799 8510,5795 8514,5792 8519,5788 8524,5785 8530,5782 8535,5780 8540,5778 8546,5776 8551,5775 8557,5774 8563,5773 8569,5773 Z"/>
          <path fill="rgb(255,255,255)" stroke="none" d="M 8303,5685 L 8309,5685 8315,5686 8320,5687 8326,5688 8331,5690 8337,5692 8342,5694 8348,5697 8353,5700 8358,5704 8362,5707 8367,5711 8371,5716 8374,5720 8378,5725 8381,5730 8384,5736 8386,5741 8388,5746 8390,5752 8391,5757 8392,5763 8393,5769 8393,5775 8393,5781 8392,5787 8391,5792 8390,5798 8388,5803 8386,5809 8384,5814 8381,5820 8378,5825 8374,5830 8371,5834 8367,5839 8362,5843 8358,5846 8353,5850 8348,5853 8342,5856 8337,5858 8331,5860 8326,5862 8320,5863 8315,5864 8309,5865 8303,5865 8297,5865 8291,5864 8285,5863 8280,5862 8274,5860 8269,5858 8264,5856 8258,5853 8253,5850 8248,5846 8244,5843 8239,5839 8235,5834 8232,5830 8228,5825 8225,5820 8222,5814 8220,5809 8218,5803 8216,5798 8215,5792 8214,5787 8213,5781 8213,5775 8213,5769 8214,5763 8215,5757 8216,5752 8218,5746 8220,5741 8222,5736 8225,5730 8228,5725 8232,5720 8235,5716 8239,5711 8244,5707 8248,5704 8253,5700 8258,5697 8264,5694 8269,5692 8274,5690 8280,5688 8285,5687 8291,5686 8297,5685 8303,5685 Z"/>
          <path fill="none" stroke="rgb(27,25,24)" stroke-width="20" stroke-linejoin="miter" d="M 8303,5685 L 8309,5685 8315,5686 8320,5687 8326,5688 8331,5690 8337,5692 8342,5694 8348,5697 8353,5700 8358,5704 8362,5707 8367,5711 8371,5716 8374,5720 8378,5725 8381,5730 8384,5736 8386,5741 8388,5746 8390,5752 8391,5757 8392,5763 8393,5769 8393,5775 8393,5781 8392,5787 8391,5792 8390,5798 8388,5803 8386,5809 8384,5814 8381,5820 8378,5825 8374,5830 8371,5834 8367,5839 8362,5843 8358,5846 8353,5850 8348,5853 8342,5856 8337,5858 8331,5860 8326,5862 8320,5863 8315,5864 8309,5865 8303,5865 8297,5865 8291,5864 8285,5863 8280,5862 8274,5860 8269,5858 8264,5856 8258,5853 8253,5850 8248,5846 8244,5843 8239,5839 8235,5834 8232,5830 8228,5825 8225,5820 8222,5814 8220,5809 8218,5803 8216,5798 8215,5792 8214,5787 8213,5781 8213,5775 8213,5769 8214,5763 8215,5757 8216,5752 8218,5746 8220,5741 8222,5736 8225,5730 8228,5725 8232,5720 8235,5716 8239,5711 8244,5707 8248,5704 8253,5700 8258,5697 8264,5694 8269,5692 8274,5690 8280,5688 8285,5687 8291,5686 8297,5685 8303,5685 Z"/>
      </g>
      <g id="eye2_almost_open_2" style="display:none">
         <path fill="none" stroke="rgb(0,0,0)" stroke-width="70" stroke-linejoin="round" d="M 8282,6058 L 8082,5758"/>
         <path fill="none" stroke="rgb(0,0,0)" stroke-width="70" stroke-linejoin="round" d="M 8582,6058 L 8582,5658"/>
         <path fill="none" stroke="rgb(0,0,0)" stroke-width="70" stroke-linejoin="round" d="M 8882,6058 L 9082,5758"/>
         <path fill="rgb(142,248,245)" stroke="none" d="M 9174,6055 C 9174,6058 9174,6061 9174,6065 9174,6174 9149,6267 9093,6362 9038,6457 8969,6525 8874,6579 8778,6634 8684,6659 8573,6659 8462,6659 8368,6634 8273,6579 8177,6525 8108,6457 8053,6362 7997,6267 7972,6174 7972,6065 L 7972,6072 C 7972,6068 7972,6064 7972,6060 7972,5979 8080,5908 8147,5898 8232,5866 8285,5870 8384,5852 8486,5845 8495,5831 8606,5831 8717,5831 8719,5845 8811,5859 8906,5899 8938,5873 9001,5905 9068,5940 9174,5979 9174,6059 9174,6062 9174,6064 9174,6067 L 9174,6055 Z"/>
         <path fill="none" stroke="rgb(0,0,0)" stroke-width="50" stroke-linejoin="round" d="M 9174,6055 C 9174,6058 9174,6061 9174,6065 9174,6174 9149,6267 9093,6362 9038,6457 8969,6525 8874,6579 8778,6634 8684,6659 8573,6659 8462,6659 8368,6634 8273,6579 8177,6525 8108,6457 8053,6362 7997,6267 7972,6174 7972,6065 L 7972,6072 C 7972,6068 7972,6064 7972,6060 7972,5979 8080,5908 8147,5898 8232,5866 8285,5870 8384,5852 8486,5845 8495,5831 8606,5831 8717,5831 8719,5845 8811,5859 8906,5899 8938,5873 9001,5905 9068,5940 9174,5979 9174,6059 9174,6062 9174,6064 9174,6067 L 9174,6055 Z"/>
          <path fill="rgb(27,25,24)" stroke="none" d="M 8696,5842 L 8779,5861 8781,5884 8782,5908 8781,5932 8779,5955 8776,5977 8771,5999 8764,6020 8756,6041 8746,6062 8735,6083 8723,6103 8709,6122 8695,6140 8680,6156 8664,6171 8646,6185 8627,6199 8607,6211 8586,6222 8565,6232 8544,6240 8523,6247 8501,6252 8479,6255 8456,6257 8432,6258 8408,6257 8385,6255 8363,6252 8341,6247 8320,6240 8299,6232 8278,6222 8257,6211 8237,6199 8218,6185 8200,6171 8184,6156 8169,6140 8155,6122 8141,6103 8129,6083 8118,6062 8108,6041 8100,6020 8094,5999 8088,5977 8085,5955 8083,5932 8082,5908 8172,5881 8297,5856 8435,5842 8608,5828 8696,5842 Z"/>
          <path fill="none" stroke="rgb(27,25,24)" stroke-width="20" stroke-linejoin="miter" d="M 8696,5842 L 8779,5861 8781,5884 8782,5908 8781,5932 8779,5955 8776,5977 8771,5999 8764,6020 8756,6041 8746,6062 8735,6083 8723,6103 8709,6122 8695,6140 8680,6156 8664,6171 8646,6185 8627,6199 8607,6211 8586,6222 8565,6232 8544,6240 8523,6247 8501,6252 8479,6255 8456,6257 8432,6258 8408,6257 8385,6255 8363,6252 8341,6247 8320,6240 8299,6232 8278,6222 8257,6211 8237,6199 8218,6185 8200,6171 8184,6156 8169,6140 8155,6122 8141,6103 8129,6083 8118,6062 8108,6041 8100,6020 8094,5999 8088,5977 8085,5955 8083,5932 8082,5908 8172,5881 8297,5856 8435,5842 8608,5828 8696,5842 Z"/>
          <path fill="rgb(255,255,255)" stroke="none" d="M 8567,5815 L 8614,5814 8650,5820 8652,5825 8654,5830 8656,5836 8657,5841 8658,5847 8659,5853 8659,5859 8659,5865 8658,5871 8657,5876 8656,5882 8654,5887 8652,5893 8650,5898 8647,5904 8644,5909 8640,5914 8637,5918 8633,5923 8628,5927 8624,5930 8619,5934 8614,5937 8608,5940 8603,5942 8597,5944 8592,5946 8586,5947 8581,5948 8575,5949 8569,5949 8563,5949 8557,5948 8551,5947 8546,5946 8540,5944 8535,5942 8530,5940 8524,5937 8519,5934 8514,5930 8510,5927 8505,5923 8501,5918 8498,5914 8494,5909 8491,5904 8488,5898 8486,5893 8484,5887 8482,5882 8481,5876 8480,5871 8479,5865 8479,5859 8479,5853 8480,5847 8481,5841 8482,5836 8484,5830 8486,5825 8521,5820 8567,5815 Z"/>
          <path fill="none" stroke="rgb(27,25,24)" stroke-width="20" stroke-linejoin="miter" d="M 8567,5815 L 8614,5814 8650,5820 8652,5825 8654,5830 8656,5836 8657,5841 8658,5847 8659,5853 8659,5859 8659,5865 8658,5871 8657,5876 8656,5882 8654,5887 8652,5893 8650,5898 8647,5904 8644,5909 8640,5914 8637,5918 8633,5923 8628,5927 8624,5930 8619,5934 8614,5937 8608,5940 8603,5942 8597,5944 8592,5946 8586,5947 8581,5948 8575,5949 8569,5949 8563,5949 8557,5948 8551,5947 8546,5946 8540,5944 8535,5942 8530,5940 8524,5937 8519,5934 8514,5930 8510,5927 8505,5923 8501,5918 8498,5914 8494,5909 8491,5904 8488,5898 8486,5893 8484,5887 8482,5882 8481,5876 8480,5871 8479,5865 8479,5859 8479,5853 8480,5847 8481,5841 8482,5836 8484,5830 8486,5825 8521,5820 8567,5815 Z"/>
      </g>
      <g class="Group" id="eye2_almost_close_1" style="display:none">
         <path fill="rgb(142,248,245)" stroke="none" d="M 9174,6056 C 9174,6059 9174,6062 9174,6066 9174,6175 9149,6268 9093,6363 9038,6458 8969,6526 8874,6580 8778,6635 8684,6660 8573,6660 8462,6660 8368,6635 8273,6580 8177,6526 8108,6458 8053,6363 7997,6268 7972,6175 7972,6066 L 7972,6073 C 7972,6069 8148,6136 8151,6137 8223,6170 8243,6173 8338,6215 8438,6234 8481,6258 8580,6240 8682,6233 8670,6243 8781,6218 8892,6193 8914,6165 8998,6132 9123,6065 9174,5980 9174,6060 9174,6063 9174,6065 9174,6068 L 9174,6056 Z"/>
         <path fill="none" stroke="rgb(0,0,0)" stroke-width="50" stroke-linejoin="round" d="M 9174,6056 C 9174,6059 9174,6062 9174,6066 9174,6175 9149,6268 9093,6363 9038,6458 8969,6526 8874,6580 8778,6635 8684,6660 8573,6660 8462,6660 8368,6635 8273,6580 8177,6526 8108,6458 8053,6363 7997,6268 7972,6175 7972,6066 L 7972,6073 C 7972,6069 8148,6136 8151,6137 8223,6170 8243,6173 8338,6215 8438,6234 8481,6258 8580,6240 8682,6233 8670,6243 8781,6218 8892,6193 8914,6165 8998,6132 9123,6065 9174,5980 9174,6060 9174,6063 9174,6065 9174,6068 L 9174,6056 Z"/>
         <path fill="none" stroke="rgb(0,0,0)" stroke-width="70" stroke-linejoin="round" d="M 8157,6137 L 8082,6259"/>
         <path fill="none" stroke="rgb(0,0,0)" stroke-width="70" stroke-linejoin="round" d="M 8577,6229 L 8582,6359"/>
         <path fill="none" stroke="rgb(0,0,0)" stroke-width="70" stroke-linejoin="round" d="M 8995,6132 L 9082,6259"/>
      </g>
      <g class="Group" id="eye2_almost_close_2" style="display:none">
         <path fill="rgb(142,248,245)" stroke="none" d="M 9174,6060 C 9174,6063 9174,6066 9174,6070 9174,6179 9149,6272 9093,6367 9038,6462 8969,6530 8874,6584 8778,6639 8684,6664 8573,6664 8462,6664 8368,6639 8273,6584 8177,6530 8108,6462 8053,6367 7997,6272 7972,6179 7972,6070 L 7972,6077 C 7972,6073 8113,6236 8116,6237 8185,6288 8235,6361 8326,6407 8421,6438 8476,6469 8573,6478 8675,6471 8745,6448 8846,6387 8947,6326 8963,6304 9033,6191 9137,6063 9174,5984 9174,6064 9174,6067 9174,6069 9174,6072 L 9174,6060 Z"/>
         <path fill="none" stroke="rgb(0,0,0)" stroke-width="50" stroke-linejoin="round" d="M 9174,6060 C 9174,6063 9174,6066 9174,6070 9174,6179 9149,6272 9093,6367 9038,6462 8969,6530 8874,6584 8778,6639 8684,6664 8573,6664 8462,6664 8368,6639 8273,6584 8177,6530 8108,6462 8053,6367 7997,6272 7972,6179 7972,6070 L 7972,6077 C 7972,6073 8113,6236 8116,6237 8185,6288 8235,6361 8326,6407 8421,6438 8476,6469 8573,6478 8675,6471 8745,6448 8846,6387 8947,6326 8963,6304 9033,6191 9137,6063 9174,5984 9174,6064 9174,6067 9174,6069 9174,6072 L 9174,6060 Z"/>
         <path fill="none" stroke="rgb(0,0,0)" stroke-width="70" stroke-linejoin="round" d="M 8154,6253 L 8077,6467"/>
         <path fill="none" stroke="rgb(0,0,0)" stroke-width="70" stroke-linejoin="round" d="M 8573,6473 L 8577,6738"/>
         <path fill="none" stroke="rgb(0,0,0)" stroke-width="70" stroke-linejoin="round" d="M 8995,6236 L 9104,6416"/>
      </g>
      <g class="Group" id="eye2_close" style="display:none">
         <path fill="none" stroke="rgb(0,0,0)" stroke-width="70" stroke-linejoin="round" d="M 8201,6500 L 7978,6766"/>
         <path fill="none" stroke="rgb(0,0,0)" stroke-width="70" stroke-linejoin="round" d="M 8578,7066 L 8578,6666"/>
         <path fill="none" stroke="rgb(0,0,0)" stroke-width="70" stroke-linejoin="round" d="M 9001,6500 L 9178,6766"/>
         <path fill="none" stroke="rgb(0,0,0)" stroke-width="70" stroke-linejoin="round" d="M 9201,6092 C 9201,6095 9201,6097 9201,6100 9201,6210 9176,6304 9121,6400 9065,6496 8997,6564 8901,6620 8805,6675 8711,6700 8601,6700 8491,6700 8397,6675 8301,6620 8205,6564 8137,6496 8081,6400 8027,6306 8002,6215 8001,6107"/>
      </g>
 <g id="eye2_right" style="display:none" >
         <path fill="none" stroke="rgb(0,0,0)" stroke-width="70" stroke-linejoin="round" d="M 8181,5662 L 7981,5362"/>
         <path fill="none" stroke="rgb(0,0,0)" stroke-width="70" stroke-linejoin="round" d="M 8581,5562 L 8581,5162"/>
         <path fill="none" stroke="rgb(0,0,0)" stroke-width="70" stroke-linejoin="round" d="M 8981,5662 L 9181,5362"/>
         <path fill="rgb(142,248,245)" stroke="none" d="M 8573,5462 C 8913,5462 9173,5722 9173,6062 9173,6402 8913,6662 8573,6662 8233,6662 7973,6402 7973,6062 7973,5722 8233,5462 8573,5462 Z"/>
         <path fill="none" stroke="rgb(0,0,0)" stroke-width="50" stroke-linejoin="round" d="M 8573,5462 C 8913,5462 9173,5722 9173,6062 9173,6402 8913,6662 8573,6662 8233,6662 7973,6402 7973,6062 7973,5722 8233,5462 8573,5462 Z"/>
          <path fill="rgb(27,25,24)" stroke="none" d="M 8531,5562 C 8596,5562 8650,5577 8706,5609 8762,5641 8802,5681 8834,5737 8866,5793 8881,5847 8881,5912 8881,5977 8866,6031 8834,6087 8802,6143 8762,6183 8706,6215 8650,6247 8596,6262 8531,6262 8466,6262 8412,6247 8356,6215 8300,6183 8260,6143 8228,6087 8196,6031 8181,5977 8181,5912 8181,5847 8196,5793 8228,5737 8260,5681 8300,5641 8356,5609 8412,5577 8466,5562 8531,5562 Z"/>
          <path fill="none" stroke="rgb(27,25,24)" stroke-width="20" stroke-linejoin="miter" d="M 8531,5562 C 8596,5562 8650,5577 8706,5609 8762,5641 8802,5681 8834,5737 8866,5793 8881,5847 8881,5912 8881,5977 8866,6031 8834,6087 8802,6143 8762,6183 8706,6215 8650,6247 8596,6262 8531,6262 8466,6262 8412,6247 8356,6215 8300,6183 8260,6143 8228,6087 8196,6031 8181,5977 8181,5912 8181,5847 8196,5793 8228,5737 8260,5681 8300,5641 8356,5609 8412,5577 8466,5562 8531,5562 Z"/>
          <path fill="rgb(255,255,255)" stroke="none" d="M 8668,5773 C 8684,5773 8698,5777 8713,5785 8727,5793 8738,5804 8746,5818 8754,5833 8758,5846 8758,5863 8758,5879 8754,5893 8746,5908 8738,5922 8727,5933 8713,5941 8698,5949 8684,5953 8668,5953 8651,5953 8638,5949 8623,5941 8609,5933 8598,5922 8590,5908 8582,5893 8578,5879 8578,5863 8578,5846 8582,5833 8590,5818 8598,5804 8609,5793 8623,5785 8638,5777 8651,5773 8668,5773 Z"/>
          <path fill="none" stroke="rgb(27,25,24)" stroke-width="20" stroke-linejoin="miter" d="M 8668,5773 C 8684,5773 8698,5777 8713,5785 8727,5793 8738,5804 8746,5818 8754,5833 8758,5846 8758,5863 8758,5879 8754,5893 8746,5908 8738,5922 8727,5933 8713,5941 8698,5949 8684,5953 8668,5953 8651,5953 8638,5949 8623,5941 8609,5933 8598,5922 8590,5908 8582,5893 8578,5879 8578,5863 8578,5846 8582,5833 8590,5818 8598,5804 8609,5793 8623,5785 8638,5777 8651,5773 8668,5773 Z"/>
          <path fill="rgb(255,255,255)" stroke="none" d="M 8402,5685 C 8418,5685 8432,5689 8447,5697 8461,5705 8472,5716 8480,5730 8488,5745 8492,5758 8492,5775 8492,5791 8488,5805 8480,5820 8472,5834 8461,5845 8447,5853 8432,5861 8418,5865 8402,5865 8385,5865 8372,5861 8357,5853 8343,5845 8332,5834 8324,5820 8316,5805 8312,5791 8312,5775 8312,5758 8316,5745 8324,5730 8332,5716 8343,5705 8357,5697 8372,5689 8385,5685 8402,5685 Z"/>
          <path fill="none" stroke="rgb(27,25,24)" stroke-width="20" stroke-linejoin="miter" d="M 8402,5685 C 8418,5685 8432,5689 8447,5697 8461,5705 8472,5716 8480,5730 8488,5745 8492,5758 8492,5775 8492,5791 8488,5805 8480,5820 8472,5834 8461,5845 8447,5853 8432,5861 8418,5865 8402,5865 8385,5865 8372,5861 8357,5853 8343,5845 8332,5834 8324,5820 8316,5805 8312,5791 8312,5775 8312,5758 8316,5745 8324,5730 8332,5716 8343,5705 8357,5697 8372,5689 8385,5685 8402,5685 Z"/>
 </g>
      <g id="eye2_right2" style="display:none">
        <path fill="none" stroke="rgb(0,0,0)" stroke-width="70" stroke-linejoin="round" d="M 8185,5657 L 7985,5357"/>
        <path fill="none" stroke="rgb(0,0,0)" stroke-width="70" stroke-linejoin="round" d="M 8585,5557 L 8585,5157"/>
        <path fill="none" stroke="rgb(0,0,0)" stroke-width="70" stroke-linejoin="round" d="M 8985,5657 L 9185,5357"/>
        <path fill="rgb(142,248,245)" stroke="none" d="M 8577,5457 C 8917,5457 9177,5717 9177,6057 9177,6397 8917,6657 8577,6657 8237,6657 7977,6397 7977,6057 7977,5717 8237,5457 8577,5457 Z"/>
        <path fill="none" stroke="rgb(0,0,0)" stroke-width="50" stroke-linejoin="round" d="M 8577,5457 C 8917,5457 9177,5717 9177,6057 9177,6397 8917,6657 8577,6657 8237,6657 7977,6397 7977,6057 7977,5717 8237,5457 8577,5457 Z"/>
         <path fill="rgb(27,25,24)" stroke="none" d="M 8635,5557 C 8700,5557 8754,5572 8810,5604 8866,5636 8906,5676 8938,5732 8970,5788 8985,5842 8985,5907 8985,5972 8970,6026 8938,6082 8906,6138 8866,6178 8810,6210 8754,6242 8700,6257 8635,6257 8570,6257 8516,6242 8460,6210 8404,6178 8364,6138 8332,6082 8300,6026 8285,5972 8285,5907 8285,5842 8300,5788 8332,5732 8364,5676 8404,5636 8460,5604 8516,5572 8570,5557 8635,5557 Z"/>
         <path fill="none" stroke="rgb(27,25,24)" stroke-width="20" stroke-linejoin="miter" d="M 8635,5557 C 8700,5557 8754,5572 8810,5604 8866,5636 8906,5676 8938,5732 8970,5788 8985,5842 8985,5907 8985,5972 8970,6026 8938,6082 8906,6138 8866,6178 8810,6210 8754,6242 8700,6257 8635,6257 8570,6257 8516,6242 8460,6210 8404,6178 8364,6138 8332,6082 8300,6026 8285,5972 8285,5907 8285,5842 8300,5788 8332,5732 8364,5676 8404,5636 8460,5604 8516,5572 8570,5557 8635,5557 Z"/>
         <path fill="rgb(255,255,255)" stroke="none" d="M 8772,5768 C 8788,5768 8802,5772 8817,5780 8831,5788 8842,5799 8850,5813 8858,5828 8862,5841 8862,5858 8862,5874 8858,5888 8850,5903 8842,5917 8831,5928 8817,5936 8802,5944 8788,5948 8772,5948 8755,5948 8742,5944 8727,5936 8713,5928 8702,5917 8694,5903 8686,5888 8682,5874 8682,5858 8682,5841 8686,5828 8694,5813 8702,5799 8713,5788 8727,5780 8742,5772 8755,5768 8772,5768 Z"/>
         <path fill="none" stroke="rgb(27,25,24)" stroke-width="20" stroke-linejoin="miter" d="M 8772,5768 C 8788,5768 8802,5772 8817,5780 8831,5788 8842,5799 8850,5813 8858,5828 8862,5841 8862,5858 8862,5874 8858,5888 8850,5903 8842,5917 8831,5928 8817,5936 8802,5944 8788,5948 8772,5948 8755,5948 8742,5944 8727,5936 8713,5928 8702,5917 8694,5903 8686,5888 8682,5874 8682,5858 8682,5841 8686,5828 8694,5813 8702,5799 8713,5788 8727,5780 8742,5772 8755,5768 8772,5768 Z"/>
         <path fill="rgb(255,255,255)" stroke="none" d="M 8506,5680 C 8522,5680 8536,5684 8551,5692 8565,5700 8576,5711 8584,5725 8592,5740 8596,5753 8596,5770 8596,5786 8592,5800 8584,5815 8576,5829 8565,5840 8551,5848 8536,5856 8522,5860 8506,5860 8489,5860 8476,5856 8461,5848 8447,5840 8436,5829 8428,5815 8420,5800 8416,5786 8416,5770 8416,5753 8420,5740 8428,5725 8436,5711 8447,5700 8461,5692 8476,5684 8489,5680 8506,5680 Z"/>
         <path fill="none" stroke="rgb(27,25,24)" stroke-width="20" stroke-linejoin="miter" d="M 8506,5680 C 8522,5680 8536,5684 8551,5692 8565,5700 8576,5711 8584,5725 8592,5740 8596,5753 8596,5770 8596,5786 8592,5800 8584,5815 8576,5829 8565,5840 8551,5848 8536,5856 8522,5860 8506,5860 8489,5860 8476,5856 8461,5848 8447,5840 8436,5829 8428,5815 8420,5800 8416,5786 8416,5770 8416,5753 8420,5740 8428,5725 8436,5711 8447,5700 8461,5692 8476,5684 8489,5680 8506,5680 Z"/>
        </g>
      <g id="eye2_right3" style="display:none">
         <path fill="none" stroke="rgb(0,0,0)" stroke-width="70" stroke-linejoin="round" d="M 8189,5652 L 7989,5352"/>
         <path fill="none" stroke="rgb(0,0,0)" stroke-width="70" stroke-linejoin="round" d="M 8589,5552 L 8589,5152"/>
         <path fill="none" stroke="rgb(0,0,0)" stroke-width="70" stroke-linejoin="round" d="M 8989,5652 L 9189,5352"/>
         <path fill="rgb(142,248,245)" stroke="none" d="M 8581,5452 C 8921,5452 9181,5712 9181,6052 9181,6392 8921,6652 8581,6652 8241,6652 7981,6392 7981,6052 7981,5712 8241,5452 8581,5452 Z"/>
         <path fill="none" stroke="rgb(0,0,0)" stroke-width="50" stroke-linejoin="round" d="M 8581,5452 C 8921,5452 9181,5712 9181,6052 9181,6392 8921,6652 8581,6652 8241,6652 7981,6392 7981,6052 7981,5712 8241,5452 8581,5452 Z"/>
          <path fill="rgb(27,25,24)" stroke="none" d="M 8739,5552 C 8804,5552 8858,5567 8914,5599 8970,5631 9010,5671 9042,5727 9074,5783 9089,5837 9089,5902 9089,5967 9074,6021 9042,6077 9010,6133 8970,6173 8914,6205 8858,6237 8804,6252 8739,6252 8674,6252 8620,6237 8564,6205 8508,6173 8468,6133 8436,6077 8404,6021 8389,5967 8389,5902 8389,5837 8404,5783 8436,5727 8468,5671 8508,5631 8564,5599 8620,5567 8674,5552 8739,5552 Z"/>
          <path fill="none" stroke="rgb(27,25,24)" stroke-width="20" stroke-linejoin="miter" d="M 8739,5552 C 8804,5552 8858,5567 8914,5599 8970,5631 9010,5671 9042,5727 9074,5783 9089,5837 9089,5902 9089,5967 9074,6021 9042,6077 9010,6133 8970,6173 8914,6205 8858,6237 8804,6252 8739,6252 8674,6252 8620,6237 8564,6205 8508,6173 8468,6133 8436,6077 8404,6021 8389,5967 8389,5902 8389,5837 8404,5783 8436,5727 8468,5671 8508,5631 8564,5599 8620,5567 8674,5552 8739,5552 Z"/>
          <path fill="rgb(255,255,255)" stroke="none" d="M 8876,5763 C 8892,5763 8906,5767 8921,5775 8935,5783 8946,5794 8954,5808 8962,5823 8966,5836 8966,5853 8966,5869 8962,5883 8954,5898 8946,5912 8935,5923 8921,5931 8906,5939 8892,5943 8876,5943 8859,5943 8846,5939 8831,5931 8817,5923 8806,5912 8798,5898 8790,5883 8786,5869 8786,5853 8786,5836 8790,5823 8798,5808 8806,5794 8817,5783 8831,5775 8846,5767 8859,5763 8876,5763 Z"/>
          <path fill="none" stroke="rgb(27,25,24)" stroke-width="20" stroke-linejoin="miter" d="M 8876,5763 C 8892,5763 8906,5767 8921,5775 8935,5783 8946,5794 8954,5808 8962,5823 8966,5836 8966,5853 8966,5869 8962,5883 8954,5898 8946,5912 8935,5923 8921,5931 8906,5939 8892,5943 8876,5943 8859,5943 8846,5939 8831,5931 8817,5923 8806,5912 8798,5898 8790,5883 8786,5869 8786,5853 8786,5836 8790,5823 8798,5808 8806,5794 8817,5783 8831,5775 8846,5767 8859,5763 8876,5763 Z"/>
          <path fill="rgb(255,255,255)" stroke="none" d="M 8610,5675 C 8626,5675 8640,5679 8655,5687 8669,5695 8680,5706 8688,5720 8696,5735 8700,5748 8700,5765 8700,5781 8696,5795 8688,5810 8680,5824 8669,5835 8655,5843 8640,5851 8626,5855 8610,5855 8593,5855 8580,5851 8565,5843 8551,5835 8540,5824 8532,5810 8524,5795 8520,5781 8520,5765 8520,5748 8524,5735 8532,5720 8540,5706 8551,5695 8565,5687 8580,5679 8593,5675 8610,5675 Z"/>
          <path fill="none" stroke="rgb(27,25,24)" stroke-width="20" stroke-linejoin="miter" d="M 8610,5675 C 8626,5675 8640,5679 8655,5687 8669,5695 8680,5706 8688,5720 8696,5735 8700,5748 8700,5765 8700,5781 8696,5795 8688,5810 8680,5824 8669,5835 8655,5843 8640,5851 8626,5855 8610,5855 8593,5855 8580,5851 8565,5843 8551,5835 8540,5824 8532,5810 8524,5795 8520,5781 8520,5765 8520,5748 8524,5735 8532,5720 8540,5706 8551,5695 8565,5687 8580,5679 8593,5675 8610,5675 Z"/>
      </g>
    </g>
  <script type="text/javascript">
    <![CDATA[
	set_star(2)
    ]]>
  </script>
</svg>
