<?xml version="1.0" encoding="UTF-8"?>
<!DOCTYPE svg PUBLIC "-//W3C//DTD SVG 1.1//EN" "http://www.w3.org/Graphics/SVG/1.1/DTD/svg11.dtd">
<svg version="1.2" width="210mm" height="148mm" viewBox="0 0 21000 14800" preserveAspectRatio="xMidYMid" fill-rule="evenodd" stroke-width="28.222" stroke-linejoin="round" xmlns="http://www.w3.org/2000/svg" xmlns:ooo="http://xml.openoffice.org/svg/export" xmlns:xlink="http://www.w3.org/1999/xlink" xmlns:presentation="http://sun.com/xmlns/staroffice/presentation" xmlns:smil="http://www.w3.org/2001/SMIL20/" xmlns:anim="urn:oasis:names:tc:opendocument:xmlns:animation:1.0" xml:space="preserve">
 <defs class="ClipPathGroup">
  <clipPath id="presentation_clip_path" clipPathUnits="userSpaceOnUse">
   <rect x="0" y="0" width="21000" height="14800"/>
  </clipPath>
  <clipPath id="presentation_clip_path_shrink" clipPathUnits="userSpaceOnUse">
   <rect x="21" y="14" width="20958" height="14771"/>
  </clipPath>
 </defs>
 <defs class="TextShapeIndex">
  <g ooo:slide="id1" ooo:id-list="id3 id4 id5 id6 id7 id8 id9 id10 id11 id12 id13 id14 id15 id16 id17 id18 id19 id20 id21 id22 id23 id24 id25 id26 id27 id28 id29 id30 id31 id32 id33 id34 id35 id36 id37 id38 id39 id40 id41 id42 id43 id44 id45 id46 id47 id48 id49 id50 id51 id52 id53 id54 id55 id56 id57"/>
 </defs>
 <defs class="EmbeddedBulletChars">
  <g id="bullet-char-template-57356" transform="scale(0.00048828125,-0.00048828125)">
   <path d="M 580,1141 L 1163,571 580,0 -4,571 580,1141 Z"/>
  </g>
  <g id="bullet-char-template-57354" transform="scale(0.00048828125,-0.00048828125)">
   <path d="M 8,1128 L 1137,1128 1137,0 8,0 8,1128 Z"/>
  </g>
  <g id="bullet-char-template-10146" transform="scale(0.00048828125,-0.00048828125)">
   <path d="M 174,0 L 602,739 174,1481 1456,739 174,0 Z M 1358,739 L 309,1346 659,739 1358,739 Z"/>
  </g>
  <g id="bullet-char-template-10132" transform="scale(0.00048828125,-0.00048828125)">
   <path d="M 2015,739 L 1276,0 717,0 1260,543 174,543 174,936 1260,936 717,1481 1274,1481 2015,739 Z"/>
  </g>
  <g id="bullet-char-template-10007" transform="scale(0.00048828125,-0.00048828125)">
   <path d="M 0,-2 C -7,14 -16,27 -25,37 L 356,567 C 262,823 215,952 215,954 215,979 228,992 255,992 264,992 276,990 289,987 310,991 331,999 354,1012 L 381,999 492,748 772,1049 836,1024 860,1049 C 881,1039 901,1025 922,1006 886,937 835,863 770,784 769,783 710,716 594,584 L 774,223 C 774,196 753,168 711,139 L 727,119 C 717,90 699,76 672,76 641,76 570,178 457,381 L 164,-76 C 142,-110 111,-127 72,-127 30,-127 9,-110 8,-76 1,-67 -2,-52 -2,-32 -2,-23 -1,-13 0,-2 Z"/>
  </g>
  <g id="bullet-char-template-10004" transform="scale(0.00048828125,-0.00048828125)">
   <path d="M 285,-33 C 182,-33 111,30 74,156 52,228 41,333 41,471 41,549 55,616 82,672 116,743 169,778 240,778 293,778 328,747 346,684 L 369,508 C 377,444 397,411 428,410 L 1163,1116 C 1174,1127 1196,1133 1229,1133 1271,1133 1292,1118 1292,1087 L 1292,965 C 1292,929 1282,901 1262,881 L 442,47 C 390,-6 338,-33 285,-33 Z"/>
  </g>
  <g id="bullet-char-template-9679" transform="scale(0.00048828125,-0.00048828125)">
   <path d="M 813,0 C 632,0 489,54 383,161 276,268 223,411 223,592 223,773 276,916 383,1023 489,1130 632,1184 813,1184 992,1184 1136,1130 1245,1023 1353,916 1407,772 1407,592 1407,412 1353,268 1245,161 1136,54 992,0 813,0 Z"/>
  </g>
  <g id="bullet-char-template-8226" transform="scale(0.00048828125,-0.00048828125)">
   <path d="M 346,457 C 273,457 209,483 155,535 101,586 74,649 74,723 74,796 101,859 155,911 209,963 273,989 346,989 419,989 480,963 531,910 582,859 608,796 608,723 608,648 583,586 532,535 482,483 420,457 346,457 Z"/>
  </g>
  <g id="bullet-char-template-8211" transform="scale(0.00048828125,-0.00048828125)">
   <path d="M -4,459 L 1135,459 1135,606 -4,606 -4,459 Z"/>
  </g>
  <g id="bullet-char-template-61548" transform="scale(0.00048828125,-0.00048828125)">
   <path d="M 173,740 C 173,903 231,1043 346,1159 462,1274 601,1332 765,1332 928,1332 1067,1274 1183,1159 1299,1043 1357,903 1357,740 1357,577 1299,437 1183,322 1067,206 928,148 765,148 601,148 462,206 346,322 231,437 173,577 173,740 Z"/>
  </g>
 </defs>
 <defs class="TextEmbeddedBitmaps"/>
 <g>
  <g id="id2" class="Master_Slide">
   <g id="bg-id2" class="Background"/>
   <g id="bo-id2" class="BackgroundObjects"/>
  </g>
 </g>
 <g class="SlideGroup">
  <g>
   <g id="container-id1">
    <g id="id1" class="Slide" clip-path="url(#presentation_clip_path)">
     <g class="Page">
      <g class="com.sun.star.drawing.PolyPolygonShape">
       <g id="id3">
        <rect class="BoundingBox" stroke="none" fill="none" x="7874" y="4869" width="7214" height="7530"/>
        <path fill="rgb(255,255,255)" stroke="none" d="M 10486,5465 L 9641,6292 9299,6766 8841,7073 8320,7465 7989,7823 7913,8524 8039,8918 8246,9167 8689,9367 9218,9352 9443,9304 10071,9278 11128,9519 11487,9457 11955,9291 12145,9046 11938,9554 11826,9975 11626,10489 11561,10903 11523,11117 11481,11434 11448,11836 11577,12124 11877,12249 12374,12344 13017,12360 13674,12334 14238,12243 14812,12113 15049,9020 14975,7867 14729,6749 14259,5847 13726,5221 13058,4981 12033,4907 11330,4962 10486,5465 Z"/>
        <path fill="none" stroke="rgb(27,25,24)" stroke-width="75" stroke-linejoin="miter" d="M 10486,5465 L 9641,6292 9299,6766 8841,7073 8320,7465 7989,7823 7913,8524 8039,8918 8246,9167 8689,9367 9218,9352 9443,9304 10071,9278 11128,9519 11487,9457 11955,9291 12145,9046 11938,9554 11826,9975 11626,10489 11561,10903 11523,11117 11481,11434 11448,11836 11577,12124 11877,12249 12374,12344 13017,12360 13674,12334 14238,12243 14812,12113 15049,9020 14975,7867 14729,6749 14259,5847 13726,5221 13058,4981 12033,4907 11330,4962 10486,5465 Z"/>
       </g>
      </g>
      <g class="com.sun.star.drawing.ClosedBezierShape">
       <g id="id4">
        <rect class="BoundingBox" stroke="none" fill="none" x="9150" y="4672" width="3579" height="2249"/>
        <path fill="rgb(246,6,213)" stroke="none" d="M 9275,6713 C 10185,5627 10826,6046 11404,5876 11981,5706 12843,4861 12666,4831 L 12186,4751 C 11915,4676 11590,4718 11281,4765 10703,4934 9922,5118 9275,6713 Z"/>
        <path fill="none" stroke="rgb(27,25,24)" stroke-width="75" stroke-linejoin="miter" d="M 9275,6713 C 10185,5627 10826,6046 11404,5876 11981,5706 12843,4861 12666,4831 L 12186,4751 C 11915,4676 11590,4718 11281,4765 10703,4934 9922,5118 9275,6713 Z"/>
       </g>
      </g>
      <g class="Group">
       <g class="com.sun.star.drawing.ClosedBezierShape">
        <g id="id5">
         <rect class="BoundingBox" stroke="none" fill="none" x="9850" y="3204" width="353" height="712"/>
         <path fill="rgb(255,47,0)" stroke="none" d="M 10058,3887 C 10172,3853 10207,3629 10148,3515 L 10060,3394 C 9987,3304 10020,3263 9906,3234 L 9876,3322 C 9871,3387 9911,3535 9931,3597 9962,3695 9977,3837 10058,3887 Z"/>
         <path fill="none" stroke="rgb(0,0,0)" stroke-width="50" stroke-linejoin="miter" d="M 10058,3887 C 10172,3853 10207,3629 10148,3515 L 10060,3394 C 9987,3304 10020,3263 9906,3234 L 9876,3322 C 9871,3387 9911,3535 9931,3597 9962,3695 9977,3837 10058,3887 Z"/>
        </g>
       </g>
       <g class="com.sun.star.drawing.ClosedBezierShape">
        <g id="id6">
         <rect class="BoundingBox" stroke="none" fill="none" x="10063" y="3671" width="424" height="586"/>
         <path fill="rgb(255,153,0)" stroke="none" d="M 10140,4228 C 10342,4236 10460,4233 10461,4014 10462,3936 10441,3875 10414,3825 L 10334,3732 C 10327,3727 10286,3699 10286,3699 10026,3766 10075,4005 10140,4228 Z"/>
         <path fill="none" stroke="rgb(0,0,0)" stroke-width="50" stroke-linejoin="miter" d="M 10140,4228 C 10342,4236 10460,4233 10461,4014 10462,3936 10441,3875 10414,3825 L 10334,3732 C 10327,3727 10286,3699 10286,3699 10026,3766 10075,4005 10140,4228 Z"/>
        </g>
       </g>
       <g class="com.sun.star.drawing.ClosedBezierShape">
        <g id="id7">
         <rect class="BoundingBox" stroke="none" fill="none" x="10176" y="4011" width="506" height="701"/>
         <path fill="rgb(255,255,0)" stroke="none" d="M 10346,4222 C 10304,4265 10241,4273 10218,4305 10198,4336 10197,4444 10209,4468 10259,4486 10219,4556 10257,4685 10348,4693 10400,4589 10483,4575 10522,4536 10544,4495 10580,4446 10620,4392 10640,4363 10656,4276 10655,4236 10641,4206 10632,4170 10549,4109 10582,4077 10519,4042 10462,4091 10450,4166 10372,4213 L 10346,4222 Z"/>
         <path fill="none" stroke="rgb(0,0,0)" stroke-width="50" stroke-linejoin="miter" d="M 10346,4222 C 10304,4265 10241,4273 10218,4305 10198,4336 10197,4444 10209,4468 10259,4486 10219,4556 10257,4685 10348,4693 10400,4589 10483,4575 10522,4536 10544,4495 10580,4446 10620,4392 10640,4363 10656,4276 10655,4236 10641,4206 10632,4170 10549,4109 10582,4077 10519,4042 10462,4091 10450,4166 10372,4213 L 10346,4222 Z"/>
        </g>
       </g>
       <g class="com.sun.star.drawing.ClosedBezierShape">
        <g id="id8">
         <rect class="BoundingBox" stroke="none" fill="none" x="10254" y="4309" width="689" height="836"/>
         <path fill="rgb(72,246,57)" stroke="none" d="M 10496,5117 C 10666,4949 10557,5002 10738,4854 10741,4851 10746,4847 10749,4844 L 10771,4824 C 10844,4750 10883,4655 10904,4545 10921,4459 10924,4487 10895,4427 10882,4402 10882,4407 10863,4378 10860,4373 10846,4359 10845,4350 10845,4341 10839,4339 10836,4335 10740,4339 10823,4335 10761,4345 10741,4348 10774,4336 10726,4351 10668,4370 10649,4410 10608,4452 10430,4629 10281,4658 10279,4943 10278,5110 10327,5094 10496,5117 Z"/>
         <path fill="none" stroke="rgb(0,0,0)" stroke-width="50" stroke-linejoin="miter" d="M 10496,5117 C 10666,4949 10557,5002 10738,4854 10741,4851 10746,4847 10749,4844 L 10771,4824 C 10844,4750 10883,4655 10904,4545 10921,4459 10924,4487 10895,4427 10882,4402 10882,4407 10863,4378 10860,4373 10846,4359 10845,4350 10845,4341 10839,4339 10836,4335 10740,4339 10823,4335 10761,4345 10741,4348 10774,4336 10726,4351 10668,4370 10649,4410 10608,4452 10430,4629 10281,4658 10279,4943 10278,5110 10327,5094 10496,5117 Z"/>
        </g>
       </g>
       <g class="com.sun.star.drawing.ClosedBezierShape">
        <g id="id9">
         <rect class="BoundingBox" stroke="none" fill="none" x="10514" y="4792" width="1224" height="1166"/>
         <path fill="rgb(171,65,127)" stroke="none" d="M 11175,4820 C 11101,5023 11368,4957 10956,5425 10928,5456 10367,6029 10592,5917 L 11701,5370 C 11780,5330 11380,4962 11248,4837 11228,4818 11178,4813 11175,4820 Z"/>
         <path fill="none" stroke="rgb(27,25,24)" stroke-width="50" stroke-linejoin="miter" d="M 11175,4820 C 11101,5023 11368,4957 10956,5425 10928,5456 10367,6029 10592,5917 L 11701,5370 C 11780,5330 11380,4962 11248,4837 11228,4818 11178,4813 11175,4820 Z"/>
        </g>
       </g>
       <g class="com.sun.star.drawing.ClosedBezierShape">
        <g id="id10">
         <rect class="BoundingBox" stroke="none" fill="none" x="10385" y="4524" width="819" height="1295"/>
         <path fill="rgb(106,247,242)" stroke="none" d="M 10887,4617 C 10873,4712 10758,4881 10708,4958 10643,5059 10435,5170 10412,5191 L 10425,5315 C 10484,5421 10520,5720 10567,5791 10642,5785 10810,5580 10864,5514 10917,5449 11050,5365 11129,5176 11164,5093 11182,4930 11176,4821 11148,4777 11142,4792 11113,4734 11086,4680 11097,4672 11060,4635 10988,4598 11024,4579 10951,4554 10917,4595 10941,4583 10887,4617 Z"/>
         <path fill="none" stroke="rgb(0,0,0)" stroke-width="50" stroke-linejoin="miter" d="M 10887,4617 C 10873,4712 10758,4881 10708,4958 10643,5059 10435,5170 10412,5191 L 10425,5315 C 10484,5421 10520,5720 10567,5791 10642,5785 10810,5580 10864,5514 10917,5449 11050,5365 11129,5176 11164,5093 11182,4930 11176,4821 11148,4777 11142,4792 11113,4734 11086,4680 11097,4672 11060,4635 10988,4598 11024,4579 10951,4554 10917,4595 10941,4583 10887,4617 Z"/>
        </g>
       </g>
       <g class="com.sun.star.drawing.PolyPolygonShape">
        <g id="id11">
         <rect class="BoundingBox" stroke="none" fill="none" x="9719" y="2911" width="2049" height="3087"/>
         <path fill="none" stroke="rgb(27,25,24)" stroke-width="75" stroke-linejoin="miter" d="M 9801,3070 L 10583,5942 11708,5379 9801,3070 Z"/>
        </g>
       </g>
      </g>
      <g class="com.sun.star.drawing.PolyPolygonShape">
       <g id="id12">
        <rect class="BoundingBox" stroke="none" fill="none" x="13195" y="4959" width="3356" height="5025"/>
        <path fill="rgb(246,6,213)" stroke="none" d="M 13233,5716 L 13269,5006 13629,5085 13954,5244 14313,5548 14631,5845 14937,6174 15147,6665 15228,7074 15298,7717 15300,8117 15311,8425 15310,8779 15427,9078 15733,9406 16171,9493 16488,9405 16374,9707 16052,9904 15562,9945 15042,9804 14816,9514 14641,9267 14497,9017 14387,8811 13979,7740 13747,6700 13233,5716 Z"/>
        <path fill="none" stroke="rgb(27,25,24)" stroke-width="75" stroke-linejoin="miter" d="M 13233,5716 L 13269,5006 13629,5085 13954,5244 14313,5548 14631,5845 14937,6174 15147,6665 15228,7074 15298,7717 15300,8117 15311,8425 15310,8779 15427,9078 15733,9406 16171,9493 16488,9405 16374,9707 16052,9904 15562,9945 15042,9804 14816,9514 14641,9267 14497,9017 14387,8811 13979,7740 13747,6700 13233,5716 Z"/>
       </g>
      </g>
      <g class="Group">
       <g class="com.sun.star.drawing.ClosedBezierShape">
        <g id="id13">
         <rect class="BoundingBox" stroke="none" fill="none" x="12006" y="4281" width="1356" height="2333"/>
         <path fill="rgb(255,255,255)" stroke="none" d="M 13311,6613 L 12006,5993 12215,5111 12593,4545 C 12717,4457 12839,4369 12961,4281 13026,4384 13099,4491 13143,4618 13184,4732 13233,4866 13271,5006 L 13343,5492 13360,6032 13311,6613 Z"/>
        </g>
       </g>
       <g class="com.sun.star.drawing.OpenBezierShape">
        <g id="id14">
         <rect class="BoundingBox" stroke="none" fill="none" x="11969" y="4227" width="1430" height="2391"/>
         <path fill="none" stroke="rgb(27,25,24)" stroke-width="75" stroke-linejoin="miter" d="M 12006,5993 L 12215,5111 12593,4545 C 12717,4457 12839,4369 12961,4281 13026,4384 13099,4491 13143,4618 13184,4732 13233,4866 13271,5006 L 13343,5492 13360,6032 13311,6613"/>
        </g>
       </g>
       <g class="com.sun.star.drawing.PolyPolygonShape">
        <g id="id15">
         <rect class="BoundingBox" stroke="none" fill="none" x="12318" y="4875" width="694" height="1494"/>
         <path fill="rgb(245,177,181)" stroke="none" d="M 12920,6368 L 12318,6116 12434,5436 12542,5118 12813,4875 12976,5181 13011,5412 13007,5922 12920,6368 Z"/>
        </g>
       </g>
       <g class="com.sun.star.drawing.PolyLineShape">
        <g id="id16">
         <rect class="BoundingBox" stroke="none" fill="none" x="12281" y="4815" width="769" height="1562"/>
         <path fill="none" stroke="rgb(27,25,24)" stroke-width="75" stroke-linejoin="miter" d="M 12318,6116 L 12434,5436 12542,5118 12813,4875 12976,5181 13011,5412 13007,5922 12920,6368"/>
        </g>
       </g>
      </g>
      <g class="com.sun.star.drawing.PolyPolygonShape">
       <g id="id17">
        <rect class="BoundingBox" stroke="none" fill="none" x="7878" y="7063" width="1493" height="2369"/>
        <path fill="rgb(246,6,213)" stroke="none" d="M 8824,7126 L 8448,7375 8137,7670 7948,8006 7916,8395 7987,8751 8165,9085 8447,9288 8822,9392 9326,9324 9292,9130 9275,8924 9256,8598 9164,8336 9022,8072 8903,7745 8886,7451 8824,7126 Z"/>
        <path fill="none" stroke="rgb(27,25,24)" stroke-width="75" stroke-linejoin="miter" d="M 8824,7126 L 8448,7375 8137,7670 7948,8006 7916,8395 7987,8751 8165,9085 8447,9288 8822,9392 9326,9324 9292,9130 9275,8924 9256,8598 9164,8336 9022,8072 8903,7745 8886,7451 8824,7126 Z"/>
       </g>
      </g>
      <g class="com.sun.star.drawing.ClosedBezierShape">
       <g id="id18">
        <rect class="BoundingBox" stroke="none" fill="none" x="8313" y="7862" width="313" height="314"/>
        <path fill="rgb(27,25,24)" stroke="none" d="M 8468,7873 L 8469,7873 C 8496,7873 8519,7879 8542,7893 8565,7906 8582,7923 8595,7946 8609,7969 8615,7992 8615,8019 8615,8046 8609,8069 8595,8092 8582,8115 8565,8132 8542,8145 8519,8159 8496,8165 8469,8165 8442,8165 8419,8159 8396,8145 8373,8132 8356,8115 8343,8092 8329,8069 8323,8046 8323,8019 8323,7992 8329,7969 8343,7946 8356,7923 8373,7906 8396,7893 8419,7879 8441,7873 8468,7873 Z"/>
        <path fill="none" stroke="rgb(27,25,24)" stroke-width="20" stroke-linejoin="miter" d="M 8468,7873 L 8469,7873 C 8496,7873 8519,7879 8542,7893 8565,7906 8582,7923 8595,7946 8609,7969 8615,7992 8615,8019 8615,8046 8609,8069 8595,8092 8582,8115 8565,8132 8542,8145 8519,8159 8496,8165 8469,8165 8442,8165 8419,8159 8396,8145 8373,8132 8356,8115 8343,8092 8329,8069 8323,8046 8323,8019 8323,7992 8329,7969 8343,7946 8356,7923 8373,7906 8396,7893 8419,7879 8441,7873 8468,7873 Z"/>
       </g>
      </g>
      <g class="com.sun.star.drawing.PolyPolygonShape">
       <g id="id19">
        <rect class="BoundingBox" stroke="none" fill="none" x="13989" y="7923" width="2180" height="3439"/>
        <path fill="rgb(246,6,213)" stroke="none" d="M 14116,8099 L 14027,9588 14072,10058 14247,10468 14510,10910 14879,11227 15309,11322 16021,11078 15387,10958 15071,10665 15061,10140 15042,9803 14818,9513 14497,9016 14349,8709 14116,8099 Z"/>
        <path fill="none" stroke="rgb(27,25,24)" stroke-width="75" stroke-linejoin="miter" d="M 14116,8099 L 14027,9588 14072,10058 14247,10468 14510,10910 14879,11227 15309,11322 16021,11078 15387,10958 15071,10665 15061,10140 15042,9803 14818,9513 14497,9016 14349,8709 14116,8099 Z"/>
       </g>
      </g>
      <g class="com.sun.star.drawing.PolyPolygonShape">
       <g id="id20">
        <rect class="BoundingBox" stroke="none" fill="none" x="13811" y="9405" width="2135" height="3370"/>
        <path fill="rgb(246,6,213)" stroke="none" d="M 14004,9412 L 13904,10512 13849,11471 14024,11881 14287,12323 14656,12640 15086,12735 15798,12491 15164,12371 14848,12078 14838,11553 14819,11216 14595,10926 14274,10429 14126,10122 14004,9412 Z"/>
        <path fill="none" stroke="rgb(27,25,24)" stroke-width="75" stroke-linejoin="miter" d="M 14004,9412 L 13904,10512 13849,11471 14024,11881 14287,12323 14656,12640 15086,12735 15798,12491 15164,12371 14848,12078 14838,11553 14819,11216 14595,10926 14274,10429 14126,10122 14004,9412 Z"/>
       </g>
      </g>
      <g class="com.sun.star.drawing.CustomShape">
       <g id="id21">
        <rect class="BoundingBox" stroke="none" fill="none" x="4972" y="3370" width="1704" height="1803"/>
        <path fill="rgb(255,255,0)" stroke="none" d="M 4973,4271 L 5673,4113 5823,3371 5973,4113 6674,4271 5973,4429 5823,5171 5673,4429 4973,4271 4973,4271 Z"/>
        <path fill="none" stroke="rgb(52,101,164)" d="M 4973,4271 L 5673,4113 5823,3371 5973,4113 6674,4271 5973,4429 5823,5171 5673,4429 4973,4271 4973,4271 Z"/>
       </g>
      </g>
      <g class="com.sun.star.drawing.CustomShape">
       <g id="id22">
        <rect class="BoundingBox" stroke="none" fill="none" x="4572" y="6069" width="1364" height="1445"/>
        <path fill="rgb(255,255,107)" stroke="none" d="M 4573,6791 L 5133,6664 5253,6070 5373,6664 5934,6791 5373,6917 5253,7512 5133,6917 4573,6791 4573,6791 Z"/>
        <path fill="none" stroke="rgb(52,101,164)" d="M 4573,6791 L 5133,6664 5253,6070 5373,6664 5934,6791 5373,6917 5253,7512 5133,6917 4573,6791 4573,6791 Z"/>
       </g>
      </g>
      <g class="com.sun.star.drawing.CustomShape">
       <g id="id23">
        <rect class="BoundingBox" stroke="none" fill="none" x="7572" y="2028" width="1364" height="1445"/>
        <path fill="rgb(255,255,107)" stroke="none" d="M 7573,2750 L 8133,2623 8253,2029 8373,2623 8934,2750 8373,2876 8253,3471 8133,2876 7573,2750 7573,2750 Z"/>
        <path fill="none" stroke="rgb(52,101,164)" d="M 7573,2750 L 8133,2623 8253,2029 8373,2623 8934,2750 8373,2876 8253,3471 8133,2876 7573,2750 7573,2750 Z"/>
       </g>
      </g>
      <g class="com.sun.star.drawing.LineShape">
       <g id="id24">
        <rect class="BoundingBox" stroke="none" fill="none" x="9842" y="6531" width="271" height="371"/>
        <path fill="none" stroke="rgb(0,0,0)" stroke-width="70" stroke-linejoin="round" d="M 10077,6866 L 9877,6566"/>
       </g>
      </g>
      <g class="com.sun.star.drawing.LineShape">
       <g id="id25">
        <rect class="BoundingBox" stroke="none" fill="none" x="10442" y="6331" width="71" height="471"/>
        <path fill="none" stroke="rgb(0,0,0)" stroke-width="70" stroke-linejoin="round" d="M 10477,6766 L 10477,6366"/>
       </g>
      </g>
      <g class="com.sun.star.drawing.LineShape">
       <g id="id26">
        <rect class="BoundingBox" stroke="none" fill="none" x="10842" y="6531" width="271" height="371"/>
        <path fill="none" stroke="rgb(0,0,0)" stroke-width="70" stroke-linejoin="round" d="M 10877,6866 L 11077,6566"/>
       </g>
      </g>
      <g class="com.sun.star.drawing.CustomShape">
       <g id="id27">
        <rect class="BoundingBox" stroke="none" fill="none" x="9844" y="6641" width="1251" height="1252"/>
        <path fill="rgb(142,248,245)" stroke="none" d="M 10469,6666 C 10809,6666 11069,6926 11069,7266 11069,7606 10809,7866 10469,7866 10129,7866 9869,7606 9869,7266 9869,6926 10129,6666 10469,6666 Z"/>
        <path fill="none" stroke="rgb(0,0,0)" stroke-width="50" stroke-linejoin="round" d="M 10469,6666 C 10809,6666 11069,6926 11069,7266 11069,7606 10809,7866 10469,7866 10129,7866 9869,7606 9869,7266 9869,6926 10129,6666 10469,6666 Z"/>
       </g>
      </g>
      <g class="Group">
       <g class="com.sun.star.drawing.ClosedBezierShape">
        <g id="id28">
         <rect class="BoundingBox" stroke="none" fill="none" x="9967" y="6756" width="721" height="721"/>
         <path fill="rgb(27,25,24)" stroke="none" d="M 10327,6766 C 10392,6766 10446,6781 10502,6813 10558,6845 10598,6885 10630,6941 10662,6997 10677,7051 10677,7116 10677,7181 10662,7235 10630,7291 10598,7347 10558,7387 10502,7419 10446,7451 10392,7466 10327,7466 10262,7466 10208,7451 10152,7419 10096,7387 10056,7347 10024,7291 9992,7235 9977,7181 9977,7116 9977,7051 9992,6997 10024,6941 10056,6885 10096,6845 10152,6813 10208,6781 10262,6766 10327,6766 Z"/>
         <path fill="none" stroke="rgb(27,25,24)" stroke-width="20" stroke-linejoin="miter" d="M 10327,6766 C 10392,6766 10446,6781 10502,6813 10558,6845 10598,6885 10630,6941 10662,6997 10677,7051 10677,7116 10677,7181 10662,7235 10630,7291 10598,7347 10558,7387 10502,7419 10446,7451 10392,7466 10327,7466 10262,7466 10208,7451 10152,7419 10096,7387 10056,7347 10024,7291 9992,7235 9977,7181 9977,7116 9977,7051 9992,6997 10024,6941 10056,6885 10096,6845 10152,6813 10208,6781 10262,6766 10327,6766 Z"/>
        </g>
       </g>
       <g class="com.sun.star.drawing.ClosedBezierShape">
        <g id="id29">
         <rect class="BoundingBox" stroke="none" fill="none" x="10364" y="6967" width="201" height="201"/>
         <path fill="rgb(255,255,255)" stroke="none" d="M 10464,6977 C 10480,6977 10494,6981 10509,6989 10523,6997 10534,7008 10542,7022 10550,7037 10554,7050 10554,7067 10554,7083 10550,7097 10542,7112 10534,7126 10523,7137 10509,7145 10494,7153 10480,7157 10464,7157 10447,7157 10434,7153 10419,7145 10405,7137 10394,7126 10386,7112 10378,7097 10374,7083 10374,7067 10374,7050 10378,7037 10386,7022 10394,7008 10405,6997 10419,6989 10434,6981 10447,6977 10464,6977 Z"/>
         <path fill="none" stroke="rgb(27,25,24)" stroke-width="20" stroke-linejoin="miter" d="M 10464,6977 C 10480,6977 10494,6981 10509,6989 10523,6997 10534,7008 10542,7022 10550,7037 10554,7050 10554,7067 10554,7083 10550,7097 10542,7112 10534,7126 10523,7137 10509,7145 10494,7153 10480,7157 10464,7157 10447,7157 10434,7153 10419,7145 10405,7137 10394,7126 10386,7112 10378,7097 10374,7083 10374,7067 10374,7050 10378,7037 10386,7022 10394,7008 10405,6997 10419,6989 10434,6981 10447,6977 10464,6977 Z"/>
        </g>
       </g>
       <g class="com.sun.star.drawing.ClosedBezierShape">
        <g id="id30">
         <rect class="BoundingBox" stroke="none" fill="none" x="10098" y="6879" width="201" height="201"/>
         <path fill="rgb(255,255,255)" stroke="none" d="M 10198,6889 C 10214,6889 10228,6893 10243,6901 10257,6909 10268,6920 10276,6934 10284,6949 10288,6962 10288,6979 10288,6995 10284,7009 10276,7024 10268,7038 10257,7049 10243,7057 10228,7065 10214,7069 10198,7069 10181,7069 10168,7065 10153,7057 10139,7049 10128,7038 10120,7024 10112,7009 10108,6995 10108,6979 10108,6962 10112,6949 10120,6934 10128,6920 10139,6909 10153,6901 10168,6893 10181,6889 10198,6889 Z"/>
         <path fill="none" stroke="rgb(27,25,24)" stroke-width="20" stroke-linejoin="miter" d="M 10198,6889 C 10214,6889 10228,6893 10243,6901 10257,6909 10268,6920 10276,6934 10284,6949 10288,6962 10288,6979 10288,6995 10284,7009 10276,7024 10268,7038 10257,7049 10243,7057 10228,7065 10214,7069 10198,7069 10181,7069 10168,7065 10153,7057 10139,7049 10128,7038 10120,7024 10112,7009 10108,6995 10108,6979 10108,6962 10112,6949 10120,6934 10128,6920 10139,6909 10153,6901 10168,6893 10181,6889 10198,6889 Z"/>
        </g>
       </g>
      </g>
      <g class="com.sun.star.drawing.LineShape">
       <g id="id31">
        <rect class="BoundingBox" stroke="none" fill="none" x="9842" y="6531" width="271" height="371"/>
        <path fill="none" stroke="rgb(0,0,0)" stroke-width="70" stroke-linejoin="round" d="M 10077,6866 L 9877,6566"/>
       </g>
      </g>
      <g class="com.sun.star.drawing.LineShape">
       <g id="id32">
        <rect class="BoundingBox" stroke="none" fill="none" x="10442" y="6331" width="71" height="471"/>
        <path fill="none" stroke="rgb(0,0,0)" stroke-width="70" stroke-linejoin="round" d="M 10477,6766 L 10477,6366"/>
       </g>
      </g>
      <g class="com.sun.star.drawing.LineShape">
       <g id="id33">
        <rect class="BoundingBox" stroke="none" fill="none" x="10842" y="6531" width="271" height="371"/>
        <path fill="none" stroke="rgb(0,0,0)" stroke-width="70" stroke-linejoin="round" d="M 10877,6866 L 11077,6566"/>
       </g>
      </g>
      <g class="com.sun.star.drawing.CustomShape">
       <g id="id34">
        <rect class="BoundingBox" stroke="none" fill="none" x="9844" y="6641" width="1251" height="1252"/>
        <path fill="rgb(142,248,245)" stroke="none" d="M 10469,6666 C 10809,6666 11069,6926 11069,7266 11069,7606 10809,7866 10469,7866 10129,7866 9869,7606 9869,7266 9869,6926 10129,6666 10469,6666 Z"/>
        <path fill="none" stroke="rgb(0,0,0)" stroke-width="50" stroke-linejoin="round" d="M 10469,6666 C 10809,6666 11069,6926 11069,7266 11069,7606 10809,7866 10469,7866 10129,7866 9869,7606 9869,7266 9869,6926 10129,6666 10469,6666 Z"/>
       </g>
      </g>
      <g class="Group">
       <g class="com.sun.star.drawing.ClosedBezierShape">
        <g id="id35">
         <rect class="BoundingBox" stroke="none" fill="none" x="10067" y="6756" width="721" height="721"/>
         <path fill="rgb(27,25,24)" stroke="none" d="M 10427,6766 C 10492,6766 10546,6781 10602,6813 10658,6845 10698,6885 10730,6941 10762,6997 10777,7051 10777,7116 10777,7181 10762,7235 10730,7291 10698,7347 10658,7387 10602,7419 10546,7451 10492,7466 10427,7466 10362,7466 10308,7451 10252,7419 10196,7387 10156,7347 10124,7291 10092,7235 10077,7181 10077,7116 10077,7051 10092,6997 10124,6941 10156,6885 10196,6845 10252,6813 10308,6781 10362,6766 10427,6766 Z"/>
         <path fill="none" stroke="rgb(27,25,24)" stroke-width="20" stroke-linejoin="miter" d="M 10427,6766 C 10492,6766 10546,6781 10602,6813 10658,6845 10698,6885 10730,6941 10762,6997 10777,7051 10777,7116 10777,7181 10762,7235 10730,7291 10698,7347 10658,7387 10602,7419 10546,7451 10492,7466 10427,7466 10362,7466 10308,7451 10252,7419 10196,7387 10156,7347 10124,7291 10092,7235 10077,7181 10077,7116 10077,7051 10092,6997 10124,6941 10156,6885 10196,6845 10252,6813 10308,6781 10362,6766 10427,6766 Z"/>
        </g>
       </g>
       <g class="com.sun.star.drawing.ClosedBezierShape">
        <g id="id36">
         <rect class="BoundingBox" stroke="none" fill="none" x="10464" y="6967" width="201" height="201"/>
         <path fill="rgb(255,255,255)" stroke="none" d="M 10564,6977 C 10580,6977 10594,6981 10609,6989 10623,6997 10634,7008 10642,7022 10650,7037 10654,7050 10654,7067 10654,7083 10650,7097 10642,7112 10634,7126 10623,7137 10609,7145 10594,7153 10580,7157 10564,7157 10547,7157 10534,7153 10519,7145 10505,7137 10494,7126 10486,7112 10478,7097 10474,7083 10474,7067 10474,7050 10478,7037 10486,7022 10494,7008 10505,6997 10519,6989 10534,6981 10547,6977 10564,6977 Z"/>
         <path fill="none" stroke="rgb(27,25,24)" stroke-width="20" stroke-linejoin="miter" d="M 10564,6977 C 10580,6977 10594,6981 10609,6989 10623,6997 10634,7008 10642,7022 10650,7037 10654,7050 10654,7067 10654,7083 10650,7097 10642,7112 10634,7126 10623,7137 10609,7145 10594,7153 10580,7157 10564,7157 10547,7157 10534,7153 10519,7145 10505,7137 10494,7126 10486,7112 10478,7097 10474,7083 10474,7067 10474,7050 10478,7037 10486,7022 10494,7008 10505,6997 10519,6989 10534,6981 10547,6977 10564,6977 Z"/>
        </g>
       </g>
       <g class="com.sun.star.drawing.ClosedBezierShape">
        <g id="id37">
         <rect class="BoundingBox" stroke="none" fill="none" x="10198" y="6879" width="202" height="201"/>
         <path fill="rgb(255,255,255)" stroke="none" d="M 10298,6889 C 10314,6889 10328,6893 10343,6901 10357,6909 10368,6920 10376,6934 10384,6949 10388,6962 10388,6979 10388,6995 10384,7009 10376,7024 10368,7038 10357,7049 10343,7057 10328,7065 10314,7069 10298,7069 10281,7069 10268,7065 10253,7057 10239,7049 10228,7038 10220,7024 10212,7009 10208,6995 10208,6979 10208,6962 10212,6949 10220,6934 10228,6920 10239,6909 10253,6901 10268,6893 10281,6889 10298,6889 Z"/>
         <path fill="none" stroke="rgb(27,25,24)" stroke-width="20" stroke-linejoin="miter" d="M 10298,6889 C 10314,6889 10328,6893 10343,6901 10357,6909 10368,6920 10376,6934 10384,6949 10388,6962 10388,6979 10388,6995 10384,7009 10376,7024 10368,7038 10357,7049 10343,7057 10328,7065 10314,7069 10298,7069 10281,7069 10268,7065 10253,7057 10239,7049 10228,7038 10220,7024 10212,7009 10208,6995 10208,6979 10208,6962 10212,6949 10220,6934 10228,6920 10239,6909 10253,6901 10268,6893 10281,6889 10298,6889 Z"/>
        </g>
       </g>
      </g>
      <g class="com.sun.star.drawing.LineShape">
       <g id="id38">
        <rect class="BoundingBox" stroke="none" fill="none" x="9846" y="6527" width="271" height="371"/>
        <path fill="none" stroke="rgb(0,0,0)" stroke-width="70" stroke-linejoin="round" d="M 10081,6862 L 9881,6562"/>
       </g>
      </g>
      <g class="com.sun.star.drawing.LineShape">
       <g id="id39">
        <rect class="BoundingBox" stroke="none" fill="none" x="10446" y="6327" width="71" height="471"/>
        <path fill="none" stroke="rgb(0,0,0)" stroke-width="70" stroke-linejoin="round" d="M 10481,6762 L 10481,6362"/>
       </g>
      </g>
      <g class="com.sun.star.drawing.LineShape">
       <g id="id40">
        <rect class="BoundingBox" stroke="none" fill="none" x="10846" y="6527" width="271" height="371"/>
        <path fill="none" stroke="rgb(0,0,0)" stroke-width="70" stroke-linejoin="round" d="M 10881,6862 L 11081,6562"/>
       </g>
      </g>
      <g class="com.sun.star.drawing.CustomShape">
       <g id="id41">
        <rect class="BoundingBox" stroke="none" fill="none" x="9848" y="6637" width="1252" height="1251"/>
        <path fill="rgb(142,248,245)" stroke="none" d="M 10473,6662 C 10813,6662 11073,6922 11073,7262 11073,7602 10813,7862 10473,7862 10133,7862 9873,7602 9873,7262 9873,6922 10133,6662 10473,6662 Z"/>
        <path fill="none" stroke="rgb(0,0,0)" stroke-width="50" stroke-linejoin="round" d="M 10473,6662 C 10813,6662 11073,6922 11073,7262 11073,7602 10813,7862 10473,7862 10133,7862 9873,7602 9873,7262 9873,6922 10133,6662 10473,6662 Z"/>
       </g>
      </g>
      <g class="Group">
       <g class="com.sun.star.drawing.ClosedBezierShape">
        <g id="id42">
         <rect class="BoundingBox" stroke="none" fill="none" x="10171" y="6752" width="721" height="721"/>
         <path fill="rgb(27,25,24)" stroke="none" d="M 10531,6762 C 10596,6762 10650,6777 10706,6809 10762,6841 10802,6881 10834,6937 10866,6993 10881,7047 10881,7112 10881,7177 10866,7231 10834,7287 10802,7343 10762,7383 10706,7415 10650,7447 10596,7462 10531,7462 10466,7462 10412,7447 10356,7415 10300,7383 10260,7343 10228,7287 10196,7231 10181,7177 10181,7112 10181,7047 10196,6993 10228,6937 10260,6881 10300,6841 10356,6809 10412,6777 10466,6762 10531,6762 Z"/>
         <path fill="none" stroke="rgb(27,25,24)" stroke-width="20" stroke-linejoin="miter" d="M 10531,6762 C 10596,6762 10650,6777 10706,6809 10762,6841 10802,6881 10834,6937 10866,6993 10881,7047 10881,7112 10881,7177 10866,7231 10834,7287 10802,7343 10762,7383 10706,7415 10650,7447 10596,7462 10531,7462 10466,7462 10412,7447 10356,7415 10300,7383 10260,7343 10228,7287 10196,7231 10181,7177 10181,7112 10181,7047 10196,6993 10228,6937 10260,6881 10300,6841 10356,6809 10412,6777 10466,6762 10531,6762 Z"/>
        </g>
       </g>
       <g class="com.sun.star.drawing.ClosedBezierShape">
        <g id="id43">
         <rect class="BoundingBox" stroke="none" fill="none" x="10568" y="6963" width="201" height="201"/>
         <path fill="rgb(255,255,255)" stroke="none" d="M 10668,6973 C 10684,6973 10698,6977 10713,6985 10727,6993 10738,7004 10746,7018 10754,7033 10758,7046 10758,7063 10758,7079 10754,7093 10746,7108 10738,7122 10727,7133 10713,7141 10698,7149 10684,7153 10668,7153 10651,7153 10638,7149 10623,7141 10609,7133 10598,7122 10590,7108 10582,7093 10578,7079 10578,7063 10578,7046 10582,7033 10590,7018 10598,7004 10609,6993 10623,6985 10638,6977 10651,6973 10668,6973 Z"/>
         <path fill="none" stroke="rgb(27,25,24)" stroke-width="20" stroke-linejoin="miter" d="M 10668,6973 C 10684,6973 10698,6977 10713,6985 10727,6993 10738,7004 10746,7018 10754,7033 10758,7046 10758,7063 10758,7079 10754,7093 10746,7108 10738,7122 10727,7133 10713,7141 10698,7149 10684,7153 10668,7153 10651,7153 10638,7149 10623,7141 10609,7133 10598,7122 10590,7108 10582,7093 10578,7079 10578,7063 10578,7046 10582,7033 10590,7018 10598,7004 10609,6993 10623,6985 10638,6977 10651,6973 10668,6973 Z"/>
        </g>
       </g>
       <g class="com.sun.star.drawing.ClosedBezierShape">
        <g id="id44">
         <rect class="BoundingBox" stroke="none" fill="none" x="10302" y="6875" width="201" height="201"/>
         <path fill="rgb(255,255,255)" stroke="none" d="M 10402,6885 C 10418,6885 10432,6889 10447,6897 10461,6905 10472,6916 10480,6930 10488,6945 10492,6958 10492,6975 10492,6991 10488,7005 10480,7020 10472,7034 10461,7045 10447,7053 10432,7061 10418,7065 10402,7065 10385,7065 10372,7061 10357,7053 10343,7045 10332,7034 10324,7020 10316,7005 10312,6991 10312,6975 10312,6958 10316,6945 10324,6930 10332,6916 10343,6905 10357,6897 10372,6889 10385,6885 10402,6885 Z"/>
         <path fill="none" stroke="rgb(27,25,24)" stroke-width="20" stroke-linejoin="miter" d="M 10402,6885 C 10418,6885 10432,6889 10447,6897 10461,6905 10472,6916 10480,6930 10488,6945 10492,6958 10492,6975 10492,6991 10488,7005 10480,7020 10472,7034 10461,7045 10447,7053 10432,7061 10418,7065 10402,7065 10385,7065 10372,7061 10357,7053 10343,7045 10332,7034 10324,7020 10316,7005 10312,6991 10312,6975 10312,6958 10316,6945 10324,6930 10332,6916 10343,6905 10357,6897 10372,6889 10385,6885 10402,6885 Z"/>
        </g>
       </g>
      </g>
      <g class="com.sun.star.drawing.LineShape">
       <g id="id45">
        <rect class="BoundingBox" stroke="none" fill="none" x="9850" y="6522" width="271" height="371"/>
        <path fill="none" stroke="rgb(0,0,0)" stroke-width="70" stroke-linejoin="round" d="M 10085,6857 L 9885,6557"/>
       </g>
      </g>
      <g class="com.sun.star.drawing.LineShape">
       <g id="id46">
        <rect class="BoundingBox" stroke="none" fill="none" x="10450" y="6322" width="71" height="471"/>
        <path fill="none" stroke="rgb(0,0,0)" stroke-width="70" stroke-linejoin="round" d="M 10485,6757 L 10485,6357"/>
       </g>
      </g>
      <g class="com.sun.star.drawing.LineShape">
       <g id="id47">
        <rect class="BoundingBox" stroke="none" fill="none" x="10850" y="6522" width="271" height="371"/>
        <path fill="none" stroke="rgb(0,0,0)" stroke-width="70" stroke-linejoin="round" d="M 10885,6857 L 11085,6557"/>
       </g>
      </g>
      <g class="com.sun.star.drawing.CustomShape">
       <g id="id48">
        <rect class="BoundingBox" stroke="none" fill="none" x="9852" y="6632" width="1252" height="1251"/>
        <path fill="rgb(142,248,245)" stroke="none" d="M 10477,6657 C 10817,6657 11077,6917 11077,7257 11077,7597 10817,7857 10477,7857 10137,7857 9877,7597 9877,7257 9877,6917 10137,6657 10477,6657 Z"/>
        <path fill="none" stroke="rgb(0,0,0)" stroke-width="50" stroke-linejoin="round" d="M 10477,6657 C 10817,6657 11077,6917 11077,7257 11077,7597 10817,7857 10477,7857 10137,7857 9877,7597 9877,7257 9877,6917 10137,6657 10477,6657 Z"/>
       </g>
      </g>
      <g class="Group">
       <g class="com.sun.star.drawing.ClosedBezierShape">
        <g id="id49">
         <rect class="BoundingBox" stroke="none" fill="none" x="10275" y="6747" width="721" height="721"/>
         <path fill="rgb(27,25,24)" stroke="none" d="M 10635,6757 C 10700,6757 10754,6772 10810,6804 10866,6836 10906,6876 10938,6932 10970,6988 10985,7042 10985,7107 10985,7172 10970,7226 10938,7282 10906,7338 10866,7378 10810,7410 10754,7442 10700,7457 10635,7457 10570,7457 10516,7442 10460,7410 10404,7378 10364,7338 10332,7282 10300,7226 10285,7172 10285,7107 10285,7042 10300,6988 10332,6932 10364,6876 10404,6836 10460,6804 10516,6772 10570,6757 10635,6757 Z"/>
         <path fill="none" stroke="rgb(27,25,24)" stroke-width="20" stroke-linejoin="miter" d="M 10635,6757 C 10700,6757 10754,6772 10810,6804 10866,6836 10906,6876 10938,6932 10970,6988 10985,7042 10985,7107 10985,7172 10970,7226 10938,7282 10906,7338 10866,7378 10810,7410 10754,7442 10700,7457 10635,7457 10570,7457 10516,7442 10460,7410 10404,7378 10364,7338 10332,7282 10300,7226 10285,7172 10285,7107 10285,7042 10300,6988 10332,6932 10364,6876 10404,6836 10460,6804 10516,6772 10570,6757 10635,6757 Z"/>
        </g>
       </g>
       <g class="com.sun.star.drawing.ClosedBezierShape">
        <g id="id50">
         <rect class="BoundingBox" stroke="none" fill="none" x="10672" y="6958" width="202" height="202"/>
         <path fill="rgb(255,255,255)" stroke="none" d="M 10772,6968 C 10788,6968 10802,6972 10817,6980 10831,6988 10842,6999 10850,7013 10858,7028 10862,7041 10862,7058 10862,7074 10858,7088 10850,7103 10842,7117 10831,7128 10817,7136 10802,7144 10788,7148 10772,7148 10755,7148 10742,7144 10727,7136 10713,7128 10702,7117 10694,7103 10686,7088 10682,7074 10682,7058 10682,7041 10686,7028 10694,7013 10702,6999 10713,6988 10727,6980 10742,6972 10755,6968 10772,6968 Z"/>
         <path fill="none" stroke="rgb(27,25,24)" stroke-width="20" stroke-linejoin="miter" d="M 10772,6968 C 10788,6968 10802,6972 10817,6980 10831,6988 10842,6999 10850,7013 10858,7028 10862,7041 10862,7058 10862,7074 10858,7088 10850,7103 10842,7117 10831,7128 10817,7136 10802,7144 10788,7148 10772,7148 10755,7148 10742,7144 10727,7136 10713,7128 10702,7117 10694,7103 10686,7088 10682,7074 10682,7058 10682,7041 10686,7028 10694,7013 10702,6999 10713,6988 10727,6980 10742,6972 10755,6968 10772,6968 Z"/>
        </g>
       </g>
       <g class="com.sun.star.drawing.ClosedBezierShape">
        <g id="id51">
         <rect class="BoundingBox" stroke="none" fill="none" x="10406" y="6870" width="201" height="201"/>
         <path fill="rgb(255,255,255)" stroke="none" d="M 10506,6880 C 10522,6880 10536,6884 10551,6892 10565,6900 10576,6911 10584,6925 10592,6940 10596,6953 10596,6970 10596,6986 10592,7000 10584,7015 10576,7029 10565,7040 10551,7048 10536,7056 10522,7060 10506,7060 10489,7060 10476,7056 10461,7048 10447,7040 10436,7029 10428,7015 10420,7000 10416,6986 10416,6970 10416,6953 10420,6940 10428,6925 10436,6911 10447,6900 10461,6892 10476,6884 10489,6880 10506,6880 Z"/>
         <path fill="none" stroke="rgb(27,25,24)" stroke-width="20" stroke-linejoin="miter" d="M 10506,6880 C 10522,6880 10536,6884 10551,6892 10565,6900 10576,6911 10584,6925 10592,6940 10596,6953 10596,6970 10596,6986 10592,7000 10584,7015 10576,7029 10565,7040 10551,7048 10536,7056 10522,7060 10506,7060 10489,7060 10476,7056 10461,7048 10447,7040 10436,7029 10428,7015 10420,7000 10416,6986 10416,6970 10416,6953 10420,6940 10428,6925 10436,6911 10447,6900 10461,6892 10476,6884 10489,6880 10506,6880 Z"/>
        </g>
       </g>
      </g>
      <g class="com.sun.star.drawing.OpenBezierShape">
       <g id="id52">
        <rect class="BoundingBox" stroke="none" fill="none" x="8265" y="8964" width="1072" height="273"/>
        <path fill="none" stroke="rgb(0,0,0)" stroke-width="70" stroke-linejoin="round" d="M 8300,9200 C 8667,9167 9100,9200 9300,9000"/>
       </g>
      </g>
      <g class="com.sun.star.drawing.LineShape">
       <g id="id53">
        <rect class="BoundingBox" stroke="none" fill="none" x="9842" y="7665" width="294" height="337"/>
        <path fill="none" stroke="rgb(0,0,0)" stroke-width="70" stroke-linejoin="round" d="M 10100,7700 L 9877,7966"/>
       </g>
      </g>
      <g class="com.sun.star.drawing.LineShape">
       <g id="id54">
        <rect class="BoundingBox" stroke="none" fill="none" x="10442" y="7831" width="71" height="471"/>
        <path fill="none" stroke="rgb(0,0,0)" stroke-width="70" stroke-linejoin="round" d="M 10477,8266 L 10477,7866"/>
       </g>
      </g>
      <g class="com.sun.star.drawing.LineShape">
       <g id="id55">
        <rect class="BoundingBox" stroke="none" fill="none" x="10865" y="7665" width="248" height="337"/>
        <path fill="none" stroke="rgb(0,0,0)" stroke-width="70" stroke-linejoin="round" d="M 10900,7700 L 11077,7966"/>
       </g>
      </g>
      <g class="com.sun.star.drawing.EllipseShape">
       <g id="id56">
        <rect class="BoundingBox" stroke="none" fill="none" x="9865" y="7257" width="1271" height="679"/>
        <path fill="none" stroke="rgb(0,0,0)" stroke-width="70" stroke-linejoin="round" d="M 11100,7292 C 11100,7295 11100,7297 11100,7300 11100,7410 11075,7504 11020,7600 10964,7696 10896,7764 10800,7820 10704,7875 10610,7900 10500,7900 10390,7900 10296,7875 10200,7820 10104,7764 10036,7696 9980,7600 9926,7506 9901,7415 9900,7307"/>
       </g>
      </g>
      <g class="com.sun.star.drawing.CustomShape">
       <g id="id57">
        <rect class="BoundingBox" stroke="none" fill="none" x="9875" y="7270" width="1251" height="656"/>
        <path fill="rgb(142,248,245)" stroke="none" d="M 11100,7300 L 11099,7330 11097,7360 11093,7390 11088,7419 11081,7448 11073,7477 11064,7506 11053,7534 11040,7561 11027,7588 11012,7614 10995,7639 10978,7663 10959,7687 10939,7709 10918,7730 10896,7751 10873,7770 10849,7788 10824,7805 10799,7820 10772,7835 10745,7848 10717,7859 10689,7869 10661,7878 10631,7885 10602,7891 10572,7896 10542,7898 10512,7900 10483,7900 10453,7898 10423,7895 10393,7890 10364,7884 10335,7877 10306,7868 10278,7857 10250,7846 10223,7832 10197,7818 10172,7802 10147,7785 10123,7767 10100,7747 10078,7727 10058,7705 10038,7683 10019,7659 10002,7635 9986,7609 9971,7583 9958,7556 9945,7529 9935,7501 9925,7473 9917,7444 9911,7414 9906,7385 9903,7355 9901,7325 9900,7295 10500,7300 11100,7300 Z"/>
        <path fill="none" stroke="rgb(0,0,0)" stroke-width="50" stroke-linejoin="round" d="M 11100,7300 L 11099,7330 11097,7360 11093,7390 11088,7419 11081,7448 11073,7477 11064,7506 11053,7534 11040,7561 11027,7588 11012,7614 10995,7639 10978,7663 10959,7687 10939,7709 10918,7730 10896,7751 10873,7770 10849,7788 10824,7805 10799,7820 10772,7835 10745,7848 10717,7859 10689,7869 10661,7878 10631,7885 10602,7891 10572,7896 10542,7898 10512,7900 10483,7900 10453,7898 10423,7895 10393,7890 10364,7884 10335,7877 10306,7868 10278,7857 10250,7846 10223,7832 10197,7818 10172,7802 10147,7785 10123,7767 10100,7747 10078,7727 10058,7705 10038,7683 10019,7659 10002,7635 9986,7609 9971,7583 9958,7556 9945,7529 9935,7501 9925,7473 9917,7444 9911,7414 9906,7385 9903,7355 9901,7325 9900,7295 10500,7300 11100,7300 Z"/>
       </g>
      </g>
     </g>
    </g>
   </g>
  </g>
 </g>
</svg>