<?xml version="1.0" encoding="UTF-8"?>
<!DOCTYPE svg PUBLIC "-//W3C//DTD SVG 1.1//EN" "http://www.w3.org/Graphics/SVG/1.1/DTD/svg11.dtd">
<svg version="1.2" width="210.26mm" height="148.26mm" viewBox="0 0 21026 14826" preserveAspectRatio="xMidYMid" fill-rule="evenodd" stroke-width="28.222" stroke-linejoin="round" xmlns="http://www.w3.org/2000/svg" xmlns:ooo="http://xml.openoffice.org/svg/export" xmlns:xlink="http://www.w3.org/1999/xlink" xmlns:presentation="http://sun.com/xmlns/staroffice/presentation" xmlns:smil="http://www.w3.org/2001/SMIL20/" xmlns:anim="urn:oasis:names:tc:opendocument:xmlns:animation:1.0" xml:space="preserve">
 <defs class="ClipPathGroup">
  <clipPath id="presentation_clip_path" clipPathUnits="userSpaceOnUse">
   <rect x="0" y="0" width="21026" height="14826"/>
  </clipPath>
  <clipPath id="presentation_clip_path_shrink" clipPathUnits="userSpaceOnUse">
   <rect x="21" y="14" width="20984" height="14797"/>
  </clipPath>
 </defs>
 <defs class="TextShapeIndex">
  <g ooo:slide="id1" ooo:id-list="id3 id4 id5 id6 id7 id8 id9 id10"/>
 </defs>
 <defs class="EmbeddedBulletChars">
  <g id="bullet-char-template-57356" transform="scale(0.00048828125,-0.00048828125)">
   <path d="M 580,1141 L 1163,571 580,0 -4,571 580,1141 Z"/>
  </g>
  <g id="bullet-char-template-57354" transform="scale(0.00048828125,-0.00048828125)">
   <path d="M 8,1128 L 1137,1128 1137,0 8,0 8,1128 Z"/>
  </g>
  <g id="bullet-char-template-10146" transform="scale(0.00048828125,-0.00048828125)">
   <path d="M 174,0 L 602,739 174,1481 1456,739 174,0 Z M 1358,739 L 309,1346 659,739 1358,739 Z"/>
  </g>
  <g id="bullet-char-template-10132" transform="scale(0.00048828125,-0.00048828125)">
   <path d="M 2015,739 L 1276,0 717,0 1260,543 174,543 174,936 1260,936 717,1481 1274,1481 2015,739 Z"/>
  </g>
  <g id="bullet-char-template-10007" transform="scale(0.00048828125,-0.00048828125)">
   <path d="M 0,-2 C -7,14 -16,27 -25,37 L 356,567 C 262,823 215,952 215,954 215,979 228,992 255,992 264,992 276,990 289,987 310,991 331,999 354,1012 L 381,999 492,748 772,1049 836,1024 860,1049 C 881,1039 901,1025 922,1006 886,937 835,863 770,784 769,783 710,716 594,584 L 774,223 C 774,196 753,168 711,139 L 727,119 C 717,90 699,76 672,76 641,76 570,178 457,381 L 164,-76 C 142,-110 111,-127 72,-127 30,-127 9,-110 8,-76 1,-67 -2,-52 -2,-32 -2,-23 -1,-13 0,-2 Z"/>
  </g>
  <g id="bullet-char-template-10004" transform="scale(0.00048828125,-0.00048828125)">
   <path d="M 285,-33 C 182,-33 111,30 74,156 52,228 41,333 41,471 41,549 55,616 82,672 116,743 169,778 240,778 293,778 328,747 346,684 L 369,508 C 377,444 397,411 428,410 L 1163,1116 C 1174,1127 1196,1133 1229,1133 1271,1133 1292,1118 1292,1087 L 1292,965 C 1292,929 1282,901 1262,881 L 442,47 C 390,-6 338,-33 285,-33 Z"/>
  </g>
  <g id="bullet-char-template-9679" transform="scale(0.00048828125,-0.00048828125)">
   <path d="M 813,0 C 632,0 489,54 383,161 276,268 223,411 223,592 223,773 276,916 383,1023 489,1130 632,1184 813,1184 992,1184 1136,1130 1245,1023 1353,916 1407,772 1407,592 1407,412 1353,268 1245,161 1136,54 992,0 813,0 Z"/>
  </g>
  <g id="bullet-char-template-8226" transform="scale(0.00048828125,-0.00048828125)">
   <path d="M 346,457 C 273,457 209,483 155,535 101,586 74,649 74,723 74,796 101,859 155,911 209,963 273,989 346,989 419,989 480,963 531,910 582,859 608,796 608,723 608,648 583,586 532,535 482,483 420,457 346,457 Z"/>
  </g>
  <g id="bullet-char-template-8211" transform="scale(0.00048828125,-0.00048828125)">
   <path d="M -4,459 L 1135,459 1135,606 -4,606 -4,459 Z"/>
  </g>
  <g id="bullet-char-template-61548" transform="scale(0.00048828125,-0.00048828125)">
   <path d="M 173,740 C 173,903 231,1043 346,1159 462,1274 601,1332 765,1332 928,1332 1067,1274 1183,1159 1299,1043 1357,903 1357,740 1357,577 1299,437 1183,322 1067,206 928,148 765,148 601,148 462,206 346,322 231,437 173,577 173,740 Z"/>
  </g>
 </defs>
 <defs class="TextEmbeddedBitmaps"/>
 <g>
  <g id="id2" class="Master_Slide">
   <g id="bg-id2" class="Background"/>
   <g id="bo-id2" class="BackgroundObjects"/>
  </g>
 </g>
 <g class="SlideGroup">
  <g>
   <g id="container-id1">
    <g id="id1" class="Slide" clip-path="url(#presentation_clip_path)">
     <g class="Page">
      <g class="Graphic">
       <g id="id3">
        <rect class="BoundingBox" stroke="none" fill="none" x="0" y="0" width="21026" height="14826"/>
        <path fill="none" stroke="rgb(27,25,24)" stroke-width="75" stroke-linejoin="miter" d="M 8695,4266 L 7850,5093 7508,5567 7050,5874 6529,6266 6198,6624 6122,7325 6248,7718 6455,7967 6898,8167 7427,8152 7652,8104 8280,8078 9337,8319 9696,8257 10164,8091 10354,7846 10147,8354 10035,8775 9835,9289 9770,9703 9732,9917 9690,10234 9657,10636 9786,10924 10086,11049 10582,11144 11225,11160 11882,11134 12446,11043 13020,10913 13257,7820 13183,6668 12937,5550 12467,4648 11934,4022 11266,3782 10242,3708 9539,3763 8695,4266 8695,4266 Z"/>
        <path fill="rgb(246,6,213)" stroke="none" d="M 7484,5514 C 8394,4428 9035,4847 9613,4677 10190,4507 11051,3662 10874,3632 L 10395,3552 C 10124,3477 9799,3519 9490,3566 8912,3735 8131,3919 7484,5514 L 7484,5514 Z"/>
        <path fill="none" stroke="rgb(27,25,24)" stroke-width="75" stroke-linejoin="miter" d="M 7484,5514 C 8394,4428 9035,4847 9613,4677 10190,4507 11051,3662 10874,3632 L 10395,3552 C 10124,3477 9799,3519 9490,3566 8912,3735 8131,3919 7484,5514 L 7484,5514 Z"/>
        <path fill="rgb(255,47,0)" stroke="none" d="M 8267,2688 C 8381,2654 8416,2430 8357,2316 L 8269,2195 C 8196,2105 8229,2064 8115,2035 L 8085,2123 C 8080,2188 8120,2336 8140,2398 8171,2496 8186,2638 8267,2688 L 8267,2688 Z"/>
        <path fill="none" stroke="rgb(0,0,0)" stroke-width="50" stroke-linejoin="miter" d="M 8267,2688 C 8381,2654 8416,2430 8357,2316 L 8269,2195 C 8196,2105 8229,2064 8115,2035 L 8085,2123 C 8080,2188 8120,2336 8140,2398 8171,2496 8186,2638 8267,2688 L 8267,2688 Z"/>
        <path fill="rgb(255,153,0)" stroke="none" d="M 8349,3029 C 8551,3037 8669,3034 8670,2815 8671,2737 8650,2676 8623,2626 L 8543,2533 C 8536,2528 8495,2500 8495,2500 8235,2567 8284,2806 8349,3029 L 8349,3029 Z"/>
        <path fill="none" stroke="rgb(0,0,0)" stroke-width="50" stroke-linejoin="miter" d="M 8349,3029 C 8551,3037 8669,3034 8670,2815 8671,2737 8650,2676 8623,2626 L 8543,2533 C 8536,2528 8495,2500 8495,2500 8235,2567 8284,2806 8349,3029 L 8349,3029 Z"/>
        <path fill="rgb(255,255,0)" stroke="none" d="M 8555,3023 C 8513,3066 8450,3074 8427,3106 8407,3137 8406,3245 8418,3269 8468,3287 8428,3357 8466,3486 8557,3494 8609,3390 8692,3376 8731,3337 8753,3296 8789,3247 8829,3193 8849,3164 8865,3077 8864,3037 8850,3007 8841,2971 8758,2910 8791,2878 8728,2843 8671,2892 8659,2967 8581,3014 L 8555,3023 8555,3023 Z"/>
        <path fill="none" stroke="rgb(0,0,0)" stroke-width="50" stroke-linejoin="miter" d="M 8555,3023 C 8513,3066 8450,3074 8427,3106 8407,3137 8406,3245 8418,3269 8468,3287 8428,3357 8466,3486 8557,3494 8609,3390 8692,3376 8731,3337 8753,3296 8789,3247 8829,3193 8849,3164 8865,3077 8864,3037 8850,3007 8841,2971 8758,2910 8791,2878 8728,2843 8671,2892 8659,2967 8581,3014 L 8555,3023 8555,3023 Z"/>
        <path fill="rgb(72,246,57)" stroke="none" d="M 8705,3918 C 8875,3750 8766,3803 8947,3655 8950,3652 8955,3648 8958,3645 L 8980,3625 C 9053,3551 9092,3456 9113,3346 9130,3260 9133,3288 9104,3228 9091,3203 9091,3208 9072,3179 9069,3174 9055,3160 9054,3151 9054,3142 9048,3140 9045,3136 8949,3140 9032,3136 8970,3146 8950,3149 8983,3137 8935,3152 8877,3171 8858,3211 8817,3253 8639,3430 8490,3459 8488,3744 8487,3911 8536,3895 8705,3918 L 8705,3918 Z"/>
        <path fill="none" stroke="rgb(0,0,0)" stroke-width="50" stroke-linejoin="miter" d="M 8705,3918 C 8875,3750 8766,3803 8947,3655 8950,3652 8955,3648 8958,3645 L 8980,3625 C 9053,3551 9092,3456 9113,3346 9130,3260 9133,3288 9104,3228 9091,3203 9091,3208 9072,3179 9069,3174 9055,3160 9054,3151 9054,3142 9048,3140 9045,3136 8949,3140 9032,3136 8970,3146 8950,3149 8983,3137 8935,3152 8877,3171 8858,3211 8817,3253 8639,3430 8490,3459 8488,3744 8487,3911 8536,3895 8705,3918 L 8705,3918 Z"/>
        <path fill="rgb(171,65,127)" stroke="none" d="M 9384,3621 C 9310,3824 9577,3758 9165,4226 9137,4257 8576,4830 8801,4718 L 9910,4171 C 9989,4131 9589,3763 9457,3638 9437,3619 9387,3614 9384,3621 L 9384,3621 Z"/>
        <path fill="none" stroke="rgb(27,25,24)" stroke-width="50" stroke-linejoin="miter" d="M 9384,3621 C 9310,3824 9577,3758 9165,4226 9137,4257 8576,4830 8801,4718 L 9910,4171 C 9989,4131 9589,3763 9457,3638 9437,3619 9387,3614 9384,3621 L 9384,3621 Z"/>
        <path fill="rgb(106,247,242)" stroke="none" d="M 9096,3418 C 9082,3513 8967,3682 8917,3759 8852,3860 8644,3971 8621,3992 L 8634,4116 C 8693,4222 8729,4521 8776,4592 8851,4586 9019,4381 9073,4315 9126,4250 9259,4166 9338,3977 9373,3894 9391,3731 9385,3622 9357,3578 9351,3593 9322,3535 9295,3481 9306,3473 9269,3436 9197,3399 9233,3380 9160,3355 9126,3396 9150,3384 9096,3418 L 9096,3418 Z"/>
        <path fill="none" stroke="rgb(0,0,0)" stroke-width="50" stroke-linejoin="miter" d="M 9096,3418 C 9082,3513 8967,3682 8917,3759 8852,3860 8644,3971 8621,3992 L 8634,4116 C 8693,4222 8729,4521 8776,4592 8851,4586 9019,4381 9073,4315 9126,4250 9259,4166 9338,3977 9373,3894 9391,3731 9385,3622 9357,3578 9351,3593 9322,3535 9295,3481 9306,3473 9269,3436 9197,3399 9233,3380 9160,3355 9126,3396 9150,3384 9096,3418 L 9096,3418 Z"/>
        <path fill="none" stroke="rgb(27,25,24)" stroke-width="75" stroke-linejoin="miter" d="M 8010,1871 L 8792,4743 9917,4180 8010,1871 8010,1871 Z"/>
        <path fill="rgb(246,6,213)" stroke="none" d="M 11441,4517 L 11477,3807 11837,3886 12162,4045 12521,4349 12839,4646 13145,4975 13355,5466 13436,5875 13506,6518 13508,6918 13519,7226 13518,7579 13635,7878 13941,8206 14379,8293 14696,8205 14582,8507 14260,8704 13770,8745 13250,8604 13024,8314 12849,8067 12705,7817 12595,7611 12187,6541 11955,5501 11441,4517 11441,4517 Z"/>
        <path fill="none" stroke="rgb(27,25,24)" stroke-width="75" stroke-linejoin="miter" d="M 11441,4517 L 11477,3807 11837,3886 12162,4045 12521,4349 12839,4646 13145,4975 13355,5466 13436,5875 13506,6518 13508,6918 13519,7226 13518,7579 13635,7878 13941,8206 14379,8293 14696,8205 14582,8507 14260,8704 13770,8745 13250,8604 13024,8314 12849,8067 12705,7817 12595,7611 12187,6541 11955,5501 11441,4517 11441,4517 Z"/>
        <path fill="rgb(255,255,255)" stroke="none" d="M 11519,5414 L 10215,4794 10424,3912 10801,3346 C 10925,3258 11047,3170 11169,3082 11234,3185 11307,3292 11351,3419 11392,3533 11441,3667 11479,3807 L 11551,4293 11568,4833 11519,5414 11519,5414 Z"/>
        <path fill="none" stroke="rgb(27,25,24)" stroke-width="75" stroke-linejoin="miter" d="M 10215,4794 L 10424,3912 10801,3346 C 10925,3258 11047,3170 11169,3082 11234,3185 11307,3292 11351,3419 11392,3533 11441,3667 11479,3807 L 11551,4293 11568,4833 11519,5414"/>
        <path fill="rgb(245,177,181)" stroke="none" d="M 11128,5169 L 10526,4917 10642,4237 10750,3919 11021,3676 11184,3982 11219,4213 11215,4723 11128,5169 11128,5169 Z"/>
        <path fill="none" stroke="rgb(27,25,24)" stroke-width="75" stroke-linejoin="miter" d="M 10526,4917 L 10642,4237 10750,3919 11021,3676 11184,3982 11219,4213 11215,4723 11128,5169"/>
        <path fill="rgb(246,6,213)" stroke="none" d="M 7033,5927 L 6657,6176 6346,6471 6157,6807 6125,7196 6196,7551 6374,7885 6656,8088 7031,8192 7535,8124 7501,7930 7484,7724 7465,7399 7373,7137 7231,6873 7112,6546 7095,6252 7033,5927 7033,5927 Z"/>
        <path fill="none" stroke="rgb(27,25,24)" stroke-width="75" stroke-linejoin="miter" d="M 7033,5927 L 6657,6176 6346,6471 6157,6807 6125,7196 6196,7551 6374,7885 6656,8088 7031,8192 7535,8124 7501,7930 7484,7724 7465,7399 7373,7137 7231,6873 7112,6546 7095,6252 7033,5927 7033,5927 Z"/>
        <path fill="rgb(27,25,24)" stroke="none" d="M 6677,6674 L 6678,6674 C 6705,6674 6728,6680 6751,6694 6774,6707 6791,6724 6804,6747 6818,6770 6824,6793 6824,6820 6824,6847 6818,6870 6804,6893 6791,6916 6774,6933 6751,6946 6728,6960 6705,6966 6678,6966 6651,6966 6628,6960 6605,6946 6582,6933 6565,6916 6552,6893 6538,6870 6532,6847 6532,6820 6532,6793 6538,6770 6552,6747 6565,6724 6582,6707 6605,6694 6628,6680 6650,6674 6677,6674 L 6677,6674 Z"/>
        <path fill="none" stroke="rgb(27,25,24)" stroke-width="20" stroke-linejoin="miter" d="M 6677,6674 L 6678,6674 C 6705,6674 6728,6680 6751,6694 6774,6707 6791,6724 6804,6747 6818,6770 6824,6793 6824,6820 6824,6847 6818,6870 6804,6893 6791,6916 6774,6933 6751,6946 6728,6960 6705,6966 6678,6966 6651,6966 6628,6960 6605,6946 6582,6933 6565,6916 6552,6893 6538,6870 6532,6847 6532,6820 6532,6793 6538,6770 6552,6747 6565,6724 6582,6707 6605,6694 6628,6680 6650,6674 6677,6674 L 6677,6674 Z"/>
        <path fill="rgb(246,6,213)" stroke="none" d="M 12324,6900 L 12235,8388 12280,8858 12455,9268 12718,9710 13087,10027 13517,10122 14229,9878 13595,9758 13279,9465 13269,8940 13250,8603 13026,8313 12705,7816 12557,7509 12324,6900 12324,6900 Z"/>
        <path fill="none" stroke="rgb(27,25,24)" stroke-width="75" stroke-linejoin="miter" d="M 12324,6900 L 12235,8388 12280,8858 12455,9268 12718,9710 13087,10027 13517,10122 14229,9878 13595,9758 13279,9465 13269,8940 13250,8603 13026,8313 12705,7816 12557,7509 12324,6900 12324,6900 Z"/>
        <path fill="rgb(246,6,213)" stroke="none" d="M 12212,8212 L 12112,9312 12057,10271 12232,10681 12495,11123 12864,11440 13294,11535 14006,11291 13372,11171 13056,10878 13046,10353 13027,10016 12803,9726 12482,9229 12334,8922 12212,8212 12212,8212 Z"/>
        <path fill="none" stroke="rgb(27,25,24)" stroke-width="75" stroke-linejoin="miter" d="M 12212,8212 L 12112,9312 12057,10271 12232,10681 12495,11123 12864,11440 13294,11535 14006,11291 13372,11171 13056,10878 13046,10353 13027,10016 12803,9726 12482,9229 12334,8922 12212,8212 12212,8212 Z"/>
        <path fill="rgb(255,255,0)" stroke="none" d="M 2416,5605 L 3116,5446 3266,4704 3417,5446 4118,5605 3417,5763 3266,6505 3116,5763 2416,5605 2416,5605 Z"/>
        <path fill="none" stroke="rgb(52,101,164)" stroke-width="28" stroke-linejoin="round" d="M 2416,5605 L 3116,5446 3266,4704 3417,5446 4118,5605 3417,5763 3266,6505 3116,5763 2416,5605 2416,5605 Z"/>
        <path fill="rgb(255,255,107)" stroke="none" d="M 3156,3085 L 3716,2957 3836,2363 3957,2957 4518,3085 3957,3211 3836,3806 3716,3211 3156,3085 3156,3085 Z"/>
        <path fill="none" stroke="rgb(52,101,164)" stroke-width="28" stroke-linejoin="round" d="M 3156,3085 L 3716,2957 3836,2363 3957,2957 4518,3085 3957,3211 3836,3806 3716,3211 3156,3085 3156,3085 Z"/>
        <path fill="rgb(255,255,107)" stroke="none" d="M 5586,1564 L 6146,1436 6266,842 6387,1436 6948,1564 6387,1690 6266,2285 6146,1690 5586,1564 5586,1564 Z"/>
        <path fill="none" stroke="rgb(52,101,164)" stroke-width="28" stroke-linejoin="round" d="M 5586,1564 L 6146,1436 6266,842 6387,1436 6948,1564 6387,1690 6266,2285 6146,1690 5586,1564 5586,1564 Z"/>
        <path fill="none" stroke="rgb(0,0,0)" stroke-width="70" stroke-linejoin="round" d="M 6514,8014 C 6881,7981 7315,8014 7515,7813"/>
        <path fill="none" stroke="rgb(0,0,0)" stroke-width="70" stroke-linejoin="round" d="M 8194,5675 L 7994,5375"/>
        <path fill="none" stroke="rgb(0,0,0)" stroke-width="70" stroke-linejoin="round" d="M 8594,5575 L 8594,5175"/>
        <path fill="none" stroke="rgb(0,0,0)" stroke-width="70" stroke-linejoin="round" d="M 8994,5675 L 9194,5375"/>
        <path fill="rgb(142,248,245)" stroke="none" d="M 8586,5475 C 8926,5475 9186,5735 9186,6075 9186,6415 8926,6675 8586,6675 8246,6675 7986,6415 7986,6075 7986,5735 8246,5475 8586,5475 L 8586,5475 Z"/>
        <path fill="none" stroke="rgb(0,0,0)" stroke-width="50" stroke-linejoin="round" d="M 8586,5475 C 8926,5475 9186,5735 9186,6075 9186,6415 8926,6675 8586,6675 8246,6675 7986,6415 7986,6075 7986,5735 8246,5475 8586,5475 L 8586,5475 Z"/>
        <path fill="rgb(27,25,24)" stroke="none" d="M 8444,5575 C 8509,5575 8563,5590 8619,5622 8675,5654 8715,5694 8747,5750 8779,5806 8794,5860 8794,5925 8794,5990 8779,6044 8747,6100 8715,6156 8675,6196 8619,6228 8563,6260 8509,6275 8444,6275 8379,6275 8325,6260 8269,6228 8213,6196 8173,6156 8141,6100 8109,6044 8094,5990 8094,5925 8094,5860 8109,5806 8141,5750 8173,5694 8213,5654 8269,5622 8325,5590 8379,5575 8444,5575 L 8444,5575 Z"/>
        <path fill="none" stroke="rgb(27,25,24)" stroke-width="20" stroke-linejoin="miter" d="M 8444,5575 C 8509,5575 8563,5590 8619,5622 8675,5654 8715,5694 8747,5750 8779,5806 8794,5860 8794,5925 8794,5990 8779,6044 8747,6100 8715,6156 8675,6196 8619,6228 8563,6260 8509,6275 8444,6275 8379,6275 8325,6260 8269,6228 8213,6196 8173,6156 8141,6100 8109,6044 8094,5990 8094,5925 8094,5860 8109,5806 8141,5750 8173,5694 8213,5654 8269,5622 8325,5590 8379,5575 8444,5575 L 8444,5575 Z"/>
        <path fill="rgb(255,255,255)" stroke="none" d="M 8581,5786 C 8597,5786 8611,5790 8626,5798 8640,5806 8651,5817 8659,5831 8667,5846 8671,5859 8671,5876 8671,5892 8667,5906 8659,5921 8651,5935 8640,5946 8626,5954 8611,5962 8597,5966 8581,5966 8564,5966 8551,5962 8536,5954 8522,5946 8511,5935 8503,5921 8495,5906 8491,5892 8491,5876 8491,5859 8495,5846 8503,5831 8511,5817 8522,5806 8536,5798 8551,5790 8564,5786 8581,5786 L 8581,5786 Z"/>
        <path fill="none" stroke="rgb(27,25,24)" stroke-width="20" stroke-linejoin="miter" d="M 8581,5786 C 8597,5786 8611,5790 8626,5798 8640,5806 8651,5817 8659,5831 8667,5846 8671,5859 8671,5876 8671,5892 8667,5906 8659,5921 8651,5935 8640,5946 8626,5954 8611,5962 8597,5966 8581,5966 8564,5966 8551,5962 8536,5954 8522,5946 8511,5935 8503,5921 8495,5906 8491,5892 8491,5876 8491,5859 8495,5846 8503,5831 8511,5817 8522,5806 8536,5798 8551,5790 8564,5786 8581,5786 L 8581,5786 Z"/>
        <path fill="rgb(255,255,255)" stroke="none" d="M 8315,5698 C 8331,5698 8345,5702 8360,5710 8374,5718 8385,5729 8393,5743 8401,5758 8405,5771 8405,5788 8405,5804 8401,5818 8393,5833 8385,5847 8374,5858 8360,5866 8345,5874 8331,5878 8315,5878 8298,5878 8285,5874 8270,5866 8256,5858 8245,5847 8237,5833 8229,5818 8225,5804 8225,5788 8225,5771 8229,5758 8237,5743 8245,5729 8256,5718 8270,5710 8285,5702 8298,5698 8315,5698 L 8315,5698 Z"/>
        <path fill="none" stroke="rgb(27,25,24)" stroke-width="20" stroke-linejoin="miter" d="M 8315,5698 C 8331,5698 8345,5702 8360,5710 8374,5718 8385,5729 8393,5743 8401,5758 8405,5771 8405,5788 8405,5804 8401,5818 8393,5833 8385,5847 8374,5858 8360,5866 8345,5874 8331,5878 8315,5878 8298,5878 8285,5874 8270,5866 8256,5858 8245,5847 8237,5833 8229,5818 8225,5804 8225,5788 8225,5771 8229,5758 8237,5743 8245,5729 8256,5718 8270,5710 8285,5702 8298,5698 8315,5698 L 8315,5698 Z"/>
       </g>
      </g>
      <g class="Group">
       <g class="com.sun.star.drawing.LineShape">
        <g id="id4">
         <rect class="BoundingBox" stroke="none" fill="none" x="7946" y="5327" width="271" height="371"/>
         <path fill="none" stroke="rgb(0,0,0)" stroke-width="70" stroke-linejoin="round" d="M 8181,5662 L 7981,5362"/>
        </g>
       </g>
       <g class="com.sun.star.drawing.LineShape">
        <g id="id5">
         <rect class="BoundingBox" stroke="none" fill="none" x="8546" y="5127" width="71" height="471"/>
         <path fill="none" stroke="rgb(0,0,0)" stroke-width="70" stroke-linejoin="round" d="M 8581,5562 L 8581,5162"/>
        </g>
       </g>
       <g class="com.sun.star.drawing.LineShape">
        <g id="id6">
         <rect class="BoundingBox" stroke="none" fill="none" x="8946" y="5327" width="271" height="371"/>
         <path fill="none" stroke="rgb(0,0,0)" stroke-width="70" stroke-linejoin="round" d="M 8981,5662 L 9181,5362"/>
        </g>
       </g>
       <g class="com.sun.star.drawing.CustomShape">
        <g id="id7">
         <rect class="BoundingBox" stroke="none" fill="none" x="7948" y="5437" width="1252" height="1251"/>
         <path fill="rgb(142,248,245)" stroke="none" d="M 8573,5462 C 8913,5462 9173,5722 9173,6062 9173,6402 8913,6662 8573,6662 8233,6662 7973,6402 7973,6062 7973,5722 8233,5462 8573,5462 Z"/>
         <path fill="none" stroke="rgb(0,0,0)" stroke-width="50" stroke-linejoin="round" d="M 8573,5462 C 8913,5462 9173,5722 9173,6062 9173,6402 8913,6662 8573,6662 8233,6662 7973,6402 7973,6062 7973,5722 8233,5462 8573,5462 Z"/>
        </g>
       </g>
       <g class="Group">
        <g class="com.sun.star.drawing.ClosedBezierShape">
         <g id="id8">
          <rect class="BoundingBox" stroke="none" fill="none" x="8171" y="5552" width="721" height="721"/>
          <path fill="rgb(27,25,24)" stroke="none" d="M 8531,5562 C 8596,5562 8650,5577 8706,5609 8762,5641 8802,5681 8834,5737 8866,5793 8881,5847 8881,5912 8881,5977 8866,6031 8834,6087 8802,6143 8762,6183 8706,6215 8650,6247 8596,6262 8531,6262 8466,6262 8412,6247 8356,6215 8300,6183 8260,6143 8228,6087 8196,6031 8181,5977 8181,5912 8181,5847 8196,5793 8228,5737 8260,5681 8300,5641 8356,5609 8412,5577 8466,5562 8531,5562 Z"/>
          <path fill="none" stroke="rgb(27,25,24)" stroke-width="20" stroke-linejoin="miter" d="M 8531,5562 C 8596,5562 8650,5577 8706,5609 8762,5641 8802,5681 8834,5737 8866,5793 8881,5847 8881,5912 8881,5977 8866,6031 8834,6087 8802,6143 8762,6183 8706,6215 8650,6247 8596,6262 8531,6262 8466,6262 8412,6247 8356,6215 8300,6183 8260,6143 8228,6087 8196,6031 8181,5977 8181,5912 8181,5847 8196,5793 8228,5737 8260,5681 8300,5641 8356,5609 8412,5577 8466,5562 8531,5562 Z"/>
         </g>
        </g>
        <g class="com.sun.star.drawing.ClosedBezierShape">
         <g id="id9">
          <rect class="BoundingBox" stroke="none" fill="none" x="8568" y="5763" width="201" height="201"/>
          <path fill="rgb(255,255,255)" stroke="none" d="M 8668,5773 C 8684,5773 8698,5777 8713,5785 8727,5793 8738,5804 8746,5818 8754,5833 8758,5846 8758,5863 8758,5879 8754,5893 8746,5908 8738,5922 8727,5933 8713,5941 8698,5949 8684,5953 8668,5953 8651,5953 8638,5949 8623,5941 8609,5933 8598,5922 8590,5908 8582,5893 8578,5879 8578,5863 8578,5846 8582,5833 8590,5818 8598,5804 8609,5793 8623,5785 8638,5777 8651,5773 8668,5773 Z"/>
          <path fill="none" stroke="rgb(27,25,24)" stroke-width="20" stroke-linejoin="miter" d="M 8668,5773 C 8684,5773 8698,5777 8713,5785 8727,5793 8738,5804 8746,5818 8754,5833 8758,5846 8758,5863 8758,5879 8754,5893 8746,5908 8738,5922 8727,5933 8713,5941 8698,5949 8684,5953 8668,5953 8651,5953 8638,5949 8623,5941 8609,5933 8598,5922 8590,5908 8582,5893 8578,5879 8578,5863 8578,5846 8582,5833 8590,5818 8598,5804 8609,5793 8623,5785 8638,5777 8651,5773 8668,5773 Z"/>
         </g>
        </g>
        <g class="com.sun.star.drawing.ClosedBezierShape">
         <g id="id10">
          <rect class="BoundingBox" stroke="none" fill="none" x="8302" y="5675" width="202" height="201"/>
          <path fill="rgb(255,255,255)" stroke="none" d="M 8402,5685 C 8418,5685 8432,5689 8447,5697 8461,5705 8472,5716 8480,5730 8488,5745 8492,5758 8492,5775 8492,5791 8488,5805 8480,5820 8472,5834 8461,5845 8447,5853 8432,5861 8418,5865 8402,5865 8385,5865 8372,5861 8357,5853 8343,5845 8332,5834 8324,5820 8316,5805 8312,5791 8312,5775 8312,5758 8316,5745 8324,5730 8332,5716 8343,5705 8357,5697 8372,5689 8385,5685 8402,5685 Z"/>
          <path fill="none" stroke="rgb(27,25,24)" stroke-width="20" stroke-linejoin="miter" d="M 8402,5685 C 8418,5685 8432,5689 8447,5697 8461,5705 8472,5716 8480,5730 8488,5745 8492,5758 8492,5775 8492,5791 8488,5805 8480,5820 8472,5834 8461,5845 8447,5853 8432,5861 8418,5865 8402,5865 8385,5865 8372,5861 8357,5853 8343,5845 8332,5834 8324,5820 8316,5805 8312,5791 8312,5775 8312,5758 8316,5745 8324,5730 8332,5716 8343,5705 8357,5697 8372,5689 8385,5685 8402,5685 Z"/>
         </g>
        </g>
       </g>
      </g>
     </g>
    </g>
   </g>
  </g>
 </g>
</svg>