<?xml version="1.0" encoding="UTF-8"?>
<!DOCTYPE svg PUBLIC "-//W3C//DTD SVG 1.1//EN" "http://www.w3.org/Graphics/SVG/1.1/DTD/svg11.dtd">
<svg version="1.2" width="250.26mm" height="200.26mm" viewBox="0 0 25026 20026" preserveAspectRatio="xMidYMid" fill-rule="evenodd" stroke-width="28.222" stroke-linejoin="round" xmlns="http://www.w3.org/2000/svg" xmlns:ooo="http://xml.openoffice.org/svg/export" xmlns:xlink="http://www.w3.org/1999/xlink" xmlns:presentation="http://sun.com/xmlns/staroffice/presentation" xmlns:smil="http://www.w3.org/2001/SMIL20/" xmlns:anim="urn:oasis:names:tc:opendocument:xmlns:animation:1.0" xml:space="preserve">
 <defs class="ClipPathGroup">
  <clipPath id="presentation_clip_path" clipPathUnits="userSpaceOnUse">
   <rect x="0" y="0" width="25026" height="20026"/>
  </clipPath>
  <clipPath id="presentation_clip_path_shrink" clipPathUnits="userSpaceOnUse">
   <rect x="25" y="20" width="24976" height="19986"/>
  </clipPath>
 </defs>
 <defs class="TextShapeIndex">
  <g ooo:slide="id1" ooo:id-list="id3 id4 id5 id6"/>
 </defs>
 <defs class="EmbeddedBulletChars">
  <g id="bullet-char-template-57356" transform="scale(0.00048828125,-0.00048828125)">
   <path d="M 580,1141 L 1163,571 580,0 -4,571 580,1141 Z"/>
  </g>
  <g id="bullet-char-template-57354" transform="scale(0.00048828125,-0.00048828125)">
   <path d="M 8,1128 L 1137,1128 1137,0 8,0 8,1128 Z"/>
  </g>
  <g id="bullet-char-template-10146" transform="scale(0.00048828125,-0.00048828125)">
   <path d="M 174,0 L 602,739 174,1481 1456,739 174,0 Z M 1358,739 L 309,1346 659,739 1358,739 Z"/>
  </g>
  <g id="bullet-char-template-10132" transform="scale(0.00048828125,-0.00048828125)">
   <path d="M 2015,739 L 1276,0 717,0 1260,543 174,543 174,936 1260,936 717,1481 1274,1481 2015,739 Z"/>
  </g>
  <g id="bullet-char-template-10007" transform="scale(0.00048828125,-0.00048828125)">
   <path d="M 0,-2 C -7,14 -16,27 -25,37 L 356,567 C 262,823 215,952 215,954 215,979 228,992 255,992 264,992 276,990 289,987 310,991 331,999 354,1012 L 381,999 492,748 772,1049 836,1024 860,1049 C 881,1039 901,1025 922,1006 886,937 835,863 770,784 769,783 710,716 594,584 L 774,223 C 774,196 753,168 711,139 L 727,119 C 717,90 699,76 672,76 641,76 570,178 457,381 L 164,-76 C 142,-110 111,-127 72,-127 30,-127 9,-110 8,-76 1,-67 -2,-52 -2,-32 -2,-23 -1,-13 0,-2 Z"/>
  </g>
  <g id="bullet-char-template-10004" transform="scale(0.00048828125,-0.00048828125)">
   <path d="M 285,-33 C 182,-33 111,30 74,156 52,228 41,333 41,471 41,549 55,616 82,672 116,743 169,778 240,778 293,778 328,747 346,684 L 369,508 C 377,444 397,411 428,410 L 1163,1116 C 1174,1127 1196,1133 1229,1133 1271,1133 1292,1118 1292,1087 L 1292,965 C 1292,929 1282,901 1262,881 L 442,47 C 390,-6 338,-33 285,-33 Z"/>
  </g>
  <g id="bullet-char-template-9679" transform="scale(0.00048828125,-0.00048828125)">
   <path d="M 813,0 C 632,0 489,54 383,161 276,268 223,411 223,592 223,773 276,916 383,1023 489,1130 632,1184 813,1184 992,1184 1136,1130 1245,1023 1353,916 1407,772 1407,592 1407,412 1353,268 1245,161 1136,54 992,0 813,0 Z"/>
  </g>
  <g id="bullet-char-template-8226" transform="scale(0.00048828125,-0.00048828125)">
   <path d="M 346,457 C 273,457 209,483 155,535 101,586 74,649 74,723 74,796 101,859 155,911 209,963 273,989 346,989 419,989 480,963 531,910 582,859 608,796 608,723 608,648 583,586 532,535 482,483 420,457 346,457 Z"/>
  </g>
  <g id="bullet-char-template-8211" transform="scale(0.00048828125,-0.00048828125)">
   <path d="M -4,459 L 1135,459 1135,606 -4,606 -4,459 Z"/>
  </g>
  <g id="bullet-char-template-61548" transform="scale(0.00048828125,-0.00048828125)">
   <path d="M 173,740 C 173,903 231,1043 346,1159 462,1274 601,1332 765,1332 928,1332 1067,1274 1183,1159 1299,1043 1357,903 1357,740 1357,577 1299,437 1183,322 1067,206 928,148 765,148 601,148 462,206 346,322 231,437 173,577 173,740 Z"/>
  </g>
 </defs>
 <defs class="TextEmbeddedBitmaps"/>
 <g>
  <g id="id2" class="Master_Slide">
   <g id="bg-id2" class="Background"/>
   <g id="bo-id2" class="BackgroundObjects"/>
  </g>
 </g>
 <g class="SlideGroup">
  <g>
   <g id="container-id1">
    <g id="id1" class="Slide" clip-path="url(#presentation_clip_path)">
     <g class="Page">
      <g class="Graphic">
       <g id="id3">
        <rect class="BoundingBox" stroke="none" fill="none" x="0" y="0" width="25026" height="20026"/>
        <path fill="rgb(255,255,0)" stroke="none" d="M 2416,5605 L 3116,5446 3266,4704 3417,5446 4118,5605 3417,5763 3266,6505 3116,5763 2416,5605 2416,5605 Z"/>
        <path fill="none" stroke="rgb(52,101,164)" stroke-width="28" stroke-linejoin="round" d="M 2416,5605 L 3116,5446 3266,4704 3417,5446 4118,5605 3417,5763 3266,6505 3116,5763 2416,5605 2416,5605 Z"/>
        <path fill="rgb(255,255,107)" stroke="none" d="M 3156,3085 L 3716,2957 3836,2363 3957,2957 4518,3085 3957,3211 3836,3806 3716,3211 3156,3085 3156,3085 Z"/>
        <path fill="none" stroke="rgb(52,101,164)" stroke-width="28" stroke-linejoin="round" d="M 3156,3085 L 3716,2957 3836,2363 3957,2957 4518,3085 3957,3211 3836,3806 3716,3211 3156,3085 3156,3085 Z"/>
        <path fill="rgb(255,255,107)" stroke="none" d="M 5586,1564 L 6146,1436 6266,842 6387,1436 6948,1564 6387,1690 6266,2285 6146,1690 5586,1564 5586,1564 Z"/>
        <path fill="none" stroke="rgb(52,101,164)" stroke-width="28" stroke-linejoin="round" d="M 5586,1564 L 6146,1436 6266,842 6387,1436 6948,1564 6387,1690 6266,2285 6146,1690 5586,1564 5586,1564 Z"/>
        <path fill="none" stroke="rgb(27,25,24)" stroke-width="75" stroke-linejoin="round" d="M 12389,8881 C 13947,9228 13919,9211 14584,9378 15295,9555 16049,9677 16678,9914 17309,10152 18312,12535 16678,13369 16426,13728 16552,16827 16427,17542 15546,17662 14667,17542 14163,17425 14163,16588 14415,13967 14415,13490 13756,13583 12159,13352 11535,13143"/>
        <path fill="rgb(246,6,213)" stroke="none" d="M 16392,17522 C 16421,17377 16468,17006 16469,16887 16343,16887 15707,17048 14211,16871 14198,17049 14157,17423 14249,17423 14249,17423 15060,17715 16392,17522 L 16392,17522 Z"/>
        <path fill="none" stroke="rgb(27,25,24)" stroke-width="75" stroke-linejoin="round" d="M 16392,17522 C 16421,17377 16468,17006 16469,16887 16343,16887 15707,17048 14211,16871 14198,17049 14157,17423 14249,17423 14249,17423 15060,17715 16392,17522 L 16392,17522 Z"/>
        <path fill="rgb(246,6,213)" stroke="none" d="M 17489,11345 C 17562,10871 18040,10717 18502,10706 19767,10906 18837,12625 20399,13744 18121,13504 17869,12385 17489,11345 L 17489,11345 Z"/>
        <path fill="none" stroke="rgb(27,25,24)" stroke-width="75" stroke-linejoin="round" d="M 17489,11345 C 17562,10871 18040,10717 18502,10706 19767,10906 18837,12625 20399,13744 18121,13504 17869,12385 17489,11345 L 17489,11345 Z"/>
        <path fill="none" stroke="rgb(27,25,24)" stroke-width="75" stroke-linejoin="round" d="M 9610,12735 C 9497,12877 8544,16427 8418,16784 8522,16875 8971,16959 9344,16877 9376,16448 9344,17068 9372,16415"/>
        <path fill="rgb(246,6,213)" stroke="none" d="M 9372,16878 C 9399,16733 9392,16837 9401,16361 9401,16361 9152,16473 8503,16304 8491,16479 8377,16744 8377,16744 8377,16744 8684,17014 9372,16878 L 9372,16878 Z"/>
        <path fill="none" stroke="rgb(27,25,24)" stroke-width="75" stroke-linejoin="round" d="M 9372,16878 C 9399,16733 9392,16837 9401,16361 9401,16361 9152,16473 8503,16304 8491,16479 8377,16744 8377,16744 8377,16744 8684,17014 9372,16878 L 9372,16878 Z"/>
        <path fill="rgb(246,6,213)" stroke="none" d="M 11653,17299 C 11665,17152 11681,16823 11668,16705 11544,16717 10707,17021 9390,16665 9397,16842 9373,17325 9373,17325 9373,17325 10677,17631 11653,17299 L 11653,17299 Z"/>
        <path fill="none" stroke="rgb(27,25,24)" stroke-width="75" stroke-linejoin="round" d="M 11653,17299 C 11665,17152 11681,16823 11668,16705 11544,16717 10707,17021 9390,16665 9397,16842 9373,17325 9373,17325 9373,17325 10677,17631 11653,17299 L 11653,17299 Z"/>
        <path fill="none" stroke="rgb(27,25,24)" stroke-width="75" stroke-linejoin="round" d="M 9603,12744 C 9593,13034 9400,17040 9401,17340 11065,17477 10922,17477 11639,17286 11601,15926 11562,14567 11508,13109"/>
        <path fill="none" stroke="rgb(27,25,24)" stroke-width="75" stroke-linejoin="round" d="M 10354,7847 C 9515,9454 9570,11402 9603,12744"/>
        <path fill="rgb(27,25,24)" stroke="none" d="M 12443,8881 C 12443,8891 12440,8899 12435,8908 12430,8916 12424,8922 12416,8927 12407,8932 12398,8935 12389,8935 12379,8935 12370,8932 12362,8927 12353,8922 12347,8916 12342,8908 12337,8899 12335,8891 12335,8881 12335,8871 12337,8862 12342,8854 12347,8845 12353,8839 12362,8834 12370,8829 12379,8827 12389,8827 12398,8827 12407,8829 12416,8834 12424,8839 12430,8845 12435,8854 12440,8862 12443,8871 12443,8881 L 12443,8881 Z"/>
        <path fill="none" stroke="rgb(27,25,24)" stroke-width="75" stroke-linejoin="round" d="M 7850,5093 L 7508,5567 7037,5926"/>
        <path fill="none" stroke="rgb(27,25,24)" stroke-width="75" stroke-linejoin="round" d="M 7532,8127 C 7652,8105 8280,8079 8299,8076 9254,8356 10006,8356 10354,7847"/>
        <path fill="rgb(246,6,213)" stroke="none" d="M 7484,5514 C 8394,4428 9035,4847 9613,4677 10190,4507 11052,3662 10875,3632 L 10395,3552 C 10124,3477 9799,3519 9490,3566 8912,3735 8131,3919 7484,5514 L 7484,5514 Z"/>
        <path fill="none" stroke="rgb(27,25,24)" stroke-width="75" stroke-linejoin="round" d="M 7484,5514 C 8394,4428 9035,4847 9613,4677 10190,4507 11052,3662 10875,3632 L 10395,3552 C 10124,3477 9799,3519 9490,3566 8912,3735 8131,3919 7484,5514 L 7484,5514 Z"/>
        <path fill="rgb(246,6,213)" stroke="none" d="M 12265,8101 C 11538,11963 13438,11616 14006,11291 12853,11212 13089,10720 13027,10016 L 12265,8101 Z"/>
        <path fill="none" stroke="rgb(27,25,24)" stroke-width="75" stroke-linejoin="round" d="M 12265,8101 C 11538,11963 13438,11616 14006,11291 12853,11212 13089,10720 13027,10016 L 12265,8101 Z"/>
        <path fill="rgb(246,6,213)" stroke="none" d="M 12325,6900 C 12325,6900 11717,10933 14229,9879 14229,9879 12973,10076 13250,8604 L 12325,6900 Z"/>
        <path fill="none" stroke="rgb(27,25,24)" stroke-width="75" stroke-linejoin="round" d="M 12325,6900 C 12325,6900 11717,10933 14229,9879 14229,9879 12973,10076 13250,8604 L 12325,6900 Z"/>
        <path fill="rgb(246,6,213)" stroke="none" d="M 11478,3807 C 12997,4288 13621,5536 13508,6918 13469,7658 13691,8510 14696,8206 14563,8930 12951,9283 12346,7043 12062,6060 12051,5469 11593,4833 L 11478,3807 Z"/>
        <path fill="none" stroke="rgb(27,25,24)" stroke-width="75" stroke-linejoin="round" d="M 11478,3807 C 12997,4288 13621,5536 13508,6918 13469,7658 13691,8510 14696,8206 14563,8930 12951,9283 12346,7043 12062,6060 12051,5469 11593,4833 L 11478,3807 Z"/>
        <path fill="rgb(255,47,0)" stroke="none" d="M 8267,2688 C 8381,2654 8416,2430 8357,2316 L 8269,2195 C 8196,2105 8229,2064 8115,2035 L 8085,2123 C 8080,2188 8120,2336 8140,2398 8171,2496 8186,2638 8267,2688 L 8267,2688 Z"/>
        <path fill="none" stroke="rgb(0,0,0)" stroke-width="50" stroke-linejoin="miter" d="M 8267,2688 C 8381,2654 8416,2430 8357,2316 L 8269,2195 C 8196,2105 8229,2064 8115,2035 L 8085,2123 C 8080,2188 8120,2336 8140,2398 8171,2496 8186,2638 8267,2688 L 8267,2688 Z"/>
        <path fill="rgb(255,153,0)" stroke="none" d="M 8349,3029 C 8551,3037 8669,3034 8670,2815 8671,2737 8650,2676 8623,2626 L 8543,2533 C 8536,2528 8495,2500 8495,2500 8235,2567 8284,2806 8349,3029 L 8349,3029 Z"/>
        <path fill="none" stroke="rgb(0,0,0)" stroke-width="50" stroke-linejoin="miter" d="M 8349,3029 C 8551,3037 8669,3034 8670,2815 8671,2737 8650,2676 8623,2626 L 8543,2533 C 8536,2528 8495,2500 8495,2500 8235,2567 8284,2806 8349,3029 L 8349,3029 Z"/>
        <path fill="rgb(255,255,0)" stroke="none" d="M 8555,3023 C 8513,3066 8450,3074 8427,3106 8407,3137 8406,3245 8418,3269 8468,3287 8428,3357 8466,3486 8557,3494 8609,3390 8692,3376 8731,3337 8753,3296 8789,3247 8829,3193 8849,3164 8865,3077 8864,3037 8850,3007 8841,2971 8758,2910 8791,2878 8728,2843 8671,2892 8659,2967 8581,3014 L 8555,3023 8555,3023 Z"/>
        <path fill="none" stroke="rgb(0,0,0)" stroke-width="50" stroke-linejoin="miter" d="M 8555,3023 C 8513,3066 8450,3074 8427,3106 8407,3137 8406,3245 8418,3269 8468,3287 8428,3357 8466,3486 8557,3494 8609,3390 8692,3376 8731,3337 8753,3296 8789,3247 8829,3193 8849,3164 8865,3077 8864,3037 8850,3007 8841,2971 8758,2910 8791,2878 8728,2843 8671,2892 8659,2967 8581,3014 L 8555,3023 8555,3023 Z"/>
        <path fill="rgb(72,246,57)" stroke="none" d="M 8705,3918 C 8875,3750 8766,3803 8947,3655 8950,3652 8955,3648 8958,3645 L 8980,3625 C 9053,3551 9092,3456 9113,3346 9130,3260 9133,3288 9104,3228 9091,3203 9091,3208 9072,3179 9069,3174 9055,3160 9054,3151 9054,3142 9048,3140 9045,3136 8949,3140 9032,3136 8970,3146 8950,3149 8983,3137 8935,3152 8877,3171 8858,3211 8817,3253 8639,3430 8490,3459 8488,3744 8487,3911 8536,3895 8705,3918 L 8705,3918 Z"/>
        <path fill="none" stroke="rgb(0,0,0)" stroke-width="50" stroke-linejoin="miter" d="M 8705,3918 C 8875,3750 8766,3803 8947,3655 8950,3652 8955,3648 8958,3645 L 8980,3625 C 9053,3551 9092,3456 9113,3346 9130,3260 9133,3288 9104,3228 9091,3203 9091,3208 9072,3179 9069,3174 9055,3160 9054,3151 9054,3142 9048,3140 9045,3136 8949,3140 9032,3136 8970,3146 8950,3149 8983,3137 8935,3152 8877,3171 8858,3211 8817,3253 8639,3430 8490,3459 8488,3744 8487,3911 8536,3895 8705,3918 L 8705,3918 Z"/>
        <path fill="rgb(171,65,127)" stroke="none" d="M 9384,3621 C 9310,3824 9577,3758 9165,4226 9137,4257 8576,4830 8801,4718 L 9910,4171 C 9989,4131 9589,3763 9457,3638 9437,3619 9387,3614 9384,3621 L 9384,3621 Z"/>
        <path fill="none" stroke="rgb(27,25,24)" stroke-width="50" stroke-linejoin="miter" d="M 9384,3621 C 9310,3824 9577,3758 9165,4226 9137,4257 8576,4830 8801,4718 L 9910,4171 C 9989,4131 9589,3763 9457,3638 9437,3619 9387,3614 9384,3621 L 9384,3621 Z"/>
        <path fill="rgb(106,247,242)" stroke="none" d="M 9096,3418 C 9082,3513 8967,3682 8917,3759 8852,3860 8644,3971 8621,3992 L 8634,4116 C 8693,4222 8729,4521 8776,4592 8851,4586 9019,4381 9073,4315 9126,4250 9259,4166 9338,3977 9373,3894 9391,3731 9385,3622 9357,3578 9351,3593 9322,3535 9295,3481 9306,3473 9269,3436 9197,3399 9233,3380 9160,3355 9126,3396 9150,3384 9096,3418 L 9096,3418 Z"/>
        <path fill="none" stroke="rgb(0,0,0)" stroke-width="50" stroke-linejoin="miter" d="M 9096,3418 C 9082,3513 8967,3682 8917,3759 8852,3860 8644,3971 8621,3992 L 8634,4116 C 8693,4222 8729,4521 8776,4592 8851,4586 9019,4381 9073,4315 9126,4250 9259,4166 9338,3977 9373,3894 9391,3731 9385,3622 9357,3578 9351,3593 9322,3535 9295,3481 9306,3473 9269,3436 9197,3399 9233,3380 9160,3355 9126,3396 9150,3384 9096,3418 L 9096,3418 Z"/>
        <path fill="none" stroke="rgb(27,25,24)" stroke-width="75" stroke-linejoin="miter" d="M 8010,1871 L 8792,4743 9917,4180 8010,1871 8010,1871 Z"/>
        <path fill="rgb(255,255,255)" stroke="none" d="M 11520,5414 C 11691,4246 11483,3390 11170,3082 10641,3266 10341,4179 10215,4794 L 11520,5414 Z"/>
        <path fill="none" stroke="rgb(27,25,24)" stroke-width="75" stroke-linejoin="round" d="M 11520,5414 C 11691,4246 11483,3390 11170,3082 10641,3266 10341,4179 10215,4794"/>
        <path fill="rgb(245,177,181)" stroke="none" d="M 10550,4930 C 10620,4525 10725,3988 11035,3657 11247,3894 11208,4786 11129,5169 L 10550,4930 Z"/>
        <path fill="none" stroke="rgb(27,25,24)" stroke-width="75" stroke-linejoin="round" d="M 10550,4930 C 10620,4525 10725,3988 11035,3657 11247,3894 11208,4786 11129,5169"/>
        <path fill="rgb(255,255,255)" stroke="none" d="M 7409,8090 L 7330,7693 8758,7191 8891,7971 7409,8090 Z"/>
        <path fill="rgb(246,6,213)" stroke="none" d="M 7033,5927 C 5708,6634 6118,7691 6514,8015 6881,7982 7315,8015 7515,7814 7594,7080 7114,7092 7033,5927 L 7033,5927 Z"/>
        <path fill="none" stroke="rgb(27,25,24)" stroke-width="75" stroke-linejoin="round" d="M 7033,5927 C 5708,6634 6118,7691 6514,8015 6881,7982 7315,8015 7515,7814 7594,7080 7114,7092 7033,5927 L 7033,5927 Z"/>
        <path fill="rgb(246,6,213)" stroke="none" d="M 8363,6060 C 8709,5933 9137,5852 9278,5606 9282,5735 9338,5837 9378,5902 9170,6005 8722,6213 8363,6060 L 8363,6060 Z"/>
        <path fill="none" stroke="rgb(27,25,24)" stroke-width="75" stroke-linejoin="round" d="M 8363,6060 C 8709,5933 9137,5852 9278,5606 9282,5735 9338,5837 9378,5902 9170,6005 8722,6213 8363,6060 L 8363,6060 Z"/>
        <path fill="rgb(27,25,24)" stroke="none" d="M 6677,6674 L 6678,6674 C 6705,6674 6728,6680 6751,6694 6774,6707 6791,6724 6804,6747 6818,6770 6824,6793 6824,6820 6824,6847 6818,6870 6804,6893 6791,6916 6774,6933 6751,6946 6728,6960 6705,6966 6678,6966 6651,6966 6628,6960 6605,6946 6582,6933 6565,6916 6552,6893 6538,6870 6532,6847 6532,6820 6532,6793 6538,6770 6552,6747 6565,6724 6582,6707 6605,6694 6628,6680 6650,6674 6677,6674 L 6677,6674 Z"/>
        <path fill="none" stroke="rgb(27,25,24)" stroke-width="20" stroke-linejoin="miter" d="M 6677,6674 L 6678,6674 C 6705,6674 6728,6680 6751,6694 6774,6707 6791,6724 6804,6747 6818,6770 6824,6793 6824,6820 6824,6847 6818,6870 6804,6893 6791,6916 6774,6933 6751,6946 6728,6960 6705,6966 6678,6966 6651,6966 6628,6960 6605,6946 6582,6933 6565,6916 6552,6893 6538,6870 6532,6847 6532,6820 6532,6793 6538,6770 6552,6747 6565,6724 6582,6707 6605,6694 6628,6680 6650,6674 6677,6674 L 6677,6674 Z"/>
        <path fill="none" stroke="rgb(27,25,24)" stroke-width="75" stroke-linejoin="round" d="M 8194,5675 L 7994,5375"/>
        <path fill="none" stroke="rgb(27,25,24)" stroke-width="75" stroke-linejoin="round" d="M 8594,5575 L 8594,5175"/>
        <path fill="none" stroke="rgb(27,25,24)" stroke-width="75" stroke-linejoin="round" d="M 8994,5675 L 9194,5375"/>
        <path fill="rgb(142,248,245)" stroke="none" d="M 8586,5475 C 8926,5475 9186,5735 9186,6075 9186,6415 8926,6675 8586,6675 8246,6675 7986,6415 7986,6075 7986,5735 8246,5475 8586,5475 L 8586,5475 Z"/>
        <path fill="none" stroke="rgb(0,0,0)" stroke-width="50" stroke-linejoin="round" d="M 8586,5475 C 8926,5475 9186,5735 9186,6075 9186,6415 8926,6675 8586,6675 8246,6675 7986,6415 7986,6075 7986,5735 8246,5475 8586,5475 L 8586,5475 Z"/>
        <path fill="rgb(27,25,24)" stroke="none" d="M 8444,5575 C 8509,5575 8563,5590 8619,5622 8675,5654 8715,5694 8747,5750 8779,5806 8794,5860 8794,5925 8794,5990 8779,6044 8747,6100 8715,6156 8675,6196 8619,6228 8563,6260 8509,6275 8444,6275 8379,6275 8325,6260 8269,6228 8213,6196 8173,6156 8141,6100 8109,6044 8094,5990 8094,5925 8094,5860 8109,5806 8141,5750 8173,5694 8213,5654 8269,5622 8325,5590 8379,5575 8444,5575 L 8444,5575 Z"/>
        <path fill="none" stroke="rgb(27,25,24)" stroke-width="20" stroke-linejoin="miter" d="M 8444,5575 C 8509,5575 8563,5590 8619,5622 8675,5654 8715,5694 8747,5750 8779,5806 8794,5860 8794,5925 8794,5990 8779,6044 8747,6100 8715,6156 8675,6196 8619,6228 8563,6260 8509,6275 8444,6275 8379,6275 8325,6260 8269,6228 8213,6196 8173,6156 8141,6100 8109,6044 8094,5990 8094,5925 8094,5860 8109,5806 8141,5750 8173,5694 8213,5654 8269,5622 8325,5590 8379,5575 8444,5575 L 8444,5575 Z"/>
        <path fill="rgb(255,255,255)" stroke="none" d="M 8581,5786 C 8597,5786 8611,5790 8626,5798 8640,5806 8651,5817 8659,5831 8667,5846 8671,5859 8671,5876 8671,5892 8667,5906 8659,5921 8651,5935 8640,5946 8626,5954 8611,5962 8597,5966 8581,5966 8564,5966 8551,5962 8536,5954 8522,5946 8511,5935 8503,5921 8495,5906 8491,5892 8491,5876 8491,5859 8495,5846 8503,5831 8511,5817 8522,5806 8536,5798 8551,5790 8564,5786 8581,5786 L 8581,5786 Z"/>
        <path fill="none" stroke="rgb(27,25,24)" stroke-width="20" stroke-linejoin="miter" d="M 8581,5786 C 8597,5786 8611,5790 8626,5798 8640,5806 8651,5817 8659,5831 8667,5846 8671,5859 8671,5876 8671,5892 8667,5906 8659,5921 8651,5935 8640,5946 8626,5954 8611,5962 8597,5966 8581,5966 8564,5966 8551,5962 8536,5954 8522,5946 8511,5935 8503,5921 8495,5906 8491,5892 8491,5876 8491,5859 8495,5846 8503,5831 8511,5817 8522,5806 8536,5798 8551,5790 8564,5786 8581,5786 L 8581,5786 Z"/>
        <path fill="rgb(255,255,255)" stroke="none" d="M 8315,5698 C 8331,5698 8345,5702 8360,5710 8374,5718 8385,5729 8393,5743 8401,5758 8405,5771 8405,5788 8405,5804 8401,5818 8393,5833 8385,5847 8374,5858 8360,5866 8345,5874 8331,5878 8315,5878 8298,5878 8285,5874 8270,5866 8256,5858 8245,5847 8237,5833 8229,5818 8225,5804 8225,5788 8225,5771 8229,5758 8237,5743 8245,5729 8256,5718 8270,5710 8285,5702 8298,5698 8315,5698 L 8315,5698 Z"/>
        <path fill="none" stroke="rgb(27,25,24)" stroke-width="20" stroke-linejoin="miter" d="M 8315,5698 C 8331,5698 8345,5702 8360,5710 8374,5718 8385,5729 8393,5743 8401,5758 8405,5771 8405,5788 8405,5804 8401,5818 8393,5833 8385,5847 8374,5858 8360,5866 8345,5874 8331,5878 8315,5878 8298,5878 8285,5874 8270,5866 8256,5858 8245,5847 8237,5833 8229,5818 8225,5804 8225,5788 8225,5771 8229,5758 8237,5743 8245,5729 8256,5718 8270,5710 8285,5702 8298,5698 8315,5698 L 8315,5698 Z"/>
        <path fill="rgb(18,118,34)" stroke="none" d="M 5131,17323 C 5130,16855 5827,14361 7365,11236 6455,13898 6057,17263 6057,17263 L 5123,17349 5131,17323 5131,17323 Z"/>
        <path fill="none" stroke="rgb(0,0,0)" stroke-width="28" stroke-linejoin="round" d="M 5131,17323 C 5130,16855 5827,14361 7365,11236 6455,13898 6057,17263 6057,17263 L 5123,17349 5131,17323 5131,17323 Z"/>
        <path fill="rgb(18,118,34)" stroke="none" d="M 4680,17217 C 4681,16749 4134,14303 2284,11191 3373,13854 3754,17157 3754,17157 L 4688,17243 4680,17217 4680,17217 Z"/>
        <path fill="none" stroke="rgb(0,0,0)" stroke-width="28" stroke-linejoin="round" d="M 4680,17217 C 4681,16749 4134,14303 2284,11191 3373,13854 3754,17157 3754,17157 L 4688,17243 4680,17217 4680,17217 Z"/>
        <path fill="rgb(18,118,34)" stroke="none" d="M 6005,17280 C 6004,16812 6551,14366 8401,11254 7312,13917 6931,17220 6931,17220 L 5997,17306 6005,17280 6005,17280 Z"/>
        <path fill="none" stroke="rgb(0,0,0)" stroke-width="28" stroke-linejoin="round" d="M 6005,17280 C 6004,16812 6551,14366 8401,11254 7312,13917 6931,17220 6931,17220 L 5997,17306 6005,17280 6005,17280 Z"/>
        <path fill="rgb(18,118,34)" stroke="none" d="M 5449,17339 C 5450,16871 4753,14377 3215,11252 4125,13914 4523,17279 4523,17279 L 5457,17365 5449,17339 5449,17339 Z"/>
        <path fill="none" stroke="rgb(0,0,0)" stroke-width="28" stroke-linejoin="round" d="M 5449,17339 C 5450,16871 4753,14377 3215,11252 4125,13914 4523,17279 4523,17279 L 5457,17365 5449,17339 5449,17339 Z"/>
        <path fill="rgb(18,118,34)" stroke="none" d="M 5889,17320 C 5890,16852 5632,13926 4855,10718 5103,13480 4963,17260 4963,17260 L 5897,17346 5889,17320 5889,17320 Z"/>
        <path fill="none" stroke="rgb(0,0,0)" stroke-width="28" stroke-linejoin="round" d="M 5889,17320 C 5890,16852 5632,13926 4855,10718 5103,13480 4963,17260 4963,17260 L 5897,17346 5889,17320 5889,17320 Z"/>
       </g>
      </g>
      <g class="com.sun.star.drawing.ClosedFreeHandShape">
       <g id="id4">
        <rect class="BoundingBox" stroke="none" fill="none" x="3145" y="9967" width="1047" height="1330"/>
        <path fill="rgb(255,215,215)" stroke="none" d="M 3272,10143 C 3296,10093 3305,9959 3417,9979 3483,9968 3507,10019 3575,10011 3640,10004 3699,9975 3761,9988 3819,10000 3870,10039 3927,10060 3994,10085 4009,10191 4059,10238 4109,10283 4175,10306 4178,10377 4180,10429 4189,10486 4156,10536 4049,10823 3277,11268 3205,11286 3205,11286 3056,10558 3272,10143 Z"/>
        <path fill="none" stroke="rgb(0,0,0)" stroke-width="20" stroke-linejoin="round" d="M 3272,10143 C 3296,10093 3305,9959 3417,9979 3483,9968 3507,10019 3575,10011 3640,10004 3699,9975 3761,9988 3819,10000 3870,10039 3927,10060 3994,10085 4009,10191 4059,10238 4109,10283 4175,10306 4178,10377 4180,10429 4189,10486 4156,10536 4049,10823 3277,11268 3205,11286 3205,11286 3056,10558 3272,10143 Z"/>
       </g>
      </g>
      <g class="com.sun.star.drawing.ClosedFreeHandShape">
       <g id="id5">
        <rect class="BoundingBox" stroke="none" fill="none" x="2769" y="9845" width="806" height="1441"/>
        <path fill="rgb(255,215,215)" stroke="none" d="M 3208,11275 C 3189,10948 2448,10520 2960,9866 4155,9719 3208,11275 3208,11275 Z"/>
        <path fill="none" stroke="rgb(0,0,0)" stroke-width="20" stroke-linejoin="round" d="M 3208,11275 C 3189,10948 2448,10520 2960,9866 4155,9719 3208,11275 3208,11275 Z"/>
       </g>
      </g>
      <g class="com.sun.star.drawing.ClosedFreeHandShape">
       <g id="id6">
        <rect class="BoundingBox" stroke="none" fill="none" x="3210" y="10245" width="1263" height="1052"/>
        <path fill="rgb(255,215,215)" stroke="none" d="M 3221,11285 C 3484,11090 4287,11386 4462,10573 3809,9562 3221,11285 3221,11285 Z"/>
        <path fill="none" stroke="rgb(0,0,0)" stroke-width="20" stroke-linejoin="round" d="M 3221,11285 C 3484,11090 4287,11386 4462,10573 3809,9562 3221,11285 3221,11285 Z"/>
       </g>
      </g>
     </g>
    </g>
   </g>
  </g>
 </g>
</svg>