<?xml version="1.0" encoding="UTF-8"?>
<!DOCTYPE svg PUBLIC "-//W3C//DTD SVG 1.1//EN" "http://www.w3.org/Graphics/SVG/1.1/DTD/svg11.dtd">
<svg version="1.2" width="250mm" height="200mm" viewBox="0 0 25000 20000"
     preserveAspectRatio="xMidYMid" fill-rule="evenodd" stroke-width="28.222" stroke-linejoin="round"
     xmlns="http://www.w3.org/2000/svg"
     xml:space="preserve">
  <script href="svggen.js"></script>
  <script href="svg-editor.js"></script>
  <script href="svg-animate.js"></script>
  <script href="image.js.txt"></script>
  <style>
    path.line {
	fill:none;
	stroke:rgb(0,0,0);
	stroke-width:75;
	stroke-linejoin:round;
    }
    path.eyeline {
	fill:none;
	stroke:rgb(0,0,0);
	stroke-width:50;
	stroke-linejoin:round;
    }
    path.fill {
	fill:rgb(246,6,213);
	stroke:rgb(0,0,0);
	stroke-width:75;
	stroke-linejoin:round;
    }
    .dl {
	fill:none;
	stroke:red;
	stroke-width:20;
	stroke-linejoin:round;
    }
    path.germ {
	fill:rgb(153,221,255);
	stroke:rgb(0,0,0);
	stroke-width:25;
	stroke-linejoin:round;
    }
    path.grass {
        fill:rgb(18,118,34);
        stroke:rgb(0,0,0);
    }
    path.clear {
	fill:rgb(255,255,255);
        stroke:none;
    }
    path.flower {
        fill:rgb(255,215,215);
        stroke:rgb(0,0,0);
        stroke-width:20;
        stroke-linejoin:round;
    }
    path.eye2 {
        fill:rgb(142,248,245);
        stroke:none;
    }
    .eyeball {
        fill:rgb(0,0,0);
        stroke:rgb(0,0,0);
        stroke-width:20;
        stroke-linejoin:miter;
    }
    .glare {
        fill:rgb(255,255,255);
        stroke:rgb(0,0,0);
        stroke-width:20;
        stroke-linejoin:miter;
    }
  </style>
  <g id="stars">
      <g id="star1" onclick="set_star(1)">
       <path id="star1off" style="display:none" fill="rgb(255,255,107)" stroke="rgb(52,101,164)" d="M 2573,5592 L 3133,5464 3253,4870 3374,5464 3935,5592 3374,5718 3253,6313 3133,5718 2573,5592 Z"/>
       <path id="star1on" fill="rgb(255,255,0)" stroke="rgb(52,101,164)" d="M 2403,5592 L 3103,5433 3253,4691 3404,5433 4105,5592 3404,5750 3253,6492 3103,5750 2403,5592 Z"/>
      </g>
      <g id="star2" onclick="set_star(2)">
       <path id="star2off" fill="rgb(255,255,107)" stroke="rgb(52,101,164)" d="M 3143,3072 L 3703,2944 3823,2350 3944,2944 4505,3072 3944,3198 3823,3793 3703,3198 3143,3072 Z"/>
       <path id="star2on" style="display:none" fill="rgb(255,255,0)" stroke="rgb(52,101,164)" d="M 2973,3072 L 3673,2913 3823,2171 3974,2913 4675,3072 3974,3230 3823,3972 3673,3230 2973,3072 Z"/>
      </g>
      <g id="star3" onclick="set_star(2); eye(); stomp(); wag(); smile()">
       <path id="star3off" fill="rgb(255,255,107)" stroke="rgb(52,101,164)" d="M 5573,1551 L 6133,1423 6253,829 6374,1423 6935,1551 6374,1677 6253,2272 6133,1677 5573,1551 Z"/>
       <path id="star3on" style="display:none" fill="rgb(255,255,0)" stroke="rgb(52,101,164)" d="M 5403,1551 L 6103,1392 6253,650 6404,1392 7105,1551 6404,1709 6253,2451 6103,1709 5403,1551 Z"/>
      </g>
  </g>
    <g id="hits">
       <g id="hit1" style="display:none">
        <path fill="rgb(255,255,255)" stroke="none" d="M 12278,17126 C 12014,17022 11901,16918 11939,16814 11525,16870 11035,16902 10508,16902 9981,16902 9492,16870 9077,16814 9040,16814 9040,16814 9040,16814 9077,16918 8964,17030 8701,17126 8475,17222 8061,17294 7647,17342 L 7647,17342 C 7647,17350 7647,17350 7647,17350 8098,17398 8475,17470 8701,17558 8964,17654 9077,17766 9077,17862 9077,17871 9077,17871 9077,17871 L 9077,17871 C 9492,17814 9981,17782 10508,17782 11035,17782 11525,17814 11939,17871 L 11939,17871 C 11901,17766 12014,17662 12278,17558 12541,17462 12956,17390 13408,17342 L 13408,17342 C 12956,17294 12541,17222 12278,17126 L 12278,17126 Z"/>
        <path fill="none" stroke="rgb(0,0,0)" stroke-width="60" stroke-linejoin="round" d="M 12278,17126 C 12014,17022 11901,16918 11939,16814 11525,16870 11035,16902 10508,16902 9981,16902 9492,16870 9077,16814 9040,16814 9040,16814 9040,16814 9077,16918 8964,17030 8701,17126 8475,17222 8061,17294 7647,17342 L 7647,17342 C 7647,17350 7647,17350 7647,17350 8098,17398 8475,17470 8701,17558 8964,17654 9077,17766 9077,17862 9077,17871 9077,17871 9077,17871 L 9077,17871 C 9492,17814 9981,17782 10508,17782 11035,17782 11525,17814 11939,17871 L 11939,17871 C 11901,17766 12014,17662 12278,17558 12541,17462 12956,17390 13408,17342 L 13408,17342 C 12956,17294 12541,17222 12278,17126 L 12278,17126 Z"/>
       </g>
       <g id="hit2" style="display:none">
        <path fill="rgb(255,255,255)" stroke="none" d="M 11732,17141 C 11539,17065 11456,16989 11484,16913 11181,16953 10823,16977 10438,16977 10052,16977 9694,16953 9392,16913 9364,16913 9364,16913 9364,16913 9392,16989 9309,17071 9116,17141 8951,17211 8648,17264 8346,17299 L 8346,17299 C 8346,17305 8346,17305 8346,17305 8676,17340 8951,17393 9116,17457 9309,17527 9392,17609 9392,17680 9392,17686 9392,17686 9392,17686 L 9392,17686 C 9694,17645 10052,17621 10438,17621 10823,17621 11181,17645 11484,17686 L 11484,17686 C 11456,17609 11539,17533 11732,17457 11924,17387 12227,17334 12558,17299 L 12558,17299 C 12227,17264 11924,17211 11732,17141 L 11732,17141 Z"/>
        <path fill="none" stroke="rgb(0,0,0)" stroke-width="60" stroke-linejoin="round" d="M 11732,17141 C 11539,17065 11456,16989 11484,16913 11181,16953 10823,16977 10438,16977 10052,16977 9694,16953 9392,16913 9364,16913 9364,16913 9364,16913 9392,16989 9309,17071 9116,17141 8951,17211 8648,17264 8346,17299 L 8346,17299 C 8346,17305 8346,17305 8346,17305 8676,17340 8951,17393 9116,17457 9309,17527 9392,17609 9392,17680 9392,17686 9392,17686 9392,17686 L 9392,17686 C 9694,17645 10052,17621 10438,17621 10823,17621 11181,17645 11484,17686 L 11484,17686 C 11456,17609 11539,17533 11732,17457 11924,17387 12227,17334 12558,17299 L 12558,17299 C 12227,17264 11924,17211 11732,17141 L 11732,17141 Z"/>
       </g>
       <g id="hit3" style="display:none">
        <path fill="rgb(255,255,255)" stroke="none" d="M 11274,17255 C 11153,17207 11101,17159 11119,17112 10928,17137 10704,17152 10461,17152 10219,17152 9994,17137 9804,17112 9787,17112 9787,17112 9787,17112 9804,17159 9752,17211 9631,17255 9527,17299 9337,17332 9147,17355 L 9147,17355 C 9147,17358 9147,17358 9147,17358 9354,17380 9527,17413 9631,17454 9752,17498 9804,17550 9804,17594 9804,17598 9804,17598 9804,17598 L 9804,17598 C 9994,17572 10219,17557 10461,17557 10704,17557 10928,17572 11119,17598 L 11119,17598 C 11101,17550 11153,17502 11274,17454 11396,17410 11586,17377 11794,17355 L 11794,17355 C 11586,17332 11396,17299 11274,17255 L 11274,17255 Z"/>
        <path fill="none" stroke="rgb(0,0,0)" stroke-width="60" stroke-linejoin="round" d="M 11274,17255 C 11153,17207 11101,17159 11119,17112 10928,17137 10704,17152 10461,17152 10219,17152 9994,17137 9804,17112 9787,17112 9787,17112 9787,17112 9804,17159 9752,17211 9631,17255 9527,17299 9337,17332 9147,17355 L 9147,17355 C 9147,17358 9147,17358 9147,17358 9354,17380 9527,17413 9631,17454 9752,17498 9804,17550 9804,17594 9804,17598 9804,17598 9804,17598 L 9804,17598 C 9994,17572 10219,17557 10461,17557 10704,17557 10928,17572 11119,17598 L 11119,17598 C 11101,17550 11153,17502 11274,17454 11396,17410 11586,17377 11794,17355 L 11794,17355 C 11586,17332 11396,17299 11274,17255 L 11274,17255 Z"/>
       </g>
    </g>
  <g id="body">
  <g>
          <path class="line" d="M 12376,8868 C 13935,9215 13907,9198 14572,9365 15283,9542 16037,9664 16666,9901 17297,10140 18300,12523 16666,13357 16414,13716 16540,16815 16415,17530 15534,17650 14655,17530 14151,17413 14151,16576 14403,13955 14403,13478 13744,13571 12146,13340 11522,13131"/>
          <path class="fill" d="M 16380,17510 C 16409,17365 16456,16994 16457,16875 16331,16875 15695,17036 14199,16859 14186,17037 14145,17411 14237,17411 14237,17411 15048,17703 16380,17510 Z"/>
  </g>
          <path id="tail_1" style="display:none" class="fill" d="M 17475,11332 C 17548,10858 18025,10704 18488,10692 19753,10892 20175,12453 18223,14555 18403,12292 17855,12372 17475,11332 Z"/>
          <path id="tail_2" style="display:none" class="fill" d="M 17476,11333 C 17550,10858 18026,10705 18489,10694 19754,10893 19163,12373 19332,14532 17855,13173 17856,12374 17476,11333 Z"/>
          <path id="tail_3" onmouseover="wag()" class="fill" d="M 17477,11333 C 17550,10859 18028,10705 18490,10694 19755,10894 18825,12613 20387,13732 18109,13492 17857,12373 17477,11333 Z"/>
          <path id="tail_sneeze" style="display:none" class="fill" d="M 17477,11333 C 17550,10859 18028,10705 18490,10694 19755,10894 19962,11343 21709,11562 18610,13202 17857,12373 17477,11333 Z"/>
  <g id="raised_hoof_1">
          <path class="line" d="M 9597,12723 C 9484,12865 8531,16415 8405,16772 8509,16863 8958,16947 9331,16865 9363,16436 9331,17056 9359,16403"/>
          <path id="hoof_top_right" class="fill" d="M 9359,16866 C 9386,16721 9379,16825 9388,16349 9388,16349 9139,16461 8490,16292 8478,16467 8364,16732 8364,16732 8364,16732 8671,17002 9359,16866 Z"/>
          <path id="hoof_1" onmouseover="stomp()" class="fill" d="M 11640,17287 C 11652,17140 11668,16811 11655,16693 11531,16705 10694,17009 9377,16653 9384,16830 9360,17313 9360,17313 9360,17313 10664,17619 11640,17287 Z"/>
          <path class="line" d="M 9590,12732 C 9580,13022 9387,17028 9388,17328 11052,17465 10909,17465 11626,17274 11588,15914 11549,14555 11495,13097"/>
  </g>
  <g id="raised_hoof_2" style="display:none">
          <path class="line" d="M 9590,12732 C 9515,12826 9151,13696 9101,14772 9051,15847 9892,16923 9876,17111 11029,16473 11255,16764 11912,16186 11396,15153 11396,15016 11166,14555 11080,13847 11367,13765 11495,13097"/>
          <path class="fill" d="M 11927,16171 C 11870,16032 11733,15729 11668,15628 11561,15689 10944,16307 9592,16523 9679,16681 9878,17128 9878,17128 9878,17128 11196,16871 11927,16171 Z"/>
          <path class="line" d="M 9590,12732 C 9485,12829 8532,16379 8406,16736 8510,16827 8959,16911 9332,16829 9364,16400 9332,17020 9360,16367"/>
          <path class="fill" d="M 9796,16888 C 9610,16522 9574,16620 9547,16321 9258,16293 9051,16397 8500,16227 8487,16404 8357,16694 8357,16694 8357,16694 8536,17030 9796,16888 Z"/>
  </g>
  <g id="raised_hoof_3" style="display:none">
          <path class="line" d="M 9590,12732 C 9484,12865 8531,16415 8405,16772 8509,16863 8958,16947 9331,16865 9363,16436 9331,17056 9359,16403"/>
          <path class="line" d="M 9590,12732 C 9516,12790 9152,13660 9102,14736 9052,15811 10667,16887 10651,17075 11805,16437 11716,16293 12373,15715 11712,14818 11570,14899 11226,14437 11140,13729 11368,13729 11495,13097"/>
          <path class="fill" d="M 12375,15649 C 12282,15529 12067,15269 11976,15188 11890,15273 11462,16021 10216,16562 10343,16693 10657,17076 10657,17076 10657,17076 11860,16504 12375,15649 Z"/>
          <path class="fill" d="M 9990,16839 C 9998,16549 9961,16621 9934,16322 9645,16294 9049,16396 8499,16227 8486,16403 8356,16693 8356,16693 8356,16693 8636,17093 9990,16839 Z"/>
  </g>
      </g>
  <g id="head">
    <path id="contour" class="line" d="M 10341,7834 C 9502,9441 9557,11390 9590,12732"/>
    <path id="contour_t0" class="line" style="display:none" d="M 10341,7834 C 9502,9441 9557,11390 9590,12732"/>
    <!--
    <path id="contour_t1" class="line" style="display:none" d="M 7306,9719 C 8682,10181 9055,10676 9590,12732"/>
    -->
    <path id="back" class="line" d="M 12376,8868 C 12376,8868 12376,8868 12376,8868"/>
    <path id="back_t0" class="line" style="display:none" d="M 12376,8868 C 12376,8868 12376,8868 12376,8868"/>
    <path id="back_t1" class="line" style="display:none" d="M 12376,8868 C 10212,8420 9665,8261 9301,7627"/>
    <g id="head_without_neck" transform-origin="10807 12015">
    <g id="hcontour">
      <path class="line" d="M 7837,5080 L 7495,5554 7024,5913"/>
      <path class="line" d="M 7519,8114 C 7639,8092 8267,8066 8286,8063 9241,8343 9993,8343 10341,7834"/>
    </g>
      <g id="mane">
        <path class="fill" d="M 7471,5501 C 8381,4415 9022,4834 9600,4664 10177,4494 11039,3649 10862,3619 L 10382,3539 C 10111,3464 9786,3506 9477,3553 8899,3722 8118,3906 7471,5501 Z"/>
        <path class="fill" d="M 12252,8088 C 11525,11951 13426,11604 13994,11279 12841,11200 13077,10708 13015,10004 Z"/>
        <path class="fill" d="M 12312,6887 C 12312,6887 11704,10921 14217,9866 14217,9866 12961,10064 13238,8591 Z"/>
        <path class="fill" d="M 11465,3794 C 12985,4275 13609,5523 13496,6905 13457,7645 13679,8497 14684,8193 14551,8917 12939,9270 12333,7030 12049,6047 12038,5456 11580,4820 Z"/>
      </g>
      <g class="Group" id="horn" onmouseover="sneeze()">
         <path fill="rgb(255,47,0)" stroke="none" d="M 8254,2675 C 8368,2641 8403,2417 8344,2303 L 8256,2182 C 8183,2092 8216,2051 8102,2022 L 8072,2110 C 8067,2175 8107,2323 8127,2385 8158,2483 8173,2625 8254,2675 Z"/>
         <path fill="none" stroke="rgb(0,0,0)" stroke-width="50" stroke-linejoin="miter" d="M 8254,2675 C 8368,2641 8403,2417 8344,2303 L 8256,2182 C 8183,2092 8216,2051 8102,2022 L 8072,2110 C 8067,2175 8107,2323 8127,2385 8158,2483 8173,2625 8254,2675 Z"/>
         <path fill="rgb(255,153,0)" stroke="none" d="M 8336,3016 C 8538,3024 8656,3021 8657,2802 8658,2724 8637,2663 8610,2613 L 8530,2520 C 8523,2515 8482,2487 8482,2487 8222,2554 8271,2793 8336,3016 Z"/>
         <path fill="none" stroke="rgb(0,0,0)" stroke-width="50" stroke-linejoin="miter" d="M 8336,3016 C 8538,3024 8656,3021 8657,2802 8658,2724 8637,2663 8610,2613 L 8530,2520 C 8523,2515 8482,2487 8482,2487 8222,2554 8271,2793 8336,3016 Z"/>
         <path fill="rgb(255,255,0)" stroke="none" d="M 8542,3010 C 8500,3053 8437,3061 8414,3093 8394,3124 8393,3232 8405,3256 8455,3274 8415,3344 8453,3473 8544,3481 8596,3377 8679,3363 8718,3324 8740,3283 8776,3234 8816,3180 8836,3151 8852,3064 8851,3024 8837,2994 8828,2958 8745,2897 8778,2865 8715,2830 8658,2879 8646,2954 8568,3001 L 8542,3010 Z"/>
         <path fill="none" stroke="rgb(0,0,0)" stroke-width="50" stroke-linejoin="miter" d="M 8542,3010 C 8500,3053 8437,3061 8414,3093 8394,3124 8393,3232 8405,3256 8455,3274 8415,3344 8453,3473 8544,3481 8596,3377 8679,3363 8718,3324 8740,3283 8776,3234 8816,3180 8836,3151 8852,3064 8851,3024 8837,2994 8828,2958 8745,2897 8778,2865 8715,2830 8658,2879 8646,2954 8568,3001 L 8542,3010 Z"/>
         <path fill="rgb(72,246,57)" stroke="none" d="M 8692,3905 C 8862,3737 8753,3790 8934,3642 8937,3639 8942,3635 8945,3632 L 8967,3612 C 9040,3538 9079,3443 9100,3333 9117,3247 9120,3275 9091,3215 9078,3190 9078,3195 9059,3166 9056,3161 9042,3147 9041,3138 9041,3129 9035,3127 9032,3123 8936,3127 9019,3123 8957,3133 8937,3136 8970,3124 8922,3139 8864,3158 8845,3198 8804,3240 8626,3417 8477,3446 8475,3731 8474,3898 8523,3882 8692,3905 Z"/>
         <path fill="none" stroke="rgb(0,0,0)" stroke-width="50" stroke-linejoin="miter" d="M 8692,3905 C 8862,3737 8753,3790 8934,3642 8937,3639 8942,3635 8945,3632 L 8967,3612 C 9040,3538 9079,3443 9100,3333 9117,3247 9120,3275 9091,3215 9078,3190 9078,3195 9059,3166 9056,3161 9042,3147 9041,3138 9041,3129 9035,3127 9032,3123 8936,3127 9019,3123 8957,3133 8937,3136 8970,3124 8922,3139 8864,3158 8845,3198 8804,3240 8626,3417 8477,3446 8475,3731 8474,3898 8523,3882 8692,3905 Z"/>
         <path fill="rgb(171,65,127)" stroke="none" d="M 9371,3608 C 9297,3811 9564,3745 9152,4213 9124,4244 8563,4817 8788,4705 L 9897,4158 C 9976,4118 9576,3750 9444,3625 9424,3606 9374,3601 9371,3608 Z"/>
         <path fill="none" stroke="rgb(0,0,0)" stroke-width="50" stroke-linejoin="miter" d="M 9371,3608 C 9297,3811 9564,3745 9152,4213 9124,4244 8563,4817 8788,4705 L 9897,4158 C 9976,4118 9576,3750 9444,3625 9424,3606 9374,3601 9371,3608 Z"/>
         <path fill="rgb(106,247,242)" stroke="none" d="M 9083,3405 C 9069,3500 8954,3669 8904,3746 8839,3847 8631,3958 8608,3979 L 8621,4103 C 8680,4209 8716,4508 8763,4579 8838,4573 9006,4368 9060,4302 9113,4237 9246,4153 9325,3964 9360,3881 9378,3718 9372,3609 9344,3565 9338,3580 9309,3522 9282,3468 9293,3460 9256,3423 9184,3386 9220,3367 9147,3342 9113,3383 9137,3371 9083,3405 Z"/>
         <path fill="none" stroke="rgb(0,0,0)" stroke-width="50" stroke-linejoin="miter" d="M 9083,3405 C 9069,3500 8954,3669 8904,3746 8839,3847 8631,3958 8608,3979 L 8621,4103 C 8680,4209 8716,4508 8763,4579 8838,4573 9006,4368 9060,4302 9113,4237 9246,4153 9325,3964 9360,3881 9378,3718 9372,3609 9344,3565 9338,3580 9309,3522 9282,3468 9293,3460 9256,3423 9184,3386 9220,3367 9147,3342 9113,3383 9137,3371 9083,3405 Z"/>
         <path fill="none" stroke="rgb(0,0,0)" stroke-width="75" stroke-linejoin="miter" d="M 7997,1858 L 8779,4730 9904,4167 7997,1858 Z"/>
      </g>
      <g class="Group" id="ear" onmouseover="eye()">
         <path fill="rgb(255,255,255)" stroke="none" d="M 11507,5401 C 11678,4233 11470,3377 11157,3069 10628,3253 10328,4166 10202,4781 Z"/>
         <path class="line" d="M 11507,5401 C 11678,4233 11470,3377 11157,3069 10628,3253 10328,4166 10202,4781"/>
         <path fill="rgb(245,177,181)" stroke="none" d="M 10537,4917 C 10607,4512 10712,3975 11022,3644 11234,3881 11195,4773 11116,5156 Z"/>
         <path class="line" d="M 10537,4917 C 10607,4512 10712,3975 11022,3644 11234,3881 11195,4773 11116,5156"/>
      </g>
      <path id="eated_3" class="grass" style="display:none" d="M 6788,8143 C 6479,8201 5955,8313 4852,8598 5605,8279 6098,8082 6721,7849 Z"/>
      <path id="eated_3_zero" class="clear" d="M 7396,8077 L 7317,7680 8745,7178 8878,7958 Z"/>
      <g id="snout" onmouseover="smile()">
	<path class="fill" d="M 7020,5914 C 5695,6621 6105,7678 6501,8002 6868,7969 7302,8002 7502,7801 7581,7067 7101,7079 7020,5914 Z" />
	<path id="jowl" class="fill" transform="rotate(-15)" transform-origin="7502 7801" d="M 6501,8002 C 6868,7969 7302,8002 7502,7801 7473,7926 7500,8039 7522,8112 7294,8158 6808,8243 6501,8002 Z" />
        <path fill="rgb(0,0,0)" stroke="rgb(0,0,0)" stroke-width="20" stroke-linejoin="miter" d="M 6664,6661 L 6665,6661 C 6692,6661 6715,6667 6738,6681 6761,6694 6778,6711 6791,6734 6805,6757 6811,6780 6811,6807 6811,6834 6805,6857 6791,6880 6778,6903 6761,6920 6738,6933 6715,6947 6692,6953 6665,6953 6638,6953 6615,6947 6592,6933 6569,6920 6552,6903 6539,6880 6525,6857 6519,6834 6519,6807 6519,6780 6525,6757 6539,6734 6552,6711 6569,6694 6592,6681 6615,6667 6637,6661 6664,6661 Z"/>
      </g>
      <g id="eye2_open">
         <path id="eye2fill" class="eye2" d="M 8573,5462 C 8913,5462 9173,5722 9173,6062 9173,6402 8913,6662 8573,6662 8233,6662 7973,6402 7973,6062 7973,5722 8233,5462 8573,5462 Z"/>
	 <g id="eyeball">
           <circle id="eyeball" class="eyeball" cx="8431" cy="5925" r="353" />
           <circle id="glare1" class="glare" cx="8299" cy="5770" r="90" />
           <circle id="glare2" class="glare" cx="8572" cy="5852" r="90" />
	 </g>
         <path id="eye2clear" class="clear" d="M 8573,5462 C 8913,5462 9173,5722 9173,6062 9173,5722 8913,5462 8573,5462 8233,5462 7973,5722 7973,6062 7973,5722 8233,5462 8573,5462 Z"/>
         <path id="eye2contour" class="eyeline" d="M 8573,5462 C 8913,5462 9173,5722 9173,6062 9173,6402 8913,6662 8573,6662 8233,6662 7973,6402 7973,6062 7973,5722 8233,5462 8573,5462 Z"/>
         <path id="eyelash1" class="line" d="M 8154,5620 L 7981,5362"/>
         <path id="eyelash2" class="line" d="M 8575,5447 L 8581,5162"/>
         <path id="eyelash3" class="line" d="M 9004,5626 L 9181,5362"/>
         <g style="display:none">
                <path id="eye2_t1" d="M 8573,5462 C 8913,5462 9173,5722 9173,6062 9173,6402 8913,6662 8573,6662 8233,6662 7973,6402 7973,6062 7973,5722 8233,5462 8573,5462 Z"/>
                <path id="eye2_t2" d="M 8573,6662 C 8913,6662 9173,6402 9173,6062 9173,6402 8913,6662 8573,6662 8233,6662 7973,6402 7973,6062 7973,6402 8233,6662 8573,6662 Z"/>
		<path id="eye2_t3" class="clear" d="M 8573,5462 C 8913,5462 9173,5722 9173,6062 9173,5722 8913,5462 8573,5462 8233,5462 7973,5722 7973,6062 7973,5722 8233,5462 8573,5462 Z"/>
                <path id="eyelash1_t1" d="M 8154,5620 L 7981,5362"/>
                <path id="eyelash2_t1" d="M 8575,5447 L 8581,5162"/>
                <path id="eyelash3_t1" d="M 9004,5626 L 9181,5362"/>
                <path id="eyelash1_t2" d="M 8149,6523 L 7978,6766"/>
                <path id="eyelash2_t2" d="M 8578,6690 L 8578,6975"/>
                <path id="eyelash3_t2" d="M 9004,6531 L 9181,6738"/>
         </g>
      </g>
    </g>
    </g>
    <g id="head_up1" style="display:none">
    <g id="hcontour_up1">
      <path class="line" d="M 8078,4761 L 7699,5206 7200,5526"/>
      <path class="line" d="M 7516,7760 C 7638,7747 8266,7772 8285,7771 9214,8127 9964,8187 10352,7708"/>
    </g>
    <path id="contour_up1" class="line" d="M 10343,7719 C 9502,9441 9557,11390 9590,12732"/>
      <g id="mane_up1">
        <path class="fill" d="M 7679,5151 C 8674,4142 9279,4611 9869,4489 10457,4366 11385,3593 11211,3549 L 10739,3430 C 10475,3334 10147,3349 9836,3371 9246,3493 8453,3614 7679,5151 Z"/>
        <path class="fill" d="M 12236,8115 C 11200,11907 13123,11714 13715,11436 12572,11265 12847,10793 12842,10086 Z"/>
        <path class="fill" d="M 12393,6923 C 12393,6923 11461,10895 14051,10046 14051,10046 12783,10142 13178,8696 Z"/>
        <path class="fill" d="M 11798,3772 C 13274,4374 13795,5668 13571,7036 13473,7771 13625,8638 14652,8416 14461,9127 12825,9349 12402,7067 12198,6064 12235,5475 11830,4804 Z"/>
      </g>
      <g class="Group" id="horn_up1">
         <path fill="rgb(255,47,0)" stroke="none" d="M 8687,2397 C 8804,2373 8857,2152 8807,2034 L 8729,1906 C 8664,1811 8700,1772 8589,1734 L 8552,1820 C 8541,1884 8569,2035 8584,2098 8607,2198 8611,2341 8687,2397 Z"/>
         <path fill="none" stroke="rgb(0,0,0)" stroke-width="50" stroke-linejoin="miter" d="M 8687,2397 C 8804,2373 8857,2152 8807,2034 L 8729,1906 C 8664,1811 8700,1772 8589,1734 L 8552,1820 C 8541,1884 8569,2035 8584,2098 8607,2198 8611,2341 8687,2397 Z"/>
         <path fill="rgb(255,153,0)" stroke="none" d="M 8742,2744 C 8942,2768 9060,2775 9079,2557 9086,2479 9070,2416 9047,2364 L 8975,2265 C 8968,2260 8930,2228 8930,2228 8665,2274 8695,2516 8742,2744 Z"/>
         <path fill="none" stroke="rgb(0,0,0)" stroke-width="50" stroke-linejoin="miter" d="M 8742,2744 C 8942,2768 9060,2775 9079,2557 9086,2479 9070,2416 9047,2364 L 8975,2265 C 8968,2260 8930,2228 8930,2228 8665,2274 8695,2516 8742,2744 Z"/>
         <path fill="rgb(255,255,0)" stroke="none" d="M 8947,2755 C 8902,2794 8839,2797 8813,2827 8791,2856 8781,2964 8791,2989 8839,3011 8794,3077 8821,3209 8911,3224 8972,3125 9056,3118 9098,3082 9123,3043 9163,2997 9207,2946 9229,2919 9252,2833 9254,2793 9243,2762 9237,2726 9159,2658 9194,2629 9134,2589 9074,2633 9056,2707 8974,2748 L 8947,2755 Z"/>
         <path fill="none" stroke="rgb(0,0,0)" stroke-width="50" stroke-linejoin="miter" d="M 8947,2755 C 8902,2794 8839,2797 8813,2827 8791,2856 8781,2964 8791,2989 8839,3011 8794,3077 8821,3209 8911,3224 8972,3125 9056,3118 9098,3082 9123,3043 9163,2997 9207,2946 9229,2919 9252,2833 9254,2793 9243,2762 9237,2726 9159,2658 9194,2629 9134,2589 9074,2633 9056,2707 8974,2748 L 8947,2755 Z"/>
         <path fill="rgb(72,246,57)" stroke="none" d="M 9025,3659 C 9208,3505 9095,3549 9287,3416 9290,3413 9296,3410 9299,3407 L 9323,3389 C 9401,3321 9448,3230 9478,3122 9501,3037 9502,3065 9478,3003 9467,2977 9467,2982 9450,2952 9448,2947 9435,2931 9434,2922 9435,2913 9429,2911 9427,2907 9331,2903 9414,2906 9351,2911 9331,2912 9365,2903 9316,2914 9256,2928 9234,2966 9190,3005 8998,3167 8847,3184 8823,3468 8808,3634 8858,3622 9025,3659 Z"/>
         <path fill="none" stroke="rgb(0,0,0)" stroke-width="50" stroke-linejoin="miter" d="M 9025,3659 C 9208,3505 9095,3549 9287,3416 9290,3413 9296,3410 9299,3407 L 9323,3389 C 9401,3321 9448,3230 9478,3122 9501,3037 9502,3065 9478,3003 9467,2977 9467,2982 9450,2952 9448,2947 9435,2931 9434,2922 9435,2913 9429,2911 9427,2907 9331,2903 9414,2906 9351,2911 9331,2912 9365,2903 9316,2914 9256,2928 9234,2966 9190,3005 8998,3167 8847,3184 8823,3468 8808,3634 8858,3622 9025,3659 Z"/>
         <path fill="rgb(171,65,127)" stroke="none" d="M 9726,3418 C 9635,3614 9907,3570 9458,4003 9428,4032 8823,4557 9056,4464 L 10205,4008 C 10287,3975 9918,3576 9797,3440 9778,3420 9729,3411 9726,3418 Z"/>
         <path fill="none" stroke="rgb(0,0,0)" stroke-width="50" stroke-linejoin="miter" d="M 9726,3418 C 9635,3614 9907,3570 9458,4003 9428,4032 8823,4557 9056,4464 L 10205,4008 C 10287,3975 9918,3576 9797,3440 9778,3420 9729,3411 9726,3418 Z"/>
         <path fill="rgb(106,247,242)" stroke="none" d="M 9455,3192 C 9433,3286 9305,3445 9249,3517 9176,3613 8960,3707 8935,3726 L 8938,3850 C 8988,3961 9000,4262 9041,4336 9116,4336 9300,4146 9360,4084 9418,4024 9557,3951 9651,3769 9693,3689 9724,3528 9726,3419 9702,3372 9695,3387 9671,3327 9648,3271 9660,3264 9626,3224 9557,3181 9594,3165 9524,3134 9486,3172 9511,3162 9455,3192 Z"/>
         <path fill="none" stroke="rgb(0,0,0)" stroke-width="50" stroke-linejoin="miter" d="M 9455,3192 C 9433,3286 9305,3445 9249,3517 9176,3613 8960,3707 8935,3726 L 8938,3850 C 8988,3961 9000,4262 9041,4336 9116,4336 9300,4146 9360,4084 9418,4024 9557,3951 9651,3769 9693,3689 9724,3528 9726,3419 9702,3372 9695,3387 9671,3327 9648,3271 9660,3264 9626,3224 9557,3181 9594,3165 9524,3134 9486,3172 9511,3162 9455,3192 Z"/>
         <path fill="none" stroke="rgb(0,0,0)" stroke-width="75" stroke-linejoin="miter" d="M 8497,1562 L 9045,4488 10212,4018 8497,1562 Z"/>
      </g>
      <g class="Group" id="ear_up1">
         <path fill="rgb(255,255,255)" stroke="none" d="M 11710,5377 C 11975,4226 11836,3356 11549,3024 11007,3165 10634,4051 10459,4654 Z"/>
         <path class="line" d="M 11710,5377 C 11975,4226 11836,3356 11549,3024 11007,3165 10634,4051 10459,4654"/>
         <path fill="rgb(245,177,181)" stroke="none" d="M 10782,4816 C 10885,4418 11033,3891 11368,3586 11560,3840 11450,4726 11340,5101 Z"/>
         <path class="line" d="M 10782,4816 C 10885,4418 11033,3891 11368,3586 11560,3840 11450,4726 11340,5101"/>
      </g>
      <g id="snout_up1">
	<path class="fill" d="M 7196,5526 C 5819,6124 6142,7211 6511,7566 6879,7563 7309,7630 7525,7446 7662,6721 7183,6694 7196,5526 Z"/>
	<path id="jowl_up1" class="fill" d="M 6635,7924 C 6967,7757 7281,7786 7513,7440 7497,7567 7534,7677 7564,7748 7343,7883 6956,8034 6621,7926 Z"/>
        <path fill="rgb(0,0,0)" stroke="rgb(0,0,0)" stroke-width="20" stroke-linejoin="miter" d="M 6781,6242 L 6782,6242 C 6809,6245 6832,6252 6853,6268 6875,6283 6891,6301 6902,6325 6914,6349 6918,6373 6916,6400 6914,6427 6906,6449 6890,6471 6875,6493 6857,6508 6833,6519 6809,6532 6786,6536 6759,6533 6732,6531 6709,6523 6688,6508 6666,6493 6650,6475 6639,6451 6627,6426 6623,6403 6625,6376 6627,6349 6635,6327 6651,6305 6666,6283 6684,6268 6708,6256 6732,6244 6754,6240 6781,6242 Z"/>
      </g>
      <g id="eye_up1">
         <path class="line" d="M 8374,5369 L 8199,5054"/>
         <path class="line" d="M 8781,5301 L 8813,4903"/>
         <path class="line" d="M 9171,5433 L 9395,5150"/>
         <path fill="rgb(142,248,245)" stroke="none" d="M 8781,5201 C 9120,5229 9358,5509 9330,5848 9303,6186 9023,6425 8684,6397 8345,6370 8107,6090 8134,5751 8162,5412 8442,5174 8781,5201 Z"/>
         <path fill="none" stroke="rgb(0,0,0)" stroke-width="50" stroke-linejoin="round" d="M 8781,5201 C 9120,5229 9358,5509 9330,5848 9303,6186 9023,6425 8684,6397 8345,6370 8107,6090 8134,5751 8162,5412 8442,5174 8781,5201 Z"/>
          <path fill="rgb(0,0,0)" stroke="none" d="M 8631,5289 C 8696,5295 8748,5314 8802,5350 8855,5387 8892,5430 8919,5488 8946,5547 8957,5602 8952,5666 8946,5731 8927,5784 8891,5837 8854,5890 8811,5927 8753,5954 8694,5982 8639,5992 8575,5987 8510,5982 8457,5963 8404,5926 8351,5890 8314,5847 8287,5788 8259,5730 8249,5675 8254,5610 8259,5545 8279,5493 8315,5439 8351,5386 8394,5349 8453,5322 8511,5295 8566,5284 8631,5289 Z"/>
          <path fill="none" stroke="rgb(0,0,0)" stroke-width="20" stroke-linejoin="miter" d="M 8631,5289 C 8696,5295 8748,5314 8802,5350 8855,5387 8892,5430 8919,5488 8946,5547 8957,5602 8952,5666 8946,5731 8927,5784 8891,5837 8854,5890 8811,5927 8753,5954 8694,5982 8639,5992 8575,5987 8510,5982 8457,5963 8404,5926 8351,5890 8314,5847 8287,5788 8259,5730 8249,5675 8254,5610 8259,5545 8279,5493 8315,5439 8351,5386 8394,5349 8453,5322 8511,5295 8566,5284 8631,5289 Z"/>
          <path fill="rgb(255,255,255)" stroke="none" d="M 8751,5511 C 8767,5512 8780,5517 8794,5526 8808,5535 8818,5547 8825,5562 8831,5577 8834,5591 8833,5608 8832,5624 8827,5637 8817,5652 8808,5665 8796,5675 8782,5682 8766,5689 8752,5691 8736,5690 8719,5689 8706,5684 8692,5675 8679,5665 8669,5654 8662,5639 8655,5623 8652,5609 8654,5593 8655,5576 8660,5564 8669,5549 8678,5536 8690,5526 8705,5519 8720,5512 8734,5509 8751,5511 Z"/>
          <path fill="none" stroke="rgb(0,0,0)" stroke-width="20" stroke-linejoin="miter" d="M 8751,5511 C 8767,5512 8780,5517 8794,5526 8808,5535 8818,5547 8825,5562 8831,5577 8834,5591 8833,5608 8832,5624 8827,5637 8817,5652 8808,5665 8796,5675 8782,5682 8766,5689 8752,5691 8736,5690 8719,5689 8706,5684 8692,5675 8679,5665 8669,5654 8662,5639 8655,5623 8652,5609 8654,5593 8655,5576 8660,5564 8669,5549 8678,5536 8690,5526 8705,5519 8720,5512 8734,5509 8751,5511 Z"/>
          <path fill="rgb(255,255,255)" stroke="none" d="M 8493,5402 C 8508,5403 8522,5408 8536,5417 8550,5426 8560,5438 8567,5453 8573,5468 8576,5482 8575,5499 8574,5514 8569,5528 8559,5542 8550,5556 8538,5566 8524,5573 8508,5579 8494,5582 8478,5581 8461,5580 8448,5575 8434,5565 8421,5556 8411,5544 8404,5530 8397,5514 8394,5500 8396,5484 8397,5467 8402,5454 8411,5440 8420,5427 8432,5417 8447,5410 8462,5403 8476,5400 8493,5402 Z"/>
          <path fill="none" stroke="rgb(0,0,0)" stroke-width="20" stroke-linejoin="miter" d="M 8493,5402 C 8508,5403 8522,5408 8536,5417 8550,5426 8560,5438 8567,5453 8573,5468 8576,5482 8575,5499 8574,5514 8569,5528 8559,5542 8550,5556 8538,5566 8524,5573 8508,5579 8494,5582 8478,5581 8461,5580 8448,5575 8434,5565 8421,5556 8411,5544 8404,5530 8397,5514 8394,5500 8396,5484 8397,5467 8402,5454 8411,5440 8420,5427 8432,5417 8447,5410 8462,5403 8476,5400 8493,5402 Z"/>
      </g>
      </g>
       <g id="head_up1_eye" style="display:none">
    <g id="hcontour_up1_eye">
      <path class="line" d="M 8078,4761 L 7699,5206 7200,5526"/>
      <path class="line" d="M 7516,7760 C 7638,7747 8266,7772 8285,7771 9214,8127 9964,8187 10352,7708"/>
    </g>
    <path id="contour_up1_eye" class="line" d="M 10343,7719 C 9502,9441 9557,11390 9590,12732"/>
      <g id="mane_up1_eye">
        <path class="fill" d="M 7679,5151 C 8674,4142 9279,4611 9869,4489 10457,4366 11385,3593 11211,3549 L 10739,3430 C 10475,3334 10147,3349 9836,3371 9246,3493 8453,3614 7679,5151 Z"/>
        <path class="fill" d="M 12236,8115 C 11200,11907 13123,11714 13715,11436 12572,11265 12847,10793 12842,10086 Z"/>
        <path class="fill" d="M 12393,6923 C 12393,6923 11461,10895 14051,10046 14051,10046 12783,10142 13178,8696 Z"/>
        <path class="fill" d="M 11798,3772 C 13274,4374 13795,5668 13571,7036 13473,7771 13625,8638 14652,8416 14461,9127 12825,9349 12402,7067 12198,6064 12235,5475 11830,4804 Z"/>
      </g>
      <g class="Group" id="horn_up1_eye">
         <path fill="rgb(255,47,0)" stroke="none" d="M 8687,2397 C 8804,2373 8857,2152 8807,2034 L 8729,1906 C 8664,1811 8700,1772 8589,1734 L 8552,1820 C 8541,1884 8569,2035 8584,2098 8607,2198 8611,2341 8687,2397 Z"/>
         <path fill="none" stroke="rgb(0,0,0)" stroke-width="50" stroke-linejoin="miter" d="M 8687,2397 C 8804,2373 8857,2152 8807,2034 L 8729,1906 C 8664,1811 8700,1772 8589,1734 L 8552,1820 C 8541,1884 8569,2035 8584,2098 8607,2198 8611,2341 8687,2397 Z"/>
         <path fill="rgb(255,153,0)" stroke="none" d="M 8742,2744 C 8942,2768 9060,2775 9079,2557 9086,2479 9070,2416 9047,2364 L 8975,2265 C 8968,2260 8930,2228 8930,2228 8665,2274 8695,2516 8742,2744 Z"/>
         <path fill="none" stroke="rgb(0,0,0)" stroke-width="50" stroke-linejoin="miter" d="M 8742,2744 C 8942,2768 9060,2775 9079,2557 9086,2479 9070,2416 9047,2364 L 8975,2265 C 8968,2260 8930,2228 8930,2228 8665,2274 8695,2516 8742,2744 Z"/>
         <path fill="rgb(255,255,0)" stroke="none" d="M 8947,2755 C 8902,2794 8839,2797 8813,2827 8791,2856 8781,2964 8791,2989 8839,3011 8794,3077 8821,3209 8911,3224 8972,3125 9056,3118 9098,3082 9123,3043 9163,2997 9207,2946 9229,2919 9252,2833 9254,2793 9243,2762 9237,2726 9159,2658 9194,2629 9134,2589 9074,2633 9056,2707 8974,2748 L 8947,2755 Z"/>
         <path fill="none" stroke="rgb(0,0,0)" stroke-width="50" stroke-linejoin="miter" d="M 8947,2755 C 8902,2794 8839,2797 8813,2827 8791,2856 8781,2964 8791,2989 8839,3011 8794,3077 8821,3209 8911,3224 8972,3125 9056,3118 9098,3082 9123,3043 9163,2997 9207,2946 9229,2919 9252,2833 9254,2793 9243,2762 9237,2726 9159,2658 9194,2629 9134,2589 9074,2633 9056,2707 8974,2748 L 8947,2755 Z"/>
         <path fill="rgb(72,246,57)" stroke="none" d="M 9025,3659 C 9208,3505 9095,3549 9287,3416 9290,3413 9296,3410 9299,3407 L 9323,3389 C 9401,3321 9448,3230 9478,3122 9501,3037 9502,3065 9478,3003 9467,2977 9467,2982 9450,2952 9448,2947 9435,2931 9434,2922 9435,2913 9429,2911 9427,2907 9331,2903 9414,2906 9351,2911 9331,2912 9365,2903 9316,2914 9256,2928 9234,2966 9190,3005 8998,3167 8847,3184 8823,3468 8808,3634 8858,3622 9025,3659 Z"/>
         <path fill="none" stroke="rgb(0,0,0)" stroke-width="50" stroke-linejoin="miter" d="M 9025,3659 C 9208,3505 9095,3549 9287,3416 9290,3413 9296,3410 9299,3407 L 9323,3389 C 9401,3321 9448,3230 9478,3122 9501,3037 9502,3065 9478,3003 9467,2977 9467,2982 9450,2952 9448,2947 9435,2931 9434,2922 9435,2913 9429,2911 9427,2907 9331,2903 9414,2906 9351,2911 9331,2912 9365,2903 9316,2914 9256,2928 9234,2966 9190,3005 8998,3167 8847,3184 8823,3468 8808,3634 8858,3622 9025,3659 Z"/>
         <path fill="rgb(171,65,127)" stroke="none" d="M 9726,3418 C 9635,3614 9907,3570 9458,4003 9428,4032 8823,4557 9056,4464 L 10205,4008 C 10287,3975 9918,3576 9797,3440 9778,3420 9729,3411 9726,3418 Z"/>
         <path fill="none" stroke="rgb(0,0,0)" stroke-width="50" stroke-linejoin="miter" d="M 9726,3418 C 9635,3614 9907,3570 9458,4003 9428,4032 8823,4557 9056,4464 L 10205,4008 C 10287,3975 9918,3576 9797,3440 9778,3420 9729,3411 9726,3418 Z"/>
         <path fill="rgb(106,247,242)" stroke="none" d="M 9455,3192 C 9433,3286 9305,3445 9249,3517 9176,3613 8960,3707 8935,3726 L 8938,3850 C 8988,3961 9000,4262 9041,4336 9116,4336 9300,4146 9360,4084 9418,4024 9557,3951 9651,3769 9693,3689 9724,3528 9726,3419 9702,3372 9695,3387 9671,3327 9648,3271 9660,3264 9626,3224 9557,3181 9594,3165 9524,3134 9486,3172 9511,3162 9455,3192 Z"/>
         <path fill="none" stroke="rgb(0,0,0)" stroke-width="50" stroke-linejoin="miter" d="M 9455,3192 C 9433,3286 9305,3445 9249,3517 9176,3613 8960,3707 8935,3726 L 8938,3850 C 8988,3961 9000,4262 9041,4336 9116,4336 9300,4146 9360,4084 9418,4024 9557,3951 9651,3769 9693,3689 9724,3528 9726,3419 9702,3372 9695,3387 9671,3327 9648,3271 9660,3264 9626,3224 9557,3181 9594,3165 9524,3134 9486,3172 9511,3162 9455,3192 Z"/>
         <path fill="none" stroke="rgb(0,0,0)" stroke-width="75" stroke-linejoin="miter" d="M 8497,1562 L 9045,4488 10212,4018 8497,1562 Z"/>
      </g>
      <g class="Group" id="ear_up1_eye">
         <path fill="rgb(255,255,255)" stroke="none" d="M 11710,5377 C 11975,4226 11836,3356 11549,3024 11007,3165 10634,4051 10459,4654 Z"/>
         <path class="line" d="M 11710,5377 C 11975,4226 11836,3356 11549,3024 11007,3165 10634,4051 10459,4654"/>
         <path fill="rgb(245,177,181)" stroke="none" d="M 10782,4816 C 10885,4418 11033,3891 11368,3586 11560,3840 11450,4726 11340,5101 Z"/>
         <path class="line" d="M 10782,4816 C 10885,4418 11033,3891 11368,3586 11560,3840 11450,4726 11340,5101"/>
      </g>
      <g id="snout_up1_eye">
	<path class="fill" d="M 7196,5526 C 5819,6124 6142,7211 6511,7566 6879,7563 7309,7630 7525,7446 7662,6721 7183,6694 7196,5526 Z"/>
	<path id="jowl_up1" class="fill" d="M 6635,7924 C 6967,7757 7281,7786 7513,7440 7497,7567 7534,7677 7564,7748 7343,7883 6956,8034 6621,7926 Z"/>
        <path fill="rgb(0,0,0)" stroke="rgb(0,0,0)" stroke-width="20" stroke-linejoin="miter" d="M 6781,6242 L 6782,6242 C 6809,6245 6832,6252 6853,6268 6875,6283 6891,6301 6902,6325 6914,6349 6918,6373 6916,6400 6914,6427 6906,6449 6890,6471 6875,6493 6857,6508 6833,6519 6809,6532 6786,6536 6759,6533 6732,6531 6709,6523 6688,6508 6666,6493 6650,6475 6639,6451 6627,6426 6623,6403 6625,6376 6627,6349 6635,6327 6651,6305 6666,6283 6684,6268 6708,6256 6732,6244 6754,6240 6781,6242 Z"/>
      </g>
        <g class="Group" id="eye2_almost_open_1_up1">
         <path class="line" d="M 8345,5575 L 8169,5261"/>
         <path class="line" d="M 8752,5506 L 8783,5108"/>
         <path class="line" d="M 9143,5637 L 9366,5354"/>
         <path fill="rgb(142,248,245)" stroke="none" d="M 9319,5848 C 9319,5851 9319,5854 9318,5858 9310,5967 9278,6058 9215,6148 9152,6239 9078,6301 8979,6348 8879,6395 8784,6413 8673,6404 8562,6395 8471,6363 8380,6301 8289,6240 8225,6167 8178,6068 8129,5969 8112,5874 8120,5765 L 8119,5772 C 8120,5768 8120,5764 8120,5760 8127,5680 8157,5614 8218,5548 8278,5483 8351,5438 8449,5406 8548,5372 8643,5362 8753,5370 8864,5379 8956,5404 9048,5452 9141,5500 9206,5555 9255,5629 9305,5703 9325,5773 9319,5852 9319,5855 9318,5857 9318,5860 L 9319,5848 Z"/>
         <path fill="none" stroke="rgb(0,0,0)" stroke-width="50" stroke-linejoin="round" d="M 9319,5848 C 9319,5851 9319,5854 9318,5858 9310,5967 9278,6058 9215,6148 9152,6239 9078,6301 8979,6348 8879,6395 8784,6413 8673,6404 8562,6395 8471,6363 8380,6301 8289,6240 8225,6167 8178,6068 8129,5969 8112,5874 8120,5765 L 8119,5772 C 8120,5768 8120,5764 8120,5760 8127,5680 8157,5614 8218,5548 8278,5483 8351,5438 8449,5406 8548,5372 8643,5362 8753,5370 8864,5379 8956,5404 9048,5452 9141,5500 9206,5555 9255,5629 9305,5703 9325,5773 9319,5852 9319,5855 9318,5857 9318,5860 L 9319,5848 Z"/>
          <path fill="rgb(0,0,0)" stroke="none" d="M 8642,5364 L 8724,5363 8808,5369 8826,5385 8842,5400 8857,5416 8871,5433 8883,5452 8896,5473 8906,5493 8916,5515 8924,5537 8930,5558 8936,5580 8939,5602 8940,5624 8941,5648 8940,5672 8937,5695 8933,5718 8928,5740 8922,5761 8913,5782 8903,5802 8892,5822 8879,5842 8866,5861 8850,5879 8835,5896 8819,5911 8802,5925 8783,5937 8763,5950 8742,5960 8720,5969 8698,5978 8677,5984 8655,5989 8633,5993 8611,5994 8588,5994 8564,5993 8540,5990 8517,5987 8495,5982 8474,5975 8453,5967 8433,5957 8413,5946 8393,5933 8374,5919 8356,5904 8339,5889 8324,5872 8311,5855 8298,5836 8286,5816 8275,5795 8266,5774 8257,5752 8251,5730 8247,5709 8242,5687 8241,5664 8241,5641 8242,5617 8245,5593 8248,5571 8253,5549 8261,5527 8268,5507 8278,5487 8290,5467 8397,5418 8499,5380 8581,5371 8642,5364 Z"/>
          <path fill="none" stroke="rgb(0,0,0)" stroke-width="20" stroke-linejoin="miter" d="M 8642,5364 L 8724,5363 8808,5369 8826,5385 8842,5400 8857,5416 8871,5433 8883,5452 8896,5473 8906,5493 8916,5515 8924,5537 8930,5558 8936,5580 8939,5602 8940,5624 8941,5648 8940,5672 8937,5695 8933,5718 8928,5740 8922,5761 8913,5782 8903,5802 8892,5822 8879,5842 8866,5861 8850,5879 8835,5896 8819,5911 8802,5925 8783,5937 8763,5950 8742,5960 8720,5969 8698,5978 8677,5984 8655,5989 8633,5993 8611,5994 8588,5994 8564,5993 8540,5990 8517,5987 8495,5982 8474,5975 8453,5967 8433,5957 8413,5946 8393,5933 8374,5919 8356,5904 8339,5889 8324,5872 8311,5855 8298,5836 8286,5816 8275,5795 8266,5774 8257,5752 8251,5730 8247,5709 8242,5687 8241,5664 8241,5641 8242,5617 8245,5593 8248,5571 8253,5549 8261,5527 8268,5507 8278,5487 8290,5467 8397,5418 8499,5380 8581,5371 8642,5364 Z"/>
          <path fill="rgb(255,255,255)" stroke="none" d="M 8738,5516 L 8744,5517 8750,5518 8755,5520 8761,5521 8766,5524 8771,5526 8776,5528 8782,5532 8787,5535 8791,5540 8795,5543 8800,5547 8803,5553 8806,5557 8810,5562 8812,5567 8815,5574 8817,5579 8818,5584 8820,5590 8820,5595 8821,5601 8821,5607 8821,5613 8820,5619 8819,5625 8818,5630 8816,5636 8814,5641 8811,5646 8809,5651 8805,5657 8802,5662 8798,5666 8794,5670 8790,5675 8785,5679 8780,5681 8775,5685 8770,5687 8764,5690 8759,5692 8752,5693 8747,5695 8741,5695 8736,5696 8730,5696 8724,5696 8718,5695 8712,5694 8706,5692 8701,5691 8696,5689 8691,5686 8686,5684 8680,5680 8675,5677 8671,5673 8667,5669 8662,5665 8659,5660 8656,5655 8652,5650 8650,5645 8647,5639 8646,5634 8644,5627 8643,5622 8642,5616 8641,5611 8641,5605 8641,5599 8642,5593 8643,5587 8645,5581 8646,5576 8649,5571 8651,5566 8653,5561 8657,5555 8660,5550 8665,5546 8668,5542 8672,5537 8678,5534 8682,5531 8687,5528 8692,5525 8699,5522 8704,5521 8709,5519 8715,5518 8720,5517 8726,5516 8732,5516 8738,5516 Z"/>
          <path fill="none" stroke="rgb(0,0,0)" stroke-width="20" stroke-linejoin="miter" d="M 8738,5516 L 8744,5517 8750,5518 8755,5520 8761,5521 8766,5524 8771,5526 8776,5528 8782,5532 8787,5535 8791,5540 8795,5543 8800,5547 8803,5553 8806,5557 8810,5562 8812,5567 8815,5574 8817,5579 8818,5584 8820,5590 8820,5595 8821,5601 8821,5607 8821,5613 8820,5619 8819,5625 8818,5630 8816,5636 8814,5641 8811,5646 8809,5651 8805,5657 8802,5662 8798,5666 8794,5670 8790,5675 8785,5679 8780,5681 8775,5685 8770,5687 8764,5690 8759,5692 8752,5693 8747,5695 8741,5695 8736,5696 8730,5696 8724,5696 8718,5695 8712,5694 8706,5692 8701,5691 8696,5689 8691,5686 8686,5684 8680,5680 8675,5677 8671,5673 8667,5669 8662,5665 8659,5660 8656,5655 8652,5650 8650,5645 8647,5639 8646,5634 8644,5627 8643,5622 8642,5616 8641,5611 8641,5605 8641,5599 8642,5593 8643,5587 8645,5581 8646,5576 8649,5571 8651,5566 8653,5561 8657,5555 8660,5550 8665,5546 8668,5542 8672,5537 8678,5534 8682,5531 8687,5528 8692,5525 8699,5522 8704,5521 8709,5519 8715,5518 8720,5517 8726,5516 8732,5516 8738,5516 Z"/>
          <path fill="rgb(255,255,255)" stroke="none" d="M 8480,5408 L 8486,5409 8492,5410 8497,5411 8502,5413 8507,5415 8513,5418 8518,5420 8524,5424 8528,5427 8533,5431 8537,5435 8542,5439 8545,5444 8548,5448 8551,5454 8554,5459 8557,5465 8558,5470 8560,5475 8561,5482 8562,5487 8562,5493 8563,5499 8562,5505 8562,5511 8561,5517 8559,5522 8558,5527 8555,5532 8553,5538 8550,5543 8547,5549 8544,5553 8539,5558 8536,5562 8532,5567 8526,5570 8522,5573 8517,5576 8512,5579 8505,5582 8500,5583 8494,5585 8489,5586 8483,5587 8478,5587 8472,5588 8466,5588 8460,5587 8454,5586 8448,5584 8443,5583 8437,5580 8432,5578 8428,5576 8422,5572 8417,5569 8412,5564 8409,5561 8404,5557 8400,5551 8398,5547 8394,5542 8391,5537 8389,5530 8387,5525 8386,5519 8384,5514 8384,5508 8383,5503 8383,5497 8383,5491 8383,5485 8385,5479 8386,5473 8388,5468 8390,5462 8393,5457 8395,5453 8398,5447 8402,5442 8406,5437 8410,5434 8414,5429 8419,5425 8423,5423 8429,5419 8434,5417 8440,5414 8445,5412 8450,5411 8457,5409 8462,5409 8468,5408 8474,5408 8480,5408 Z"/>
          <path fill="none" stroke="rgb(0,0,0)" stroke-width="20" stroke-linejoin="miter" d="M 8480,5408 L 8486,5409 8492,5410 8497,5411 8502,5413 8507,5415 8513,5418 8518,5420 8524,5424 8528,5427 8533,5431 8537,5435 8542,5439 8545,5444 8548,5448 8551,5454 8554,5459 8557,5465 8558,5470 8560,5475 8561,5482 8562,5487 8562,5493 8563,5499 8562,5505 8562,5511 8561,5517 8559,5522 8558,5527 8555,5532 8553,5538 8550,5543 8547,5549 8544,5553 8539,5558 8536,5562 8532,5567 8526,5570 8522,5573 8517,5576 8512,5579 8505,5582 8500,5583 8494,5585 8489,5586 8483,5587 8478,5587 8472,5588 8466,5588 8460,5587 8454,5586 8448,5584 8443,5583 8437,5580 8432,5578 8428,5576 8422,5572 8417,5569 8412,5564 8409,5561 8404,5557 8400,5551 8398,5547 8394,5542 8391,5537 8389,5530 8387,5525 8386,5519 8384,5514 8384,5508 8383,5503 8383,5497 8383,5491 8383,5485 8385,5479 8386,5473 8388,5468 8390,5462 8393,5457 8395,5453 8398,5447 8402,5442 8406,5437 8410,5434 8414,5429 8419,5425 8423,5423 8429,5419 8434,5417 8440,5414 8445,5412 8450,5411 8457,5409 8462,5409 8468,5408 8474,5408 8480,5408 Z"/>
      </g>
      </g>
         <g id="head_up2" style="display:none">
    <g id="hcontour_up2">
      <path class="line" d="M 8351,4457 L 7938,4870 7415,5148"/>
      <path class="line" d="M 7551,7400 C 7673,7398 8297,7473 8316,7473 9214,7902 9956,8023 10381,7576"/>
    </g>
    <path id="contour_up2" class="line" d="M 10372,7588 C 9502,9441 9557,11390 9590,12732"/>
      <g id="mane_up2">
        <path class="fill" d="M 7922,4813 C 8995,3887 9560,4404 10158,4328 10755,4253 11741,3557 11571,3499 L 11110,3343 C 10855,3226 10527,3215 10215,3212 9617,3286 8817,3343 7922,4813 Z"/>
        <path class="fill" d="M 12227,8133 C 10890,11830 12822,11792 13435,11562 12310,11299 12621,10852 12673,10147 Z"/>
        <path class="fill" d="M 12479,6957 C 12479,6957 11232,10842 13882,10203 13882,10203 12610,10197 13120,8788 Z"/>
        <path class="fill" d="M 12138,3769 C 13562,4487 13978,5819 13645,7165 13487,7889 13570,8766 14611,8627 14363,9320 12716,9410 12477,7102 12354,6086 12438,5501 12087,4800 Z"/>
      </g>
      <g class="Group" id="horn_up2">
         <path fill="rgb(255,47,0)" stroke="none" d="M 9148,2149 C 9266,2134 9337,1919 9297,1797 L 9229,1663 C 9172,1563 9211,1527 9103,1481 L 9059,1563 C 9044,1626 9060,1778 9069,1843 9084,1945 9076,2087 9148,2149 Z"/>
         <path fill="none" stroke="rgb(0,0,0)" stroke-width="50" stroke-linejoin="miter" d="M 9148,2149 C 9266,2134 9337,1919 9297,1797 L 9229,1663 C 9172,1563 9211,1527 9103,1481 L 9059,1563 C 9044,1626 9060,1778 9069,1843 9084,1945 9076,2087 9148,2149 Z"/>
         <path fill="rgb(255,153,0)" stroke="none" d="M 9175,2499 C 9373,2539 9490,2555 9526,2339 9539,2263 9528,2199 9510,2145 L 9446,2041 C 9439,2035 9403,2000 9403,2000 9136,2025 9146,2269 9175,2499 Z"/>
         <path fill="none" stroke="rgb(0,0,0)" stroke-width="50" stroke-linejoin="miter" d="M 9175,2499 C 9373,2539 9490,2555 9526,2339 9539,2263 9528,2199 9510,2145 L 9446,2041 C 9439,2035 9403,2000 9403,2000 9136,2025 9146,2269 9175,2499 Z"/>
         <path fill="rgb(255,255,0)" stroke="none" d="M 9379,2526 C 9331,2562 9267,2560 9239,2588 9214,2615 9196,2722 9204,2747 9251,2773 9200,2836 9217,2969 9305,2991 9373,2897 9458,2897 9502,2864 9531,2827 9574,2785 9622,2738 9646,2713 9676,2629 9682,2590 9673,2558 9669,2521 9597,2447 9635,2421 9578,2376 9514,2416 9490,2488 9406,2522 L 9379,2526 Z"/>
         <path fill="none" stroke="rgb(0,0,0)" stroke-width="50" stroke-linejoin="miter" d="M 9379,2526 C 9331,2562 9267,2560 9239,2588 9214,2615 9196,2722 9204,2747 9251,2773 9200,2836 9217,2969 9305,2991 9373,2897 9458,2897 9502,2864 9531,2827 9574,2785 9622,2738 9646,2713 9676,2629 9682,2590 9673,2558 9669,2521 9597,2447 9635,2421 9578,2376 9514,2416 9490,2488 9406,2522 L 9379,2526 Z"/>
         <path fill="rgb(72,246,57)" stroke="none" d="M 9383,3434 C 9578,3295 9462,3330 9664,3213 9668,3210 9674,3207 9677,3205 L 9702,3189 C 9786,3127 9840,3040 9878,2935 9908,2852 9907,2880 9888,2817 9879,2790 9878,2795 9864,2763 9862,2758 9850,2742 9851,2733 9852,2724 9847,2721 9844,2716 9749,2705 9832,2714 9769,2714 9749,2714 9783,2707 9733,2714 9673,2724 9648,2760 9601,2795 9397,2941 9245,2946 9197,3227 9169,3392 9220,3384 9383,3434 Z"/>
         <path fill="none" stroke="rgb(0,0,0)" stroke-width="50" stroke-linejoin="miter" d="M 9383,3434 C 9578,3295 9462,3330 9664,3213 9668,3210 9674,3207 9677,3205 L 9702,3189 C 9786,3127 9840,3040 9878,2935 9908,2852 9907,2880 9888,2817 9879,2790 9878,2795 9864,2763 9862,2758 9850,2742 9851,2733 9852,2724 9847,2721 9844,2716 9749,2705 9832,2714 9769,2714 9749,2714 9783,2707 9733,2714 9673,2724 9648,2760 9601,2795 9397,2941 9245,2946 9197,3227 9169,3392 9220,3384 9383,3434 Z"/>
         <path fill="rgb(171,65,127)" stroke="none" d="M 10101,3249 C 9996,3438 10270,3416 9788,3811 9756,3838 9110,4313 9350,4239 L 10532,3877 C 10617,3850 10281,3422 10171,3278 10154,3256 10105,3243 10101,3249 Z"/>
         <path fill="none" stroke="rgb(0,0,0)" stroke-width="50" stroke-linejoin="miter" d="M 10101,3249 C 9996,3438 10270,3416 9788,3811 9756,3838 9110,4313 9350,4239 L 10532,3877 C 10617,3850 10281,3422 10171,3278 10154,3256 10105,3243 10101,3249 Z"/>
         <path fill="rgb(106,247,242)" stroke="none" d="M 9850,3003 C 9821,3094 9680,3243 9618,3311 9538,3400 9315,3476 9289,3493 L 9282,3618 C 9323,3732 9311,4033 9346,4110 9421,4116 9619,3941 9683,3885 9746,3829 9891,3767 9999,3593 10047,3517 10091,3359 10102,3251 10082,3203 10073,3216 10054,3155 10036,3097 10048,3091 10017,3048 9952,3000 9991,2987 9923,2951 9883,2986 9908,2978 9850,3003 Z"/>
         <path fill="none" stroke="rgb(0,0,0)" stroke-width="50" stroke-linejoin="miter" d="M 9850,3003 C 9821,3094 9680,3243 9618,3311 9538,3400 9315,3476 9289,3493 L 9282,3618 C 9323,3732 9311,4033 9346,4110 9421,4116 9619,3941 9683,3885 9746,3829 9891,3767 9999,3593 10047,3517 10091,3359 10102,3251 10082,3203 10073,3216 10054,3155 10036,3097 10048,3091 10017,3048 9952,3000 9991,2987 9923,2951 9883,2986 9908,2978 9850,3003 Z"/>
         <path fill="none" stroke="rgb(0,0,0)" stroke-width="75" stroke-linejoin="miter" d="M 9026,1302 L 9337,4262 10538,3887 9026,1302 Z"/>
      </g>
      <g class="Group" id="ear_up2">
         <path fill="rgb(255,255,255)" stroke="none" d="M 11922,5362 C 12278,4236 12210,3358 11951,3004 11399,3100 10956,3954 10734,4540 Z"/>
         <path class="line" d="M 11922,5362 C 12278,4236 12210,3358 11951,3004 11399,3100 10956,3954 10734,4540"/>
         <path fill="rgb(245,177,181)" stroke="none" d="M 11042,4728 C 11176,4340 11366,3827 11725,3550 11896,3817 11715,4692 11576,5057 Z"/>
         <path class="line" d="M 11042,4728 C 11176,4340 11366,3827 11725,3550 11896,3817 11715,4692 11576,5057"/>
      </g>
      <g id="snout_up2">
	<path class="fill" d="M 7411,5149 C 5990,5634 6225,6743 6564,7127 6932,7153 7355,7255 7584,7089 7780,6377 7304,6312 7411,5149 Z"/>
	<path id="jowl_up2" class="fill" d="M 6745,7662 C 7054,7458 7369,7449 7559,7080 7558,7207 7608,7312 7646,7379 7442,7539 7075,7734 6731,7667 Z"/>
        <path fill="rgb(0,0,0)" stroke="rgb(0,0,0)" stroke-width="20" stroke-linejoin="miter" d="M 6940,5829 L 6941,5829 C 6968,5834 6989,5843 7010,5861 7030,5877 7045,5897 7054,5922 7064,5946 7066,5970 7062,5997 7057,6023 7048,6045 7030,6066 7014,6086 6994,6100 6969,6109 6944,6120 6921,6122 6894,6117 6868,6113 6846,6104 6825,6086 6805,6070 6791,6050 6782,6025 6771,6000 6769,5977 6773,5950 6778,5923 6787,5902 6805,5881 6821,5860 6841,5846 6866,5837 6891,5827 6913,5825 6940,5829 Z"/>
      </g>
      <g id="eye_up2">
         <path class="line" d="M 8597,5086 L 8448,4758"/>
         <path class="line" d="M 9008,5052 L 9072,4657"/>
         <path class="line" d="M 9387,5214 L 9633,4950"/>
         <path fill="rgb(142,248,245)" stroke="none" d="M 9016,4952 C 9352,5006 9567,5304 9513,5640 9458,5976 9160,6191 8824,6136 8489,6082 8274,5783 8328,5448 8383,5112 8681,4897 9016,4952 Z"/>
         <path fill="none" stroke="rgb(0,0,0)" stroke-width="50" stroke-linejoin="round" d="M 9016,4952 C 9352,5006 9567,5304 9513,5640 9458,5976 9160,6191 8824,6136 8489,6082 8274,5783 8328,5448 8383,5112 8681,4897 9016,4952 Z"/>
          <path fill="rgb(0,0,0)" stroke="none" d="M 8860,5027 C 8924,5038 8975,5061 9025,5102 9076,5142 9109,5188 9131,5249 9154,5309 9160,5365 9150,5429 9139,5493 9116,5544 9075,5594 9035,5644 8989,5677 8928,5700 8868,5723 8812,5729 8748,5718 8684,5708 8633,5685 8583,5644 8533,5603 8500,5558 8477,5497 8454,5437 8448,5381 8459,5317 8469,5253 8493,5202 8533,5152 8574,5102 8620,5068 8680,5046 8740,5023 8796,5017 8860,5027 Z"/>
          <path fill="none" stroke="rgb(0,0,0)" stroke-width="20" stroke-linejoin="miter" d="M 8860,5027 C 8924,5038 8975,5061 9025,5102 9076,5142 9109,5188 9131,5249 9154,5309 9160,5365 9150,5429 9139,5493 9116,5544 9075,5594 9035,5644 8989,5677 8928,5700 8868,5723 8812,5729 8748,5718 8684,5708 8633,5685 8583,5644 8533,5603 8500,5558 8477,5497 8454,5437 8448,5381 8459,5317 8469,5253 8493,5202 8533,5152 8574,5102 8620,5068 8680,5046 8740,5023 8796,5017 8860,5027 Z"/>
          <path fill="rgb(255,255,255)" stroke="none" d="M 8962,5258 C 8977,5260 8991,5266 9004,5277 9017,5287 9026,5300 9031,5315 9037,5331 9039,5344 9036,5361 9034,5377 9027,5390 9017,5403 9007,5416 8994,5425 8979,5431 8963,5436 8949,5438 8933,5435 8916,5433 8904,5427 8890,5416 8878,5406 8869,5394 8863,5378 8858,5362 8856,5348 8858,5332 8861,5315 8867,5303 8877,5290 8888,5277 8900,5268 8915,5262 8931,5257 8945,5255 8962,5258 Z"/>
          <path fill="none" stroke="rgb(0,0,0)" stroke-width="20" stroke-linejoin="miter" d="M 8962,5258 C 8977,5260 8991,5266 9004,5277 9017,5287 9026,5300 9031,5315 9037,5331 9039,5344 9036,5361 9034,5377 9027,5390 9017,5403 9007,5416 8994,5425 8979,5431 8963,5436 8949,5438 8933,5435 8916,5433 8904,5427 8890,5416 8878,5406 8869,5394 8863,5378 8858,5362 8856,5348 8858,5332 8861,5315 8867,5303 8877,5290 8888,5277 8900,5268 8915,5262 8931,5257 8945,5255 8962,5258 Z"/>
          <path fill="rgb(255,255,255)" stroke="none" d="M 8713,5128 C 8729,5131 8742,5137 8756,5147 8768,5157 8777,5170 8783,5185 8789,5201 8790,5215 8788,5231 8785,5247 8779,5260 8769,5274 8758,5287 8746,5296 8731,5301 8715,5307 8700,5308 8684,5306 8668,5303 8655,5297 8642,5287 8629,5277 8620,5264 8615,5249 8609,5233 8607,5218 8610,5203 8613,5186 8619,5174 8629,5160 8639,5148 8652,5139 8667,5133 8683,5127 8696,5125 8713,5128 Z"/>
          <path fill="none" stroke="rgb(0,0,0)" stroke-width="20" stroke-linejoin="miter" d="M 8713,5128 C 8729,5131 8742,5137 8756,5147 8768,5157 8777,5170 8783,5185 8789,5201 8790,5215 8788,5231 8785,5247 8779,5260 8769,5274 8758,5287 8746,5296 8731,5301 8715,5307 8700,5308 8684,5306 8668,5303 8655,5297 8642,5287 8629,5277 8620,5264 8615,5249 8609,5233 8607,5218 8610,5203 8613,5186 8619,5174 8629,5160 8639,5148 8652,5139 8667,5133 8683,5127 8696,5125 8713,5128 Z"/>
      </g>
      </g>
       <g id="head_up" style="display:none">
    <g id="hcontour_up">
      <path class="line" d="M 7837,5080 L 7495,5554 7024,5913"/>
      <path class="line" d="M 7519,8114 C 7639,8092 8267,8066 8286,8063 9241,8343 9993,8343 10341,7834"/>
    </g>
    <path id="contour_up" class="line" d="M 10341,7834 C 9502,9441 9557,11390 9590,12732"/>
      <g id="mane_up">
        <path class="fill" d="M 7471,5501 C 8381,4415 9022,4834 9600,4664 10177,4494 11039,3649 10862,3619 L 10382,3539 C 10111,3464 9786,3506 9477,3553 8899,3722 8118,3906 7471,5501 Z"/>
        <path class="fill" d="M 12252,8088 C 11525,11951 13426,11604 13994,11279 12841,11200 13077,10708 13015,10004 Z"/>
        <path class="fill" d="M 12312,6887 C 12312,6887 11704,10921 14217,9866 14217,9866 12961,10064 13238,8591 Z"/>
        <path class="fill" d="M 11465,3794 C 12985,4275 13609,5523 13496,6905 13457,7645 13679,8497 14684,8193 14551,8917 12939,9270 12333,7030 12049,6047 12038,5456 11580,4820 Z"/>
      </g>
      <g class="Group" id="horn_up">
         <path fill="rgb(255,47,0)" stroke="none" d="M 8254,2675 C 8368,2641 8403,2417 8344,2303 L 8256,2182 C 8183,2092 8216,2051 8102,2022 L 8072,2110 C 8067,2175 8107,2323 8127,2385 8158,2483 8173,2625 8254,2675 Z"/>
         <path fill="none" stroke="rgb(0,0,0)" stroke-width="50" stroke-linejoin="miter" d="M 8254,2675 C 8368,2641 8403,2417 8344,2303 L 8256,2182 C 8183,2092 8216,2051 8102,2022 L 8072,2110 C 8067,2175 8107,2323 8127,2385 8158,2483 8173,2625 8254,2675 Z"/>
         <path fill="rgb(255,153,0)" stroke="none" d="M 8336,3016 C 8538,3024 8656,3021 8657,2802 8658,2724 8637,2663 8610,2613 L 8530,2520 C 8523,2515 8482,2487 8482,2487 8222,2554 8271,2793 8336,3016 Z"/>
         <path fill="none" stroke="rgb(0,0,0)" stroke-width="50" stroke-linejoin="miter" d="M 8336,3016 C 8538,3024 8656,3021 8657,2802 8658,2724 8637,2663 8610,2613 L 8530,2520 C 8523,2515 8482,2487 8482,2487 8222,2554 8271,2793 8336,3016 Z"/>
         <path fill="rgb(255,255,0)" stroke="none" d="M 8542,3010 C 8500,3053 8437,3061 8414,3093 8394,3124 8393,3232 8405,3256 8455,3274 8415,3344 8453,3473 8544,3481 8596,3377 8679,3363 8718,3324 8740,3283 8776,3234 8816,3180 8836,3151 8852,3064 8851,3024 8837,2994 8828,2958 8745,2897 8778,2865 8715,2830 8658,2879 8646,2954 8568,3001 L 8542,3010 Z"/>
         <path fill="none" stroke="rgb(0,0,0)" stroke-width="50" stroke-linejoin="miter" d="M 8542,3010 C 8500,3053 8437,3061 8414,3093 8394,3124 8393,3232 8405,3256 8455,3274 8415,3344 8453,3473 8544,3481 8596,3377 8679,3363 8718,3324 8740,3283 8776,3234 8816,3180 8836,3151 8852,3064 8851,3024 8837,2994 8828,2958 8745,2897 8778,2865 8715,2830 8658,2879 8646,2954 8568,3001 L 8542,3010 Z"/>
         <path fill="rgb(72,246,57)" stroke="none" d="M 8692,3905 C 8862,3737 8753,3790 8934,3642 8937,3639 8942,3635 8945,3632 L 8967,3612 C 9040,3538 9079,3443 9100,3333 9117,3247 9120,3275 9091,3215 9078,3190 9078,3195 9059,3166 9056,3161 9042,3147 9041,3138 9041,3129 9035,3127 9032,3123 8936,3127 9019,3123 8957,3133 8937,3136 8970,3124 8922,3139 8864,3158 8845,3198 8804,3240 8626,3417 8477,3446 8475,3731 8474,3898 8523,3882 8692,3905 Z"/>
         <path fill="none" stroke="rgb(0,0,0)" stroke-width="50" stroke-linejoin="miter" d="M 8692,3905 C 8862,3737 8753,3790 8934,3642 8937,3639 8942,3635 8945,3632 L 8967,3612 C 9040,3538 9079,3443 9100,3333 9117,3247 9120,3275 9091,3215 9078,3190 9078,3195 9059,3166 9056,3161 9042,3147 9041,3138 9041,3129 9035,3127 9032,3123 8936,3127 9019,3123 8957,3133 8937,3136 8970,3124 8922,3139 8864,3158 8845,3198 8804,3240 8626,3417 8477,3446 8475,3731 8474,3898 8523,3882 8692,3905 Z"/>
         <path fill="rgb(171,65,127)" stroke="none" d="M 9371,3608 C 9297,3811 9564,3745 9152,4213 9124,4244 8563,4817 8788,4705 L 9897,4158 C 9976,4118 9576,3750 9444,3625 9424,3606 9374,3601 9371,3608 Z"/>
         <path fill="none" stroke="rgb(0,0,0)" stroke-width="50" stroke-linejoin="miter" d="M 9371,3608 C 9297,3811 9564,3745 9152,4213 9124,4244 8563,4817 8788,4705 L 9897,4158 C 9976,4118 9576,3750 9444,3625 9424,3606 9374,3601 9371,3608 Z"/>
         <path fill="rgb(106,247,242)" stroke="none" d="M 9083,3405 C 9069,3500 8954,3669 8904,3746 8839,3847 8631,3958 8608,3979 L 8621,4103 C 8680,4209 8716,4508 8763,4579 8838,4573 9006,4368 9060,4302 9113,4237 9246,4153 9325,3964 9360,3881 9378,3718 9372,3609 9344,3565 9338,3580 9309,3522 9282,3468 9293,3460 9256,3423 9184,3386 9220,3367 9147,3342 9113,3383 9137,3371 9083,3405 Z"/>
         <path fill="none" stroke="rgb(0,0,0)" stroke-width="50" stroke-linejoin="miter" d="M 9083,3405 C 9069,3500 8954,3669 8904,3746 8839,3847 8631,3958 8608,3979 L 8621,4103 C 8680,4209 8716,4508 8763,4579 8838,4573 9006,4368 9060,4302 9113,4237 9246,4153 9325,3964 9360,3881 9378,3718 9372,3609 9344,3565 9338,3580 9309,3522 9282,3468 9293,3460 9256,3423 9184,3386 9220,3367 9147,3342 9113,3383 9137,3371 9083,3405 Z"/>
         <path fill="none" stroke="rgb(0,0,0)" stroke-width="75" stroke-linejoin="miter" d="M 7997,1858 L 8779,4730 9904,4167 7997,1858 Z"/>
      </g>
      <g class="Group" id="ear_up">
         <path fill="rgb(255,255,255)" stroke="none" d="M 11507,5401 C 11678,4233 11470,3377 11157,3069 10628,3253 10328,4166 10202,4781 Z"/>
         <path class="line" d="M 11507,5401 C 11678,4233 11470,3377 11157,3069 10628,3253 10328,4166 10202,4781"/>
         <path fill="rgb(245,177,181)" stroke="none" d="M 10537,4917 C 10607,4512 10712,3975 11022,3644 11234,3881 11195,4773 11116,5156 Z"/>
         <path class="line" d="M 10537,4917 C 10607,4512 10712,3975 11022,3644 11234,3881 11195,4773 11116,5156"/>
      </g>
      <g id="snout_up">
	<path class="fill" d="M 7020,5914 C 5695,6621 6105,7678 6501,8002 6868,7969 7302,8002 7502,7801 7581,7067 7101,7079 7020,5914 Z" />
	<path id="jowl_up" class="fill" d="M 6501,8002 C 6868,7969 7302,8002 7502,7801 7473,7926 7500,8039 7522,8112 7294,8158 6808,8243 6501,8002 Z" />
	<path fill="rgb(0,0,0)" stroke="rgb(0,0,0)" stroke-width="20" stroke-linejoin="miter" d="M 6664,6661 L 6665,6661 C 6692,6661 6715,6667 6738,6681 6761,6694 6778,6711 6791,6734 6805,6757 6811,6780 6811,6807 6811,6834 6805,6857 6791,6880 6778,6903 6761,6920 6738,6933 6715,6947 6692,6953 6665,6953 6638,6953 6615,6947 6592,6933 6569,6920 6552,6903 6539,6880 6525,6857 6519,6834 6519,6807 6519,6780 6525,6757 6539,6734 6552,6711 6569,6694 6592,6681 6615,6667 6637,6661 6664,6661 Z"/>
      </g>
      <g class="Group" id="eye_up">
         <path fill="rgb(142,248,245)" stroke="none" d="M 9174,6056 C 9174,6059 9174,6062 9174,6066 9174,6175 9149,6268 9093,6363 9038,6458 8969,6526 8874,6580 8778,6635 8684,6660 8573,6660 8462,6660 8368,6635 8273,6580 8177,6526 8108,6458 8053,6363 7997,6268 7972,6175 7972,6066 L 7972,6073 C 7972,6069 8148,6136 8151,6137 8223,6170 8243,6173 8338,6215 8438,6234 8481,6258 8580,6240 8682,6233 8670,6243 8781,6218 8892,6193 8914,6165 8998,6132 9123,6065 9174,5980 9174,6060 9174,6063 9174,6065 9174,6068 L 9174,6056 Z"/>
         <path fill="none" stroke="rgb(0,0,0)" stroke-width="50" stroke-linejoin="round" d="M 9174,6056 C 9174,6059 9174,6062 9174,6066 9174,6175 9149,6268 9093,6363 9038,6458 8969,6526 8874,6580 8778,6635 8684,6660 8573,6660 8462,6660 8368,6635 8273,6580 8177,6526 8108,6458 8053,6363 7997,6268 7972,6175 7972,6066 L 7972,6073 C 7972,6069 8148,6136 8151,6137 8223,6170 8243,6173 8338,6215 8438,6234 8481,6258 8580,6240 8682,6233 8670,6243 8781,6218 8892,6193 8914,6165 8998,6132 9123,6065 9174,5980 9174,6060 9174,6063 9174,6065 9174,6068 L 9174,6056 Z"/>
         <path class="line" d="M 8157,6137 L 8082,6259"/>
         <path class="line" d="M 8577,6229 L 8582,6359"/>
         <path class="line" d="M 8995,6132 L 9082,6259"/>
      </g>
      </g>
        <g id="head_down" style="display:none">
    <g id="hcontour_down">
      <path class="line" d="M 7612,5429 L 7309,5929 6869,6325"/>
      <path class="line" d="M 7543,8479 C 7660,8447 8284,8370 8303,8365 9277,8566 10027,8505 10332,7969"/>
    </g>
    <path id="contour_down" class="line" d="M 10341,7976 C 9502,9441 9557,11390 9590,12732"/>
      <g id="mane_down">
        <path class="fill" d="M 7281,5878 C 8099,4722 8772,5087 9335,4870 9896,4654 10686,3741 10507,3726 L 10022,3685 C 9746,3632 9425,3701 9121,3773 8559,3989 7796,4236 7281,5878 Z"/>
        <path class="fill" d="M 12258,8066 C 11849,11976 13715,11474 14254,11104 13099,11119 13294,10610 13175,9913 Z"/>
        <path class="fill" d="M 12219,6864 C 12219,6864 11943,10934 14361,9678 14361,9678 13126,9977 13281,8487 Z"/>
        <path class="fill" d="M 11122,3851 C 12677,4206 13400,5399 13401,6785 13422,7526 13713,8357 14690,7972 14617,8704 13039,9188 12252,7005 11888,6048 11829,5460 11321,4864 Z"/>
      </g>
      <g class="Group" id="horn_down">
         <path fill="rgb(255,47,0)" stroke="none" d="M 7831,2998 C 7941,2955 7958,2729 7890,2620 L 7792,2506 C 7712,2423 7742,2379 7626,2359 L 7603,2450 C 7603,2515 7655,2659 7680,2719 7719,2814 7746,2955 7831,2998 Z"/>
         <path fill="none" stroke="rgb(0,0,0)" stroke-width="50" stroke-linejoin="miter" d="M 7831,2998 C 7941,2955 7958,2729 7890,2620 L 7792,2506 C 7712,2423 7742,2379 7626,2359 L 7603,2450 C 7603,2515 7655,2659 7680,2719 7719,2814 7746,2955 7831,2998 Z"/>
         <path fill="rgb(255,153,0)" stroke="none" d="M 7940,3331 C 8142,3322 8260,3310 8243,3091 8237,3014 8211,2955 8180,2907 L 8093,2821 C 8086,2816 8042,2792 8042,2792 7789,2880 7857,3114 7940,3331 Z"/>
         <path fill="none" stroke="rgb(0,0,0)" stroke-width="50" stroke-linejoin="miter" d="M 7940,3331 C 8142,3322 8260,3310 8243,3091 8237,3014 8211,2955 8180,2907 L 8093,2821 C 8086,2816 8042,2792 8042,2792 7789,2880 7857,3114 7940,3331 Z"/>
         <path fill="rgb(255,255,0)" stroke="none" d="M 8145,3308 C 8107,3354 8045,3368 8024,3401 8007,3434 8015,3542 8029,3565 8080,3578 8046,3651 8094,3777 8186,3777 8229,3670 8310,3649 8346,3607 8365,3564 8397,3512 8432,3455 8450,3425 8458,3337 8454,3297 8438,3268 8426,3233 8338,3179 8368,3144 8303,3115 8250,3168 8244,3244 8170,3297 L 8145,3308 Z"/>
         <path fill="none" stroke="rgb(0,0,0)" stroke-width="50" stroke-linejoin="miter" d="M 8145,3308 C 8107,3354 8045,3368 8024,3401 8007,3434 8015,3542 8029,3565 8080,3578 8046,3651 8094,3777 8186,3777 8229,3670 8310,3649 8346,3607 8365,3564 8397,3512 8432,3455 8450,3425 8458,3337 8454,3297 8438,3268 8426,3233 8338,3179 8368,3144 8303,3115 8250,3168 8244,3244 8170,3297 L 8145,3308 Z"/>
         <path fill="rgb(72,246,57)" stroke="none" d="M 8368,4188 C 8523,4007 8419,4068 8587,3906 8590,3903 8595,3898 8598,3895 L 8618,3873 C 8685,3794 8716,3696 8728,3584 8737,3497 8743,3525 8709,3468 8694,3444 8694,3449 8673,3421 8670,3417 8655,3404 8653,3395 8652,3386 8646,3384 8643,3381 8547,3393 8630,3382 8569,3397 8549,3401 8581,3387 8534,3406 8478,3429 8462,3471 8425,3516 8262,3707 8116,3748 8137,4032 8150,4199 8197,4179 8368,4188 Z"/>
         <path fill="none" stroke="rgb(0,0,0)" stroke-width="50" stroke-linejoin="miter" d="M 8368,4188 C 8523,4007 8419,4068 8587,3906 8590,3903 8595,3898 8598,3895 L 8618,3873 C 8685,3794 8716,3696 8728,3584 8737,3497 8743,3525 8709,3468 8694,3444 8694,3449 8673,3421 8670,3417 8655,3404 8653,3395 8652,3386 8646,3384 8643,3381 8547,3393 8630,3382 8569,3397 8549,3401 8581,3387 8534,3406 8478,3429 8462,3471 8425,3516 8262,3707 8116,3748 8137,4032 8150,4199 8197,4179 8368,4188 Z"/>
         <path fill="rgb(171,65,127)" stroke="none" d="M 9020,3836 C 8963,4045 9224,3957 8851,4457 8826,4490 8314,5107 8529,4977 L 9589,4342 C 9665,4295 9236,3961 9094,3847 9073,3830 9023,3829 9020,3836 Z"/>
         <path fill="none" stroke="rgb(0,0,0)" stroke-width="50" stroke-linejoin="miter" d="M 9020,3836 C 8963,4045 9224,3957 8851,4457 8826,4490 8314,5107 8529,4977 L 9589,4342 C 9665,4295 9236,3961 9094,3847 9073,3830 9023,3829 9020,3836 Z"/>
         <path fill="rgb(106,247,242)" stroke="none" d="M 8716,3658 C 8710,3753 8610,3931 8566,4012 8509,4118 8311,4246 8290,4269 L 8313,4391 C 8381,4492 8441,4787 8493,4854 8568,4842 8718,4624 8767,4554 8814,4484 8940,4390 9003,4195 9031,4109 9036,3945 9021,3837 8990,3796 8985,3811 8951,3756 8920,3704 8930,3695 8890,3661 8816,3630 8850,3609 8775,3590 8745,3633 8768,3619 8716,3658 Z"/>
         <path fill="none" stroke="rgb(0,0,0)" stroke-width="50" stroke-linejoin="miter" d="M 8716,3658 C 8710,3753 8610,3931 8566,4012 8509,4118 8311,4246 8290,4269 L 8313,4391 C 8381,4492 8441,4787 8493,4854 8568,4842 8718,4624 8767,4554 8814,4484 8940,4390 9003,4195 9031,4109 9036,3945 9021,3837 8990,3796 8985,3811 8951,3756 8920,3704 8930,3695 8890,3661 8816,3630 8850,3609 8775,3590 8745,3633 8768,3619 8716,3658 Z"/>
         <path fill="none" stroke="rgb(0,0,0)" stroke-width="75" stroke-linejoin="miter" d="M 7508,2205 L 8522,5003 9597,4350 7508,2205 Z"/>
      </g>
      <g class="Group" id="ear_down">
         <path fill="rgb(255,255,255)" stroke="none" d="M 11295,5449 C 11370,4271 11093,3435 10756,3153 10244,3380 10020,4314 9944,4938 Z"/>
         <path class="line" d="M 11295,5449 C 11370,4271 11093,3435 10756,3153 10244,3380 10020,4314 9944,4938"/>
         <path fill="rgb(245,177,181)" stroke="none" d="M 10289,5046 C 10326,4636 10387,4093 10669,3737 10899,3956 10933,4848 10886,5237 Z"/>
         <path class="line" d="M 10289,5046 C 10326,4636 10387,4093 10669,3737 10899,3956 10933,4848 10886,5237"/>
      </g>
      <g id="snout_down">
	<path class="fill" d="M 6865,6327 C 5603,7140 6098,8160 6519,8450 6882,8387 7317,8385 7500,8168 7519,7430 7041,7481 6865,6327 Z"/>
	<path id="jowl_down" class="fill" d="M 6684,8756 C 6992,8548 7306,8536 7492,8164 7492,8292 7544,8396 7582,8462 7380,8625 7016,8825 6671,8760 Z"/>
        <path fill="rgb(0,0,0)" stroke="rgb(0,0,0)" stroke-width="20" stroke-linejoin="miter" d="M 6572,7100 L 6573,7100 C 6600,7098 6623,7102 6647,7114 6671,7125 6689,7141 6704,7163 6720,7185 6728,7207 6730,7234 6732,7261 6728,7284 6716,7308 6705,7332 6689,7351 6668,7365 6646,7381 6623,7389 6597,7391 6570,7394 6546,7389 6522,7377 6498,7366 6480,7351 6465,7329 6449,7307 6441,7285 6439,7258 6437,7231 6441,7207 6453,7183 6464,7159 6480,7141 6502,7126 6523,7110 6545,7103 6572,7100 Z"/>
      </g>
        <g class="Group" id="eye2_down">
         <path class="line" d="M 8086,6816 L 7886,7100"/>
         <path class="line" d="M 8509,7349 L 8476,6950"/>
         <path class="line" d="M 8883,6750 L 9082,7000"/>
         <path class="line" d="M 9049,6326 C 9049,6329 9049,6331 9049,6334 9058,6444 9041,6540 8995,6640 8947,6740 8885,6814 8794,6878 8703,6940 8611,6973 8501,6982 8392,6992 8296,6974 8196,6928 8095,6880 8022,6818 7958,6727 7896,6638 7864,6549 7854,6441"/>
       </g>
       <g id="germs">
	 <path class="germ" d="M 6076,9171 C 5858,9376 5931,9426 5787,9528 5622,9626 5528,9548 5676,9408 5824,9264 5894,9306 6076,9171"/>
	 <path class="germ" d="M 5138,9170 C 4920,9375 4993,9425 4849,9527 4684,9625 4590,9547 4738,9407 4886,9263 4956,9305 5138,9170"/>
	 <path class="germ" d="M 4992,10070 C 4774,10275 4847,10325 4703,10427 4538,10525 4444,10447 4592,10307 4740,10163 4810,10205 4992,10070"/>
       </g>
    </g>
       <g id="germs2" style="display:none">
	 <path class="germ" d="M 4013,10784 C 3795,10989 3868,11039 3724,11141 3559,11239 3465,11161 3613,11021 3761,10877 3831,10919 4013,10784"/>
	 <path class="germ" d="M 3075,10783 C 2857,10988 2930,11038 2786,11140 2621,11238 2527,11160 2675,11020 2823,10876 2893,10918 3075,10783"/>
	 <path class="germ" d="M 2929,11683 C 2711,11888 2784,11938 2640,12040 2475,12138 2381,12060 2529,11920 2677,11776 2747,11818 2929,11683"/>
       </g>
       <g id="grass" onmouseover="eating()">
        <path class="grass" d="M 5118,17311 C 5117,16843 5814,14349 7352,11224 6442,13886 6044,17251 6044,17251 L 5110,17337 5118,17311 Z"/>
        <path class="grass" d="M 4667,17205 C 4668,16737 4121,14291 2271,11179 3360,13842 3741,17145 3741,17145 L 4675,17231 4667,17205 Z"/>
        <path class="grass" d="M 5992,17268 C 5991,16800 6538,14354 8388,11242 7299,13905 6918,17208 6918,17208 L 5984,17294 5992,17268 Z"/>
        <path class="grass" d="M 5436,17327 C 5437,16859 4740,14365 3202,11240 4112,13902 4510,17267 4510,17267 L 5444,17353 5436,17327 Z"/>
        <path id="eated_no" class="grass" d="M 5876,17308 C 5877,16840 5619,13914 4842,10706 5090,13468 4950,17248 4950,17248 L 5884,17334 5876,17308 Z"/>
	<!--
        <path id="eated" class="grass" d="M 5876,17308 C 5877,16840 5619,13914 5268,12673 L 4967,12690 C 5024,13468 4950,17248 4950,17248 L 5884,17334 5876,17308 Z"/>
	-->
        <path id="eated"    class="grass" style="display:none" d="M 5876,17308 C 5877,16840 5619,13914 5268,12673 5214,12678 5168,12685 5119,12683 5053,12694 5013,12686 4967,12690 5024,13468 4950,17248 4950,17248 L 5884,17334 5876,17308 Z"/>
        <path id="eated_t0" class="grass" style="display:none" d="M 5876,17308 C 5877,16840 5619,13914 5268,12673 5214,12678 5168,12685 5119,12683 5053,12694 5013,12686 4967,12690 5024,13468 4950,17248 4950,17248 L 5884,17334 5876,17308 Z"/>
        <path id="eated_t1" class="grass" style="display:none" d="M 5876,17308 C 5877,16840 5619,13914 5268,12673 5142,12020 5030,11501 4842,10706 4938,11841 4961,12376 4967,12690 5024,13468 4950,17248 4950,17248 L 5884,17334 5876,17308 Z"/>
	<g id="flower_down_2" style="display:none" transform-origin="5100 12680" transform="translate(0,2000) rotate(-150)">
          <path class="flower" d="M 4223,9737 C 4213,9682 4143,9568 4245,9519 4292,9472 4342,9499 4392,9453 4441,9409 4472,9351 4530,9326 4584,9302 4648,9304 4707,9288 4776,9269 4850,9346 4918,9355 4985,9363 5052,9343 5096,9399 5128,9440 5168,9481 5170,9541 5251,9837 4882,10648 4834,10705 4834,10705 4289,10200 4223,9737 Z"/>
          <path class="flower" d="M 4831,10694 C 4625,10439 3773,10523 3808,9693 4693,8878 4831,10694 4831,10694 Z"/>
          <path class="flower" d="M 4847,10695 C 4947,10383 5772,10155 5441,9393 4321,8952 4847,10695 4847,10695 Z"/>
	</g>
	<g id="flower_down">
	<g id="eated_and_flower" transform-origin="5100 12680">
          <path id="eated_2" class="grass" style="display:none" d="M 4967,12690 C 4961,12376 4938,11841 4842,10706 5030,11501 5142,12020 5268,12673 Z"/>
       <g id="flower" style="display:none" onmouseover="smell()" transform="scale(0.01)" transform-origin="4831 10694">
        <path class="flower" d="M 4223,9737 C 4213,9682 4143,9568 4245,9519 4292,9472 4342,9499 4392,9453 4441,9409 4472,9351 4530,9326 4584,9302 4648,9304 4707,9288 4776,9269 4850,9346 4918,9355 4985,9363 5052,9343 5096,9399 5128,9440 5168,9481 5170,9541 5251,9837 4882,10648 4834,10705 4834,10705 4289,10200 4223,9737 Z"/>
        <path id="petal_left" class="flower" d="M 4831,10694 C 4625,10439 3602,9525 4621,9257 4792,9274 4831,10694 4831,10694 Z"/>
        <path id="petal_left_t1" style="display:none" class="flower" d="M 4831,10694 C 4625,10439 3602,9525 4621,9257 4792,9274 4831,10694 4831,10694 Z"/>
        <path id="petal_left_t2" style="display:none" class="flower" d="M 4831,10694 C 4625,10439 3773,10523 3808,9693 4693,8878 4831,10694 4831,10694 Z"/>
        <path id="petal_right" class="flower" d="M 4847,10695 C 4947,10383 5687,9382 4760,9248 4486,9494 4847,10695 4847,10695 Z"/>
        <path id="petal_right_t1" style="display:none" class="flower" d="M 4847,10695 C 4947,10383 5687,9382 4760,9248 4486,9494 4847,10695 4847,10695 Z"/>
        <path id="petal_right_t2" style="display:none" class="flower" d="M 4847,10695 C 4947,10383 5772,10155 5441,9393 4321,8952 4847,10695 4847,10695 Z"/>
       </g>
	</g>
	</g>
	<path id="eated_2_t0" class="grass" style="display:none" d="M 4967,12690 C 5013,12686 5053,12694 5119,12683 5168,12685 5214,12678 5268,12673 Z"/>
	<path id="eated_2_t1" class="grass" style="display:none" d="M 4967,12690 C 4961,12376 4938,11841 4842,10706 5030,11501 5142,12020 5268,12673 Z"/>
       </g>
<script type="text/javascript">
  set_star(2)
// rotate_head(-50)
  // open_mouth()
</script>
</svg>
