<?xml version="1.0" encoding="UTF-8"?>
<!DOCTYPE svg PUBLIC "-//W3C//DTD SVG 1.1//EN" "http://www.w3.org/Graphics/SVG/1.1/DTD/svg11.dtd">
<svg version="1.2" width="250mm" height="200mm" viewBox="0 0 25000 20000"
     preserveAspectRatio="xMidYMid" fill-rule="evenodd" stroke-width="28.222" stroke-linejoin="round"
     xmlns="http://www.w3.org/2000/svg"
     xml:space="preserve">

      <g class="Group" id="eye_open" style="display:none" onclick="close_eye()">
         <path fill="rgb(0,0,0)" stroke="none" d="M 8484,5526 C 8564,5526 8632,5544 8701,5584 8770,5624 8820,5674 8860,5743 8900,5812 8918,5880 8918,5960 8918,6040 8900,6108 8860,6177 8820,6246 8770,6296 8701,6336 8632,6376 8564,6394 8484,6394 8404,6394 8336,6376 8267,6336 8198,6296 8148,6246 8108,6177 8068,6108 8050,6040 8050,5960 8050,5880 8068,5812 8108,5743 8148,5674 8198,5624 8267,5584 8336,5544 8404,5526 8484,5526 Z"/>
         <path fill="none" stroke="rgb(0,0,0)" stroke-width="20" stroke-linejoin="miter" d="M 8484,5526 C 8564,5526 8632,5544 8701,5584 8770,5624 8820,5674 8860,5743 8900,5812 8918,5880 8918,5960 8918,6040 8900,6108 8860,6177 8820,6246 8770,6296 8701,6336 8632,6376 8564,6394 8484,6394 8404,6394 8336,6376 8267,6336 8198,6296 8148,6246 8108,6177 8068,6108 8050,6040 8050,5960 8050,5880 8068,5812 8108,5743 8148,5674 8198,5624 8267,5584 8336,5544 8404,5526 8484,5526 Z"/>
         <path fill="rgb(255,255,255)" stroke="none" d="M 8654,5788 L 8653,5788 C 8674,5788 8691,5793 8709,5803 8727,5813 8740,5826 8750,5844 8760,5862 8765,5879 8765,5899 L 8765,5900 C 8765,5920 8760,5937 8750,5955 8740,5973 8727,5986 8709,5996 8691,6006 8674,6011 8654,6011 8633,6011 8616,6006 8598,5996 8580,5986 8567,5973 8557,5955 8547,5937 8542,5920 8542,5900 8542,5879 8547,5862 8557,5844 8567,5826 8580,5813 8598,5803 8616,5793 8633,5788 8653,5788 L 8654,5788 Z"/>
         <path fill="none" stroke="rgb(0,0,0)" stroke-width="20" stroke-linejoin="miter" d="M 8654,5788 L 8653,5788 C 8674,5788 8691,5793 8709,5803 8727,5813 8740,5826 8750,5844 8760,5862 8765,5879 8765,5899 L 8765,5900 C 8765,5920 8760,5937 8750,5955 8740,5973 8727,5986 8709,5996 8691,6006 8674,6011 8654,6011 8633,6011 8616,6006 8598,5996 8580,5986 8567,5973 8557,5955 8547,5937 8542,5920 8542,5900 8542,5879 8547,5862 8557,5844 8567,5826 8580,5813 8598,5803 8616,5793 8633,5788 8653,5788 L 8654,5788 Z"/>
         <path fill="rgb(255,255,255)" stroke="none" d="M 8324,5678 L 8323,5678 C 8344,5678 8361,5683 8379,5693 8397,5703 8410,5716 8420,5734 8430,5752 8435,5769 8435,5789 L 8435,5790 C 8435,5810 8430,5827 8420,5845 8410,5863 8397,5876 8379,5886 8361,5896 8344,5901 8324,5901 8303,5901 8286,5896 8268,5886 8250,5876 8237,5863 8227,5845 8217,5827 8212,5810 8212,5790 8212,5769 8217,5752 8227,5734 8237,5716 8250,5703 8268,5693 8286,5683 8303,5678 8323,5678 L 8324,5678 Z"/>
         <path fill="none" stroke="rgb(0,0,0)" stroke-width="20" stroke-linejoin="miter" d="M 8324,5678 L 8323,5678 C 8344,5678 8361,5683 8379,5693 8397,5703 8410,5716 8420,5734 8430,5752 8435,5769 8435,5789 L 8435,5790 C 8435,5810 8430,5827 8420,5845 8410,5863 8397,5876 8379,5886 8361,5896 8344,5901 8324,5901 8303,5901 8286,5896 8268,5886 8250,5876 8237,5863 8227,5845 8217,5827 8212,5810 8212,5790 8212,5769 8217,5752 8227,5734 8237,5716 8250,5703 8268,5693 8286,5683 8303,5678 8323,5678 L 8324,5678 Z"/>
         <path fill="none" stroke="rgb(0,0,0)" stroke-width="75" stroke-linejoin="miter" d="M 8778,5638 L 8952,5438"/>
         <path fill="none" stroke="rgb(0,0,0)" stroke-width="75" stroke-linejoin="miter" d="M 8508,5528 L 8524,5263"/>
         <path fill="none" stroke="rgb(0,0,0)" stroke-width="75" stroke-linejoin="miter" d="M 8223,5612 L 8049,5412"/>
      </g>
      <g class="Group" id="eye_close" style="display:none" onclick="open_eye()">
         <path fill="rgb(0,0,0)" stroke="none" d="M 8056,5970 C 8056,6050 8074,6118 8114,6187 8154,6256 8204,6306 8273,6346 8342,6386 8410,6404 8490,6404 8570,6404 8638,6386 8707,6346 8776,6306 8826,6256 8866,6187 8906,6118 8924,6050 8924,5970 L 8490,5970 8056,5970 Z"/>
         <path fill="none" stroke="rgb(0,0,0)" stroke-width="20" stroke-linejoin="miter" d="M 8056,5970 C 8056,6050 8074,6118 8114,6187 8154,6256 8204,6306 8273,6346 8342,6386 8410,6404 8490,6404 8570,6404 8638,6386 8707,6346 8776,6306 8826,6256 8866,6187 8906,6118 8924,6050 8924,5970 L 8490,5970 8056,5970 Z"/>
         <path fill="none" stroke="rgb(0,0,0)" stroke-width="75" stroke-linejoin="miter" d="M 8784,6292 L 8958,6492"/>
         <path fill="none" stroke="rgb(0,0,0)" stroke-width="75" stroke-linejoin="miter" d="M 8515,6401 L 8531,6666"/>
         <path fill="none" stroke="rgb(0,0,0)" stroke-width="75" stroke-linejoin="miter" d="M 8229,6318 L 8055,6518"/>
      </g>

      <g id="whitecircle" style="display:none">
         <path id="t0" class="clear" d="M 7973,6062 C 7973,5722 8233,5462 8573,5462 8913,5462 9173,5722 9173,6062" />
         <path id="t1" class="clear" d="M 7973,6062 C 7973,6402 8233,6662 8573,6662 8913,6662 9173,6402 9173,6062" />
      </g>
      <g class="Group" id="eye2_almost_open_1" style="display:none">
         <path class="line" d="M 8182,5862 L 7982,5562"/>
         <path class="line" d="M 8582,5762 L 8582,5362"/>
         <path class="line" d="M 8982,5862 L 9182,5562"/>
         <path fill="rgb(142,248,245)" stroke="none" d="M 9174,6059 C 9174,6062 9174,6065 9174,6069 9174,6178 9149,6271 9093,6366 9038,6461 8969,6529 8874,6583 8778,6638 8684,6663 8573,6663 8462,6663 8368,6638 8273,6583 8177,6529 8108,6461 8053,6366 7997,6271 7972,6178 7972,6069 L 7972,6076 C 7972,6072 7972,6068 7972,6064 7972,5983 7997,5915 8053,5845 8108,5775 8177,5725 8272,5685 8368,5644 8462,5626 8573,5626 8684,5626 8778,5644 8873,5685 8969,5725 9038,5775 9093,5845 9149,5915 9174,5983 9174,6063 9174,6066 9174,6068 9174,6071 L 9174,6059 Z"/>
         <path fill="none" stroke="rgb(0,0,0)" stroke-width="50" stroke-linejoin="round" d="M 9174,6059 C 9174,6062 9174,6065 9174,6069 9174,6178 9149,6271 9093,6366 9038,6461 8969,6529 8874,6583 8778,6638 8684,6663 8573,6663 8462,6663 8368,6638 8273,6583 8177,6529 8108,6461 8053,6366 7997,6271 7972,6178 7972,6069 L 7972,6076 C 7972,6072 7972,6068 7972,6064 7972,5983 7997,5915 8053,5845 8108,5775 8177,5725 8272,5685 8368,5644 8462,5626 8573,5626 8684,5626 8778,5644 8873,5685 8969,5725 9038,5775 9093,5845 9149,5915 9174,5983 9174,6063 9174,6066 9174,6068 9174,6071 L 9174,6059 Z"/>
          <path fill="rgb(0,0,0)" stroke="none" d="M 8461,5629 L 8543,5621 8627,5621 8646,5635 8664,5649 8680,5664 8695,5680 8709,5698 8723,5717 8735,5737 8746,5758 8756,5779 8764,5800 8771,5821 8776,5843 8779,5865 8781,5888 8782,5912 8781,5936 8779,5959 8776,5981 8771,6003 8764,6024 8756,6045 8746,6066 8735,6087 8723,6107 8709,6126 8695,6144 8680,6160 8664,6175 8646,6189 8627,6203 8607,6215 8586,6226 8565,6236 8544,6244 8523,6251 8501,6256 8479,6259 8456,6261 8432,6262 8408,6261 8385,6259 8363,6256 8341,6251 8320,6244 8299,6236 8278,6226 8257,6215 8237,6203 8218,6189 8200,6175 8184,6160 8169,6144 8155,6126 8141,6107 8129,6087 8118,6066 8108,6045 8100,6024 8094,6003 8088,5981 8085,5959 8083,5936 8082,5912 8083,5888 8085,5865 8088,5843 8094,5821 8100,5800 8108,5779 8118,5758 8221,5701 8320,5656 8401,5640 8461,5629 Z"/>
          <path fill="none" stroke="rgb(0,0,0)" stroke-width="20" stroke-linejoin="miter" d="M 8461,5629 L 8543,5621 8627,5621 8646,5635 8664,5649 8680,5664 8695,5680 8709,5698 8723,5717 8735,5737 8746,5758 8756,5779 8764,5800 8771,5821 8776,5843 8779,5865 8781,5888 8782,5912 8781,5936 8779,5959 8776,5981 8771,6003 8764,6024 8756,6045 8746,6066 8735,6087 8723,6107 8709,6126 8695,6144 8680,6160 8664,6175 8646,6189 8627,6203 8607,6215 8586,6226 8565,6236 8544,6244 8523,6251 8501,6256 8479,6259 8456,6261 8432,6262 8408,6261 8385,6259 8363,6256 8341,6251 8320,6244 8299,6236 8278,6226 8257,6215 8237,6203 8218,6189 8200,6175 8184,6160 8169,6144 8155,6126 8141,6107 8129,6087 8118,6066 8108,6045 8100,6024 8094,6003 8088,5981 8085,5959 8083,5936 8082,5912 8083,5888 8085,5865 8088,5843 8094,5821 8100,5800 8108,5779 8118,5758 8221,5701 8320,5656 8401,5640 8461,5629 Z"/>
          <path fill="rgb(255,255,255)" stroke="none" d="M 8569,5773 L 8575,5773 8581,5774 8586,5775 8592,5776 8597,5778 8603,5780 8608,5782 8614,5785 8619,5788 8624,5792 8628,5795 8633,5799 8637,5804 8640,5808 8644,5813 8647,5818 8650,5824 8652,5829 8654,5834 8656,5840 8657,5845 8658,5851 8659,5857 8659,5863 8659,5869 8658,5875 8657,5880 8656,5886 8654,5891 8652,5897 8650,5902 8647,5908 8644,5913 8640,5918 8637,5922 8633,5927 8628,5931 8624,5934 8619,5938 8614,5941 8608,5944 8603,5946 8597,5948 8592,5950 8586,5951 8581,5952 8575,5953 8569,5953 8563,5953 8557,5952 8551,5951 8546,5950 8540,5948 8535,5946 8530,5944 8524,5941 8519,5938 8514,5934 8510,5931 8505,5927 8501,5922 8498,5918 8494,5913 8491,5908 8488,5902 8486,5897 8484,5891 8482,5886 8481,5880 8480,5875 8479,5869 8479,5863 8479,5857 8480,5851 8481,5845 8482,5840 8484,5834 8486,5829 8488,5824 8491,5818 8494,5813 8498,5808 8501,5804 8505,5799 8510,5795 8514,5792 8519,5788 8524,5785 8530,5782 8535,5780 8540,5778 8546,5776 8551,5775 8557,5774 8563,5773 8569,5773 Z"/>
          <path fill="none" stroke="rgb(0,0,0)" stroke-width="20" stroke-linejoin="miter" d="M 8569,5773 L 8575,5773 8581,5774 8586,5775 8592,5776 8597,5778 8603,5780 8608,5782 8614,5785 8619,5788 8624,5792 8628,5795 8633,5799 8637,5804 8640,5808 8644,5813 8647,5818 8650,5824 8652,5829 8654,5834 8656,5840 8657,5845 8658,5851 8659,5857 8659,5863 8659,5869 8658,5875 8657,5880 8656,5886 8654,5891 8652,5897 8650,5902 8647,5908 8644,5913 8640,5918 8637,5922 8633,5927 8628,5931 8624,5934 8619,5938 8614,5941 8608,5944 8603,5946 8597,5948 8592,5950 8586,5951 8581,5952 8575,5953 8569,5953 8563,5953 8557,5952 8551,5951 8546,5950 8540,5948 8535,5946 8530,5944 8524,5941 8519,5938 8514,5934 8510,5931 8505,5927 8501,5922 8498,5918 8494,5913 8491,5908 8488,5902 8486,5897 8484,5891 8482,5886 8481,5880 8480,5875 8479,5869 8479,5863 8479,5857 8480,5851 8481,5845 8482,5840 8484,5834 8486,5829 8488,5824 8491,5818 8494,5813 8498,5808 8501,5804 8505,5799 8510,5795 8514,5792 8519,5788 8524,5785 8530,5782 8535,5780 8540,5778 8546,5776 8551,5775 8557,5774 8563,5773 8569,5773 Z"/>
          <path fill="rgb(255,255,255)" stroke="none" d="M 8303,5685 L 8309,5685 8315,5686 8320,5687 8326,5688 8331,5690 8337,5692 8342,5694 8348,5697 8353,5700 8358,5704 8362,5707 8367,5711 8371,5716 8374,5720 8378,5725 8381,5730 8384,5736 8386,5741 8388,5746 8390,5752 8391,5757 8392,5763 8393,5769 8393,5775 8393,5781 8392,5787 8391,5792 8390,5798 8388,5803 8386,5809 8384,5814 8381,5820 8378,5825 8374,5830 8371,5834 8367,5839 8362,5843 8358,5846 8353,5850 8348,5853 8342,5856 8337,5858 8331,5860 8326,5862 8320,5863 8315,5864 8309,5865 8303,5865 8297,5865 8291,5864 8285,5863 8280,5862 8274,5860 8269,5858 8264,5856 8258,5853 8253,5850 8248,5846 8244,5843 8239,5839 8235,5834 8232,5830 8228,5825 8225,5820 8222,5814 8220,5809 8218,5803 8216,5798 8215,5792 8214,5787 8213,5781 8213,5775 8213,5769 8214,5763 8215,5757 8216,5752 8218,5746 8220,5741 8222,5736 8225,5730 8228,5725 8232,5720 8235,5716 8239,5711 8244,5707 8248,5704 8253,5700 8258,5697 8264,5694 8269,5692 8274,5690 8280,5688 8285,5687 8291,5686 8297,5685 8303,5685 Z"/>
          <path fill="none" stroke="rgb(0,0,0)" stroke-width="20" stroke-linejoin="miter" d="M 8303,5685 L 8309,5685 8315,5686 8320,5687 8326,5688 8331,5690 8337,5692 8342,5694 8348,5697 8353,5700 8358,5704 8362,5707 8367,5711 8371,5716 8374,5720 8378,5725 8381,5730 8384,5736 8386,5741 8388,5746 8390,5752 8391,5757 8392,5763 8393,5769 8393,5775 8393,5781 8392,5787 8391,5792 8390,5798 8388,5803 8386,5809 8384,5814 8381,5820 8378,5825 8374,5830 8371,5834 8367,5839 8362,5843 8358,5846 8353,5850 8348,5853 8342,5856 8337,5858 8331,5860 8326,5862 8320,5863 8315,5864 8309,5865 8303,5865 8297,5865 8291,5864 8285,5863 8280,5862 8274,5860 8269,5858 8264,5856 8258,5853 8253,5850 8248,5846 8244,5843 8239,5839 8235,5834 8232,5830 8228,5825 8225,5820 8222,5814 8220,5809 8218,5803 8216,5798 8215,5792 8214,5787 8213,5781 8213,5775 8213,5769 8214,5763 8215,5757 8216,5752 8218,5746 8220,5741 8222,5736 8225,5730 8228,5725 8232,5720 8235,5716 8239,5711 8244,5707 8248,5704 8253,5700 8258,5697 8264,5694 8269,5692 8274,5690 8280,5688 8285,5687 8291,5686 8297,5685 8303,5685 Z"/>
      </g>
      <g id="eye2_almost_open_2" style="display:none">
         <path id="eyelash1_a" class="line" d="M 8282,6058 L 8082,5758"/>
         <path id="eyelash2_a" class="line" d="M 8582,6058 L 8582,5658"/>
         <path id="eyelash3_a" class="line" d="M 8882,6058 L 9082,5758"/>
         <path fill="rgb(0,0,0)" stroke="none" d="M 8696,5842 L 8779,5861 8781,5884 8782,5908 8781,5932 8779,5955 8776,5977 8771,5999 8764,6020 8756,6041 8746,6062 8735,6083 8723,6103 8709,6122 8695,6140 8680,6156 8664,6171 8646,6185 8627,6199 8607,6211 8586,6222 8565,6232 8544,6240 8523,6247 8501,6252 8479,6255 8456,6257 8432,6258 8408,6257 8385,6255 8363,6252 8341,6247 8320,6240 8299,6232 8278,6222 8257,6211 8237,6199 8218,6185 8200,6171 8184,6156 8169,6140 8155,6122 8141,6103 8129,6083 8118,6062 8108,6041 8100,6020 8094,5999 8088,5977 8085,5955 8083,5932 8082,5908 8172,5881 8297,5856 8435,5842 8608,5828 8696,5842 Z"/>
         <path fill="none" stroke="rgb(0,0,0)" stroke-width="20" stroke-linejoin="miter" d="M 8696,5842 L 8779,5861 8781,5884 8782,5908 8781,5932 8779,5955 8776,5977 8771,5999 8764,6020 8756,6041 8746,6062 8735,6083 8723,6103 8709,6122 8695,6140 8680,6156 8664,6171 8646,6185 8627,6199 8607,6211 8586,6222 8565,6232 8544,6240 8523,6247 8501,6252 8479,6255 8456,6257 8432,6258 8408,6257 8385,6255 8363,6252 8341,6247 8320,6240 8299,6232 8278,6222 8257,6211 8237,6199 8218,6185 8200,6171 8184,6156 8169,6140 8155,6122 8141,6103 8129,6083 8118,6062 8108,6041 8100,6020 8094,5999 8088,5977 8085,5955 8083,5932 8082,5908 8172,5881 8297,5856 8435,5842 8608,5828 8696,5842 Z"/>
         <path fill="rgb(255,255,255)" stroke="none" d="M 8567,5815 L 8614,5814 8650,5820 8652,5825 8654,5830 8656,5836 8657,5841 8658,5847 8659,5853 8659,5859 8659,5865 8658,5871 8657,5876 8656,5882 8654,5887 8652,5893 8650,5898 8647,5904 8644,5909 8640,5914 8637,5918 8633,5923 8628,5927 8624,5930 8619,5934 8614,5937 8608,5940 8603,5942 8597,5944 8592,5946 8586,5947 8581,5948 8575,5949 8569,5949 8563,5949 8557,5948 8551,5947 8546,5946 8540,5944 8535,5942 8530,5940 8524,5937 8519,5934 8514,5930 8510,5927 8505,5923 8501,5918 8498,5914 8494,5909 8491,5904 8488,5898 8486,5893 8484,5887 8482,5882 8481,5876 8480,5871 8479,5865 8479,5859 8479,5853 8480,5847 8481,5841 8482,5836 8484,5830 8486,5825 8521,5820 8567,5815 Z"/>
         <path fill="none" stroke="rgb(0,0,0)" stroke-width="20" stroke-linejoin="miter" d="M 8567,5815 L 8614,5814 8650,5820 8652,5825 8654,5830 8656,5836 8657,5841 8658,5847 8659,5853 8659,5859 8659,5865 8658,5871 8657,5876 8656,5882 8654,5887 8652,5893 8650,5898 8647,5904 8644,5909 8640,5914 8637,5918 8633,5923 8628,5927 8624,5930 8619,5934 8614,5937 8608,5940 8603,5942 8597,5944 8592,5946 8586,5947 8581,5948 8575,5949 8569,5949 8563,5949 8557,5948 8551,5947 8546,5946 8540,5944 8535,5942 8530,5940 8524,5937 8519,5934 8514,5930 8510,5927 8505,5923 8501,5918 8498,5914 8494,5909 8491,5904 8488,5898 8486,5893 8484,5887 8482,5882 8481,5876 8480,5871 8479,5865 8479,5859 8479,5853 8480,5847 8481,5841 8482,5836 8484,5830 8486,5825 8521,5820 8567,5815 Z"/>
      </g>
      <g class="Group" id="eye2_almost_close_1" style="display:none">
         <path fill="rgb(142,248,245)" stroke="none" d="M 9174,6056 C 9174,6059 9174,6062 9174,6066 9174,6175 9149,6268 9093,6363 9038,6458 8969,6526 8874,6580 8778,6635 8684,6660 8573,6660 8462,6660 8368,6635 8273,6580 8177,6526 8108,6458 8053,6363 7997,6268 7972,6175 7972,6066 L 7972,6073 C 7972,6069 8148,6136 8151,6137 8223,6170 8243,6173 8338,6215 8438,6234 8481,6258 8580,6240 8682,6233 8670,6243 8781,6218 8892,6193 8914,6165 8998,6132 9123,6065 9174,5980 9174,6060 9174,6063 9174,6065 9174,6068 L 9174,6056 Z"/>
         <path fill="none" stroke="rgb(0,0,0)" stroke-width="50" stroke-linejoin="round" d="M 9174,6056 C 9174,6059 9174,6062 9174,6066 9174,6175 9149,6268 9093,6363 9038,6458 8969,6526 8874,6580 8778,6635 8684,6660 8573,6660 8462,6660 8368,6635 8273,6580 8177,6526 8108,6458 8053,6363 7997,6268 7972,6175 7972,6066 L 7972,6073 C 7972,6069 8148,6136 8151,6137 8223,6170 8243,6173 8338,6215 8438,6234 8481,6258 8580,6240 8682,6233 8670,6243 8781,6218 8892,6193 8914,6165 8998,6132 9123,6065 9174,5980 9174,6060 9174,6063 9174,6065 9174,6068 L 9174,6056 Z"/>
         <path class="line" d="M 8157,6137 L 8082,6259"/>
         <path class="line" d="M 8577,6229 L 8582,6359"/>
         <path class="line" d="M 8995,6132 L 9082,6259"/>
      </g>
      <g class="Group" id="eye2_almost_close_2" style="display:none">
         <path fill="rgb(142,248,245)" stroke="none" d="M 9174,6060 C 9174,6063 9174,6066 9174,6070 9174,6179 9149,6272 9093,6367 9038,6462 8969,6530 8874,6584 8778,6639 8684,6664 8573,6664 8462,6664 8368,6639 8273,6584 8177,6530 8108,6462 8053,6367 7997,6272 7972,6179 7972,6070 L 7972,6077 C 7972,6073 8113,6236 8116,6237 8185,6288 8235,6361 8326,6407 8421,6438 8476,6469 8573,6478 8675,6471 8745,6448 8846,6387 8947,6326 8963,6304 9033,6191 9137,6063 9174,5984 9174,6064 9174,6067 9174,6069 9174,6072 L 9174,6060 Z"/>
         <path fill="none" stroke="rgb(0,0,0)" stroke-width="50" stroke-linejoin="round" d="M 9174,6060 C 9174,6063 9174,6066 9174,6070 9174,6179 9149,6272 9093,6367 9038,6462 8969,6530 8874,6584 8778,6639 8684,6664 8573,6664 8462,6664 8368,6639 8273,6584 8177,6530 8108,6462 8053,6367 7997,6272 7972,6179 7972,6070 L 7972,6077 C 7972,6073 8113,6236 8116,6237 8185,6288 8235,6361 8326,6407 8421,6438 8476,6469 8573,6478 8675,6471 8745,6448 8846,6387 8947,6326 8963,6304 9033,6191 9137,6063 9174,5984 9174,6064 9174,6067 9174,6069 9174,6072 L 9174,6060 Z"/>
         <path class="line" d="M 8154,6253 L 8077,6467"/>
         <path class="line" d="M 8573,6473 L 8577,6738"/>
         <path class="line" d="M 8995,6236 L 9104,6416"/>
      </g>
      <g class="Group" id="eye2_close" style="display:none">
         <path id="eyelash1_c" class="line" d="M 8149,6523 L 7978,6766"/>
         <path id="eyelash2_c" class="line" d="M 8578,7066 L 8578,6718"/>
         <path id="eyelash3_c" class="line" d="M 9027,6559 L 9178,6766"/>
         <path id="eye2_close_contour" class="line" d="M 9201,6092 C 9201,6095 9201,6097 9201,6100 9201,6210 9176,6304 9121,6400 9065,6496 8997,6564 8901,6620 8805,6675 8711,6700 8601,6700 8491,6700 8397,6675 8301,6620 8205,6564 8137,6496 8081,6400 8027,6306 8002,6215 8001,6107"/>
      </g>
 <g id="eye2_right" style="display:none" >
         <path class="line" d="M 8181,5662 L 7981,5362"/>
         <path class="line" d="M 8581,5562 L 8581,5162"/>
         <path class="line" d="M 8981,5662 L 9181,5362"/>
         <path fill="rgb(142,248,245)" stroke="none" d="M 8573,5462 C 8913,5462 9173,5722 9173,6062 9173,6402 8913,6662 8573,6662 8233,6662 7973,6402 7973,6062 7973,5722 8233,5462 8573,5462 Z"/>
         <path fill="none" stroke="rgb(0,0,0)" stroke-width="50" stroke-linejoin="round" d="M 8573,5462 C 8913,5462 9173,5722 9173,6062 9173,6402 8913,6662 8573,6662 8233,6662 7973,6402 7973,6062 7973,5722 8233,5462 8573,5462 Z"/>
          <path fill="rgb(0,0,0)" stroke="none" d="M 8531,5562 C 8596,5562 8650,5577 8706,5609 8762,5641 8802,5681 8834,5737 8866,5793 8881,5847 8881,5912 8881,5977 8866,6031 8834,6087 8802,6143 8762,6183 8706,6215 8650,6247 8596,6262 8531,6262 8466,6262 8412,6247 8356,6215 8300,6183 8260,6143 8228,6087 8196,6031 8181,5977 8181,5912 8181,5847 8196,5793 8228,5737 8260,5681 8300,5641 8356,5609 8412,5577 8466,5562 8531,5562 Z"/>
          <path fill="none" stroke="rgb(0,0,0)" stroke-width="20" stroke-linejoin="miter" d="M 8531,5562 C 8596,5562 8650,5577 8706,5609 8762,5641 8802,5681 8834,5737 8866,5793 8881,5847 8881,5912 8881,5977 8866,6031 8834,6087 8802,6143 8762,6183 8706,6215 8650,6247 8596,6262 8531,6262 8466,6262 8412,6247 8356,6215 8300,6183 8260,6143 8228,6087 8196,6031 8181,5977 8181,5912 8181,5847 8196,5793 8228,5737 8260,5681 8300,5641 8356,5609 8412,5577 8466,5562 8531,5562 Z"/>
          <path fill="rgb(255,255,255)" stroke="none" d="M 8668,5773 C 8684,5773 8698,5777 8713,5785 8727,5793 8738,5804 8746,5818 8754,5833 8758,5846 8758,5863 8758,5879 8754,5893 8746,5908 8738,5922 8727,5933 8713,5941 8698,5949 8684,5953 8668,5953 8651,5953 8638,5949 8623,5941 8609,5933 8598,5922 8590,5908 8582,5893 8578,5879 8578,5863 8578,5846 8582,5833 8590,5818 8598,5804 8609,5793 8623,5785 8638,5777 8651,5773 8668,5773 Z"/>
          <path fill="none" stroke="rgb(0,0,0)" stroke-width="20" stroke-linejoin="miter" d="M 8668,5773 C 8684,5773 8698,5777 8713,5785 8727,5793 8738,5804 8746,5818 8754,5833 8758,5846 8758,5863 8758,5879 8754,5893 8746,5908 8738,5922 8727,5933 8713,5941 8698,5949 8684,5953 8668,5953 8651,5953 8638,5949 8623,5941 8609,5933 8598,5922 8590,5908 8582,5893 8578,5879 8578,5863 8578,5846 8582,5833 8590,5818 8598,5804 8609,5793 8623,5785 8638,5777 8651,5773 8668,5773 Z"/>
          <path fill="rgb(255,255,255)" stroke="none" d="M 8402,5685 C 8418,5685 8432,5689 8447,5697 8461,5705 8472,5716 8480,5730 8488,5745 8492,5758 8492,5775 8492,5791 8488,5805 8480,5820 8472,5834 8461,5845 8447,5853 8432,5861 8418,5865 8402,5865 8385,5865 8372,5861 8357,5853 8343,5845 8332,5834 8324,5820 8316,5805 8312,5791 8312,5775 8312,5758 8316,5745 8324,5730 8332,5716 8343,5705 8357,5697 8372,5689 8385,5685 8402,5685 Z"/>
          <path fill="none" stroke="rgb(0,0,0)" stroke-width="20" stroke-linejoin="miter" d="M 8402,5685 C 8418,5685 8432,5689 8447,5697 8461,5705 8472,5716 8480,5730 8488,5745 8492,5758 8492,5775 8492,5791 8488,5805 8480,5820 8472,5834 8461,5845 8447,5853 8432,5861 8418,5865 8402,5865 8385,5865 8372,5861 8357,5853 8343,5845 8332,5834 8324,5820 8316,5805 8312,5791 8312,5775 8312,5758 8316,5745 8324,5730 8332,5716 8343,5705 8357,5697 8372,5689 8385,5685 8402,5685 Z"/>
 </g>
      <g id="eye2_right2" style="display:none">
        <path class="line" d="M 8185,5657 L 7985,5357"/>
        <path class="line" d="M 8585,5557 L 8585,5157"/>
        <path class="line" d="M 8985,5657 L 9185,5357"/>
        <path fill="rgb(142,248,245)" stroke="none" d="M 8577,5457 C 8917,5457 9177,5717 9177,6057 9177,6397 8917,6657 8577,6657 8237,6657 7977,6397 7977,6057 7977,5717 8237,5457 8577,5457 Z"/>
        <path fill="none" stroke="rgb(0,0,0)" stroke-width="50" stroke-linejoin="round" d="M 8577,5457 C 8917,5457 9177,5717 9177,6057 9177,6397 8917,6657 8577,6657 8237,6657 7977,6397 7977,6057 7977,5717 8237,5457 8577,5457 Z"/>
         <path fill="rgb(0,0,0)" stroke="none" d="M 8635,5557 C 8700,5557 8754,5572 8810,5604 8866,5636 8906,5676 8938,5732 8970,5788 8985,5842 8985,5907 8985,5972 8970,6026 8938,6082 8906,6138 8866,6178 8810,6210 8754,6242 8700,6257 8635,6257 8570,6257 8516,6242 8460,6210 8404,6178 8364,6138 8332,6082 8300,6026 8285,5972 8285,5907 8285,5842 8300,5788 8332,5732 8364,5676 8404,5636 8460,5604 8516,5572 8570,5557 8635,5557 Z"/>
         <path fill="none" stroke="rgb(0,0,0)" stroke-width="20" stroke-linejoin="miter" d="M 8635,5557 C 8700,5557 8754,5572 8810,5604 8866,5636 8906,5676 8938,5732 8970,5788 8985,5842 8985,5907 8985,5972 8970,6026 8938,6082 8906,6138 8866,6178 8810,6210 8754,6242 8700,6257 8635,6257 8570,6257 8516,6242 8460,6210 8404,6178 8364,6138 8332,6082 8300,6026 8285,5972 8285,5907 8285,5842 8300,5788 8332,5732 8364,5676 8404,5636 8460,5604 8516,5572 8570,5557 8635,5557 Z"/>
         <path fill="rgb(255,255,255)" stroke="none" d="M 8772,5768 C 8788,5768 8802,5772 8817,5780 8831,5788 8842,5799 8850,5813 8858,5828 8862,5841 8862,5858 8862,5874 8858,5888 8850,5903 8842,5917 8831,5928 8817,5936 8802,5944 8788,5948 8772,5948 8755,5948 8742,5944 8727,5936 8713,5928 8702,5917 8694,5903 8686,5888 8682,5874 8682,5858 8682,5841 8686,5828 8694,5813 8702,5799 8713,5788 8727,5780 8742,5772 8755,5768 8772,5768 Z"/>
         <path fill="none" stroke="rgb(0,0,0)" stroke-width="20" stroke-linejoin="miter" d="M 8772,5768 C 8788,5768 8802,5772 8817,5780 8831,5788 8842,5799 8850,5813 8858,5828 8862,5841 8862,5858 8862,5874 8858,5888 8850,5903 8842,5917 8831,5928 8817,5936 8802,5944 8788,5948 8772,5948 8755,5948 8742,5944 8727,5936 8713,5928 8702,5917 8694,5903 8686,5888 8682,5874 8682,5858 8682,5841 8686,5828 8694,5813 8702,5799 8713,5788 8727,5780 8742,5772 8755,5768 8772,5768 Z"/>
         <path fill="rgb(255,255,255)" stroke="none" d="M 8506,5680 C 8522,5680 8536,5684 8551,5692 8565,5700 8576,5711 8584,5725 8592,5740 8596,5753 8596,5770 8596,5786 8592,5800 8584,5815 8576,5829 8565,5840 8551,5848 8536,5856 8522,5860 8506,5860 8489,5860 8476,5856 8461,5848 8447,5840 8436,5829 8428,5815 8420,5800 8416,5786 8416,5770 8416,5753 8420,5740 8428,5725 8436,5711 8447,5700 8461,5692 8476,5684 8489,5680 8506,5680 Z"/>
         <path fill="none" stroke="rgb(0,0,0)" stroke-width="20" stroke-linejoin="miter" d="M 8506,5680 C 8522,5680 8536,5684 8551,5692 8565,5700 8576,5711 8584,5725 8592,5740 8596,5753 8596,5770 8596,5786 8592,5800 8584,5815 8576,5829 8565,5840 8551,5848 8536,5856 8522,5860 8506,5860 8489,5860 8476,5856 8461,5848 8447,5840 8436,5829 8428,5815 8420,5800 8416,5786 8416,5770 8416,5753 8420,5740 8428,5725 8436,5711 8447,5700 8461,5692 8476,5684 8489,5680 8506,5680 Z"/>
        </g>
      <g id="eye2_right3" style="display:none">
         <path class="line" d="M 8189,5652 L 7989,5352"/>
         <path class="line" d="M 8589,5552 L 8589,5152"/>
         <path class="line" d="M 8989,5652 L 9189,5352"/>
         <path fill="rgb(142,248,245)" stroke="none" d="M 8581,5452 C 8921,5452 9181,5712 9181,6052 9181,6392 8921,6652 8581,6652 8241,6652 7981,6392 7981,6052 7981,5712 8241,5452 8581,5452 Z"/>
         <path fill="none" stroke="rgb(0,0,0)" stroke-width="50" stroke-linejoin="round" d="M 8581,5452 C 8921,5452 9181,5712 9181,6052 9181,6392 8921,6652 8581,6652 8241,6652 7981,6392 7981,6052 7981,5712 8241,5452 8581,5452 Z"/>
          <path fill="rgb(0,0,0)" stroke="none" d="M 8739,5552 C 8804,5552 8858,5567 8914,5599 8970,5631 9010,5671 9042,5727 9074,5783 9089,5837 9089,5902 9089,5967 9074,6021 9042,6077 9010,6133 8970,6173 8914,6205 8858,6237 8804,6252 8739,6252 8674,6252 8620,6237 8564,6205 8508,6173 8468,6133 8436,6077 8404,6021 8389,5967 8389,5902 8389,5837 8404,5783 8436,5727 8468,5671 8508,5631 8564,5599 8620,5567 8674,5552 8739,5552 Z"/>
          <path fill="none" stroke="rgb(0,0,0)" stroke-width="20" stroke-linejoin="miter" d="M 8739,5552 C 8804,5552 8858,5567 8914,5599 8970,5631 9010,5671 9042,5727 9074,5783 9089,5837 9089,5902 9089,5967 9074,6021 9042,6077 9010,6133 8970,6173 8914,6205 8858,6237 8804,6252 8739,6252 8674,6252 8620,6237 8564,6205 8508,6173 8468,6133 8436,6077 8404,6021 8389,5967 8389,5902 8389,5837 8404,5783 8436,5727 8468,5671 8508,5631 8564,5599 8620,5567 8674,5552 8739,5552 Z"/>
          <path fill="rgb(255,255,255)" stroke="none" d="M 8876,5763 C 8892,5763 8906,5767 8921,5775 8935,5783 8946,5794 8954,5808 8962,5823 8966,5836 8966,5853 8966,5869 8962,5883 8954,5898 8946,5912 8935,5923 8921,5931 8906,5939 8892,5943 8876,5943 8859,5943 8846,5939 8831,5931 8817,5923 8806,5912 8798,5898 8790,5883 8786,5869 8786,5853 8786,5836 8790,5823 8798,5808 8806,5794 8817,5783 8831,5775 8846,5767 8859,5763 8876,5763 Z"/>
          <path fill="none" stroke="rgb(0,0,0)" stroke-width="20" stroke-linejoin="miter" d="M 8876,5763 C 8892,5763 8906,5767 8921,5775 8935,5783 8946,5794 8954,5808 8962,5823 8966,5836 8966,5853 8966,5869 8962,5883 8954,5898 8946,5912 8935,5923 8921,5931 8906,5939 8892,5943 8876,5943 8859,5943 8846,5939 8831,5931 8817,5923 8806,5912 8798,5898 8790,5883 8786,5869 8786,5853 8786,5836 8790,5823 8798,5808 8806,5794 8817,5783 8831,5775 8846,5767 8859,5763 8876,5763 Z"/>
          <path fill="rgb(255,255,255)" stroke="none" d="M 8610,5675 C 8626,5675 8640,5679 8655,5687 8669,5695 8680,5706 8688,5720 8696,5735 8700,5748 8700,5765 8700,5781 8696,5795 8688,5810 8680,5824 8669,5835 8655,5843 8640,5851 8626,5855 8610,5855 8593,5855 8580,5851 8565,5843 8551,5835 8540,5824 8532,5810 8524,5795 8520,5781 8520,5765 8520,5748 8524,5735 8532,5720 8540,5706 8551,5695 8565,5687 8580,5679 8593,5675 8610,5675 Z"/>
          <path fill="none" stroke="rgb(0,0,0)" stroke-width="20" stroke-linejoin="miter" d="M 8610,5675 C 8626,5675 8640,5679 8655,5687 8669,5695 8680,5706 8688,5720 8696,5735 8700,5748 8700,5765 8700,5781 8696,5795 8688,5810 8680,5824 8669,5835 8655,5843 8640,5851 8626,5855 8610,5855 8593,5855 8580,5851 8565,5843 8551,5835 8540,5824 8532,5810 8524,5795 8520,5781 8520,5765 8520,5748 8524,5735 8532,5720 8540,5706 8551,5695 8565,5687 8580,5679 8593,5675 8610,5675 Z"/>
      </g>

</svg>
